<svg xmlns="http://www.w3.org/2000/svg" width="269.46" height="462.649" viewBox="0 0 269.46 462.649"><g transform="translate(-1202.114 -1443.1)"><path d="M1354.669,1886.477c22.265,0,49.614,2.38,49.614,12.592,0,9.022-28.317,5.354-48.526,5.354-18.273,0-50.1,5.255-50.1-5.156C1305.658,1890.84,1332.886,1886.477,1354.669,1886.477Z" fill="#89a2b7" opacity="0.6"/><path d="M1299.956,1706.331c-.255.84,4.233,11.094,14.567,10.057-5.242,4.306-.32,11.528,7.255,12.493-7.779,2.406-5.7,8.523-2.26,12.653-8.422-1.23-12.152,8.364-6.171,13.026-3.776,7.635-12.536,10.7-25.127,11.776,4.022,3.853,17.633,2.349,17.633,2.349s-3.689,4.951-12.287,8.755c14.283.569,26.342-2.28,27.672-20.235,5.432.435,9.682-6.7,4.8-12.2,10.674-.218,11.826-13.755,3.7-16.971,9.4-6.354,8.563-19.971-3.287-19.994,10.967-11.074-3.628-26.245-14.254-25.632C1301.311,1684.291,1299.956,1706.331,1299.956,1706.331Z" fill="#292322"/><path d="M1312.328,1753.411s-4.868,3.4-2.3,6.6c3.41,4.612,9.669,3.4,9.669,3.4s3.311-1.3,2.193-6.341C1318.806,1757.15,1312.328,1753.411,1312.328,1753.411Z" fill="#ffb600"/><path d="M1410.521,1747.51s23.643,3.373,39.968,4.441c.977,3.062,4.619,5.14,9.477,5.732,3.31,1.486,5.815,1.933,6.126.541.318-1.437-3.487-2.789-4.385-3.259.165,0,5.006,1.149,6.093,1.327,2.518.411,3.227-1.939,1.127-2.691-1.765-.617-5.9-1.78-6.121-1.85.224-.009,5.389.448,6.335.55,2.809.292,3.528-2.781.322-3.188-2.18-.27-6.027-.609-6.346-.728.137-.1,3.033-.549,4.733-.935,2.789-.641,2.621-3.11-.64-2.936-2.579.14-8.869-.234-8.869-.234s2.57-3.031.64-4.366-6.06,4.828-6.06,4.828-23.649-3.946-40.847-6.624C1410.746,1739.944,1410.521,1747.51,1410.521,1747.51Z" fill="#fbc09c"/><path d="M1382.818,1823.584s10.8,30.286-2.357,58.465c-4.614.84-6.207-4.567-6.207-4.567s11.269-27.7.663-50.243C1377.046,1823.029,1382.818,1823.584,1382.818,1823.584Z" fill="#fbc09c"/><path d="M1386.4,1861.995a67.756,67.756,0,0,1-5.939,20.054c-4.614.84-6.207-4.567-6.207-4.567a102.2,102.2,0,0,0,3.873-16.146C1378.959,1862.644,1383.948,1864.12,1386.4,1861.995Z" fill="#004997"/><path d="M1373.194,1884.988c-1.029,1.91-1.288,5.735,3.025,9.989s9.362,7.321,16.454,5.47c5.966-1.553,2.883-8.2,2.883-8.2Z" fill="#fff"/><path d="M1374.473,1876.645c-1.519,1.316-2.851,8.693.4,11.986,3.235,3.288,9.024,9.257,17.53,7.569,6.667-1.322,2.706-7.183-.582-9.629s-9.421-9.042-9.421-9.042S1381.138,1881.121,1374.473,1876.645Z" fill="#292322"/><path d="M1377.411,1878.266c-.4-.351-1.268-3.8-.538-4.828,1.376-1.934,7.976-1.212,8.15-.04.3,2.016-1.762,4.85-1.762,4.85A5.767,5.767,0,0,1,1377.411,1878.266Z" fill="#fff"/><path d="M1385.279,1879.844c-2.524-.958-6.208.027-7.6,1.738a1.882,1.882,0,0,0,1.109,3.246c1.085-.01,4.319-1.269,7.886-1.456S1387.3,1880.6,1385.279,1879.844Z" fill="#fff"/><path d="M1389.667,1884.237c-2.525-.96-6.208.025-7.595,1.737a1.883,1.883,0,0,0,1.108,3.247c1.087-.009,4.321-1.269,7.886-1.456S1391.69,1884.991,1389.667,1884.237Z" fill="#fff"/><path d="M1354.453,1814.593s-13.6,29.138-42.757,39.947c-3.872-2.646-1.207-7.612-1.207-7.612s27.479-11.788,35.774-35.283C1350.736,1810.145,1354.453,1814.593,1354.453,1814.593Z" fill="#fbc09c"/><path d="M1329.593,1844.589a64.94,64.94,0,0,1-17.9,9.951c-3.872-2.646-1.207-7.612-1.207-7.612a102.518,102.518,0,0,0,14.1-8.767C1323.979,1840.071,1325.949,1843.823,1329.593,1844.589Z" fill="#004997"/><path d="M1304.463,1851.524c-2.076.635-4.948,3.177-4.868,9.233s1.519,11.788,7.864,15.455c5.337,3.083,7.814-3.811,7.814-3.811Z" fill="#fff"/><path d="M1311.233,1846.483c-2-.128-8.136,4.185-8.137,8.813s-.083,12.928,7.155,17.7c5.675,3.743,6.975-3.21,6.353-7.261s-.35-13.052-.35-13.052S1312.829,1854.355,1311.233,1846.483Z" fill="#292322"/><path d="M1312.186,1849.7c-.035-.529,1.767-3.6,3.009-3.815,2.335-.409,6.526,4.744,5.827,5.7-1.2,1.644-4.66,2.211-4.66,2.211A5.76,5.76,0,0,1,1312.186,1849.7Z" fill="#fff"/><path d="M1316.674,1856.356c-1.122-2.458-4.437-4.346-6.626-4.1a1.882,1.882,0,0,0-1.492,3.088c.78.754,3.967,2.134,6.634,4.5S1317.584,1858.313,1316.674,1856.356Z" fill="#fff"/><path d="M1316.709,1862.565c-1.12-2.456-4.435-4.345-6.624-4.1a1.881,1.881,0,0,0-1.491,3.087c.778.757,3.966,2.133,6.633,4.506S1317.62,1864.521,1316.709,1862.565Z" fill="#fff"/><path d="M1347.6,1734.358s6.669-1.779,10.953-3.517a42.055,42.055,0,0,0-1.419-9.469l8.155-1.659s1.385,7.292,1.577,10.25c6.138.952,14.337,1.658,14.337,1.658s5.982,18.352-15.015,19.607C1360.66,1751.561,1347.493,1743.005,1347.6,1734.358Z" fill="#fbc09c"/><path d="M1364.894,1723.656l-6.489,1.277a29.077,29.077,0,0,1,1.141,6.7c2.25-2.455,5.54-2.568,6.835-.439A56.765,56.765,0,0,0,1364.894,1723.656Z" fill="#f0ae84"/><path d="M1376.68,1731.331c8.929,23.026-29.174,25.617-29.708,3.127-14.1.545-15.005,15.666-9.32,21.351,2.973,7.989-21.472,61.931-22.518,63.851,0,0,55.1,28.123,95.739,4.406.012-.005-17.552-71.857-16.866-72.591a73.623,73.623,0,0,0,14.144-.032c.445-9.559-.441-16.325-2.682-19.2C1397.582,1731.494,1380.456,1731.124,1376.68,1731.331Z" fill="#004997"/><path d="M1317.777,1813.595c-1.46,3.465-2.45,5.709-2.643,6.065,0,0,55.1,28.123,95.739,4.406,0,0-.522-2.151-1.383-5.707C1373.5,1837.495,1327.4,1818.062,1317.777,1813.595Z" fill="#fff"/><path d="M1374.544,1730.474c1.407,6.589.636,15.347-9.47,15.57-8.909.194-12.748-4.228-12.945-13.071a32.066,32.066,0,0,0-6.05,1.5s.863,19.216,20.143,17.672c18.322-1.467,14.361-21.279,14.361-21.279Z" fill="#fff"/><path d="M1410.354,1732.822s2.523,12.277-.114,19.908a25.131,25.131,0,0,1-4.882.984s.958-12.567-1.162-21.695A29.553,29.553,0,0,1,1410.354,1732.822Z" fill="#083042"/><path d="M1407.467,1617.789c18.477-3.551,34.887-2.231,36.843,4.274,3.557,11.819-39.183,27.3-39.183,27.3Z" fill="#db1f0a"/><path d="M1280.056,1652.115c2.178-29.124,52.581-42.172,52.581-42.172s55-22.723,71.733,6.919c16.715.926,18.8,18.166,9.7,20.815,9.836.46,8.6,20.059-6.1,24.109,0,0-34.907,8.626-54.935,12.776-19.127,7.246-53.212,18.7-53.212,18.7-14.584,4.474-26.143-11.4-18.09-17.067C1272.621,1678.842,1269.154,1661.005,1280.056,1652.115Z" fill="#292322"/><path d="M1407.1,1659.974c8.876,30.521-9.031,57.764-38.421,66.311s-59.115-4.842-67.993-35.366,8.067-61.088,37.457-69.635S1398.222,1629.455,1407.1,1659.974Z" fill="#fbc09c"/><path d="M1405.041,1660.821s-1.087-6.407,6.079-9.662c7.559-3.426,13.984,5.875,11.741,13.372s-10.955,10.391-15.216,6.45Z" fill="#fbc09c"/><path d="M1413.514,1653.351c-5.388.784-6.539,11.1,1.9,13.47-5.011-5.361-3.066-8.413,1.59-6.6-.725-2.051-2.425-2.933-5.418-1.692C1410.923,1655.719,1413.514,1653.351,1413.514,1653.351Z" fill="#cf704e"/><path d="M1302.55,1690.651s-2.519-5.991-10.312-4.894c-8.22,1.162-8.65,12.459-2.742,17.582s14.819,2.9,16.3-2.714Z" fill="#fbc09c"/><path d="M1291.391,1688.891c4.97-2.229,11.472,5.862,5.619,12.389,1.354-7.212-1.927-8.743-4.881-4.719-.49-2.12.472-3.775,3.662-4.335C1294.846,1689.5,1291.391,1688.891,1291.391,1688.891Z" fill="#cf704e"/><path d="M1356.13,1672.15c.412,3.345-6.8,9.439-2.606,12.426,2.6,1.851,6.777-.026,5.367-4.868C1358.074,1676.9,1356.13,1672.15,1356.13,1672.15Z" fill="#e6503b"/><path d="M1378.346,1686.7c.913,3.138,6.4,4.3,12.265,2.594s9.872-5.633,8.958-8.771-6.4-4.3-12.266-2.594S1377.431,1683.559,1378.346,1686.7Z" fill="#e6503b"/><path d="M1318.069,1704.24c.913,3.139,6.4,4.3,12.265,2.593s9.871-5.632,8.957-8.77-6.4-4.3-12.265-2.594S1317.154,1701.1,1318.069,1704.24Z" fill="#e6503b"/><path d="M1344.024,1697.85c3.327-3.968,6.152-.074,15.4-2.8,9.442-2.782,9.431-7.711,15.009-5.514,4.552,1.793,6.126,19.026-9.408,23.387C1349.376,1717.308,1340.855,1701.625,1344.024,1697.85Z" fill="#491d1c"/><path d="M1374.7,1706.4a16.972,16.972,0,0,1-9.67,6.529,17.788,17.788,0,0,1-11.214-.279,35.2,35.2,0,0,1,10.255-4.627A34.536,34.536,0,0,1,1374.7,1706.4Z" fill="#e6503b"/><path d="M1345.317,1696.669c2.882-1.879,6.067.752,14.108-1.617,8.139-2.4,9.256-6.387,12.981-6.036,1.232,4.437-4.68,9.7-11.247,11.543C1354.651,1702.382,1346.537,1701.065,1345.317,1696.669Z" fill="#fff"/><path d="M1371.6,1665.3c-.46,5.707,3.534,10.689,8.923,11.128s10.134-3.839,10.594-9.548-3.536-10.691-8.921-11.131S1372.062,1659.59,1371.6,1665.3Z" fill="#fff"/><path d="M1375.342,1665.6a6.048,6.048,0,1,0,6.534-5.89A6.228,6.228,0,0,0,1375.342,1665.6Z" fill="#292322"/><path d="M1381.779,1664.16a1.766,1.766,0,1,0,1.127-2.316A1.815,1.815,0,0,0,1381.779,1664.16Z" fill="#fff"/><path d="M1378.041,1669.825a1.1,1.1,0,1,0,.7-1.431A1.128,1.128,0,0,0,1378.041,1669.825Z" fill="#fff"/><path d="M1390.2,1658.91s-10.076-6.522-18.564,2.728C1378.533,1647.729,1390.2,1658.91,1390.2,1658.91Z" fill="#693522"/><path d="M1333.5,1676.387c3.451,4.568,2.753,10.915-1.558,14.177s-10.612,2.2-14.065-2.372-2.752-10.918,1.556-14.179S1330.047,1671.817,1333.5,1676.387Z" fill="#fff"/><path d="M1330.506,1678.649a6.048,6.048,0,1,1-8.675-1.465A6.227,6.227,0,0,1,1330.506,1678.649Z" fill="#292322"/><path d="M1324.3,1680.888a1.766,1.766,0,1,1-2.194-1.35A1.814,1.814,0,0,1,1324.3,1680.888Z" fill="#fff"/><path d="M1330.494,1683.663a1.1,1.1,0,1,1-1.356-.833A1.127,1.127,0,0,1,1330.494,1683.663Z" fill="#fff"/><path d="M1314.374,1680.979s5-10.91,17.129-7.659C1318.223,1665.281,1314.374,1680.979,1314.374,1680.979Z" fill="#693522"/><path d="M1324.075,1663.419c-3.078-4.8-12.76-1.351-13.338,8.6C1313.724,1665.986,1324.075,1663.419,1324.075,1663.419Z" fill="#292322"/><path d="M1372.6,1649.3c.02-5.7,10.043-7.988,15.869.1C1382.708,1645.91,1372.6,1649.3,1372.6,1649.3Z" fill="#292322"/><path d="M1376.057,1621.458c14.159,8.311,11.814,14.094,6.264,14.407-8.832.5-17.037-9.891-17.037-9.891s9.264,12.844-5.127,13.234a20.627,20.627,0,0,1-19.5-11.245s1.287,21.036-13.688,22.976c-8.454,1.1-5.454-16.37-5.454-16.37s-4.288,21.631-13.526,18.786c-14.415-4.438,12.766-34.449,31.059-38.046S1376.057,1621.458,1376.057,1621.458Z" fill="#292322"/><path d="M1294.316,1675.609c-6.6-6.673,4.749-12.435,7.486-4.659,4.252-9.932,14.593.785,5.811,5.975,11.448,3.628,1.622,11.811-2.921,8.867-4.819,10.422-13.951,3.792-10.131-2.9C1285.1,1687.1,1285.7,1673.861,1294.316,1675.609Z" fill="#fff"/><path d="M1305.245,1676.137a5.292,5.292,0,1,1-6.921-2.843A5.287,5.287,0,0,1,1305.245,1676.137Z" fill="#ffb600"/><path d="M1335.87,1576.665c-5.043-4.911-14.6-5.5-15.627,3.575A158.978,158.978,0,0,0,1335.87,1576.665Z" fill="#db1f0a"/><path d="M1277.6,1655.449c32.947-15.441,96.357-30.012,130.972-37.586-3.259-10.036-10.588-32.968-28.969-40.707-11.769-4.956-32.12-5.07-50.578.227-18.742,5.379-37.012,14.843-45.386,24.067C1270.241,1616.208,1274.711,1638.713,1277.6,1655.449Zm46.533-35.9c6.924-1.327,16.035-2.479,30.7-8.2,5.083-1.985,12.649,7.634,3.461,11.932-13.6,6.36-25.723,8.567-32.595,8.378S1318.749,1620.58,1324.138,1619.547Z" fill="#ffbf00"/><path d="M1445.988,1854.78l18.974-.235-2.075-121.421-18.974.236Z" fill="#db1f0a"/><path d="M1396.406,1855.4l18.291-.227-2.077-121.54-18.29.227Z" fill="#db1f0a"/><path d="M1414.458,1855.172l32.128-.4-2.068-120.908-32.129.4Z" fill="#e2520b"/><path d="M1445.2,1808.771c.237,23.154,1.316,45.573,1.316,45.573l.334-45.616-2.4-75.238S1445,1789.2,1445.2,1808.771Z" fill="#f8a471"/><path d="M1413.766,1823.549c.236,23.154.88,31.191.88,31.191l.77-31.235-2.838-89.619S1413.567,1803.975,1413.766,1823.549Z" fill="#f8a471"/><path d="M1463.019,1732.911c-1.573,4.65-10.575,10.485-32.028,11.647-19.632,1.061-36.2-5.916-36.591-10.975,10.157-19.688,25.163-48.485,30.458-58.625,1.166-2.237,3.306-3.058,4.827-.518C1437.279,1687.1,1460.217,1725.564,1463.019,1732.911Z" fill="#ffd584"/><path d="M1427.48,1696.735c-7.125.194-11.061-.842-12.855-2.115q.642-1.237,1.264-2.451c3.809-7.324,7.036-13.511,8.969-17.211,1.166-2.237,3.306-3.058,4.827-.518,2.337,3.892,6.121,10.227,10.329,17.347.03.048.057.1.084.144C1438.883,1693.355,1435.3,1696.524,1427.48,1696.735Z" fill="#292322"/><path d="M1428.377,1677.046c1.307-2.36,10.014,13.832,8.56,15.66S1428.123,1677.508,1428.377,1677.046Z" fill="#585352"/><path d="M1444.777,1706.2c-.1-3.907,13.9,21.728,11.266,24.674C1454.33,1732.793,1444.951,1713.016,1444.777,1706.2Z" fill="#ffefcc"/><path d="M1434.714,1700.767c.293-2.96,14.505,34.632,13.083,36.588C1446.964,1738.5,1434.46,1703.312,1434.714,1700.767Z" fill="#fca43f"/><path d="M1418.535,1700.932c.4-2.946-13.893,33.07-13.388,35.137C1405.482,1737.445,1417.3,1709.935,1418.535,1700.932Z" fill="#fca43f"/><path d="M1427.871,1701.377c.3-2.96,2.647,34.13,1.226,36.086C1428.263,1738.61,1427.619,1703.92,1427.871,1701.377Z" fill="#dc6f26"/><path d="M1430.967,1862.34c12.949-.2,26.722-2.551,33.828-6.982.084,6.748.213,17.057.33,26.523.073,5.91-20.845,9.641-33.794,9.844-12.949.118-33.688-1.84-33.777-9-.077-6.152-.222-17.893-.329-26.526C1404.44,1860.451,1418.016,1862.462,1430.967,1862.34Z" fill="#e45771"/><path d="M1430.545,1843.71c13.187-.2,27.214-2.6,34.453-7.112.086,6.873.258,18.455.378,28.095-7.24,4.513-21.267,6.908-34.454,7.112-13.189.123-27.015-1.924-34.365-6.257-.078-6.265-.268-19.3-.377-28.1C1403.529,1841.785,1417.357,1843.834,1430.545,1843.71Z" fill="#b1b7b7"/><path d="M1447.251,1870.419a116.391,116.391,0,0,1-16.329,1.386,113.851,113.851,0,0,1-16.654-1.035l-.378-28.1a113.845,113.845,0,0,0,16.655,1.036,116.226,116.226,0,0,0,16.329-1.386Z" fill="#d2dcdc"/><path d="M1465.077,1842.946c.011.917.01.749.017,1.315-7.239,4.513-21.266,6.906-34.453,7.111-13.19.123-27.016-1.925-34.366-6.257l0-.2c-.008-.559-.011-.914-.015-1.111,7.35,4.332,21.177,6.38,34.366,6.257C1443.812,1849.852,1457.838,1847.459,1465.077,1842.946Z" fill="#707472"/><path d="M1465.29,1857.812c.011.918.01.75.016,1.314-7.239,4.515-21.265,6.909-34.453,7.113-13.189.123-27.016-1.925-34.366-6.258,0-.069,0-.138,0-.2-.007-.56-.011-.914-.014-1.113,7.349,4.333,21.177,6.381,34.364,6.258C1444.024,1864.72,1458.05,1862.325,1465.29,1857.812Z" fill="#707472"/><path d="M1347.854,1741.905a71.712,71.712,0,0,0,7.861,9.3c-3.318,3.133-14.668,14.121-14.668,14.121s-5.9-5.85-6.668-17.228C1334.044,1743.147,1344.085,1734.51,1347.854,1741.905Z" fill="#004997"/><path d="M1346.47,1758.162s20.907,21.189,45.994,25.615c1.662,2.867,5.789,4.153,10.813,3.672,3.662.764,6.284.659,6.288-.811,0-1.517-4.129-2.036-5.136-2.31.166-.036,5.3.048,6.429-.013,2.627-.145,2.82-2.668.54-2.96-1.914-.231-6.341-.484-6.574-.508.223-.058,5.525-.742,6.5-.849,2.9-.328,2.938-3.583-.379-3.281-2.257.21-6.2.721-6.553.67.115-.133,2.933-1.223,4.559-1.988,2.667-1.263,1.951-3.712-1.3-2.814-2.565.711-8.983,1.729-8.983,1.729s1.919-3.622-.323-4.539-5.031,6.2-5.031,6.2-29.521-11.492-39-23.182A75.656,75.656,0,0,1,1346.47,1758.162Z" fill="#fbc09c"/><path d="M1339.271,1764.47s7.594-11.337,15.594-14.608a52.906,52.906,0,0,1,3.675,3.928s-9.209,6.86-15.056,15.017C1340.942,1766.329,1339.271,1764.47,1339.271,1764.47Z" fill="#fff"/><path d="M1251.859,1492.519c-21.034-12.612-47.325,9.039-49.633,34.246-1.642,17.949,15.1,48.19,32.366,60.867,7.824,5.741,16.521,7.81,22.234-.231,6.5-9.146-3.309-21.043,1.429-24.837,3.878-3.1,7.838,1.935,16.845,9.065s20.523-.305,18.555-15.966S1272.893,1505.132,1251.859,1492.519Zm2.033,53.005c1.388,19.72-10.418,3.662-12.822.138C1232.249,1532.716,1252.5,1525.814,1253.892,1545.524Z" fill="#dc160b"/><path d="M1221.411,1499.376c5.789-2.906,18.978.351,20.423,18.048,1.972,24.143-27.53,41.964-34.632,28.252C1199.445,1530.7,1206.991,1506.614,1221.411,1499.376Z" fill="#e34033"/><path d="M1212.848,1522.384a47.48,47.48,0,0,1-4.322-4.769c2.044-5.306,6.188-9.367,11.508-12.111-.966,1.942-.725,5.575-.331,8.678A17.879,17.879,0,0,0,1212.848,1522.384Zm4.058,5.585c-1.2-.673-2.646-1.5-4.153-2.4a29.432,29.432,0,0,0-.894,10.492,19.344,19.344,0,0,1,1.8-1.072A21.367,21.367,0,0,1,1216.906,1527.969Zm-3.215-4.788a43.429,43.429,0,0,0,4.292,3.515,9.27,9.27,0,0,1,3.778-2.516c.007-.006.009-.006.009-.011.052-.236.069-.355.069-.355a65,65,0,0,1-1.837-7.653A17.173,17.173,0,0,0,1213.691,1523.181Zm-6.46-1.264c-1.39,6.239-.638,12.416.271,17.964a15.12,15.12,0,0,1,3.611-3.3,35.989,35.989,0,0,1,.818-11.519C1210.276,1524.04,1208.613,1522.954,1207.231,1521.917Z" fill="#fffeff"/><path d="M1252.3,1500.318c-.99,1.333.189,3.883,2.634,5.679s5.223,2.183,6.21.838-.2-3.88-2.631-5.681C1256.059,1499.352,1253.282,1498.981,1252.3,1500.318Z" fill="#faf6eb"/><path d="M1261.935,1508.084c-.466.489-.125,1.579.757,2.432s1.99,1.158,2.46.675.132-1.573-.755-2.438S1262.407,1507.594,1261.935,1508.084Z" fill="#faf6eb"/><path d="M1309.195,1470.4a53.467,53.467,0,0,1-4.57-5.565c2.578-5.817,7.428-10.125,13.527-12.9-1.187,2.119-1.119,6.189-.847,9.676A20.035,20.035,0,0,0,1309.195,1470.4Zm4.226,6.463c-1.3-.819-2.873-1.82-4.505-2.912a32.926,32.926,0,0,0-1.579,11.671,22.5,22.5,0,0,1,2.072-1.1A23.959,23.959,0,0,1,1313.421,1476.865Zm-3.33-5.526a48.948,48.948,0,0,0,4.605,4.163,10.381,10.381,0,0,1,4.36-2.6c.005-.007.009-.007.009-.014.072-.257.1-.391.1-.391a73.352,73.352,0,0,1-1.633-8.652A19.244,19.244,0,0,0,1310.091,1471.339Zm-7.147-1.765c-1.9,6.894-1.393,13.835-.683,20.086a16.994,16.994,0,0,1,4.215-3.494,40.11,40.11,0,0,1,1.551-12.823C1306.232,1472.112,1304.432,1470.809,1302.944,1469.574Z" fill="#fffeff"/><path d="M1354.676,1495.875c12.005-5.819,24.285-33.026,4.569-46.8s-48.553-1.231-56.961,12.332c-5.762,9.291-19.146,71.31,4.647,88.4,22.327,16.036,56.637,5.427,65.327-13.423C1379.862,1519.9,1372.371,1497.563,1354.676,1495.875Zm-22.906-22.639c3.57-10.5,21-.314,8.074,8.058S1330.8,1476.1,1331.77,1473.236Zm-2.968,47.751c-2.08-19.813,11.291-7.371,14.019-4.576C1352.84,1526.682,1330.878,1540.807,1328.8,1520.987Z" fill="#2aa79b"/><path d="M1356.361,1453.818c-1.594.958-1.455,4.1.31,6.994s4.474,4.481,6.064,3.511,1.449-4.1-.3-7C1360.665,1454.418,1357.948,1452.852,1356.361,1453.818Z" fill="#daf0fe"/><path d="M1363.025,1465.952c-.688.308-.8,1.58-.247,2.841s1.562,2.041,2.253,1.74.81-1.571.257-2.843S1363.724,1465.646,1363.025,1465.952Z" fill="#daf0fe"/><path d="M1361.1,1503.058c-1.593.959-1.459,4.1.309,6.995s4.475,4.482,6.066,3.51,1.449-4.1-.3-7C1365.406,1503.659,1362.69,1502.093,1361.1,1503.058Z" fill="#daf0fe"/><path d="M1367.767,1515.192c-.687.308-.8,1.582-.246,2.839s1.563,2.042,2.253,1.742.81-1.573.255-2.841S1368.467,1514.888,1367.767,1515.192Z" fill="#daf0fe"/><path d="M1309.229,1490.179c-5.111,1.7-11.687-2.221-8.919-16.728,4.3-22.539,32.718-33.307,36.934-21.175C1341.85,1465.523,1321.962,1485.932,1309.229,1490.179Z" fill="#90cabe"/><path d="M1311.09,1466.694a42.787,42.787,0,0,1-2.973-5.005,21.031,21.031,0,0,1,12.384-8.656c-1.207,1.546-1.648,4.81-1.857,7.63A16.182,16.182,0,0,0,1311.09,1466.694Zm2.588,5.683c-.939-.814-2.074-1.808-3.246-2.88a26.543,26.543,0,0,0-2.686,9.136,17.935,17.935,0,0,1,1.79-.625A19.322,19.322,0,0,1,1313.678,1472.377Zm-1.987-4.822a39.621,39.621,0,0,0,3.171,3.887,8.423,8.423,0,0,1,3.8-1.546l.007-.009c.09-.2.128-.3.128-.3a58.473,58.473,0,0,1-.248-7.114A15.526,15.526,0,0,0,1311.691,1467.555Zm-5.5-2.287c-2.358,5.279-2.8,10.886-3,15.969a13.754,13.754,0,0,1,3.8-2.277,32.464,32.464,0,0,1,2.8-10.058C1308.513,1467.7,1307.235,1466.436,1306.195,1465.268Z" fill="#fffeff"/><path d="M1409.056,1468.75c16.84-7.789,41.459-5.937,46.741,13.391s-5.917,31.312-17.567,28.646-25.8-2.326-25.424,9.03,18.684,8.042,26.155,2.694,21.991,6.688,15.163,23.941-35.531,28.779-59.1,7.831S1377.361,1483.4,1409.056,1468.75Z" fill="#ffc100"/><path d="M1435.838,1468.544c4.517,2.688,14.172,13.117,2.711,21.836-15.634,11.891-40.7-.484-34.429-11.325C1410.964,1467.214,1424.594,1461.853,1435.838,1468.544Z" fill="#ffdd57"/><path d="M1421.837,1472.383a38.931,38.931,0,0,1,1.617-4.963,18.869,18.869,0,0,1,13.16,3.226c-1.759.1-4.218,1.734-6.241,3.262A14.537,14.537,0,0,0,1421.837,1472.383Zm-2.3,5.107c-.008-1.114-.01-2.468.019-3.89a23.844,23.844,0,0,0-7.742,3.594,16.447,16.447,0,0,1,1.477.836A17.342,17.342,0,0,1,1419.541,1477.49Zm2.073-4.192a36.027,36.027,0,0,0-.744,4.437,7.533,7.533,0,0,1,3.292,1.646l.012,0c.187-.057.278-.093.278-.093a52.711,52.711,0,0,1,4.647-4.377A13.961,13.961,0,0,0,1421.614,1473.3Zm-1.71-5.056c-4.95,1.535-8.994,4.551-12.535,7.427a12.233,12.233,0,0,1,3.781,1.211,29.063,29.063,0,0,1,8.434-4.063C1419.636,1471.241,1419.733,1469.634,1419.9,1468.242Z" fill="#fffeff"/><path d="M1448.066,1481.484c-1.6.441-2.241,3.178-1.423,6.1s2.77,4.939,4.374,4.487,2.238-3.178,1.428-6.1S1449.666,1481.039,1448.066,1481.484Z" fill="#faf6eb"/><path d="M1450.874,1493.54c-.667.1-1.073,1.166-.9,2.383s.851,2.135,1.519,2.043,1.075-1.156.908-2.382S1451.546,1493.446,1450.874,1493.54Z" fill="#faf6eb"/><path d="M1445.378,1527.938c-1.6.437-2.24,3.177-1.423,6.094s2.771,4.939,4.374,4.488,2.235-3.181,1.426-6.1C1448.936,1529.493,1446.979,1527.49,1445.378,1527.938Z" fill="#faf6eb"/><path d="M1448.187,1539.991c-.669.1-1.074,1.167-.9,2.384s.853,2.134,1.52,2.044,1.071-1.158.907-2.383S1448.859,1539.9,1448.187,1539.991Z" fill="#faf6eb"/></g></svg>