<svg xmlns="http://www.w3.org/2000/svg" width="361.217" height="346.541" viewBox="0 0 361.217 346.541"><g transform="translate(-801.085 -1571.83)"><path d="M858.246,1667.805c1.645,18.46,4.648,26.658-23.79,44.6-17.923,11.307-19.877,37.833,21.152,17.632-26.085,30.733,5.43,54.525,20.68,11.156-20.937,84.057,81.692,77.635,87.472-8.307,13.561,45.334,47.59-.125,25.6-32.354,41.736,33.378,24.141-39.127-27.131-61.447C920.366,1653.092,858.246,1667.805,858.246,1667.805Z" fill="#732e25"/><path d="M1011.292,1705.391c-.051-.046-.083-.08-.083-.08.525-2.64.346-3.6.606-7.284.148-2.213,2.522-4.23,4.086-3.949.584-3.123,3.549-3.919,4.5-2.488,1.958-3.969,6.038-2.437,7.414-1.588-.847.953-3.971,2.407-4.553,3.39-.771,1.279,2.527,6.881,5.135,5.347,1.537-1.111,3.23-2.594,4.026-3.02,2.063,2.227-1.2,8.456-8.842,9.587-1.958.289-5.682,1.308-6.673,2.613,0,0-10.18,31.105-40.46,35.081a16.535,16.535,0,0,1-2.525-7.245S998.231,1733.783,1011.292,1705.391Z" fill="#fbc09c"/><path d="M982.754,1731.29c-5.509.111-22.129,2.42-22.129,2.42l5.607,14.783s15.368-.11,19.729-1.49C986.124,1746.106,985.349,1732.527,982.754,1731.29Z" fill="#e44400"/><path d="M981.492,1747.984s-1-11.909-2.35-16.5a13.569,13.569,0,0,1,5.542-.292s2.1,10.109,1.793,16.123A14.474,14.474,0,0,1,981.492,1747.984Z" fill="#fff"/><path d="M926.333,1888.791l-2.445,15.346,5.96.208,1.709-12.992Z" fill="#fbc09c"/><path d="M967.361,1888.578l1.048,15.259,5.77-.547-1.169-14.712Z" fill="#fbc09c"/><path d="M929.064,1806.941s-3.455,61.78-5.287,83.668c1.832,3.506,6.432,3.439,10.87,1.913,4.583-12.544,19.5-69.161,19.5-69.161s9.733,57.058,10.653,66.39c2.561,1.921,9.061,1.278,10.125-.853,0-7.777,1.491-31.115,1.1-82.274C956.9,1808.152,929.064,1806.941,929.064,1806.941Z" fill="#008b8e"/><path d="M930.413,1755.534c-8.277-6.869-.434-12.662-.434-12.662-.313.119,10.408-8.766,30.383-9.424,11.621,15.138,17.278,36.449,18.038,51.891,1.446,11.949,1.236,21.577-.35,23.854-21.113,15.026-53.122,2.637-53.927-2.187C923.458,1803.031,928.254,1771.691,930.413,1755.534Z" fill="#e44400"/><path d="M941.484,1724.131s1.03,2.543,2.258,13.093c7.774,2.858,8.26-1.9,8.26-1.9a50.405,50.405,0,0,0-3.868-12.571A12.092,12.092,0,0,1,941.484,1724.131Z" fill="#fbc09c"/><path d="M948.283,1724.858a47.753,47.753,0,0,1,3.075,8.768c-.9,1.583-4.967,2.334-7.519.938-.89-6.047-1.515-8.372-1.515-8.372A9.888,9.888,0,0,0,948.283,1724.858Z" fill="#eba375"/><path d="M967.89,1899.656s.273,7.576.433,11.008c5.282,3.854,20.672,4.61,26.089,2.825,3.358-3.085,2.114-11.8-4.314-14.7s-11.169,1.941-12.535,3.194a23.427,23.427,0,0,0-3.166-1.34l-.521-1.814S972.692,1899.967,967.89,1899.656Z" fill="#dc160b"/><path d="M968.136,1908.038c2.054,1.5,13.484,5.216,28.138,2.005a3.923,3.923,0,0,1-1.1,4.392s-14.354,3.515-27.013-2.271C966.987,1911.3,968.136,1908.038,968.136,1908.038Z" fill="#e0ded8"/><path d="M971.828,1903.09a.394.394,0,0,0,.307-.211c1.4-2.438,3.326-1.448,3.407-1.405a.415.415,0,0,0,.564-.176.4.4,0,0,0-.172-.556c-.026-.021-2.729-1.417-4.527,1.721a.418.418,0,0,0,.163.569A.391.391,0,0,0,971.828,1903.09Z" fill="#fdfcf6"/><path d="M976.273,1905.1a.451.451,0,0,0,.127-.356c-.394-2.777,1.731-3.178,1.819-3.2a.418.418,0,0,0-.137-.824c-.031,0-3.027.557-2.522,4.133a.424.424,0,0,0,.481.36A.364.364,0,0,0,976.273,1905.1Z" fill="#fdfcf6"/><path d="M924.142,1901.029s-.36,1.606-.39,2.158c-3.548-.484-8.245,3.543-7.96,11.6,7,3.732,19.46,1.243,19.46,1.243s2.784-8.529-5.074-12.563c.185-1.824.053-1.959.053-1.959A7.542,7.542,0,0,1,924.142,1901.029Z" fill="#dc160b"/><path d="M915.792,1911.914c2.588,1.242,14,3.165,20.134.86a2.725,2.725,0,0,1-.763,4.3c-3.686,1.442-13.657,2.442-19.5-1.328C914.536,1914.08,915.792,1911.914,915.792,1911.914Z" fill="#e0ded8"/><path d="M924.787,1903.553a.4.4,0,0,0,.357-.057c2.14-1.6,3.449-.014,3.5.057a.4.4,0,0,0,.561.07.41.41,0,0,0,.063-.569c-.014-.022-1.85-2.263-4.605-.2a.39.39,0,0,0-.077.557A.37.37,0,0,0,924.787,1903.553Z" fill="#fdfcf6"/><path d="M923.655,1905.824a.5.5,0,0,0,.452-.082c2.786-2.078,4.486-.007,4.558.082a.528.528,0,0,0,.726.089.544.544,0,0,0,.088-.746c-.03-.02-2.412-2.938-5.995-.257a.532.532,0,0,0-.109.728A.573.573,0,0,0,923.655,1905.824Z" fill="#fdfcf6"/><path d="M933.29,1741.141c.42.729.821,1.442,1.194,2.151C934.1,1742.583,933.71,1741.867,933.29,1741.141Z" fill="#ecf6fb"/><path d="M921.6,1767.921c-4.476,6.3-7.129,32.321,19.95,30.253.922.121-.578,5.857-.578,5.857s-16.054,3.534-25.117-9.98c-7.691-11.477-4.014-27.428,0-32.235C919.527,1762.612,921.6,1767.921,921.6,1767.921Z" fill="#fbc09c"/><path d="M929.979,1742.872c-4.547,2.7-13.05,12.2-15.939,16.162-.723.919-1.121,1.511-1.8,2.42.039,1.874,7.491,7.332,12.4,10.225,3.487-3.563,8.155-9.576,9.31-13.718A15.163,15.163,0,0,0,929.979,1742.872Z" fill="#e44400"/><path d="M914.04,1759.034s8.874,7.9,12.991,10.293a13.666,13.666,0,0,1-3.783,4s-8.452-5.851-12.343-10.4A14.493,14.493,0,0,1,914.04,1759.034Z" fill="#fff"/><path d="M943.436,1734.858l.106.912s.978,2.508,5.053,1.65,3.176-3.348,3.176-3.348l-.16-.764s5.263-.154,4.481,3.074c-.807,3.306-5.219,5.967-12.863,4.908C939.228,1740.741,937.447,1737.057,943.436,1734.858Z" fill="#fff"/><path d="M991.207,1721.982c-1.014-2.444,11.606-12.667,31.375-28.3,8.355-6.609,28.528-17.3,29.066-16.6.673.883-13.266,14.53-24.448,22.572C1006.442,1714.588,992.455,1725.009,991.207,1721.982Z" fill="#df428b"/><path d="M1044.132,1679.152c-.521-1.817-1.055-11.087,6.427-14.875,5.726-2.9,13.271,1.985,17.465-4,2.829,13.406-7.829,28.106-20.452,22.892C1045.336,1680.657,1044.132,1679.152,1044.132,1679.152Z" fill="#4e2a18"/><path d="M1044.006,1678.436c-.565.457-3.358,2.722-3.542,4,1.611.882,2.889,3.721,2.889,3.721a14.171,14.171,0,0,0,4.685-2.719C1047.912,1681.826,1045.405,1678.444,1044.006,1678.436Z" fill="#d6d6d6"/><path d="M1027.537,1689.707c3.421,1.368,4.424,3.829,2.417,4.652s-7.022-1.734-7.022-1.734Z" fill="#fbc09c"/><path d="M1032.6,1696.118c-.289-1.112-2.467-1.38-3.454.593a21.582,21.582,0,0,1-3.354,4.341S1034.28,1702.532,1032.6,1696.118Z" fill="#fbc09c"/><path d="M987.387,1823.429c-4.26,9.264-19.758,14.309-39.113,10.153s-32.9-15.759-31.368-25.841c2.11-13.875,20.161-16.775,39.514-12.613S993.118,1810.958,987.387,1823.429Z" fill="#e28800"/><path d="M988.32,1819.158c-2.052,9.525-19.4,13.866-38.754,9.71s-33.383-15.252-31.332-24.779,19.389-13.855,38.747-9.694S990.362,1809.653,988.32,1819.158Z" fill="#ffb400"/><path d="M949.932,1828.017c-19.362-4.167-33.385-15.254-31.341-24.779a9.638,9.638,0,0,1,.4-1.233,8.8,8.8,0,0,0-.76,2.084c-2.051,9.527,11.981,20.611,31.332,24.779,18.477,3.967,35.1.178,38.348-8.468C983.922,1828.438,967.793,1831.854,949.932,1828.017Z" fill="#ffdd67"/><path d="M936.677,1812.149c-.365,1.725-3.5,2.51-7.015,1.754-3.5-.746-6.034-2.758-5.659-4.477s3.506-2.507,7-1.755S937.042,1810.427,936.677,1812.149Z" fill="#573987"/><path d="M947.079,1821.3c-.366,1.728-3.508,2.517-7.015,1.754-3.493-.748-6.042-2.755-5.67-4.475s3.508-2.505,7.008-1.755S947.444,1819.583,947.079,1821.3Z" fill="#ffda00"/><path d="M962.449,1825.156c-.37,1.712-3.519,2.505-7.012,1.752s-6.042-2.762-5.668-4.481,3.511-2.506,7.011-1.763S962.824,1823.431,962.449,1825.156Z" fill="#ecf6fb"/><path d="M977.484,1823.226c-.371,1.733-3.507,2.517-7.008,1.765s-6.038-2.762-5.678-4.482c.377-1.727,3.513-2.52,7.022-1.758S977.855,1821.511,977.484,1823.226Z" fill="#da1d0b"/><path d="M984.82,1816.222c-.358,1.723-3.5,2.5-6.995,1.752s-6.042-2.769-5.678-4.481,3.515-2.5,7.015-1.756S985.2,1814.5,984.82,1816.222Z" fill="#00822e"/><path d="M977.936,1807.745c-.376,1.718-3.511,2.513-7.013,1.758s-6.042-2.769-5.663-4.481c.358-1.723,3.511-2.514,7-1.762S978.3,1806.023,977.936,1807.745Z" fill="#00a0dc"/><path d="M964.821,1801.419c-.365,1.718-3.506,2.5-7.006,1.755s-6.044-2.759-5.677-4.489,3.513-2.511,7.012-1.754S965.193,1799.695,964.821,1801.419Z" fill="#004d98"/><path d="M951.6,1802.19c-.519,2.39-5.291,3.391-10.672,2.238s-9.326-4.024-8.81-6.429c.522-2.388,5.292-3.389,10.667-2.225C948.175,1796.917,952.128,1799.809,951.6,1802.19Z" fill="#fff"/><path d="M942.789,1795.774c-5.375-1.164-10.145-.163-10.667,2.225a3.385,3.385,0,0,0-.038.354c1.835-1.2,5.479-.817,9.456.039,5.118,1.1,8.943,3.052,8.859,5.375a2.573,2.573,0,0,0,1.205-1.577C952.128,1799.809,948.175,1796.917,942.789,1795.774Z" fill="#c35a00"/><path d="M932.472,1799.917c.118-.138,6.165-.868,7.211-1.5,1.719-1.048,4.24-4.2,8.546-4.476,2.188,0,5.01,2.4,1.529,3.673a9.2,9.2,0,0,0-3.846,2.79c.284,2.187,3.679,3.049,4.487,3.363C945.458,1806.663,935.2,1803.969,932.472,1799.917Z" fill="#fbc09c"/><path d="M851.342,1672.253c9.144,8.9,12.721,30.129-.648,34.343s-22.906,21.219-22.906,21.219-9.823-20.032-.046-30.992S851.342,1672.253,851.342,1672.253Z" fill="#e35f97"/><path d="M851.413,1672.23c2.7,12.468-6.043,32.143-19.515,28.271s-30.813,5.035-30.813,5.035.706-21.008,16.6-28.675C830.912,1670.481,851.413,1672.23,851.413,1672.23Z" fill="#f4c0d4"/><path d="M850.737,1675.976c-1.421,6.41-6.374,17.979-15.855,17.926s-18.88-2.074-23.06,2.207c1.942-8.16,11.882-11.9,19.9-10.4S850.737,1675.976,850.737,1675.976Z" fill="#e35f97"/><path d="M967.994,1600.678c-33.467-28.134-76.121-24.324-100.16,3.314-11.979,13.772-10.577,31.043-10.577,31.043s-8.459,7.632-9.056,26.814c-.274,8.808,7.732,40.006,23.689,34.98,0,0,37.286-12.837,58.2-20.941,21.93-4.714,56.665-13.419,56.665-13.419C996.613,1637.387,979.8,1610.606,967.994,1600.678Z" fill="#732e25"/><path d="M871.607,1694.645c10,33.4,46.325,46.745,78.486,37.119s47.948-38.575,37.951-71.974-43.8-51.462-75.959-41.836S861.612,1661.252,871.607,1694.645Z" fill="#fbc09c"/><path d="M918.228,1694.68a1.38,1.38,0,0,0,1.84.589,1.411,1.411,0,0,0,1.037-1.633,1.435,1.435,0,0,0-1.851-.611A1.4,1.4,0,0,0,918.228,1694.68Z" fill="#db6044"/><path d="M919.86,1688.649a1.384,1.384,0,0,0,1.839.591,1.4,1.4,0,0,0,1.037-1.634,1.432,1.432,0,0,0-1.85-.613A1.409,1.409,0,0,0,919.86,1688.649Z" fill="#db6044"/><path d="M925.415,1692.24a1.388,1.388,0,0,0,1.843.586,1.409,1.409,0,0,0,1.036-1.635,1.434,1.434,0,0,0-1.85-.612A1.414,1.414,0,0,0,925.415,1692.24Z" fill="#db6044"/><path d="M950.007,1685.174a1.378,1.378,0,0,0,1.839.589,1.409,1.409,0,0,0,1.036-1.633,1.434,1.434,0,0,0-1.849-.611A1.4,1.4,0,0,0,950.007,1685.174Z" fill="#db6044"/><path d="M951.638,1679.143a1.381,1.381,0,0,0,1.839.591,1.4,1.4,0,0,0,1.037-1.634,1.431,1.431,0,0,0-1.85-.612A1.407,1.407,0,0,0,951.638,1679.143Z" fill="#db6044"/><path d="M957.193,1682.735a1.388,1.388,0,0,0,1.843.585,1.407,1.407,0,0,0,1.036-1.635,1.437,1.437,0,0,0-1.85-.613A1.416,1.416,0,0,0,957.193,1682.735Z" fill="#db6044"/><path d="M874.005,1694.2s-2.813-6.55-11.352-5.28c-9,1.344-9.381,13.736-2.852,19.305s16.277,3.049,17.854-3.118Z" fill="#fbc09c"/><path d="M861.753,1692.366c5.429-2.486,12.631,6.33,6.27,13.54,1.422-7.922-2.188-9.574-5.4-5.133-.554-2.322.487-4.145,3.983-4.785C865.549,1693.005,861.753,1692.366,861.753,1692.366Z" fill="#cf704e"/><path d="M938.6,1670.926c1.675,3.3-3.49,12.275,1.956,13.787,3.372.936,6.976-2.559,3.715-7.026C942.381,1675.1,938.6,1670.926,938.6,1670.926Z" fill="#e9624c"/><path d="M961.309,1642.133c-6.443-.745-6.632,6.235-2.543,5.591,4.386-.7,8.311.308,8.789-.2C968.615,1646.394,964.934,1642.549,961.309,1642.133Z" fill="#732e25"/><path d="M900.885,1659.947c5.615-3.253,8.568,3.072,4.562,4.112-4.3,1.1-7.5,3.6-8.14,3.317C895.885,1666.764,897.729,1661.771,900.885,1659.947Z" fill="#732e25"/><path d="M916.076,1701.118c1.027,3.434-3.34,7.773-9.754,9.692s-12.445.69-13.472-2.745,3.338-7.774,9.752-9.692S915.049,1697.683,916.076,1701.118Z" fill="#e9624c"/><path d="M986.94,1679.92c1.028,3.434-3.339,7.774-9.753,9.692s-12.445.69-13.473-2.745,3.34-7.774,9.753-9.692S985.913,1676.485,986.94,1679.92Z" fill="#e9624c"/><path d="M959.68,1688.3c-5.427-1.674-5.712,3.595-15.853,6.592-10.353,3.059-13.277-1.487-17.106,3.858-3.124,4.361,5.686,21.171,22.588,15.94C966.336,1709.41,964.846,1689.893,959.68,1688.3Z" fill="#491d1c"/><path d="M936.517,1714.435a18.616,18.616,0,0,0,12.792.257,19.517,19.517,0,0,0,10.164-6.935,38.638,38.638,0,0,0-12.2,1.843A37.878,37.878,0,0,0,936.517,1714.435Z" fill="#e35956"/><path d="M957.785,1687.983c-3.773-.014-5.141,4.306-13.958,6.911-8.923,2.637-12.328-.372-15.549,2.17,1.507,4.82,10.086,6.145,17.233,3.935C952.59,1698.8,959.279,1692.759,957.785,1687.983Z" fill="#fff"/><path d="M914.9,1674.739c3.822,4.982,3.109,11.948-1.592,15.561s-11.62,2.5-15.444-2.486-3.108-11.952,1.59-15.563S911.074,1669.756,914.9,1674.739Z" fill="#fff"/><path d="M914.42,1676.41a6.633,6.633,0,1,1-9.526-1.534A6.832,6.832,0,0,1,914.42,1676.41Z" fill="#161615"/><path d="M907.634,1678.916a1.937,1.937,0,1,1-2.418-1.461A2.011,2.011,0,0,1,907.634,1678.916Z" fill="#fff"/><path d="M914.448,1681.909a1.2,1.2,0,1,1-1.494-.9A1.236,1.236,0,0,1,914.448,1681.909Z" fill="#fff"/><path d="M893.96,1679.931s5.4-12.005,18.723-8.539C898.053,1662.684,893.96,1679.931,893.96,1679.931Z" fill="#693522"/><path d="M956.593,1662.267c-.458,6.262,3.963,11.692,9.876,12.13s11.083-4.291,11.542-10.558-3.966-11.695-9.875-12.134S957.052,1656,956.593,1662.267Z" fill="#fff"/><path d="M963.485,1661.733a6.633,6.633,0,1,0,7.118-6.512A6.831,6.831,0,0,0,963.485,1661.733Z" fill="#161615"/><path d="M970.532,1660.1a1.938,1.938,0,1,0,1.218-2.549A1.992,1.992,0,0,0,970.532,1660.1Z" fill="#fff"/><path d="M966.482,1666.345a1.2,1.2,0,1,0,.752-1.575A1.235,1.235,0,0,0,966.482,1666.345Z" fill="#fff"/><path d="M976.943,1655.109s-11.1-7.071-20.336,3.143C964.052,1642.941,976.943,1655.109,976.943,1655.109Z" fill="#693522"/><path d="M869.23,1689.238s23.075-13.923,13.654-33.213c40.648,6.625,81.531-51.025,104.116-1.609-5.033-43.472-89.224-59.742-122.65-5.905C856.081,1664.648,869.23,1689.238,869.23,1689.238Z" fill="#732e25"/><path d="M867.154,1676.679c.788-10.873,14.5-5.349,9.791,2.987,11.944-3.871,10.467,13.364-.788,9.651,5.582,12.782-9.084,10.437-9.985,4.22-12.8,3.749-13.977-9.312-5.2-11.081C850.062,1677.4,862.092,1667.8,867.154,1676.679Z" fill="#fff"/><path d="M875.044,1686.641a6.147,6.147,0,1,1-2.8-8.228A6.146,6.146,0,0,1,875.044,1686.641Z" fill="#ffb500"/><path d="M896.475,1581.031c-37.906,12.06-58.777,52.906-46.8,91.392,9.846-19.381,37.88-31.715,64.635-40.227,25.445-8.1,55.73-11.2,73.486-2.608-.057-.184-.11-.368-.169-.551C975.342,1590.417,934.532,1568.924,896.475,1581.031Z" fill="#e35f97"/><path d="M846.685,1657.858a74.69,74.69,0,0,0,2.991,14.565c34.736-27.151,101.583-45.151,138.121-42.835-.057-.184-.11-.368-.169-.551a74.87,74.87,0,0,0-5.6-13.124c-21.211-.319-46.361,3.482-72.332,11.744C885.121,1635.475,863.455,1646.132,846.685,1657.858Z" fill="#f4c0d4"/><path d="M901.647,1584.321c.418,1.4-.853,3.013-2.84,3.607s-3.936-.057-4.355-1.455.854-3.014,2.841-3.608S901.228,1582.923,901.647,1584.321Z" fill="#f5c7d8"/><path d="M906.7,1601.213c.419,1.4-.852,3.013-2.839,3.607s-3.937-.057-4.354-1.455.853-3.013,2.84-3.608S906.281,1599.815,906.7,1601.213Z" fill="#f5c7d8"/><path d="M861.171,1620.834c.418,1.4-.852,3.013-2.839,3.608s-3.937-.057-4.355-1.456.853-3.013,2.841-3.607S860.753,1619.437,861.171,1620.834Z" fill="#f5c7d8"/><path d="M957.668,1591.969c.418,1.4-.853,3.014-2.839,3.607s-3.937-.057-4.355-1.455.854-3.013,2.841-3.607S957.25,1590.571,957.668,1591.969Z" fill="#f5c7d8"/><path d="M912.674,1621.186c.418,1.4-.853,3.013-2.839,3.607s-3.937-.058-4.355-1.455.853-3.014,2.84-3.608S912.256,1619.788,912.674,1621.186Z" fill="#f5c7d8"/><path d="M876.926,1601.939c.418,1.4-.853,3.014-2.84,3.609s-3.937-.058-4.355-1.456.854-3.014,2.84-3.608S876.508,1600.542,876.926,1601.939Z" fill="#f5c7d8"/><path d="M933.859,1584.909c.418,1.4-.853,3.013-2.841,3.608s-3.936-.057-4.354-1.455.854-3.014,2.84-3.608S933.44,1583.511,933.859,1584.909Z" fill="#f5c7d8"/><path d="M882.821,1621.647c.418,1.4-.853,3.013-2.84,3.607s-3.937-.057-4.355-1.455.854-3.013,2.84-3.607S882.4,1620.249,882.821,1621.647Z" fill="#f5c7d8"/><path d="M939.754,1604.617c.418,1.4-.853,3.012-2.84,3.608s-3.937-.058-4.356-1.456.855-3.014,2.841-3.608S939.336,1603.219,939.754,1604.617Z" fill="#f5c7d8"/><path d="M858.474,1643.937c.418,1.4-.853,3.013-2.841,3.607s-3.937-.057-4.355-1.455.854-3.013,2.841-3.607S858.056,1642.539,858.474,1643.937Z" fill="#f5c7d8"/><path d="M975.369,1608.5c.419,1.4-.852,3.013-2.839,3.608s-3.937-.058-4.355-1.456.854-3.013,2.841-3.607S974.951,1607.106,975.369,1608.5Z" fill="#f5c7d8"/><path d="M1078.882,1592.022c9-2.221,5.043,19.6,11.488,15.135,3.341-2.315-.1-17.1,4.74-20.552s11.186,3.4,5.425,11.6.391,18.1,3.679,16.325,6.929-10.723,10.357-16.208,9.68-9.216,15-3.565-5.983,9.768-12.607,14.556-10.995,11.23-6.694,11.062,13.341-5.526,20.675-5.084,17.184,8.577,13.662,16.538-13.122-.248-18.769-3.764-18.14-3-15.685-.178,14.338,3.018,20.682,5.652,8.161,13.522,1.547,13.685-20.025-16.447-24.348-13.553.817,11.179,6.956,12.65,10.52,12.29,3.971,17.327-14.428-2.856-15.8-10.34-8.533-12.462-11.44-9.847,4.656,21.07-2.128,25.77-7.775-8.47-4.565-14.709,4.589-12.215-1.492-13.022-9.013,6.845-10.687,11.819-9.823-.122-4.584-5.458,4.257-7.768.29-5.523-9.742,10.865-13.745,9.724-1.021-12.345,8.186-13.4,7.212-5.1,3.078-7.152-15.065.294-21.336,5.142c-8.762,6.773-26.052-1.231-21.571-10.56s24.965-.626,32.477-.507,8.815-3.8,5.448-6.486-25.275-6.486-21.827-14.7,11.053-4.044,16.8,3.523,12.911,10.233,15.347,6.939-4.464-6.445-2.1-9.99,7.855-2.428,6.9,5.464,10.607.365,8.148-1.427C1079.695,1605.515,1072.156,1593.68,1078.882,1592.022Z" fill="#7d4891"/><path d="M1135.424,1618.234c1.162.47,4.082,3.662,1.782,4s-4.18-2.57-8.1-3.135C1131.479,1617.8,1132.478,1617.043,1135.424,1618.234Z" fill="#ecdaec"/><path d="M1028.853,1623.964c-1.162.471-4.083,3.664-1.782,4s4.179-2.571,8.095-3.136C1032.8,1623.533,1031.8,1622.773,1028.853,1623.964Z" fill="#ecdaec"/><path d="M1118.13,1652.4c.7,1.044,1.317,5.326-.776,4.314s-2.012-4.477-4.932-7.145C1115.111,1649.829,1116.365,1649.763,1118.13,1652.4Z" fill="#ecdaec"/><path d="M1068.366,1597.2c1.359-5.148-2.014-20.649-12.131-19.824-5.642.459-6.178,9.169,2.368,12.7A28.276,28.276,0,0,1,1068.366,1597.2Z" fill="#7d4891"/><path d="M1060.284,1579.5c-.987-.517-4.826-.659-3.735,1.094s4.142,1.352,6.775,3.677C1062.843,1581.918,1062.783,1580.805,1060.284,1579.5Z" fill="#ecdaec"/><path d="M1030.652,1610.3c-4.033-5.3-21.919-13.893-28.886-3.279-3.887,5.919,4.293,13.146,14.343,7.429A35.4,35.4,0,0,1,1030.652,1610.3Z" fill="#7d4891"/><path d="M1006.97,1604.659c-1.269.577-4.363,4.256-1.794,4.527s4.52-3.047,8.84-3.855C1011.327,1604,1010.183,1603.2,1006.97,1604.659Z" fill="#ecdaec"/><path d="M1135.435,1608.566c3.429-4.916,19.195-13.316,25.858-4.031,3.718,5.178-3.369,11.984-12.622,7.218A31.863,31.863,0,0,0,1135.435,1608.566Z" fill="#7d4891"/><path d="M1156.525,1602.6c1.162.472,4.083,3.665,1.781,4s-4.179-2.571-8.094-3.135C1152.58,1602.172,1153.58,1601.413,1156.525,1602.6Z" fill="#ecdaec"/><path d="M1107.721,1587.081c-.738-4.246,3.061-16.515,11.164-15.145,4.518.763,4.344,7.824-2.793,10.074A22.891,22.891,0,0,0,1107.721,1587.081Z" fill="#7d4891"/><path d="M1115.471,1573.363c.832-.348,3.939-.2,2.937,1.142s-3.435.8-5.72,2.495C1113.239,1575.14,1113.364,1574.245,1115.471,1573.363Z" fill="#ecdaec"/><path d="M1097.929,1664.786c4.105,2.02,12.26,12.946,6.023,19.045-3.478,3.4-9.43-1.16-6.9-8.691A24.338,24.338,0,0,0,1097.929,1664.786Z" fill="#7d4891"/><path d="M1104.86,1680.01c-.22.931-2.293,3.5-2.815,1.807s1.457-3.45,1.431-6.47C1104.731,1676.984,1105.418,1677.65,1104.86,1680.01Z" fill="#ecdaec"/><path d="M1090.621,1892.278c-9.111.255-41.021,3.14-27.34,4.675s25.4,5.555,8.213,8.357,12.117,10.844,39.463,5.543,7.424-6.511-3.911-8.361-11.732-3.711-5.479-6.2S1101.959,1891.96,1090.621,1892.278Z" fill="#7d4891"/><path d="M1048.908,1900.007c9.628-1.78,15.3-12.623,2.978-10.359s-25.038,2.278-34.006.481S1026.868,1904.08,1048.908,1900.007Z" fill="#7d4891"/></g></svg>