<svg xmlns="http://www.w3.org/2000/svg" width="335.351" height="515.661" viewBox="0 0 335.351 515.661"><g transform="translate(-2036.786 -1901.844)"><path d="M2243.238,2381.121c47.083,7.561,25.948,43.774-12.226,35.032s-85.716,5.955-105.956-8.415S2140.384,2364.6,2243.238,2381.121Z" fill="#438"/><path d="M2103.3,1990.558c-34.434-1.815-45.772,8.158-40.847,17.6,4.7,9.019,59.857,20.971,59.857,20.971Z" fill="#e53b12"/><path d="M2245.677,2249.848a3,3,0,0,1-1.751.286,3.04,3.04,0,0,1-2.6-3.423c5.988-44.28-24.629-88.847-24.937-89.293a3.042,3.042,0,0,1,4.99-3.48,169.055,169.055,0,0,1,15.372,29.029c6.664,15.956,13.907,40.107,10.6,64.563A3.03,3.03,0,0,1,2245.677,2249.848Z" fill="#00988e"/><path d="M2159.092,2287.252s-16.642,45.7,2.963,88.464c6.975,1.318,9.437-6.846,9.437-6.846s-16.762-42.011-.488-76.006C2167.828,2286.473,2159.092,2287.252,2159.092,2287.252Z" fill="#faccac"/><path d="M2153.279,2345.321a102.574,102.574,0,0,0,8.776,30.4c6.975,1.318,9.437-6.846,9.437-6.846a155.137,155.137,0,0,1-5.692-24.463C2164.529,2346.379,2156.966,2348.559,2153.279,2345.321Z" fill="#00988e"/><path d="M2173.019,2380.238c1.539,2.9,5.293,9.27-1.274,15.66s-17.641,10.4-28.35,7.525c-9.009-2.415-4.276-12.437-4.276-12.437Z" fill="#fff"/><path d="M2171.172,2367.6c2.281,2.006,5.527,14.718.573,19.669-4.927,4.94-15.049,12.372-27.9,9.729-10.073-2.07-4.02-10.894.979-14.561s14.341-13.58,14.341-13.58S2161.043,2374.308,2171.172,2367.6Z" fill="#e53b12"/><path d="M2166.708,2370.026c.606-.531,1.96-5.737.863-7.3-2.057-2.937-12.052-1.913-12.326-.145-.473,3.05,2.617,7.354,2.617,7.354S2162.3,2372.78,2166.708,2370.026Z" fill="#e53b12"/><path d="M2154.791,2372.333c3.829-1.426,9.394.1,11.474,2.706,2.059,2.61-.075,4.926-1.71,4.9s-6.524-1.963-11.916-2.282C2147.257,2377.352,2151.724,2373.451,2154.791,2372.333Z" fill="#ffcf00"/><path d="M2148.107,2378.931c3.829-1.425,9.393.1,11.474,2.706,2.057,2.612-.074,4.927-1.712,4.9s-6.523-1.963-11.913-2.281C2140.572,2383.953,2145.039,2380.05,2148.107,2378.931Z" fill="#ffcf00"/><path d="M2205.335,2298.553s40.347,27.166,86.572,18.438c2.958-6.448-4.371-10.8-4.371-10.8s-44.81,6.147-73.882-17.841C2206.684,2289.887,2205.335,2298.553,2205.335,2298.553Z" fill="#faccac"/><path d="M2260.949,2318.048a98.1,98.1,0,0,0,30.958-1.057c2.958-6.448-4.371-10.8-4.371-10.8a154.982,154.982,0,0,1-25.113-.371C2264.705,2307.816,2265.079,2314.215,2260.949,2318.048Z" fill="#00988e"/><path d="M2298.935,2307.442c3.185-.8,10.8-2.6,15.421,5.312s4.371,19.841-1,29.543c-4.515,8.158-12.159.637-12.159.637Z" fill="#fff"/><path d="M2286.228,2306.191c2.5-1.731,17.008-2.131,20.619,3.869a32.273,32.273,0,0,1,1.331,29.733c-4.437,9.278-11.541,1.278-13.9-4.456s-9.725-17.194-9.725-17.194S2290.3,2317.635,2286.228,2306.191Z" fill="#e53b12"/><path d="M2287.507,2311.107c-.368-.715-5.1-3.284-6.877-2.6-3.349,1.292-4.762,11.236-3.111,11.929,2.846,1.194,7.767-.767,7.767-.767S2289.116,2316.052,2287.507,2311.107Z" fill="#e53b12"/><path d="M2286.87,2323.226c-.459-4.059,2.364-9.09,5.394-10.481,3.028-1.37,4.762,1.259,4.34,2.841s-3.476,5.857-5.086,11.01C2289.929,2331.75,2287.22,2326.473,2286.87,2323.226Z" fill="#ffcf00"/><path d="M2291.666,2331.3c-.46-4.058,2.364-9.092,5.4-10.483,3.026-1.366,4.759,1.261,4.339,2.842s-3.478,5.858-5.088,11.01C2294.724,2339.828,2292.017,2334.552,2291.666,2331.3Z" fill="#ffcf00"/><path d="M2120.286,2171.82c-6.81,3.892-27.295,18.848-44.622,30.589-10.952.065-17.935,5.346-17.87,7.473.089,2.947,6.884-1.51,8.475-1.166-.15.195-8.28,6.748-9.467,7.885-2.747,2.638-1.194,5.409,1.889,4.143a72.1,72.1,0,0,0,8.242-4.662c-.19.278-5.575,6.349-6.544,7.386-2.866,3.092,0,6.867,4.356,2.964,2.886-2.585,6.711-6.466,6.586-6.386,0,.256-2.7,5.093-3.435,7.612-1.2,4.1,2.419,5.191,4.731,1.138,1.909-3.346,8.145-12.14,8.145-12.14s3.242,6.887,5.7,5.58c3.108-1.653-2.525-11.35-2.525-11.35s23.34-14.37,41.756-27.152C2123.319,2181.135,2121.369,2176.585,2120.286,2171.82Z" fill="#faccac"/><path d="M2205.446,2149.02a117.732,117.732,0,0,1-13.929-2.637,64.718,64.718,0,0,1,.285-14.748l-12.79-.912s-.665,11.414-.367,15.973c-9.189,2.674-16.922,4.137-16.922,4.137s-2.88,23.087,21.49,23.578C2191.741,2174.581,2204.242,2164.96,2205.446,2149.02Z" fill="#faccac"/><path d="M2179.724,2133.6l9.913.129s.292,11.724.414,14.991c-3.213-3.466-8.108-3.982-9.606-.289C2180.168,2141.923,2179.724,2133.6,2179.724,2133.6Z" fill="#f0b38a"/><path d="M2162.555,2150.778c-10.482,36.575,32.055,29.12,46.527-1.941,5.132-.371,30.85,7.811,48.356,8.124,1.562,5.939.937,12.192-4.688,30.635-.682-.007-21.7-.3-22.508.626-.453,17.442,1.87,42.25,2.568,58.625,0,0-30.276,11.367-80.192,8.525-.016-.005-3.177-53.5-6.293-68.525,2.626-.925-17.153,10.058-18.19,9.4-2.82-1.785-12.516-20.758-9.575-27.579C2118.914,2167.845,2142.25,2153.08,2162.555,2150.778Z" fill="#ffcf00"/><path d="M2166.481,2149.239c-.475,10.369,4.4,17.208,15.121,17.847,13.7.815,20.194-8.525,20.485-19.8a68.8,68.8,0,0,0,10.074.955s1.3,26.42-28.391,28.937c-28.21,2.394-27.01-26.407-27.01-26.407Z" fill="#e53b12"/><path d="M2111.065,2171.2c8.6,18.844,8.579,18.817,17.055,27.949a41.32,41.32,0,0,0,7.363-4.563c-4.119-3.855-10.875-13.722-16.109-28.016C2115.7,2168.342,2111.065,2171.2,2111.065,2171.2Z" fill="#e53b12"/><path d="M2137.525,2291.789c16.925,5.953,34.635,8.37,41.555,7.825,2.15-3.842,4.207-9.259,8.093-15.667,2.278,4.334,5.025,11.549,8.426,16.321,6.885-.892,27.194-1.913,43.114-6.592-3.063-23.554-4.592-39.295-6.393-57.457-19.059,6.165-61.559,6.845-81.481,4.73C2144.207,2256.793,2139.267,2281.776,2137.525,2291.789Z" fill="#ec7fad"/><path d="M2190.693,2249.738c.09-.025,22.989-.291,42.7-4.964-.109-4.489-1.1-9.262-1.208-13.325-19.452,4.783-61.606,7.937-82.253.571.148,4.062-1.671,9.969-1.494,14.458C2168.4,2249.892,2190.6,2249.719,2190.693,2249.738Z" fill="#e53b12"/><path d="M2216.919,2250.255s5.241,9.774,13.138,13.917c-.954,2.579-2.981,6.921-2.981,6.921s-15.1-8.194-18.127-18.356A19.808,19.808,0,0,0,2216.919,2250.255Z" fill="#e53b12"/><path d="M2157.205,2249.662s-5.24,9.775-13.138,13.916c.953,2.579,2.983,6.919,2.983,6.919s15.1-8.191,18.123-18.352A19.773,19.773,0,0,1,2157.205,2249.662Z" fill="#e53b12"/><path d="M2180.959,2295.922s-29.5.541-42.905-6.86c-1.051,6.243-2.549,15.2-2.267,16.435,0,0,30.271,8.595,40.915,5.2C2178.187,2307.328,2179.494,2301.11,2180.959,2295.922Z" fill="#e53b12"/><path d="M2192.546,2299.852s19.786-4.529,41.717-21.856a69.944,69.944,0,0,1,7.246,15.438s-27.619,19.086-39.407,18.629C2199.328,2309.635,2196.066,2303.934,2192.546,2299.852Z" fill="#e53b12"/><path d="M2189.759,2243.731a4.74,4.74,0,0,1-5.148,4.285h0a4.737,4.737,0,0,1-4.283-5.148h0a4.733,4.733,0,0,1,5.146-4.284h0a4.737,4.737,0,0,1,4.285,5.147Z" fill="#f9b500"/><path d="M2142.3,2153.5s9.871,61.2,11.345,82.215c6.266,2.213,10.323,1.107,10.323,1.107l-11.468-85.534Z" fill="#e53b12"/><path d="M2150.792,2232l1.721,8.6h14.5l-.737-8.36Z" fill="#00988e"/><path d="M2227.375,2151.87s-7.253,61.2-8.727,82.215c-6.267,2.21-10.322,1.108-10.322,1.108l8.85-85.535Z" fill="#e53b12"/><path d="M2221.5,2230.378l-1.722,8.6h-14.5l.737-8.358Z" fill="#00988e"/><path d="M2263.679,2156.947c-.223,20.71-.216,20.678-4.265,32.463a41.378,41.378,0,0,1-8.578-1.188c2.2-5.192,4.38-16.953,3.369-32.141C2258.28,2156.213,2263.679,2156.947,2263.679,2156.947Z" fill="#e53b12"/><path d="M2240.414,2209.191c-6.461.99-39.927,18.813-45.346,22.115,10.977-.107,31.516,50.663,31.516,50.663s34.746-12.683,43.556-33.77C2257.264,2230.563,2252.066,2207.4,2240.414,2209.191Z" fill="#00988e"/><path d="M2239.355,2208.667c-6.462.994-40.006,19.127-45.424,22.43,6.412-3.591,31.414,32.459,31.414,32.459s32.918-8.967,41.731-30.054C2257.694,2216.282,2251.007,2206.876,2239.355,2208.667Z" fill="#51b9ab"/><path d="M2226.584,2281.969s-11.755-4.3-17.78,1.493c-14.328-25.248-19.017-50.561-13.736-52.156C2209.346,2226.988,2226.584,2281.969,2226.584,2281.969Z" fill="#00756b"/><path d="M2249,2243.532c1.871,2.4,5.693,8.546,6.122,11.083s-5.73,6.167-7.7,3.316-5.531-10.056-5.75-11.592S2247.01,2240.984,2249,2243.532Z" fill="#00756b"/><path d="M2198.311,2243.241a3,3,0,0,0,1.646-.659,3.04,3.04,0,0,0,.467-4.276c-27.979-34.841-24.75-88.813-24.714-89.355a3.042,3.042,0,0,0-6.07-.408,169.126,169.126,0,0,0,1.81,32.8c2.526,17.1,8.781,41.532,24.233,60.771A3.036,3.036,0,0,0,2198.311,2243.241Z" fill="#00988e"/><path d="M2263.148,2175.1s25.5,3.2,58.393-19.04c4.131,3.039,9.642,1.321,16.468-2.442,5.654-1.18,9.295-2.946,8.406-5.026-.93-2.149-7.1-.336-8.694-.118.2-.147,7.519-3.186,9.1-3.969,3.632-1.827,2.343-5.5-1.055-4.512-2.864.832-9.282,3.21-9.616,3.319.268-.225,7.359-4.445,8.681-5.212,3.889-2.242,1.948-6.884-2.564-4.4-3.07,1.681-8.342,4.83-8.872,4.981.1-.26,3.4-3.539,5.226-5.623,3-3.428,1.524-4.317-3.549-3.183-6.32,1.41-12.488.755-19.385,6.985-3.23,2.918-3.516,9.9-3.516,9.9s-19.344,14.983-48.7,12.257A140.452,140.452,0,0,1,2263.148,2175.1Z" fill="#faccac"/><rect width="87.386" height="11.11" transform="translate(2331.934 2192.227) rotate(-70.147)" fill="#e8500e"/><rect width="87.456" height="10.709" transform="matrix(0.34, -0.941, 0.941, 0.34, 2304.631, 2182.37)" fill="#c01d18"/><rect width="87.086" height="18.812" transform="matrix(0.34, -0.941, 0.941, 0.34, 2314.573, 2185.96)" fill="#e53b12"/><path d="M2350.776,2140.161c-4.634,12.741-18.423,51.948-18.423,51.948l19.335-51.632,10.148-30.276S2354.691,2129.39,2350.776,2140.161Z" fill="#f5aa86"/><path d="M2333.226,2133.826c-4.632,12.741-18.423,51.947-18.423,51.947l19.336-51.632,10.148-30.275S2337.141,2123.054,2333.226,2133.826Z" fill="#f5aa86"/><path d="M2372.137,2113.7c-1.819,2.225-7.952,3.573-19.951-.2-10.982-3.455-18.626-10.687-17.8-13.541,9.617-8.7,23.764-21.4,28.752-25.871,1.1-.988,2.439-1,2.751.707C2367.449,2083.3,2372.114,2109.1,2372.137,2113.7Z" fill="#ffdd97"/><path d="M2360.093,2086.564c-3.945-1.357-5.889-2.735-6.61-3.8q.608-.547,1.2-1.084c3.6-3.231,6.635-5.96,8.458-7.588,1.1-.988,2.439-1,2.751.707.481,2.614,1.252,6.865,2.1,11.632.005.032.011.065.015.1C2367.04,2087.058,2364.427,2088.057,2360.093,2086.564Z" fill="#c01d18"/><path d="M2364.635,2075.957c1.2-1.026,2.647,9.641,1.472,10.343S2364.4,2076.157,2364.635,2075.957Z" fill="#ef8165"/><path d="M2366.522,2089.78c1.128-1.326,5.285,18.725,2.211,21.37C2367.591,2112.134,2363.926,2092.818,2366.522,2089.78Z" fill="#fff3d6"/><path d="M2363.23,2090.262c.771-1.563.83,21.967-.35,22.746C2362.188,2113.467,2362.568,2091.6,2363.23,2090.262Z" fill="#f8b555"/><path d="M2354.329,2087.027c.826-1.533-14.416,15.269-14.564,16.507C2339.666,2104.357,2351.8,2091.706,2354.329,2087.027Z" fill="#f8b555"/><path d="M2359.356,2089.19c.769-1.562-5.568,19.252-6.749,20.033C2351.914,2109.68,2358.7,2090.531,2359.356,2089.19Z" fill="#e18437"/><path d="M2318.886,2202.111c7.268,2.6,15.453,4.173,20.349,3.187-1.368,3.784-3.455,9.567-5.371,14.877-1.2,3.314-13.657,1.016-20.929-1.581-7.255-2.647-18.421-8.083-16.971-12.1,1.247-3.452,3.621-10.038,5.371-14.878C2304.471,2195.5,2311.631,2199.467,2318.886,2202.111Z" fill="#ec7fad"/><path d="M2325.787,2183c7.27,2.6,15.45,4.173,20.348,3.188-1.367,3.785-5.279,14.621-7.194,19.927-4.9.988-13.079-.584-20.351-3.183-7.253-2.646-14.413-6.613-17.551-10.5,1.245-3.45,5.448-15.09,7.2-19.93C2311.372,2176.387,2318.531,2180.352,2325.787,2183Z" fill="#bec3c3"/><path d="M2327.827,2205.527a68.518,68.518,0,0,1-9.237-2.6,66.9,66.9,0,0,1-8.915-3.994l7.194-19.931a66.809,66.809,0,0,0,8.918,3.993,68.107,68.107,0,0,0,9.233,2.6Z" fill="#dae2e3"/><path d="M2344.873,2189.679c-.183.505-.149.414-.262.725-4.9.984-13.077-.586-20.347-3.187-7.256-2.645-14.414-6.61-17.552-10.5.013-.039.028-.075.04-.112.111-.308.182-.5.219-.612,3.139,3.887,10.3,7.852,17.553,10.5C2331.795,2189.094,2339.976,2190.664,2344.873,2189.679Z" fill="#818685"/><path d="M2340.308,2202.322c-.183.507-.15.417-.262.728-4.9.983-13.077-.588-20.35-3.188-7.254-2.644-14.413-6.61-17.55-10.5.014-.038.027-.075.039-.113.113-.307.183-.5.222-.611,3.139,3.886,10.3,7.852,17.553,10.5C2327.229,2201.738,2335.411,2203.311,2340.308,2202.322Z" fill="#818685"/><path d="M2314.869,2139.558c2.534-2.348,11.151-5.277,12.989-.981s-14.876,7.731-14.876,7.731Z" fill="#faccac"/><path d="M2116.117,2205.71s24.443-23.206,74.787-8.949c-.324,4.183-4.135,27.351-4.135,27.351Z" fill="#fff7e6"/><path d="M2116.661,2206.415s1.867-24.474-58.732-39.1c.675,5.9,4.906,33.9,4.906,33.9Z" fill="#fff7e6"/><path d="M2113.381,2208.95c14.5-19.264,73.022-1.78,81.787,3.989-.641,6.677-2.7,16.974-4.676,16.72C2187.793,2229.314,2110.857,2212.3,2113.381,2208.95Z" fill="#f4ebdb"/><path d="M2116.735,2207.48c-2.681-23.966-57.489-28.848-67.969-28.346.245,4.682.457,12.158,2.4,12.558C2053.846,2192.246,2117.2,2211.649,2116.735,2207.48Z" fill="#f4ebdb"/><path d="M2044.061,2182.734c1.262,4.128,22.817,64.775,24.952,67.74s14.947,19.3,53.191,27.1c13.928,5.81,57.48,3.039,65.039,1.731.8-7.484,10.806-60.539,10.806-60.539l-69.076-7.531s-1.855,3.972-13.2,1.989S2098,2202.059,2098,2202.059Z" fill="#0080c9"/><path d="M2046.2,2183.666c.628,2.056,49.44,33.02,55.787,49.424,6.4,16.554-30.265,16.715-29.192,18.206,2.132,2.961,12,14.072,50.5,25.021,27.387,7.212,50.123.808,61.741,1.325.379-3.569-48.194-20.17-47.3-34.194.988-15.365,60.317-24.682,60.317-24.682l-69.076-7.531s-2.529,1.781-13.256-2.406c-8.851-3.457-17.718-6.77-17.718-6.77Z" fill="#006cb5"/><path d="M2048.77,2181.177s47.732,18.658,52.3,19.906c5.494,1.715,17.019,5.726,26.182,7.792,1.654.332,46.566,5.54,67.549,7.424,3.538.318,4.16,3.764,2.06,3.608-14.161-1.047-64.623-5.679-64.623-5.679s-5.582-1.092-18.315-4.575c-12.411-3.392-16.525-5.168-16.525-5.168s-46.587-18.912-52.487-20.734C2041.427,2182.773,2043.965,2179.811,2048.77,2181.177Z" fill="#009ee2"/><path d="M2050.153,2182.921c-4.408-1.188-4.267.613-.483,1.532s35.446,13.95,39.425,15.041c3.823,1.051,3.52-.135.262-1.185S2050.153,2182.921,2050.153,2182.921Z" fill="#afdbf6"/><path d="M2189.49,2216.815c2.622.106,5.268,1.319,1.387,1.431-4.846.143-46.661-4.4-50.714-4.593-4.907-.235-3.94-1.035-.187-.943C2143.2,2212.788,2189.49,2216.815,2189.49,2216.815Z" fill="#afdbf6"/><path d="M2097.4,2204.485c2.374,8.141,10.12,64.6,13.806,69.508,2.038,10.1,16.848,10.926,23.648,6.466-2.99-29.518-2.614-66.231-2.614-66.231a170.6,170.6,0,0,1-18.315-4.575C2102.486,2206.3,2097.4,2204.485,2097.4,2204.485Z" fill="#0080c9"/><path d="M2105.933,2223.52c-.646-7.78,9.223-9.234,11.168,3.688s4.145,45.159.113,47.141S2108.2,2250.741,2105.933,2223.52Z" fill="#009ce1"/><path d="M2114.861,2226.575c-5.368-1.471-10.42-4.108-13.012-7.021-.238-.266-.276-.611-.09-.768s.533-.067.772.2c4.662,5.245,18.626,9.631,25.984,6.762a.722.722,0,0,1,.769.368c.185.3.146.607-.089.7C2125.367,2228.307,2119.971,2227.971,2114.861,2226.575Z" fill="#004186"/><path d="M2116.267,2239.473c-4.858-1.327-9.424-3.71-11.768-6.346-.214-.241-.25-.552-.082-.692s.482-.061.7.177c4.22,4.745,16.85,8.713,23.5,6.12a.642.642,0,0,1,.7.332c.166.266.137.552-.081.632C2125.772,2241.045,2120.889,2240.737,2116.267,2239.473Z" fill="#004186"/><path d="M2117.516,2251.322c-4.592-1.256-8.916-3.512-11.129-6.005-.205-.223-.239-.521-.078-.657a.516.516,0,0,1,.656.173c3.992,4.487,15.936,8.238,22.23,5.784a.613.613,0,0,1,.657.313c.159.256.128.523-.073.6C2126.507,2252.81,2121.888,2252.518,2117.516,2251.322Z" fill="#004186"/><path d="M2118.674,2262.324c-4.368-1.194-8.482-3.345-10.592-5.716-.188-.213-.224-.494-.07-.621s.432-.057.627.161c3.8,4.269,15.155,7.835,21.142,5.506a.586.586,0,0,1,.627.3c.152.241.121.5-.074.569C2127.225,2263.737,2122.832,2263.46,2118.674,2262.324Z" fill="#004186"/><path d="M2119.681,2272.258c-4.372-1.2-8.484-3.342-10.591-5.714-.19-.215-.226-.494-.073-.623s.434-.055.626.163c3.793,4.269,15.155,7.838,21.145,5.5a.593.593,0,0,1,.624.3c.153.242.122.5-.072.573C2128.228,2273.671,2123.838,2273.4,2119.681,2272.258Z" fill="#004186"/><path d="M2050.7,2216.246c-1.132-6.154-3.516-13.371.568-13.039.49,1.486,3.907,7.851,3.907,7.851s6.111-7.248,9.071-5.268c4.258,2.847-3.629,8.687-3.629,8.687s10.287-4.709,12.17-.334c1.809,4.2-10.262,5.1-10.262,5.1s9.78-.175,10.638,3.034c1.226,4.586-8.731,2.264-8.731,2.264s6.283,2.575,4.776,4.987c-1.225,1.963-10.706-2.327-10.706-2.327S2052.867,2224.331,2050.7,2216.246Z" fill="#faccac"/><path d="M2272.677,2072.771c.69-1.1,16.525-6.1,25.457,6.45-.31-10.059,12.56-11.612,21.035-4.095-4.91-11.037,3.95-14.692,11.923-14.877-9.595-8.206-2.523-21.74,8.526-19.611,4.839-11.671-.295-24.443-11.381-39.56,8.229.73,19.837,17.4,19.837,17.4s1.93-8.955-2.218-22.27c14.581,15.4,23.171,31.646,4.419,50.661,5.788,5.643,1.964,17.359-8.943,17.282,10.179,12.134-3.815,26.636-15.344,20.7,2.078,16.7-13.944,29.062-25.541,15.851-1.659,23.059-32.852,21.572-42.542,9.108C2249.387,2095.8,2272.677,2072.771,2272.677,2072.771Z" fill="#8e423c"/><path d="M2337.34,2040.622s-.961-8.754,5.134-9.011c8.479-.693,13.24,7.474,13.24,7.474s1.784,4.966-4.939,8.642C2347.839,2044.208,2337.34,2040.622,2337.34,2040.622Z" fill="#ffcf00"/><path d="M2111.469,2048.775c-.4-1.239-14.534-9.953-26.259.039,2.754-9.678-9.347-14.327-19.4-9.106,7.455-9.506-.243-15.212-7.93-17.338,11.309-5.615,7.754-20.466-3.479-21.1-1.843-12.5,6.254-23.632,20.7-35.584-8.157-1.3-23.486,12.028-23.486,12.028s.317-9.154,7.59-21.054c-17.9,11.37-30.2,25.03-16.655,48.049-6.992,4.059-6.143,16.354,4.453,18.943-12.834,9.281-2.8,26.762,9.828,23.816-6.094,15.685,6.425,31.587,20.9,21.607-4.021,22.767,26.591,28.94,39.032,19.22C2128.431,2076.8,2111.469,2048.775,2111.469,2048.775Z" fill="#8e423c"/><path d="M2056.613,2001.812s3.069-8.254-2.778-9.992c-8.055-2.743-14.665,4.015-14.665,4.015s-2.943,4.381,2.679,9.586C2045.556,2002.725,2056.613,2001.812,2056.613,2001.812Z" fill="#ffcf00"/><path d="M2313.249,2025.818c-7.06-17.258-34.518-25.888-34.518-25.888s9.311-8.953,4.707-29.026c-6.437-28.067-33.822-49.067-75.088-29.621-17.049-14.956-81.548-18.756-91.484,6.609-7.512,19.176,3.137,30.334,3.137,30.334s-24.26,12.548-32.948,24.319c-8.106,10.983-3.595,19.211,10.366,20.942-14.3,3-7.859,31.408,14.635,33.865,0,0,53.159,4.391,83.471,5.738,29.723,6.094,82.345,14.816,82.345,14.816,22.414,3.109,35.593-22.871,22.462-29.267C2314.293,2050.369,2317.762,2036.85,2313.249,2025.818Z" fill="#8e423c"/><path d="M2112.9,2054.494c-5.792,46.8,26.867,82.465,71.928,88.042s85.432-21.054,91.224-67.852-26.241-87.559-71.3-93.136S2118.685,2007.7,2112.9,2054.494Z" fill="#faccac"/><path d="M2116.1,2055.25s.08-9.641-11.184-12.715c-11.879-3.233-19.09,11.906-14.035,22.356,5.059,10.432,18.5,12.632,23.8,5.854Z" fill="#faccac"/><path d="M2101.933,2046.311c8.077-.125,12.2,14.71.4,20.177,6.07-9.035,2.5-13.046-3.891-9.292.578-3.176,2.859-4.869,7.536-3.758C2106.286,2049.167,2101.933,2046.311,2101.933,2046.311Z" fill="#d78561"/><path d="M2273.252,2074.733s2.272-9.369,13.944-9.6c12.313-.238,15.612,16.2,8.168,25.1s-21.018,7.741-24.513-.125Z" fill="#faccac"/><path d="M2289.177,2069.52c-7.8-2.091-15.415,11.294-5.3,19.47-3.687-10.241.756-13.26,6.034-8.064.215-3.218-1.582-5.416-6.387-5.482C2284.261,2071.229,2289.177,2069.52,2289.177,2069.52Z" fill="#d78561"/><path d="M2194.379,2058.631c-.5,4.973,10.4,13.777,4.268,18.346-3.795,2.826-10.05.178-8.117-7.049C2191.651,2065.742,2194.379,2058.631,2194.379,2058.631Z" fill="#ec684e"/><path d="M2235.3,2039.934c3.372-7.76,18.367-4.993,21.562,9.445C2251.063,2041.249,2235.3,2039.934,2235.3,2039.934Z" fill="#8e423c"/><path d="M2160.9,2030.712c-1.376-8.348-16.593-9.325-23.217,3.9C2145.29,2028.138,2160.9,2030.712,2160.9,2030.712Z" fill="#8e423c"/><path d="M2149.258,1990.757c-18.776,15.515-13.974,23.431-5.773,22.579,13.054-1.355,22.615-18.509,22.615-18.509s-10.533,21,10.636,18.17,25.906-21.075,25.906-21.075,3.082,31.113,25.471,30.417c12.641-.391,4.124-25.262,4.124-25.262s11.387,30.667,24.245,24.318c20.062-9.9-26.832-47.437-54.47-48.385S2149.258,1990.757,2149.258,1990.757Z" fill="#8e423c"/><path d="M2151.726,2081.6c-.6,4.811-8.364,7.81-17.351,6.7s-15.788-5.917-15.191-10.729,8.364-7.81,17.351-6.7S2152.322,2076.793,2151.726,2081.6Z" fill="#ec684e"/><path d="M2263.785,2095.494c-.6,4.813-8.365,7.81-17.352,6.7s-15.787-5.918-15.191-10.729,8.366-7.81,17.352-6.7S2264.381,2090.682,2263.785,2095.494Z" fill="#ec684e"/><path d="M2155.693,2049.453c10.2,1.67,12.72,14.31,12.811,13.758a14.864,14.864,0,1,0-29.336-4.8C2139.078,2058.964,2144.771,2047.667,2155.693,2049.453Z" fill="#7c462f"/><path d="M2235.063,2059.289c10.206,1.671,12.721,14.312,12.812,13.76a14.864,14.864,0,1,0-29.336-4.8C2218.448,2068.8,2224.142,2057.5,2235.063,2059.289Z" fill="#7c462f"/><path d="M2212.59,2088.888c-4.991-6.974-8.168,2.686-20.835,1.114-12.928-1.6-13.633-12.182-20.709-4.889-5.774,5.95-5.337,43.647,15.9,45.825C2208.343,2133.106,2217.347,2095.525,2212.59,2088.888Z" fill="#5c2926"/><path d="M2173.167,2121.4c3.021,5.13,7.486,8.9,13.775,9.538,5.9.6,10.848-1.824,14.836-5.783a30.2,30.2,0,0,0-14.28-5.186A28.885,28.885,0,0,0,2173.167,2121.4Z" fill="#ec684e"/><path d="M2210.705,2086.953c-4.1-2.7-7.937,4.416-18.95,3.049-11.142-1.381-13.208-9.422-18.1-6.95,2.641,8.537,7.9,15.81,16.882,16.728C2199.438,2100.686,2206.19,2094.711,2210.705,2086.953Z" fill="#fff"/><path d="M2290.107,2055.667c9.056-10.769-8.6-18-11.746-6.054-7.555-14.321-21.7,2.941-7.956,9.63-16.661,6.806-.993,17.84,5.437,12.891,8.46,14.986,21.3,3.975,14.783-5.562C2305.259,2071.718,2302.771,2052.01,2290.107,2055.667Z" fill="#fff"/><path d="M2273.846,2057.779a7.93,7.93,0,1,0,10-5.086A7.926,7.926,0,0,0,2273.846,2057.779Z" fill="#ffcf00"/><path d="M2197.929,1911.283c1.569-12.029,22.227-13.859,23.292,2.155A140.772,140.772,0,0,1,2197.929,1911.283Z" fill="#e53b12"/><path d="M2280.9,1934.585c-14.714-11.466-44.087-20.757-73.109-23.9-28.588-3.1-58.58,2.277-74.672,12.6-25.141,16.116-30.091,51.822-32.334,67.462,53,2.322,150.277,7.606,202.83,21.962C2303.6,1987.275,2304.448,1952.932,2280.9,1934.585Zm-50.613,52.271c-10.09,2.035-28.539,1.878-50.227-4.027-14.656-3.991-5.951-20.117,2.055-18.486,23.093,4.692,36.83,4.063,47.384,4.25C2237.714,1968.74,2240.386,1984.822,2230.289,1986.856Z" fill="#00988e"/></g></svg>