<svg xmlns="http://www.w3.org/2000/svg" xmlns:xlink="http://www.w3.org/1999/xlink" width="1920" height="1080" viewBox="0 0 1920 1080"><defs><clipPath id="a"><rect width="1920" height="1080" fill="none"/></clipPath><linearGradient id="b" x1="0.5" x2="0.5" y2="0.702" gradientUnits="objectBoundingBox"><stop offset="0" stop-color="#008fcd"/><stop offset="1" stop-color="#c6e7f6"/></linearGradient><linearGradient id="c" x1="0.5" x2="0.5" y2="0.626" gradientUnits="objectBoundingBox"><stop offset="0" stop-color="#1ab0db"/><stop offset="0.114" stop-color="#26b3dc"/><stop offset="0.319" stop-color="#46bee2"/><stop offset="0.594" stop-color="#7acfea"/><stop offset="0.925" stop-color="#c1e7f6"/><stop offset="1" stop-color="#d3edf9"/></linearGradient><linearGradient id="d" x1="-28.76" y1="0.606" x2="-27.79" y2="0.606" gradientUnits="objectBoundingBox"><stop offset="0" stop-color="#077cbc"/><stop offset="1" stop-color="#76b8de"/></linearGradient><linearGradient id="e" x1="-37.808" y1="0.614" x2="-36.778" y2="0.614" gradientUnits="objectBoundingBox"><stop offset="0" stop-color="#07649f"/><stop offset="1" stop-color="#4597cc"/></linearGradient><linearGradient id="f" x1="-43.459" y1="0.699" x2="-42.455" y2="0.699" gradientUnits="objectBoundingBox"><stop offset="0" stop-color="#a23b35"/><stop offset="1" stop-color="#5e1c1a"/></linearGradient><linearGradient id="g" x1="-83.317" y1="0.707" x2="-82.285" y2="0.707" gradientUnits="objectBoundingBox"><stop offset="0" stop-color="#b94a3e"/><stop offset="1" stop-color="#912d29"/></linearGradient><linearGradient id="h" x1="-29.325" y1="0.666" x2="-27.801" y2="0.605" gradientUnits="objectBoundingBox"><stop offset="0" stop-color="#1b81bc"/><stop offset="0.088" stop-color="#308ec4"/><stop offset="0.304" stop-color="#5facd8"/><stop offset="0.509" stop-color="#84c3e7"/><stop offset="0.7" stop-color="#9fd4f2"/><stop offset="0.869" stop-color="#afdef8"/><stop offset="1" stop-color="#b5e2fb"/></linearGradient><linearGradient id="i" x1="-37.812" y1="0.625" x2="-36.782" y2="0.625" gradientUnits="objectBoundingBox"><stop offset="0" stop-color="#2a7eb7"/><stop offset="1" stop-color="#4597cc"/></linearGradient><linearGradient id="j" x1="-23.609" y1="0.589" x2="-22.573" y2="0.589" xlink:href="#d"/><linearGradient id="k" x1="-27.885" y1="0.597" x2="-26.813" y2="0.597" xlink:href="#e"/><linearGradient id="l" x1="-42.232" y1="0.695" x2="-41.231" y2="0.695" xlink:href="#f"/><linearGradient id="m" x1="-76.803" y1="0.702" x2="-75.66" y2="0.702" xlink:href="#g"/><linearGradient id="n" x1="-23.796" y1="0.642" x2="-22.572" y2="0.584" xlink:href="#h"/><linearGradient id="o" x1="-55.942" y1="0.624" x2="-54.81" y2="0.624" xlink:href="#i"/><linearGradient id="p" x1="-28.442" y1="0.63" x2="-27.379" y2="0.63" xlink:href="#d"/><linearGradient id="r" x1="-31.006" y1="0.642" x2="-29.926" y2="0.642" xlink:href="#e"/><linearGradient id="s" x1="-46.242" y1="0.73" x2="-45.178" y2="0.73" xlink:href="#f"/><linearGradient id="t" x1="-56.554" y1="0.737" x2="-55.432" y2="0.737" xlink:href="#g"/><linearGradient id="u" x1="-28.422" y1="0.714" x2="-27.455" y2="0.601" xlink:href="#h"/><linearGradient id="v" x1="-31.013" y1="0.679" x2="-29.935" y2="0.679" xlink:href="#i"/><linearGradient id="w" x1="10.559" y1="1.004" x2="11.775" y2="1.004" xlink:href="#d"/><linearGradient id="y" x1="13.569" y1="1.044" x2="15.022" y2="1.044" xlink:href="#e"/><linearGradient id="z" x1="16.87" y1="1.382" x2="17.937" y2="1.382" xlink:href="#f"/><linearGradient id="aa" x1="31.723" y1="1.394" x2="33.487" y2="1.394" xlink:href="#g"/><linearGradient id="ab" x1="0" y1="0.5" x2="1" y2="0.5" xlink:href="#h"/><linearGradient id="ac" x1="13.773" y1="1.201" x2="15.245" y2="1.201" xlink:href="#i"/><linearGradient id="ad" x1="7.842" y1="0.322" x2="8.799" y2="0.322" xlink:href="#d"/><linearGradient id="ae" x1="8.937" y1="0.306" x2="9.825" y2="0.306" xlink:href="#e"/><linearGradient id="af" x1="11.391" y1="0.164" x2="12.388" y2="0.164" xlink:href="#f"/><linearGradient id="ag" x1="19.181" y1="0.151" x2="20.068" y2="0.151" xlink:href="#g"/><linearGradient id="ai" x1="8.938" y1="0.285" x2="9.826" y2="0.285" xlink:href="#i"/><linearGradient id="aj" x1="10.939" y1="0.733" x2="11.837" y2="0.733" xlink:href="#d"/><linearGradient id="ak" x1="15.83" y1="0.75" x2="16.884" y2="0.75" xlink:href="#e"/><linearGradient id="al" x1="18.202" y1="0.937" x2="19.213" y2="0.937" xlink:href="#f"/><linearGradient id="am" x1="36.485" y1="0.955" x2="37.563" y2="0.955" xlink:href="#g"/><linearGradient id="ao" x1="15.834" y1="0.773" x2="16.888" y2="0.773" xlink:href="#i"/><linearGradient id="ap" x1="8.612" y1="0.475" x2="9.597" y2="0.475" xlink:href="#d"/><linearGradient id="aq" x1="9.712" y1="0.473" x2="10.689" y2="0.473" xlink:href="#e"/><linearGradient id="ar" x1="16.329" y1="0.444" x2="17.329" y2="0.444" xlink:href="#f"/><linearGradient id="as" x1="24.999" y1="0.445" x2="25.951" y2="0.445" xlink:href="#g"/><linearGradient id="au" x1="17.838" y1="0.466" x2="18.798" y2="0.466" xlink:href="#i"/><linearGradient id="av" x1="0.001" y1="0.5" x2="1.001" y2="0.5" gradientUnits="objectBoundingBox"><stop offset="0" stop-color="#e9661b"/><stop offset="0.683" stop-color="#f8af24"/><stop offset="1" stop-color="#ffcc28"/></linearGradient><linearGradient id="aw" x1="0.5" y1="0.319" x2="0.5" y2="2.265" gradientUnits="objectBoundingBox"><stop offset="0" stop-color="#ffcc49"/><stop offset="1" stop-color="#ffeb5e"/></linearGradient><linearGradient id="ax" x1="-0.59" y1="0.5" x2="0.41" y2="0.5" gradientUnits="objectBoundingBox"><stop offset="0" stop-color="#f69a38"/><stop offset="1" stop-color="#ffcb3a"/></linearGradient><linearGradient id="ay" x1="0.499" y1="-0.008" x2="0.499" y2="2.089" gradientUnits="objectBoundingBox"><stop offset="0" stop-color="#ffc54e"/><stop offset="1" stop-color="#fff27e"/></linearGradient><linearGradient id="az" x1="0.001" y1="0.5" x2="1.001" y2="0.5" gradientUnits="objectBoundingBox"><stop offset="0" stop-color="#f58d18"/><stop offset="0.429" stop-color="#fab61f"/><stop offset="0.791" stop-color="#fdd224"/><stop offset="1" stop-color="#ffdd26"/></linearGradient><linearGradient id="ba" x1="0.011" y1="0.5" x2="1.011" y2="0.5" gradientUnits="objectBoundingBox"><stop offset="0" stop-color="#ffc54e"/><stop offset="1" stop-color="#fff4a6"/></linearGradient><linearGradient id="bb" x1="-0.724" y1="0.5" x2="0.276" y2="0.5" xlink:href="#ay"/><linearGradient id="bc" x1="-0.779" y1="0.5" x2="0.221" y2="0.5" gradientUnits="objectBoundingBox"><stop offset="0" stop-color="#ffd77a"/><stop offset="1" stop-color="#fff8c9"/></linearGradient><linearGradient id="bd" x1="0.5" y1="0.558" x2="0.5" y2="1.534" gradientUnits="objectBoundingBox"><stop offset="0" stop-color="#7ccbf4"/><stop offset="1" stop-color="#0a84c9"/></linearGradient><linearGradient id="be" x1="0.001" y1="0.5" x2="1.001" y2="0.5" xlink:href="#e"/><linearGradient id="bf" x1="0.501" y1="0.558" x2="0.501" y2="1.534" gradientUnits="objectBoundingBox"><stop offset="0" stop-color="#c6e8fc"/><stop offset="1" stop-color="#7dc2ee"/></linearGradient><linearGradient id="bg" x1="0.955" y1="0.5" x2="-0.151" y2="0.5" gradientUnits="objectBoundingBox"><stop offset="0" stop-color="#99d7f8"/><stop offset="1" stop-color="#53afe6"/></linearGradient></defs><g clip-path="url(#a)"><rect width="2020.051" height="981.798" transform="translate(-50.217 -7.258)" fill="url(#b)"/><path d="M1614.776,974.54c-314.967,151.016-1535.938,0-1535.938,0s-246.873-466.873,0-764.393c226.288-272.712,1529.3-261.642,1775.62,0C2108.65,480.144,1836.241,868.355,1614.776,974.54Z" fill="url(#c)"/><path d="M1786.419,705.425c157.006-107.424,99.349-283.491-68.862-258.92,74.373-121.2-38.693-252.043-165.266-132.215,38.563-170.777-218.274-228.451-286.469-132.214-15.91-118.76-284.591-153.228-327.782-38.563C899.478,33.334,652.618,33.943,618.521,179.321c-72.74-86-267.228-.248-283.791,86.925-45.463-36.856-203.749-4.291-134.887,130.678-53.132-57.357-223.113,60.6-77.125,214.85C-3.988,556.685-103.153,755.007,161.278,785.3c-294.729,90.9-16.527,253.413-16.527,253.413s1133.916,54.24,1455.947-76.294C1825.735,978.8,2013.313,772.3,1786.419,705.425Z" fill="#cbeafc"/><path d="M194.243,660.385c-122.091-91.57-34.351-255.91,96.43-239.912,14.055-91.63,171.485-184.279,287.719-113.387-30.521-75.318,115.279-130.927,188.871-64.412,19.282-112.933,165.626-84.024,184.549-8.264,22.487-76.571,216.417-106.7,247.9,27.545,67.171-79.414,256.8,20.424,272.1,100.923,73.467-30.254,115.448,22.689,102.069,75.654,87.109-75.81,234.574,54.8,151.941,181.506,61.965-4.593,140.478,201.076-70.978,279.163,170.317,35-88.782,92.69-88.782,92.69s-950.4,112.277-1247.777-8.262C110.476,998.754-15.277,722.141,194.243,660.385Z" fill="#fff"/><path d="M1715.2,347.816c-7.509.682-15.144,1.343-22.841,1.992,39.63-16.56,75.61-32.283,107.253-46.69,34.294-15.612,63.659-29.608,87.453-41.359,2.251-1.107,4.432-2.188,6.584-3.254a364.5,364.5,0,0,1,30.824,53.853q-15.093,6.73-32.375,14.216l-4.256.616q-14.7,2.135-30.434,4.422c-10.527,1.414-21.427,2.767-32.626,4.221l-17.037,2.189c-5.761.735-11.648,1.328-17.583,2.014l-36.541,4.083Q1734.84,345.923,1715.2,347.816ZM186.153,740.654c51.919,8.221,108.418,16.483,168.539,24.08,60.135,7.55,123.807,14.7,190.03,20.595S679.6,796.3,749.609,799.7c69.989,3.445,141.263,5.533,212.549,5.926,71.283.322,142.577-1,212.531-4.037s138.572-7.789,204.524-14.091,129.225-14.137,188.6-23.073,114.86-18.927,165.479-29.178q18.936-3.953,37.048-7.73l35.065-7.9c5.683-1.3,11.343-2.515,16.851-3.849l16.255-3.965c10.683-2.618,21.088-5.107,31.1-7.615,7.266-1.909,14.3-3.753,21.215-5.568q1.179-2.16,2.339-4.327c-8.384,2.015-16.981,4.087-25.882,6.224-10.109,2.312-20.6,4.6-31.364,7l-16.379,3.64c-5.542,1.227-11.237,2.326-16.963,3.519q-17.212,3.51-35.278,7.207-18.2,3.417-37.232,6.989c-50.846,9.247-106.436,18.138-165.8,25.878-59.349,7.757-122.462,14.36-188.076,19.354-65.619,5.011-133.744,8.438-203.059,10.122-69.307,1.7-139.8,1.686-210.161.041-70.365-1.71-140.594-5.1-209.451-9.8-68.87-4.655-136.314-10.925-201.259-17.98s-127.312-15.261-186.114-23.811c-58.8-8.583-113.954-17.754-164.56-26.789-50.567-9.126-96.578-18.151-137.045-26.651-32.326-6.792-61.137-13.183-85.981-18.94q3.437,22.594,7.844,44.329,27.2,5.508,58.864,11.524C86.971,724.04,134.269,732.344,186.153,740.654ZM598.471,637.787c-64.9,7.48-128.2,12.973-188.5,16.669-60.306,3.714-117.6,5.618-170.537,6.3q-19.867.143-38.887.292-19.014-.139-37.132-.281c-6.038-.066-12.005-.049-17.882-.185l-17.385-.409c-11.429-.285-22.548-.5-33.307-.818q-16.122-.639-31.205-1.237c-10.045-.4-19.742-.733-29.02-1.318L7.9,655.3c-8.52-.476-16.651-.9-24.331-1.516-2.057-.15-4.038-.292-6.034-.439.115.787.233,1.573.348,2.358l5.177.511c7.651.811,15.764,1.437,24.265,2.129L34,660.518c9.266.823,18.956,1.393,29,2.051s20.463,1.331,31.221,2.03c10.774.585,21.909,1.089,33.37,1.659q8.6.423,17.442.852c5.9.281,11.883.42,17.94.642q18.2.586,37.311,1.214,19.131.339,39.124.689c53.311.654,111.158.188,172.25-2.027,61.089-2.2,125.4-6.138,191.565-12.057,66.153-5.9,134.136-13.782,202.59-23.55q10.291-1.469,20.6-3-48.324-3.923-95.932-8.868C686.032,626.885,641.89,632.789,598.471,637.787ZM1769.913,860.1q-42.374,15.086-92.05,31.6c-7.545,2.481-15.249,4.988-23.02,7.506q-48.824,5.785-101.8,10.541c-60.053,5.31-123.725,9.318-189.735,11.632s-134.35,2.962-203.7,1.822-139.671-4.021-209.707-8.533c-70.034-4.584-139.746-10.825-207.943-18.325-68.222-7.446-134.855-16.45-198.9-26.131-64.065-9.673-125.407-20.424-183.17-31.346C302.146,827.9,248.091,816.5,198.561,805.42c-49.484-11.171-94.433-22.055-133.9-32.18-24.337-6.256-46.607-12.186-66.624-17.674,4.1,16.092,8.448,31.606,12.922,46.436,9.812,2.372,19.964,4.8,30.533,7.284,40.762,9.57,87.069,19.787,137.953,30.194,50.922,10.322,106.413,20.869,165.6,30.89,59.194,9.993,121.968,19.713,187.419,28.3,65.438,8.6,133.414,16.447,202.9,22.691,69.467,6.3,140.365,11.281,211.453,14.577,71.1,3.237,142.373,4.819,212.5,4.638s139.1-2.117,205.574-5.712,130.459-8.84,190.66-15.339q28.515-3.065,55.817-6.485-40.844,12.786-85.156,25.728c-54.546,15.821-112.678,31.778-173.735,46.914s-124.8,29.847-190.488,43.154q-32.377,6.58-65.3,12.773c79.028-.352,155.085-2.814,224.836-8.1q26.946-5.628,53.339-11.415c63.212-13.858,123.532-28.628,180.242-43.367q53.86-14.043,102.995-28.142C1695.888,926.983,1734.064,896.2,1769.913,860.1Zm119.749-528.583c9.725-1.679,19.139-3.238,28.05-5l12.005-2.279c-.463-1.1-.937-2.2-1.412-3.308-3.992.65-8.05,1.31-12.2,1.984-7.677,1.305-15.724,2.46-24.009,3.658-5.694,2.465-11.507,4.967-17.545,7.542Zm-197.307,18.291c-45.994,3.876-95.233,7.123-147.02,9.285-60.462,2.539-124.356,3.612-190.364,2.889s-134.132-3.21-203.026-7.519-138.55-10.408-207.713-18.109q-42.013-4.719-83.686-10.227c50.365-7.883,100.8-16.73,150.83-26.437,68.124-13.293,135.424-28.209,200.871-44.2,65.478-15.945,128.89-33.237,189.552-50.906,60.682-17.659,118.328-36.053,172.391-54.194,38.961-13.105,75.914-26.2,110.71-38.967-29.092-10.7-60.587-20.569-94.132-29.6q-13.126,1.818-26.5,3.576c-59.349,7.754-122.462,14.356-188.076,19.355s-133.744,8.433-203.059,10.121-139.8,1.684-210.161.041c-70.365-1.713-140.594-5.1-209.451-9.8-68.87-4.656-136.314-10.923-201.259-17.98C493.61,80.778,437.1,73.456,383.385,65.8c-29.179,6.824-57.021,14.279-83.312,22.366q26.783,3.681,54.619,7.218c60.135,7.55,123.807,14.7,190.03,20.593S679.6,126.952,749.609,130.349c69.989,3.447,141.263,5.535,212.549,5.927,71.283.324,142.577-1,212.531-4.036s138.572-7.788,204.524-14.092,129.225-14.138,188.6-23.074c9.712-1.46,19.28-2.958,28.783-4.472q-27.942,10.827-57.572,21.8c-51.73,19.082-107.012,38.523-165.345,57.322-58.313,18.812-119.388,37.343-182.621,54.6-63.2,17.308-128.339,33.621-194.442,48.37-66.136,14.686-133.187,27.847-199.969,39.155-5.748.974-11.492,1.916-17.235,2.863q-20.043-3-39.926-6.125c-66.99-10.54-132.205-22.55-194.768-35.12S422.416,247.41,366.271,233.9c-56.128-13.551-108.524-27.365-156.447-40.654-30.335-8.475-58.854-16.749-85.364-24.7-18.1,13.048-33.433,26.909-45.622,41.6-.255.308-.5.621-.756.93,31.1,8.475,64.942,17.331,101.224,26.388,49.9,12.358,104.326,25.115,162.5,37.5,58.2,12.346,119.98,24.574,184.561,35.767,43.768,7.594,88.761,14.873,134.636,21.59q-31.459,4.171-62.53,7.768c-64.9,7.48-128.2,12.973-188.5,16.67-60.306,3.712-117.6,5.617-170.537,6.3q-19.867.148-38.887.292-19.014-.138-37.132-.279c-6.038-.067-12.005-.048-17.882-.184s-11.67-.276-17.385-.41c-11.429-.285-22.548-.5-33.307-.818l-31.205-1.238c-10.045-.4-19.742-.732-29.02-1.318L7.9,357.6c-3.6-.2-7.113-.393-10.568-.594-.308.915-.629,1.827-.93,2.744,3.566.3,7.2.591,10.923.893Q20.07,361.683,34,362.818c9.266.823,18.956,1.4,29,2.054l31.221,2.03c10.774.585,21.909,1.087,33.37,1.66l17.442.852c5.9.281,11.883.416,17.94.637q18.2.593,37.311,1.218l39.124.688c53.311.655,111.158.188,172.25-2.025s125.4-6.143,191.565-12.059c44.836-4,90.522-8.931,136.615-14.721,64.729,8.347,130.741,15.587,197.094,21.33,70.77,6.053,141.876,10.47,212.011,13.074s139.285,3.412,206.11,2.451,131.31-3.657,192.14-7.751c39.6-2.656,77.608-5.907,113.792-9.534,7.224-2.936,14.383-5.86,21.388-8.751C1685.747,352.574,1689.039,351.194,1692.355,349.808ZM818.743,605.737q-49.075-3.023-97.479-7.11c-68.661-5.822-135.88-13.289-200.356-22.192s-126.217-19.221-184.05-30.474S225.1,522.551,175.974,510.313q-18.369-4.689-35.95-9.181-17.4-4.744-33.978-9.275c-5.509-1.528-11.006-2.961-16.326-4.513l-15.731-4.6C63.657,479.7,53.575,476.8,43.878,473.9q-14.422-4.5-27.9-8.718c-8.987-2.811-17.69-5.47-25.848-8.263-5.144-1.712-10.108-3.366-14.986-4.991-.15,1.065-.31,2.129-.452,3.193,4.2,1.522,8.478,3.071,12.877,4.662,8.019,2.981,16.589,5.834,25.429,8.851l27.486,9.36c9.559,3.125,19.5,6.256,29.693,9.534L85.7,492.494c5.254,1.676,10.687,3.238,16.128,4.892q16.389,4.914,33.6,10.072,17.4,4.9,35.595,10.018c48.69,13.393,102.258,26.837,159.908,39.453,57.632,12.622,119.335,24.417,183.957,34.834s132.156,19.476,201.315,26.9c4.747.509,9.518.992,14.278,1.487q32.994-5,66.166-10.6Q807.694,607.681,818.743,605.737Zm1021.04-45.3c-41.533,6.03-88.666,12.254-140.356,18.309-51.714,5.966-107.977,11.789-167.759,16.811-59.791,4.984-123.067,9.437-188.745,12.562-65.663,3.133-133.7,5.336-202.9,5.85-67.44.549-135.989-.235-204.457-2.58q-54.537,9.556-109.149,17.632,50.148,4.065,100.76,7.044c71.057,4.1,142.385,6.507,212.659,7.477,70.288,1.022,139.508.307,206.435-1.411s131.535-4.814,192.683-8.551c61.145-3.777,118.784-8.443,171.868-13.366,53.062-5.011,101.56-10.307,144.411-15.547,29.551-3.612,56.435-7.148,80.316-10.479A488.19,488.19,0,0,0,1948.59,543.3c-.628.106-1.237.21-1.87.319C1917.305,548.651,1881.323,554.4,1839.783,560.433ZM935.566,611.385q38-6.662,75.81-14c68.124-13.3,135.424-28.209,200.871-44.2,65.478-15.946,128.89-33.237,189.552-50.906,60.682-17.661,118.328-36.054,172.391-54.2,54.043-18.179,104.292-36.339,150.166-53.64,45.812-17.38,87.228-33.924,123.481-49.06q13.861-5.79,26.712-11.273-7.446,1.279-15.129,2.6c-10.466,1.684-21.319,3.318-32.46,5.059q-8.371,1.295-16.978,2.628c-5.733.883-11.6,1.628-17.517,2.47q-17.781,2.448-36.467,5.025l-38.394,4.691c-18.29,2.135-37.2,4.185-56.615,6.129-37.817,15.373-78.546,31.331-121.961,47.379-51.73,19.082-107.012,38.523-165.345,57.323-58.313,18.811-119.388,37.341-182.621,54.6-63.2,17.308-128.339,33.62-194.442,48.372-58.848,13.065-118.416,24.917-177.877,35.338q55.5,3.417,111.5,5.474C932.015,611.273,933.79,611.324,935.566,611.385Z" fill="#f8f9fa" opacity="0.3"/><path d="M122.439,121.253S5.184,109.123-9.787,129.565,405.179,161.84,394.291,137.1c43.553,3.227,181.219-8.6,171.691-22.59s-167.607-9.686-175.775-4.306c12.251-30.12-35.388-39.8-54.442-27.968,14.972-47.333-114.327-58.09-103.438-9.681-24.5-8.607-89.475,22.882-71.783,34.717C130.6,83.6,122.439,121.253,122.439,121.253Z" fill="#f8f9fa" opacity="0.2"/><path d="M811.072,82.553s-150.621.906-163.1,17.951,189.321,17.034,205.212,8.961c2.269,15.25,194.068,8.074,184.989-12.558,36.321,2.691,225.259,5.42,217.313-6.243s-166.943-20.67-173.749-16.185c10.213-25.115-29.51-33.186-45.4-23.32,12.487-39.47-142.3-48.44-133.217-8.074-20.432-7.176-75.024,17.939-60.269,27.807C817.881,51.159,811.072,82.553,811.072,82.553Z" fill="#f8f9fa" opacity="0.2"/><path d="M1628.273,169.8s-64.992-7.481-75.4,6.732,68.771,22.44,82.022,15.71c1.892,12.716,26.495,28.422,57.725,5.982,21.768,19.449,104.1.75,96.531-16.454,30.283,2.244,151.8,1.726,145.166-8s-142.328-14.443-148.005-10.7c8.519-20.943-24.6-27.672-37.856-19.445,10.411-32.913-79.494-40.392-71.921-6.733-17.035-5.984-34.072,14.959-21.768,23.188C1633.949,143.627,1628.273,169.8,1628.273,169.8Z" fill="#f8f9fa" opacity="0.2"/><path d="M1080.037,187.081s-453.418-11.626-614.154,0,38.65,11.625,175.263,9.729S1180.8,203.9,1080.037,187.081Z" fill="#f8f9fa" opacity="0.2"/><path d="M952.712,444.541c-16.962.122-852.871-1.728-897.238,8.117C12.29,462.239,113.05,467.3,242.6,469.192s942.82,3.792,1026.786,0S1099.64,443.488,952.712,444.541Z" fill="#f8f9fa" opacity="0.2"/><path d="M1868.746,442.134c-199.222-12.7-648.357,0-799.186,17.065s173.038,6.752,321.777,14.753S2044.942,453.366,1868.746,442.134Z" fill="#f8f9fa" opacity="0.2"/><path d="M1061.244,527.3c-15.782-1.829-435.6-20.858-485.98,0s43.357,11.377,133.234,15.169S1192.171,542.471,1061.244,527.3Z" fill="#f8f9fa" opacity="0.2"/><path d="M1969.834,231.287l-10.213-7.037s-1.515.838-4.448,2.456c-3.025,1.655-7.643,4.151-13.764,7.386-12.245,6.474-30.523,15.933-54.348,27.667-23.794,11.751-53.159,25.747-87.453,41.359s-73.62,32.758-117.231,50.853c-43.681,18.02-91.636,37.015-143.349,56.13-51.73,19.082-107.012,38.523-165.345,57.323-58.313,18.811-119.388,37.341-182.621,54.6-63.2,17.308-128.339,33.62-194.442,48.372-66.136,14.684-133.187,27.846-199.969,39.153s-133.279,20.765-198.18,28.235-128.2,12.973-188.5,16.669c-60.306,3.714-117.6,5.618-170.537,6.3q-19.867.143-38.887.292-19.014-.139-37.132-.281c-6.038-.066-12.005-.049-17.882-.185l-17.385-.409c-11.429-.285-22.548-.5-33.307-.818q-16.122-.639-31.205-1.237c-10.045-.4-19.742-.733-29.02-1.318L7.9,655.3c-8.52-.476-16.651-.9-24.331-1.516q-18.532-1.344-33.786-2.458v1.614q15.034,1.479,33.277,3.274c7.651.811,15.764,1.437,24.265,2.129L34,660.518c9.266.823,18.956,1.393,29,2.051s20.463,1.331,31.221,2.03c10.774.585,21.909,1.089,33.37,1.659q8.6.423,17.442.852c5.9.281,11.883.42,17.94.642q18.2.586,37.311,1.214,19.131.339,39.124.689c53.311.654,111.158.188,172.25-2.027,61.089-2.2,125.4-6.138,191.565-12.057,66.153-5.9,134.136-13.782,202.59-23.55s137.4-21.406,205.559-34.632c68.124-13.3,135.424-28.209,200.871-44.2,65.478-15.946,128.89-33.237,189.552-50.906,60.682-17.661,118.328-36.054,172.391-54.2,54.043-18.179,104.292-36.339,150.166-53.64,45.812-17.38,87.228-33.924,123.481-49.06s67.436-28.784,92.848-40.322c10.624-4.809,20.566-9.242,29.149-13.255Z" fill="#fff" opacity="0.3"/><path d="M1799.608,5.421c-34.29,15.612-73.62,32.757-117.231,50.852-43.681,18.019-91.636,37.016-143.349,56.13-51.73,19.082-107.012,38.523-165.345,57.322-58.313,18.812-119.388,37.343-182.621,54.6-63.2,17.308-128.339,33.621-194.442,48.37-66.136,14.686-133.187,27.847-199.969,39.155s-133.279,20.764-198.18,28.235-128.2,12.973-188.5,16.67c-60.306,3.712-117.6,5.617-170.537,6.3q-19.867.148-38.887.292-19.014-.138-37.132-.279c-6.038-.067-12.005-.048-17.882-.184s-11.67-.276-17.385-.41c-11.429-.285-22.548-.5-33.307-.818l-31.205-1.238c-10.045-.4-19.742-.732-29.02-1.318L7.9,357.6c-8.52-.474-16.651-.9-24.331-1.513q-18.532-1.348-33.786-2.46v1.612q15.034,1.48,33.277,3.274c7.651.812,15.764,1.44,24.265,2.13s17.4,1.42,26.675,2.173c9.266.823,18.956,1.4,29,2.054l31.221,2.03c10.774.585,21.909,1.087,33.37,1.66l17.442.852c5.9.281,11.883.416,17.94.637q18.2.593,37.311,1.218l39.124.688c53.311.655,111.158.188,172.25-2.025s125.4-6.143,191.565-12.059,134.136-13.78,202.59-23.551,137.4-21.4,205.559-34.632c68.124-13.293,135.424-28.209,200.871-44.2,65.478-15.945,128.89-33.237,189.552-50.906,60.682-17.659,118.328-36.053,172.391-54.194,54.043-18.178,104.292-36.34,150.166-53.64,45.812-17.38,87.228-33.925,123.481-49.061s67.436-28.782,92.848-40.321c10.624-4.81,20.566-10.613,29.149-14.627H1827.145Q1813.961-1.118,1799.608,5.421Z" fill="#fff" opacity="0.3"/><path d="M1969.834,314.012c-1.284.231,1.315.463,0,.7-7.4,1.4-19.51,2.647-27.79,3.986q-12.4,2.018-25.941,4.219c-8.992,1.529-18.463,2.847-28.265,4.274s-19.953,2.9-30.434,4.422c-10.527,1.414-21.427,2.767-32.626,4.221l-17.037,2.189c-5.761.735-11.648,1.328-17.583,2.014l-36.541,4.083q-18.777,1.8-38.421,3.7c-52.39,4.758-109.405,8.753-169.861,11.277-60.462,2.539-124.356,3.612-190.364,2.889s-134.132-3.21-203.026-7.519-138.55-10.408-207.713-18.109c-69.148-7.767-137.772-17.174-204.742-27.762-66.99-10.54-132.205-22.55-194.768-35.12S422.416,247.41,366.271,233.9c-56.128-13.551-108.524-27.365-156.447-40.654-47.866-13.372-91.247-26.25-129.265-38.127S9.824,132.449-16.794,123.3q-18.765-6.426-33.423-11.675v62.3c26.638,8.22,58.36,17.622,94.577,27.816,39.816,11.211,85.107,23.282,134.946,35.722,49.9,12.358,104.326,25.115,162.5,37.5,58.2,12.346,119.98,24.574,184.561,35.767s131.752,21.752,200.606,30.762c68.83,9.057,139.213,16.866,209.965,22.989,70.77,6.053,141.876,10.47,212.011,13.074s139.285,3.412,206.11,2.451,131.31-3.657,192.14-7.751,118.016-9.55,170.407-15.663L1756,351.9q18.675-2.574,36.467-5.025c5.92-.842,11.784-1.587,17.517-2.47s11.4-1.765,16.978-2.628c11.141-1.741,21.994-3.375,32.46-5.059q15.624-2.693,30.242-5.2c9.725-1.679,19.139-3.238,28.05-5q13.414-2.546,25.72-4.882c8.2-1.55,19.08-3,26.4-4.585.92-.192-.9-.379,0-.566Z" fill="#fff" opacity="0.3"/><path d="M1969.834,674.735c-6.693,1.9-14.166,3.731-21.631,5.664q-11.839,3.072-24.745,6.422c-8.562,2.292-17.645,4.417-27.025,6.68s-19.1,4.6-29.149,7.01c-10.109,2.312-20.6,4.6-31.364,7l-16.379,3.64c-5.542,1.227-11.237,2.326-16.963,3.519q-17.212,3.51-35.278,7.207-18.2,3.417-37.232,6.989c-50.846,9.247-106.436,18.138-165.8,25.878-59.349,7.757-122.462,14.36-188.076,19.354-65.619,5.011-133.744,8.438-203.059,10.122-69.307,1.7-139.8,1.686-210.161.041-70.365-1.71-140.594-5.1-209.451-9.8-68.87-4.655-136.314-10.925-201.259-17.98s-127.312-15.261-186.114-23.811c-58.8-8.583-113.954-17.754-164.56-26.789-50.567-9.126-96.578-18.151-137.045-26.651s-75.441-16.379-104-23.169Q-45,654.757-50.217,653.5v43.538c27.223,5.781,59.254,12.25,95.488,19.11,41.7,7.892,89,16.2,140.882,24.506,51.919,8.221,108.418,16.483,168.539,24.08,60.135,7.55,123.807,14.7,190.03,20.595S679.6,796.3,749.609,799.7c69.989,3.445,141.263,5.533,212.549,5.926,71.283.322,142.577-1,212.531-4.037s138.572-7.789,204.524-14.091,129.225-14.137,188.6-23.073,114.86-18.927,165.479-29.178q18.936-3.953,37.048-7.73l35.065-7.9c5.683-1.3,11.343-2.515,16.851-3.849l16.255-3.965c10.683-2.618,21.088-5.107,31.1-7.615q14.929-3.921,28.886-7.582c9.284-2.442,18.276-4.74,26.751-7.2q12.759-3.6,24.46-6.9c6.919-1.949,13.874-3.8,20.125-5.7Z" fill="#fff" opacity="0.3"/><path d="M1969.834,5.388c-6.693,1.9-14.166,3.732-21.631,5.666q-11.839,3.069-24.745,6.42c-8.562,2.293-17.645,4.417-27.025,6.681s-19.1,4.595-29.149,7.01c-10.109,2.31-20.6,4.6-31.364,7l-16.379,3.64c-5.542,1.229-11.237,2.326-16.963,3.52q-17.212,3.513-35.278,7.205-18.2,3.418-37.232,6.99c-50.846,9.248-106.436,18.142-165.8,25.881s-122.462,14.356-188.076,19.355-133.744,8.433-203.059,10.121-139.8,1.684-210.161.041c-70.365-1.713-140.594-5.1-209.451-9.8-68.87-4.656-136.314-10.923-201.259-17.98S424.951,71.877,366.149,63.33c-58.8-8.584-113.954-17.753-164.56-26.792-50.567-9.126-96.578-18.15-137.045-26.65C35.541,3.8,9.376-1.975-13.646-7.258H-50.217V27.69C-22.994,33.473,9.037,39.944,45.271,46.8c41.7,7.891,89,16.2,140.882,24.5,51.919,8.224,108.418,16.483,168.539,24.082,60.135,7.55,123.807,14.7,190.03,20.593S679.6,126.952,749.609,130.349c69.989,3.447,141.263,5.535,212.549,5.927,71.283.324,142.577-1,212.531-4.036s138.572-7.788,204.524-14.092,129.225-14.138,188.6-23.074,114.86-18.926,165.479-29.179q18.936-3.946,37.048-7.727l35.065-7.9c5.683-1.305,11.343-2.515,16.851-3.851q8.234-2.009,16.255-3.963c10.683-2.619,21.088-5.108,31.1-7.617q14.929-3.918,28.886-7.579c9.284-2.446,18.276-4.743,26.751-7.2q12.759-3.6,24.46-6.9c6.919-1.948,13.874-3.8,20.125-5.7Z" fill="#fff" opacity="0.3"/><path d="M1969.834,845.606c-.792.181.807.362,0,.547-7.218,1.73-17.654,3.341-25.758,5.062q-12.119,2.575-25.371,5.393c-8.782,1.94-18.077,3.7-27.678,5.567s-19.555,3.8-29.83,5.807c-10.337,1.892-21.047,3.748-32.042,5.71q-8.258,1.462-16.748,2.962c-5.651,1-11.451,1.864-17.292,2.823q-17.547,2.8-35.973,5.751-18.53,2.661-37.9,5.456c-51.715,7.155-108.14,13.759-168.2,19.058s-123.725,9.318-189.735,11.632-134.35,2.962-203.7,1.822-139.671-4.021-209.707-8.533c-70.034-4.584-139.746-10.825-207.943-18.325-68.222-7.446-134.855-16.45-198.9-26.131-64.065-9.673-125.407-20.424-183.17-31.346C302.146,827.9,248.091,816.5,198.561,805.42c-49.484-11.171-94.433-22.055-133.9-32.18C25.189,763.1-8.865,753.8-36.635,745.864q-7.07-2.01-13.582-3.9v44.752C-24,793.5,6.74,801.119,41.49,809.286c40.762,9.57,87.069,19.787,137.953,30.194,50.922,10.322,106.413,20.869,165.6,30.89,59.194,9.993,121.968,19.713,187.419,28.3,65.438,8.6,133.414,16.447,202.9,22.691,69.467,6.3,140.365,11.281,211.453,14.577,71.1,3.237,142.373,4.819,212.5,4.638s139.1-2.117,205.574-5.712,130.459-8.84,190.66-15.339c60.211-6.467,116.634-14.18,168.238-22.354q19.306-3.162,37.793-6.2,18.35-3.3,35.832-6.451c5.818-1.07,11.594-2.048,17.221-3.156s11.18-2.211,16.654-3.293c10.93-2.177,21.581-4.239,31.841-6.332l29.634-6.384c9.528-2.063,18.748-3.985,27.453-6.093l25.15-5.889c8.022-1.874,17.327-3.632,24.47-5.5.449-.115-.443-.222,0-.337Z" fill="#fff" opacity="0.3"/><path d="M1969.834,539.659c-7.091,1.255-15.008,2.575-23.114,3.956-29.415,5.036-65.4,10.782-106.937,16.818s-88.666,12.254-140.356,18.309c-51.714,5.966-107.977,11.789-167.759,16.811-59.791,4.984-123.067,9.437-188.745,12.562-65.663,3.133-133.7,5.336-202.9,5.85-69.188.563-139.542-.261-209.783-2.754-70.227-2.567-140.32-6.756-208.976-12.584s-135.88-13.289-200.356-22.192-126.217-19.221-184.05-30.474S225.1,522.551,175.974,510.313q-18.369-4.689-35.95-9.181-17.4-4.744-33.978-9.275c-5.509-1.528-11.006-2.961-16.326-4.513l-15.731-4.6C63.657,479.7,53.575,476.8,43.878,473.9q-14.422-4.5-27.9-8.718c-8.987-2.811-17.69-5.47-25.848-8.263l-23.618-7.866c-5.8-1.932-11.4-3.778-16.725-5.634v2.643c4.67,1.748,9.541,3.5,14.574,5.32q11.1,4.016,23.208,8.4c8.019,2.981,16.589,5.834,25.429,8.851l27.486,9.36c9.559,3.125,19.5,6.256,29.693,9.534L85.7,492.494c5.254,1.676,10.687,3.238,16.128,4.892q16.389,4.914,33.6,10.072,17.4,4.9,35.595,10.018c48.69,13.393,102.258,26.837,159.908,39.453,57.632,12.622,119.335,24.417,183.957,34.834s132.156,19.476,201.315,26.9,139.927,13.232,210.97,17.4c71.057,4.1,142.385,6.507,212.659,7.477,70.288,1.022,139.508.307,206.435-1.411s131.535-4.814,192.683-8.551c61.145-3.777,118.784-8.443,171.868-13.366,53.062-5.011,101.56-10.307,144.411-15.547s83.988-10.317,114.6-14.84c1.2-.178-1.18-.351,0-.526Z" fill="#fff" opacity="0.3"/><path d="M1753.037,632.625q-.492-5.283-1.127-10.548c-1.634-13.332-4.965-33.76-15.42-43.543-5.141-4.807-13.552-4.814-19.639-1.453a19.053,19.053,0,0,0-7.783,7.909c-9.975,18.2-7.014,45.612-6.4,65.275,2.378,76.408,17.36,101.887,29.885,102.4,24.164,1,22.146-41.384,22.329-57.011C1755.123,674.705,1754.953,653.543,1753.037,632.625Z" fill="url(#d)"/><path d="M1713.44,721.115c2.573,17.068,13.287,31.89,23.721,30.26,8.5-1.325,10.475-9.313,11.676-12.8,6.686-19.422,5.44-44.146,4.783-62.558-2.53-71.188-11.631-89.966-14.741-92.527,11.135,22.356,7.286,82.956-2.925,124.16C1731.454,725.827,1721.264,743.886,1713.44,721.115Z" fill="url(#e)"/><path d="M1721.82,843.129l35.557-4.266c-2.559-4.722-12.865-10.443-13.721-13-2.272-25.468-3.988-49.616-6.266-75.085-.183-2.111-4.775-2.226-4.587-.093,2.191,24.612,2.441,52.253,4.636,76.858C1732.676,835.428,1721.82,843.129,1721.82,843.129Z" fill="url(#f)"/><path d="M1723.034,842.03s19.2-12.943,18.348-15.5c-2.27-25.468-6.163-72.222-7.747-74.8,2.193,24.621,2.582,50.7,4.778,75.3C1733.649,834.905,1723.034,842.03,1723.034,842.03Z" fill="url(#g)"/><path d="M1709.069,712.491c8.259-9.141,28.293-16.71,45.832-19.243-.007.8-.011,1.605-.02,2.407-.09,7.672.343,21.789-2.046,34.06-16.183-1.137-29.331,10.286-32.776,13.593C1715.96,736.917,1712.12,726.957,1709.069,712.491Zm-6.061-53.57q.4,8.775,1.031,16.595c8.553.05,31.407,1.328,50.909,12.562q.059-9.819-.1-19.668C1743.206,663.12,1722.342,655.629,1703.008,658.921Zm.181-55.542c8.988-2.593,27.792-6.472,45.4-.362a79.142,79.142,0,0,0-3.83-11.8c-9.731-2.3-26-4.992-38.039-1.1A64.31,64.31,0,0,0,1703.189,603.379Zm-.613,44.465c8.561-6.824,28.595-20.484,50.074-18.843-.237-2.308-.463-4.622-.74-6.924-.513-4.17-1.19-9.037-2.2-14.053-17.4,2.694-38.148,9.7-47.917,17.227C1701.851,633.163,1702.312,640.909,1702.576,647.844Z" fill="url(#h)"/><path d="M1751.285,729.679c-13.794-.3-25.152,8.21-29.811,12.333a50.362,50.362,0,0,1-8.034-20.9c7.824,22.771,18.014,4.712,22.514-13.466.853-3.445,1.659-7.034,2.417-10.717a116.712,116.712,0,0,1,15.757-3.558C1754.286,705.241,1753.836,718.018,1751.285,729.679Zm-7.754-65.8c-.664,6.029-1.471,12.039-2.407,17.923a83.821,83.821,0,0,1,12.887,5.769c-.111-4.037-.258-7.921-.391-11.556-.1-2.861-.218-5.606-.339-8.3C1750.444,666.47,1747.153,665.144,1743.531,663.88Zm-.714-73.108c-.41-.09-.841-.18-1.268-.267a84.363,84.363,0,0,1,2.366,11.145c.719.183,1.438.373,2.155.583A94.427,94.427,0,0,0,1742.817,590.772Zm7.541,38.152c-.931-8.13-1.955-14.9-3.013-20.5-.846.145-1.7.3-2.559.47.587,6.208.85,12.991.825,20.121C1747.18,628.906,1748.764,628.881,1750.358,628.924Z" fill="url(#i)"/><path d="M1834,590.849q-.092-7.194-.386-14.374c-.765-18.188-3.065-46.154-16.138-60.494-6.426-7.051-17.792-7.966-26.379-4.082a25.909,25.909,0,0,0-11.372,9.842c-15.435,23.511-14.391,60.874-15.683,87.51-5.019,103.495,12.47,139.536,29.344,141.582,32.542,3.948,34.382-53.528,36.312-74.629C1832.288,647.93,1834.338,619.317,1834,590.849Z" fill="url(#j)"/><path d="M1770.962,706.139c1.643,23.346,14.517,44.52,28.795,43.444,11.631-.873,15.152-11.448,17.157-16.041,11.124-25.514,12.1-59.059,13.2-84,4.255-96.457-6.015-122.811-9.939-126.606,12.631,31.406.9,112.871-17.34,167.442C1794.8,714.444,1779.081,737.751,1770.962,706.139Z" fill="url(#k)"/><path d="M1772.976,850.746l39.085-1.555c-2.373-5.37-13.1-12.484-13.805-15.346-.264-27.93.5-60.489.234-88.413-.021-2.314-5.014-2.837-4.992-.506.252,26.988-2.416,63.218-2.159,90.212C1785.467,843.3,1772.976,850.746,1772.976,850.746Z" fill="url(#l)"/><path d="M1774.4,849.655s22.031-12.424,21.321-15.287c-.264-27.929.1-85.3-1.4-88.23.253,26.985-2.125,61.529-1.873,88.519C1786.575,842.824,1774.4,849.655,1774.4,849.655Z" fill="url(#m)"/><path d="M1770.22,544.372a78.043,78.043,0,0,1,8.475-20.891c17.955-3.892,35.706,1,46.649,5.312a93.4,93.4,0,0,1,5.583,20C1807.78,537.523,1780.388,542.06,1770.22,544.372Zm62.64,19.84c-.306-3.648-.71-7.432-1.268-11.255C1829.028,555.614,1830.517,560.127,1832.86,564.212Zm-69.191,101.924a316.863,316.863,0,0,0,3.274,34.514c6.491-4.091,29.324-14.977,58.9,9.992,2.4-13.154,3.122-26.421,3.854-34.438q.336-3.685.654-7.381C1811.984,663.084,1776.482,654.162,1763.669,666.136Zm.374-56.885c-.683,14.128-.936,26.958-.841,38.657,11.121-16.147,33.7-39.552,70.677-38.279.136-6.264.2-12.527.122-18.78q-.092-7.194-.386-14.374c-.071-1.734-.168-3.58-.274-5.472-13.391-4.3-45.8-12.526-67.425-.1C1764.73,584.366,1764.6,597.8,1764.043,609.251Z" fill="url(#n)"/><path d="M1821.48,610.158a373.846,373.846,0,0,0,3.843-41.475c1.675.439,3.248.875,4.679,1.3.735,10.786,1.174,23.827,1.122,39.61A79.165,79.165,0,0,0,1821.48,610.158Zm2.849,99.254c2.845-13.531,4.127-27.742,4.885-40.937-5.215-1.6-11.633-3.4-18.493-4.916-2.432,9.387-5.08,18.42-7.885,26.815-.687,2.06-1.437,4.114-2.229,6.131C1807.762,698.51,1815.753,702.47,1824.329,709.412Zm-1.364-181.519c-.411-.151-.838-.3-1.265-.452a94.844,94.844,0,0,1,3.194,18.83c.909.334,1.817.683,2.723,1.062C1826.169,537.9,1824.48,531.723,1822.965,527.893Z" fill="url(#o)"/><path d="M1903.472,637.857q.585-5.624,1-11.25c1.049-14.261,1.784-36.287-7.12-48.66-4.372-6.077-13.156-7.821-20.206-5.572a20.363,20.363,0,0,0-9.766,6.654c-14.17,16.943-16.738,46.19-20.154,66.851-13.284,80.291-2.9,109.991,10.079,113.117,25.031,6.026,31.669-38.651,35.083-54.938C1896.972,682.23,1901.159,660.1,1903.472,637.857Z" fill="url(#p)"/><path d="M1903.472,637.857q.585-5.624,1-11.25c1.049-14.261,1.784-36.287-7.12-48.66-4.372-6.077-13.156-7.821-20.206-5.572a20.363,20.363,0,0,0-9.766,6.654c-14.17,16.943-16.738,46.19-20.154,66.851-13.284,80.291-2.9,109.991,10.079,113.117,25.031,6.026,31.669-38.651,35.083-54.938C1896.972,682.23,1901.159,660.1,1903.472,637.857Z" fill="url(#p)"/><path d="M1843.857,722.1c-.835,18.357,7.3,36.045,18.531,36.495,9.155.375,12.864-7.557,14.842-10.959,10.985-18.9,14.785-44.983,17.9-64.343,12.052-74.871,6.421-96.363,3.7-99.675,7.012,25.643-9.514,88.139-28.683,129.063C1861.7,730.733,1847.333,747.492,1843.857,722.1Z" fill="url(#r)"/><path d="M1826.033,855.7l38.014,2.882c-1.7-5.461-11.28-13.562-11.641-16.411,2.879-27.068,7.276-58.5,10.158-85.567.237-2.242-4.537-3.307-4.778-1.05-2.788,26.16-9.438,60.936-12.225,87.092C1838.96,849.894,1826.033,855.7,1826.033,855.7Z" fill="url(#s)"/><path d="M1827.529,854.8s22.725-9.551,22.363-12.4c2.88-27.072,9.67-82.568,8.551-85.579-2.791,26.156-8.971,59.33-11.758,85.486C1840.084,849.549,1827.529,854.8,1827.529,854.8Z" fill="url(#t)"/><path d="M1886.846,728.615a85.826,85.826,0,0,1-6.7,17.147c-18.87-9.537-32.009-9.019-36.661-8.372a103,103,0,0,1-1.712-11.635C1852.561,722.075,1875.713,726.241,1886.846,728.615Zm-35.288-109.44a110.989,110.989,0,0,1,52.314,14.2c.208-2.254.436-4.508.6-6.764.339-4.616.64-10.047.6-15.7-7.58-10.464-20.882-23.964-41.152-27.083C1857.523,593.752,1853.981,606.514,1851.558,619.175Zm43.3,72.8c3.381-16.9,6.351-33.955,8.264-51.082-28.3,4.182-47.949,16.7-59.351,28.961a336.411,336.411,0,0,0-2.708,38.714C1849.4,701.645,1870.665,686.814,1894.862,691.971Z" fill="url(#u)"/><path d="M1900.732,641.294c-1.157,11.672-2.952,25.545-5.6,42-.433,2.71-.889,5.562-1.37,8.5a49.762,49.762,0,0,0-14.556-.554,390.839,390.839,0,0,0,15.073-48.7C1896.373,642.076,1898.53,641.662,1900.732,641.294Zm-56.369,83.785c-.183.037-.375.068-.554.109a56.67,56.67,0,0,0,1.4,12.019c5.545-.446,17.292,0,33.439,7.834a104.605,104.605,0,0,0,6.937-16.689,214.777,214.777,0,0,0-22.272-3.515C1855.893,735.69,1847.5,740.812,1844.363,725.079Zm58.166-117.493c-.714-.889-1.454-1.786-2.243-2.692a194.167,194.167,0,0,1-3.279,24.909c1.51.717,3.026,1.492,4.545,2.309C1902.337,622.134,1902.6,614.078,1902.529,607.586Z" fill="url(#v)"/><path d="M145.086,709.794q.509-6.351,1.206-12.67c1.769-16.011,5.485-40.559,17.894-52.435,6.1-5.832,16.181-5.954,23.53-2.015a22.934,22.934,0,0,1,9.446,9.379c12.209,21.682,9.042,54.608,8.576,78.2-1.806,91.67-19.415,122.435-34.436,123.226C142.335,855,144.173,804.149,143.739,785.4,143.158,760.283,143.072,734.9,145.086,709.794Z" fill="url(#w)"/><path d="M145.086,709.794q.509-6.351,1.206-12.67c1.769-16.011,5.485-40.559,17.894-52.435,6.1-5.832,16.181-5.954,23.53-2.015a22.934,22.934,0,0,1,9.446,9.379c12.209,21.682,9.042,54.608,8.576,78.2-1.806,91.67-19.415,122.435-34.436,123.226C142.335,855,144.173,804.149,143.739,785.4,143.158,760.283,143.072,734.9,145.086,709.794Z" fill="url(#w)"/><path d="M193.794,815.375c-2.857,20.5-15.5,38.426-28.039,36.612-10.215-1.469-12.69-11.019-14.18-15.192-8.282-23.2-7.125-52.869-6.6-74.956,2.057-85.414,12.711-108.061,16.406-111.171-13.042,26.96-7.592,99.59,5.218,148.863C172.249,821.266,184.718,842.787,193.794,815.375Z" fill="url(#y)"/><path d="M186.052,967.029l-42.7-4.627c3-5.7,15.286-12.7,16.272-15.788,2.379-30.574,3.975-66.29,6.353-96.869.2-2.532,5.7-2.732,5.505-.178-2.295,29.548-2.078,69.44-4.379,98.982C172.925,957.937,186.052,967.029,186.052,967.029Z" fill="url(#z)"/><path d="M184.582,965.724s-23.214-15.253-22.224-18.339c2.38-30.577,6.275-93.447,8.135-96.552-2.292,29.544-2.271,67.562-4.562,97.11C171.747,957.324,184.582,965.724,184.582,965.724Z" fill="url(#aa)"/><path d="M195.353,819.851a116.507,116.507,0,0,1-4.292,12.536c-5.02-1.672-19.467-4.95-42.332,1.732a96.75,96.75,0,0,1-3.9-20.369C157.652,813.409,184.155,813.556,195.353,819.851Zm4.659-161.772c-23.095-.718-40.609,11.506-51.154,21.534-1.209,6.252-1.991,12.331-2.566,17.511-.282,2.536-.492,5.08-.723,7.62,26.753-9.381,51.369-6.627,60.867-4.962C206.355,685.257,205.058,670.392,200.012,658.079Zm-.343,142.875a379.018,379.018,0,0,0,4.959-43.442c-10.107-15.934-29.3-33.834-59.784-44.287-1.4,19.361-1.621,38.869-1.352,58.284C171.354,770.772,191.863,791.573,199.669,800.954Z" fill="url(#ab)"/><path d="M154.306,716.874a441.029,441.029,0,0,0,6.678,57.04,55.988,55.988,0,0,0-16.233-2.38c.068-3.352.151-6.6.226-9.7.452-18.773,1.318-34.508,2.439-47.675C149.776,715.025,152.082,715.929,154.306,716.874ZM171.684,814.4a243.047,243.047,0,0,0-25.4-.687,118.464,118.464,0,0,0,4.255,19.912c19.5-5.353,32.6-3.431,38.653-1.8a63.737,63.737,0,0,0,4.017-13.025c-.19-.083-.395-.158-.592-.237C185.9,835.353,177.663,827.95,171.684,814.4ZM148.4,703.827q2.779-.9,5.509-1.626a218.355,218.355,0,0,1,1.5-28.264c-1.065.84-2.07,1.681-3.042,2.522C150.949,683.636,149.579,692.612,148.4,703.827Z" fill="url(#ac)"/><path d="M76.043,683.588c-.1-5-.157-10-.125-15,.131-18.992,1.492-48.223,14.591-63.661,6.438-7.586,18.256-8.959,27.347-5.226a26.993,26.993,0,0,1,12.22,9.844c16.956,23.933,17.252,62.928,19.575,90.639,9.056,107.7-7.848,145.919-25.357,148.674-33.775,5.322-37.82-54.531-40.609-76.452C79.944,743.025,76.746,713.277,76.043,683.588Z" fill="url(#ad)"/><path d="M146.021,801.446c-.843,24.391-13.488,46.945-28.411,46.349-12.159-.484-16.219-11.38-18.481-16.083-12.53-26.194-14.8-61.123-16.863-87.089C74.272,644.232,84,616.383,87.959,612.278c-12.014,33.2,3.231,117.69,24.251,173.908C121.48,810.985,138.72,834.7,146.021,801.446Z" fill="url(#ae)"/><path d="M154.048,974.174l-50.632-.219c2.824-7.049,16.375-16.751,17.159-20.491-.942-36.136-2.445-70.328-3.384-106.468-.087-2.995,6.352-3.9,6.432-.879.917,34.929,5.049,73.788,5.952,108.7C137.547,965.118,154.048,974.174,154.048,974.174Z" fill="url(#af)"/><path d="M152.161,972.824S123.1,957.77,123.88,954.031c-.945-36.142-3.061-102.437-1.261-106.322.918,34.937,4.6,71.62,5.511,106.541C136.092,964.549,152.161,972.824,152.161,972.824Z" fill="url(#ag)"/><path d="M140.321,833.691c-5.373-4.087-25.693-18-48.238-13.772-5.349-16.847-7.03-36.746-8.4-47.51-.14-1.12-.28-2.249-.42-3.373,25.048.708,54.409,8.09,67.49,19.589C148.822,809.435,145.047,824.048,140.321,833.691ZM79.315,734.139q1.353,13.854,3.045,27.643c25.566-18.942,57.459-24.449,69.457-25.9q-.377-11.09-1.238-23.476C122.884,710.915,94.8,724.821,79.315,734.139ZM134.2,616.368c-17.542-3.515-39.952,2.9-53.248,7.719a112.685,112.685,0,0,0-3.462,17.191c23.738-11.434,50.778-9.038,63.819-6.854A90.926,90.926,0,0,0,134.2,616.368Zm12.626,48.55c-14.946-9-45.216-15.465-70.107-16.423-.6,7.207-.76,14.153-.8,20.1-.02,3.279.041,6.56.082,9.842,29.9-5.789,60.254,10.144,73.389,18.339C148.635,686.991,148.022,676.037,146.828,664.918Z" fill="url(#ab)"/><path d="M84.368,769.084a165.088,165.088,0,0,1,22.708,2.443c1.664,5.05,3.38,9.96,5.134,14.659,9.27,24.8,26.51,48.511,33.811,15.26a71.141,71.141,0,0,1-7.9,30.65c-7.213-5.032-24.541-15.141-43.868-12.482C88.78,803.652,86.072,785.777,84.368,769.084ZM81.4,732.912c.262,3.8.547,7.678.868,11.711.406,5.125.827,10.608,1.331,16.3a118.436,118.436,0,0,1,17.161-10.2c-2.271-8.113-4.378-16.424-6.282-24.784C89.587,728.3,85.179,730.7,81.4,732.912Zm-.5-93.14c.977-.413,1.949-.8,2.938-1.168a118.474,118.474,0,0,1,1.511-16.041c-.584.2-1.18.391-1.739.584A133.794,133.794,0,0,0,80.9,639.772Zm4.989,37.541c-1.189-10.015-1.92-19.582-2.107-28.4-1.232-.091-2.46-.177-3.669-.249-.578,8.049-.918,17.715-.9,29.288C81.441,677.637,83.665,677.411,85.887,677.313Z" fill="url(#ai)"/><path d="M216.6,748.138q.767-5.283,1.668-10.538c2.313-13.3,6.689-33.651,17.679-42.946,5.4-4.567,13.855-4.151,19.795-.466a19.189,19.189,0,0,1,7.421,8.332c9.092,18.773,4.741,46.16,3.127,65.871-6.244,76.61-22.571,101.44-35.175,101.323-24.314-.215-20.15-42.675-19.544-58.378C212.381,790.286,213.62,769.045,216.6,748.138Z" fill="url(#aj)"/><path d="M251.9,838.994c-3.446,17.011-14.954,31.357-25.348,29.19-8.474-1.759-10.046-9.879-11.085-13.443-5.726-19.842-3.23-44.606-1.644-63.064,6.14-71.354,16.223-89.751,19.476-92.168-12.312,21.886-11.5,82.936-3.329,124.827C233.569,842.815,242.888,861.468,251.9,838.994Z" fill="url(#ak)"/><path d="M237.328,961.1l-35.494-6.078c2.805-4.611,13.446-9.835,14.433-12.367,3.565-25.455,6.513-49.622,10.082-75.079.287-2.111,4.914-1.991,4.613.136-3.444,24.612-5.09,52.348-8.538,76.948C226.812,952.815,237.328,961.1,237.328,961.1Z" fill="url(#al)"/><path d="M236.159,959.926s-18.626-13.961-17.64-16.488c3.566-25.461,9.837-72.218,11.552-74.725-3.442,24.609-5.151,50.776-8.6,75.377C225.858,952.245,236.159,959.926,236.159,959.926Z" fill="url(#am)"/><path d="M244.129,860.948c-3.289-3.5-15.918-15.629-32.225-15.3-1.785-12.444-.634-26.6-.336-34.309.031-.8.068-1.61.1-2.415,17.485,3.427,37.219,12.038,45.051,21.633C252.927,844.928,248.573,854.736,244.129,860.948Zm-31.151-76.969q-.67,9.875-1.094,19.746c20.147-10.3,43.166-10.43,51.751-10.046q1.03-7.823,1.878-16.61C246.261,772.784,224.932,779.253,212.978,783.979Zm52.28-76.192c-11.9-4.517-28.364-2.636-38.256-.814a80.2,80.2,0,0,0-4.439,11.655c17.99-5.245,36.675-.4,45.57,2.656A64.732,64.732,0,0,0,265.258,707.787Zm3.174,35.532c-9.429-8.057-29.908-16.138-47.255-19.72-1.264,4.988-2.188,9.84-2.912,14-.4,2.3-.739,4.609-1.094,6.915,21.655-.563,41.079,14.164,49.332,21.449C267.12,759.015,267.973,751.258,268.432,743.319Z" fill="url(#ab)"/><path d="M212.436,809.084a117.159,117.159,0,0,1,15.646,4.369c.575,3.737,1.2,7.381,1.886,10.883,3.6,18.479,12.92,37.132,21.93,14.658a50.643,50.643,0,0,1-9.122,20.577c-4.476-4.372-15.448-13.494-29.314-13.886C211.493,833.847,211.679,820.992,212.436,809.084Zm2.149-25.723c-.264,2.7-.515,5.452-.764,8.316-.312,3.643-.657,7.54-.969,11.589a84.052,84.052,0,0,1,13.228-5.145c-.645-5.956-1.151-12.032-1.51-18.119C220.865,781.086,217.495,782.251,214.585,783.361Zm10.545-65.393c.73-.174,1.459-.328,2.2-.475a84.25,84.25,0,0,1,2.933-11.076c-.431.072-.872.136-1.286.208A94.9,94.9,0,0,0,225.13,717.968Zm-.893,26.917c.339-7.163.939-13.96,1.843-20.165-.853-.208-1.7-.412-2.543-.6-1.348,5.577-2.717,12.32-4.056,20.437C221.08,744.594,222.669,744.7,224.237,744.885Z" fill="url(#ao)"/><path d="M8.525,721q-.271-6.813-.346-13.627c-.172-17.262.62-43.854,12.3-58.079,5.732-6.994,16.451-8.42,24.77-5.166A24.547,24.547,0,0,1,56.5,652.889c15.774,21.5,16.631,56.925,19.171,82.082,9.867,97.744-4.91,132.738-20.783,135.507-30.622,5.348-35.2-48.984-38.075-68.869C12.967,774.967,9.613,747.977,8.525,721Z" fill="url(#ap)"/><path d="M73.909,827.05c-.4,22.189-11.544,42.874-25.114,42.556-11.054-.249-14.917-10.086-17.041-14.338-11.793-23.607-14.373-55.321-16.646-78.885-8.8-91.12-.376-116.581,3.149-120.367-10.4,30.358,4.731,106.914,24.7,157.68C51.756,836.092,67.787,857.383,73.909,827.05Z" fill="url(#aq)"/><path d="M79.153,964.069l-37.085.462c1.982-5.2,11.788-12.469,12.315-15.213-1.133-26.459-3.465-57.248-4.594-83.7-.094-2.191,4.6-2.937,4.7-.722,1.091,25.566,5.4,59.739,6.5,85.3C66.955,957.641,79.153,964.069,79.153,964.069Z" fill="url(#ar)"/><path d="M77.754,963.113s-21.475-10.682-20.948-13.426c-1.13-26.455-4.3-80.755-3.025-83.608,1.094,25.566,5.05,58.152,6.144,83.716C65.886,957.241,77.754,963.113,77.754,963.113Z" fill="url(#as)"/><path d="M9.359,681.028a88.566,88.566,0,0,1,4.3-19.209c10.147-4.621,26.714-10.132,43.9-7.334a73.848,73.848,0,0,1,9.06,19.361C56.876,672.158,30.721,669.217,9.359,681.028Zm-.429,3.978c-.335,3.648-.531,7.251-.636,10.721C10.306,691.744,11.493,687.4,8.93,685.006Zm6.9,109.648c.326,2.321.649,4.642.983,6.955,1.094,7.557,2.433,20.082,5.353,32.419,26.773-25.1,48.928-15.925,55.279-12.373a298.88,298.88,0,0,0,1.389-32.84C66.117,778.109,32.943,788.309,15.833,794.654Zm56.175-95.9c-21.1-10.7-51.372-1.3-63.836,3.429-.008,1.8-.008,3.549.007,5.2q.069,6.813.346,13.627c.24,5.927.606,11.854,1.044,17.776,34.947-3.031,57.484,18.013,68.811,32.752-.486-11.084-1.361-23.218-2.706-36.561C74.584,724.153,73.794,711.444,72.008,698.752Z" fill="url(#ab)"/><path d="M12.176,738.608c-.83-14.946-1.058-27.313-.893-37.56,1.334-.47,2.8-.962,4.367-1.46a353.425,353.425,0,0,0,5.687,39.079A75.822,75.822,0,0,0,12.176,738.608Zm33.186,80.786c-.842-1.871-1.653-3.777-2.406-5.7-3.074-7.806-6.03-16.23-8.8-25-6.413,1.776-12.406,3.788-17.263,5.567,1.371,12.459,3.288,25.85,6.649,38.522C31.319,825.791,38.687,821.646,45.362,819.394Zm-32.94-139.91c.836-.4,1.679-.775,2.521-1.14a89.906,89.906,0,0,1,2.1-17.986c-.4.163-.8.328-1.179.491C14.621,664.549,13.326,670.478,12.422,679.484Z" fill="url(#au)"/><path d="M1969.834,1085.921H-50.217V924.032C786.4,1057.869,1108.41,766.755,1969.834,833.271Z" fill="url(#av)"/><path d="M1969.834,832.893v2.724C1108.41,769.1,786.4,1060.213-50.217,926.376v-2.723C786.4,1057.49,1108.41,766.377,1969.834,832.893Z" fill="url(#aw)"/><path d="M823.95,986.021c-107.61-14.236-130.6-31.034-108.8-47.646C1050.425,897.859,1346.015,814.5,1784.45,824c96.675,6.98,161.376,25.267,155.324,62.626C1919.792,1010.067,1160.722,1030.581,823.95,986.021Z" fill="url(#ax)"/><path d="M733.664,935.708q5.855-.737,11.693-1.487,2.5-.324,4.98-.651,4.961-.645,9.917-1.3l5.555-.745q4.665-.627,9.323-1.259,2.881-.391,5.761-.791,4.56-.629,9.116-1.264l5.845-.821q4.527-.637,9.046-1.286l5.771-.825q4.639-.671,9.263-1.347c1.836-.271,3.672-.534,5.5-.805q4.979-.729,9.953-1.474c1.58-.237,3.164-.468,4.744-.7q6.6-.99,13.181-1.989,2.188-.333,4.382-.669,5.726-.875,11.444-1.757,3.291-.508,6.579-1.023,3.936-.607,7.868-1.223,3.816-.6,7.633-1.2,3.348-.528,6.694-1.057,4.16-.654,8.322-1.321l5.869-.933q4.518-.723,9.034-1.449,2.4-.387,4.8-.771,5.113-.824,10.22-1.65c.9-.147,1.795-.291,2.694-.438,252.69-40.966,506.353-89.186,845.49-81.847.035,0,.075,0,.118,0q21.375,1.545,40.521,3.858c-462.56-15.819-766.421,72.083-1113.413,113.662A31.63,31.63,0,0,1,715.151,938l.088-.009q7.615-.924,15.206-1.875C731.52,935.983,732.59,935.843,733.664,935.708Z" fill="url(#ay)"/><path d="M-50.217,993.108a159.2,159.2,0,0,1,12.536-13.342c12.662-25.346,39.861-37.953,68.848-43.83q56.054,7.433,109.114,12.36c-61.414,14.942-62.75,52.825-62.75,52.825s33.6,10.676,84.807,12.814c15.6-29.79,49.828-47.381,88.393-57.628,52.907,2.717,103.8,3.705,153.054,3.248-71.2,21.733-81.43,72.53-81.43,72.53s62.407,14.946,128.013,11.744c10.168-49.75,62.954-76.45,110.378-90.562,44.364-3.1,87.658-7.213,130.248-12.06-73.843,31.852-103.011,106.9-103.011,106.9s124.813,11.745,201.621,9.609c.957-82.384,38.549-121.212,68.611-139.124q39.495-6.036,78.827-12.446c56.4,31.048,47.781,146.231,47.781,146.231s16,6.406,193.619-1.067c42.254-132.718-17.037-166.667-64.608-174.027,75.573-12.026,152.9-23.442,234.108-32.652,99.674,18.372-35.083,199.2-35.083,199.2s54.4,17.085,118.409,12.815c109.89-109.537,116.258-202.941,115.654-228.836q22.384-1.211,45.258-2.118c102.878,28.345,101.515,194.651,101.515,194.651s44.8,9.609,219.221-17.084c-51.993-126.438-149.021-167.14-198.952-180,48.944-.025,99.664,1.092,152.447,3.56,47.945,12.387,80.994,34.076,103.423,53.541v205.567H-50.217Z" fill="url(#az)"/><path d="M1113.834,877.278c75.573-12.026,152.9-23.442,234.108-32.652a66.738,66.738,0,0,1,6.65,1.6c-81.164,9.062-158.415,20.349-233.855,32.3C1118.42,878.046,1116.114,877.632,1113.834,877.278Zm-562.61,78.98c45.331-3.011,89.529-7.085,132.973-11.942q3.332-1.611,6.8-3.109c-42.59,4.847-85.884,8.958-130.248,12.06Q556.014,954.677,551.224,956.258ZM1592.18,825.69q-22.872.9-45.258,2.118c.016.725.025,1.512.029,2.344q25.6-1.384,51.837-2.376C1596.631,827.025,1594.439,826.315,1592.18,825.69ZM31.167,935.936c-2.2.446-4.387.945-6.559,1.472q56.108,7.564,109.209,12.62c2.083-.6,4.223-1.189,6.464-1.732Q87.172,943.329,31.167,935.936Zm212.491,22.349c52.864,2.862,103.689,3.976,152.9,3.658,2.344-.826,4.74-1.63,7.231-2.388-49.258.457-100.147-.531-153.054-3.248Q247.169,957.25,243.658,958.285ZM1866.411,826.813c-52.783-2.468-103.5-3.585-152.447-3.56,2.7.694,5.539,1.476,8.493,2.344,49.45.108,100.721,1.392,154.085,4.048C1873.227,828.662,1869.867,827.706,1866.411,826.813ZM937.042,906.141q-39.373,6.381-78.827,12.446c-1.622.965-3.268,2.005-4.928,3.1q43.533-6.618,86.851-13.7C939.126,907.344,938.1,906.722,937.042,906.141Z" fill="url(#ba)"/><path d="M1877.781,938.276c-53.116-76.311-123.614-104.655-163.753-115.005,1.826,0,3.646-.005,5.479,0q3.995,0,8,.019,5.656.023,11.354.065c2.708.02,5.408.039,8.125.068,3.809.038,7.638.086,11.467.138,2.731.036,5.459.072,8.2.115q5.843.1,11.719.217c2.081.039,4.157.081,6.248.124,96.577,6.99,161.2,25.277,155.152,62.615C1936.567,906.448,1914.283,923.607,1877.781,938.276ZM1592.212,825.7c-.642.026-1.29.047-1.926.072q-10.022.406-19.939.863c-2.089.1-4.159.206-6.243.306q-7.281.355-14.517.734c-.893.046-1.775.1-2.665.147.495,21.348-3.764,88.51-66.726,172.752,75.392-4.391,147.173-10.906,210.673-19.688C1684.362,929.86,1662.905,845.2,1592.212,825.7ZM936.875,906.168q-39.3,6.364-78.663,12.419c-18.956,11.3-40.9,30.927-54.768,64.534,6.47.978,13.282,1.946,20.506,2.9,46.186,6.112,100.325,10.995,159.4,14.561-3.929-34.821-15.278-77.359-46.3-94.441C936.987,906.15,936.929,906.157,936.875,906.168ZM1348,844.637l-4,.452q-11.061,1.268-22.024,2.586-4.642.557-9.275,1.128-10.908,1.335-21.731,2.716c-2.98.38-5.946.769-8.918,1.154q-9.918,1.29-19.776,2.612-4.986.669-9.955,1.352-9.084,1.24-18.114,2.507-4.851.683-9.69,1.367-9.816,1.4-19.567,2.824-4.342.634-8.68,1.27-10.449,1.541-20.836,3.113-4.581.691-9.149,1.388-10.2,1.552-20.343,3.129-4.71.732-9.409,1.468-9.442,1.479-18.856,2.971c-1.273.2-2.545.4-3.818.608,41.816,6.474,92.663,33.513,75.644,130.116,48.99.429,98.894.077,148.522-1.092C1371.45,952.308,1418.569,857.7,1348,844.637Z" fill="url(#bb)"/><path d="M1546.922,827.821c.89-.047,1.772-.1,2.665-.147q7.233-.386,14.517-.734c2.084-.1,4.154-.21,6.243-.306q9.921-.463,19.939-.863c.636-.025,1.284-.046,1.926-.072q3.408.942,6.662,2.082-26.3.985-51.923,2.384C1546.947,829.335,1546.938,828.547,1546.922,827.821Zm237.7-3.807c-2.091-.043-4.167-.085-6.248-.124q-5.873-.114-11.719-.217c-2.739-.043-5.467-.079-8.2-.115-3.829-.052-7.658-.1-11.467-.138-2.717-.029-5.417-.048-8.125-.068q-5.689-.043-11.354-.065-4.007-.018-8-.019c-1.833,0-3.653,0-5.479,0,2.694.694,5.536,1.478,8.49,2.344q47.9.105,98.151,1.733C1809.253,826.035,1797.214,824.928,1784.622,824.014Zm-663.885,54.518c75.467-11.955,152.754-23.242,233.954-32.3a68.611,68.611,0,0,0-6.693-1.591l-4,.452q-11.061,1.268-22.024,2.586-4.642.557-9.275,1.128-10.908,1.335-21.731,2.716c-2.98.38-5.946.769-8.918,1.154q-9.918,1.29-19.776,2.612-4.986.669-9.955,1.352-9.084,1.24-18.114,2.507-4.851.683-9.69,1.367-9.816,1.4-19.567,2.824-4.342.634-8.68,1.27-10.449,1.541-20.836,3.113-4.581.691-9.149,1.388-10.2,1.552-20.343,3.129-4.71.732-9.409,1.468-9.442,1.479-18.856,2.971c-1.273.2-2.545.4-3.818.608C1116.126,877.634,1118.425,878.049,1120.737,878.532ZM858.212,918.587c-1.609.959-3.243,2-4.889,3.083q43.509-6.61,86.817-13.693c-1.014-.638-2.041-1.255-3.1-1.836-.055.009-.113.016-.167.027Q897.579,912.533,858.212,918.587Z" fill="url(#bc)"/><path d="M-50.217,1085.921H1969.834V921.383C1388.975,1089.9,297.6,1039.853-50.217,929.9Z" fill="url(#bd)"/><path d="M-50.217,1085.921H1969.834V921.383C1388.975,1089.9,297.6,1057.354-50.217,947.4Z" fill="url(#be)"/><path d="M662.989,1085.921h-70.84c.62-31.183,22.156-51.838,39.89-63.6q33.3,1.708,67.244,3.085C683.72,1041.327,670.748,1067.72,662.989,1085.921Zm511.336-59.038c-93.058,3.285-186.724,4.347-278.937,3.442-25.8,9.746-53.03,26.574-71.906,55.6h338.98C1161.488,1069.361,1163.292,1047.654,1174.325,1026.883Zm680.214,59.038h115.3V992.1c-16.56-22.408-37.845-44.243-65.009-53.116-36.027,8.925-73.64,17.128-112.6,24.633C1811.243,976.579,1849.808,1011.758,1854.539,1085.921ZM1665.88,984.927c3.961,16.913,5.8,58.265-51.567,100.994h151.968c1.086-32.961-4.8-82.162-43.917-109.817Q1694.481,980.725,1665.88,984.927Zm-292.524,31.312c1.849,11.691,3.171,38.864-15.446,69.682h157.745c-4.55-23.2-19.446-63.052-68.231-75.654Q1410.67,1013.528,1373.356,1016.239ZM-17.886,939.363a198.148,198.148,0,0,0-32.331,10.688v83.419c27.99-26.791,72.166-59.03,131.167-71.412C44.4,954.9,11.279,947.311-17.886,939.363Zm75.148,146.558H358.448c33.4-24.4,83.643-56.843,132.836-72.512-63.356-4.8-124.011-10.521-181.06-17.035C230.572,1000.619,126.213,1020.1,57.262,1085.921Z" fill="url(#bf)"/><path d="M1373.81,1019.7q40.684-3.338,80.745-7.3c43.112,14.476,56.783,51.495,61.1,73.518H1357.91C1374.9,1057.8,1375.279,1032.762,1373.81,1019.7Zm240.5,66.219h151.968c1.073-32.709-4.723-81.4-43.038-109.165q-28.193,4.84-57.121,9.28C1669.892,1003.587,1670.482,1044.085,1614.313,1085.921Zm240.226,0h115.3V992.1c-16.54-22.378-37.788-44.178-64.9-53.077q-53.869,13.458-112.215,24.942C1811.905,977.191,1849.847,1012.385,1854.539,1085.921Zm-1031.057,0h338.98c-.885-15.079.552-34.424,9.142-53.445-98.571,4.459-197.8,6.494-295.24,6.344C856.78,1049.029,837.744,1063.99,823.482,1085.921ZM-46.5,948.552c-1.24.5-2.479.965-3.718,1.5v83.419c22.2-21.248,54.619-45.889,96.5-61.365C11.445,964.741-19.658,956.87-46.5,948.552ZM618,1033.221c-13.4,12.214-25.391,29.549-25.853,52.7h70.84c6.234-14.629,15.844-34.539,27.455-50.06Q653.856,1034.743,618,1033.221Zm-560.74,52.7H358.448c26.8-19.577,64.451-44.316,103.7-61.432-78.363-5.517-152.277-12.521-219.911-20.839C177.33,1014.351,107.791,1037.685,57.262,1085.921Z" fill="url(#bg)"/></g></svg>