<svg xmlns="http://www.w3.org/2000/svg" width="238.11" height="393.14" viewBox="0 0 238.11 393.14"><g transform="translate(-1590.516 -1532.792)"><path d="M1680.941,1897.31c24.868,0,55.415,3.534,55.415,18.7,0,13.4-31.628,7.952-54.2,7.952-20.41,0-55.956,7.8-55.956-7.658C1626.2,1903.789,1656.611,1897.31,1680.941,1897.31Z" fill="#89a2b7" opacity="0.6"/><path d="M1665.476,1834.148s3.5,13.069,5.182,20.235a16.038,16.038,0,0,0,7.685-1.923l-3.919-22.144Z" fill="#fbc09c"/><path d="M1680.719,1855.26c1.513,1.763,2.657,5.7-.876,11.131s-8.109,9.789-15.941,9.477c-6.588-.262-4.887-7.911-4.887-7.911Z" fill="#fff"/><path d="M1677.449,1847.013c1.68,1.5,4.994,8.256,2.349,12.439-2.629,4.176-7.311,11.735-16.583,11.916-7.27.141-4.472-6.887-1.6-10.194s7.774-11.6,7.774-11.6S1671.508,1853.214,1677.449,1847.013Z" fill="#292322"/><path d="M1666.442,1853.991c2.419-1.58,6.5-1.391,8.335.079a2.013,2.013,0,0,1-.417,3.645c-1.136.238-4.8-.337-8.571.281S1664.5,1855.241,1666.442,1853.991Z" fill="#ffb600"/><path d="M1662.072,1859.883c2.419-1.581,6.5-1.393,8.335.079a2.013,2.013,0,0,1-.417,3.645c-1.135.237-4.8-.338-8.571.281S1660.131,1861.133,1662.072,1859.883Z" fill="#ffb600"/><path d="M1704.456,1881.191s-9.724,9.406-14.854,14.683a16.037,16.037,0,0,1-5.6-5.6l14.756-16.969Z" fill="#fbc09c"/><path d="M1680.521,1891.448c-2.2.734-5.21,3.521-4.974,10s1.914,12.566,8.79,16.329c5.783,3.165,8.261-4.27,8.261-4.27Z" fill="#fff"/><path d="M1687.57,1886.06c-2.21.418-8.53,4.509-8.415,9.458.1,4.933.23,13.825,8.088,18.75,6.161,3.862,7.378-3.6,6.613-7.921s-.7-13.945-.7-13.945S1689.473,1894.435,1687.57,1886.06Z" fill="#292322"/><path d="M1693.418,1897.707c-1.261-2.6-4.854-4.536-7.189-4.22a2.012,2.012,0,0,0-1.517,3.339c.851.788,4.294,2.182,7.2,4.652S1694.438,1899.778,1693.418,1897.707Z" fill="#ffb600"/><path d="M1693.772,1904.629c-1.261-2.6-4.853-4.536-7.188-4.22a2.011,2.011,0,0,0-1.517,3.338c.851.789,4.294,2.183,7.2,4.652S1694.793,1906.7,1693.772,1904.629Z" fill="#ffb600"/><path d="M1687.491,1797.4c-9.232,3.252-26.515-3.775-34.178,9.435-3.85,6.638,5.767,36.129,5.767,36.129s17.185,2.861,20.187-3.569c-.955-6.987.014-11.714-2.2-15.77,0,0,19.683,3.146,24.316.911a4.525,4.525,0,0,0,6.4,1.758c4.626,13.491-13.3,48.72-13.3,48.72s6.178,7.071,11.508,14.079c28.544-27.781,43.012-70.441,40.314-87.933C1716.5,1799.969,1687.491,1797.4,1687.491,1797.4Z" fill="#40b0b3"/><path d="M1739.286,1736.144s27.971-6.624,43.549-60.118c3.967-.261,6.392-4.052,8.549-9.714,2.772-3.532,4.054-6.407,2.474-7.194-1.629-.808-4.388,3.356-5.22,4.3.052-.2,2.872-5.673,3.41-6.923,1.241-2.9-1.369-4.455-2.9-2.157-1.267,1.937-3.9,6.562-4.044,6.8.056-.271,2.144-6.339,2.547-7.445,1.187-3.286-2.289-5.065-3.731-1.335-.975,2.537-2.528,7.056-2.766,7.4-.084-.2.245-3.807.285-5.961.062-3.542-2.953-4.076-3.716-.106-.6,3.137-2.381,10.582-2.381,10.582s-3.414-3.991-5.593-2.07c-2.194,1.923,4,8.717,4,8.717s-4.216,38.226-40.191,55.119C1728.11,1733.753,1739.286,1736.144,1739.286,1736.144Z" fill="#fbc09c"/><path d="M1681.746,1751.657s-37.024,1.263-70.485-23.247c-3.382,2.114-7.572.457-12.625-2.878-4.312-1.232-7.038-2.819-6.22-4.377.854-1.612,5.524.159,6.742.431-.152-.135-5.642-2.922-6.8-3.62-2.713-1.628-1.505-4.413,1.075-3.439,2.167.816,7,3.037,7.255,3.135-.2-.179-5.44-3.88-6.421-4.546-2.878-1.963-1.11-5.445,2.247-3.254,2.271,1.48,6.179,4.238,6.575,4.382-.047-.213-2.426-2.949-3.714-4.664-2.125-2.834,0-5.04,2.947-2.267,2.323,2.2,8.128,7.185,8.128,7.185s.425-5.239,3.314-4.953c2.908.27,1.868,9.4,1.868,9.4s25.279,20.585,64.853,21.154C1689.413,1743.171,1681.746,1751.657,1681.746,1751.657Z" fill="#fbc09c"/><path d="M1609.128,1721.27a.262.262,0,0,1-.2-.1c-2.421-2.574-.688-5.608.72-7a.281.281,0,0,1,.413,0,.313.313,0,0,1,.014.433c-1.261,1.227-2.811,3.918-.708,6.161a.291.291,0,0,1-.015.412A.3.3,0,0,1,1609.128,1721.27Z" fill="#c85f3b"/><path d="M1687.372,1738.495s6.9-3.008,11.228-5.579a45.749,45.749,0,0,0-3.078-9.97l8.516-3.122s2.684,7.63,3.374,10.788c6.77.02,15.718-.557,15.718-.557s9.446,18.794-12.973,23.578C1704.257,1754.9,1688.67,1747.831,1687.372,1738.495Z" fill="#fbc09c"/><path d="M1716.607,1731.048a66.1,66.1,0,0,1-29.058,8.364c-.073-.3-.134-.608-.177-.917,0,0,6.9-3.008,11.228-5.579a45.749,45.749,0,0,0-3.078-9.97l8.516-3.122s2.684,7.63,3.374,10.788c3.405.009,7.36-.132,10.451-.274C1717.447,1730.578,1717.03,1730.815,1716.607,1731.048Z" fill="#efa377"/><path d="M1718.208,1730.479c13.385,23.35-26.93,32.693-31.18,8.55-3.586.611-12.086-.4-22.1-3.756-.429,9.33-9.9,13.122-10.4,19.412,6.474,3.429,16.471,6.729,24.868,5.427,4.51,8.124,7.6,26.731,6.791,28.967,0,0,28.022,15.388,61.825,4.992.013,0-9.547-44.971-8.928-45.87a36.271,36.271,0,0,0,15.015-12.92c-3.892-8.7-11.975-13.069-14.86-15.805A51.654,51.654,0,0,1,1718.208,1730.479Z" fill="#292322"/><path d="M1718.188,1769.691c-2.236-.181-3.236-10.456-6.566-9.038-1.927.813.31,9.061-1.944,9.98-2.691,1.1-9.3-.8-9.239,1.244.1,2.948,10.44,3.066,8.989,5.907-2.116,4.138-4.34,9.226-2.884,10,2.631,1.408,6.374-7.332,9.37-8.2,3.34-.968,12.349,7.537,12.57,3.988.163-2.55-7.57-6.806-6.568-8.9,1.942-4.036,7.39-8.608,4.544-8.875S1720.266,1769.866,1718.188,1769.691Z" fill="#fff"/><path d="M1715.768,1729.905c2.591,6.872,3.192,16.435-7.662,18.323-9.563,1.667-14.423-2.468-16.08-11.966a34.917,34.917,0,0,0-6.274,2.6s4.07,20.563,24.591,15.751c19.5-4.574,11.995-25.276,11.995-25.276Z" fill="#fff"/><path d="M1742.3,1715.089s12.172,9.141,15.285,17.368a27.285,27.285,0,0,1-3.4,4.229s-7.966-11.19-16.108-17.354A15.988,15.988,0,0,0,1742.3,1715.089Z" fill="#fff"/><path d="M1652.615,1755.04s4.623-14.477,9.767-21.614a29.209,29.209,0,0,1,5.566,2.561c-2.553,3.065-6.438,10.582-8.865,21.071C1656.349,1756.137,1652.615,1755.04,1652.615,1755.04Z" fill="#fff"/><path d="M1738.555,1811.048s1.781,7.792,6.492,12.161c-1.166,1.619-3.4,4.247-3.4,4.247s-8.939-8.55-9.118-16.188A14.264,14.264,0,0,0,1738.555,1811.048Z" fill="#158383"/><path d="M1678.883,1830.716s-11.43,6.746-22.445,6.192c1.291,4.373,3.587,10.6,4.159,11.306,0,0,14.382-1.027,20.2-6.587C1680.694,1838.976,1679.573,1834.537,1678.883,1830.716Z" fill="#158383"/><path d="M1711.905,1886.2s-11.44-6.73-16.292-16.635c-3.2,3.247-7.534,8.271-7.875,9.117,0,0,7.867,12.083,15.549,14.481C1705.557,1891.791,1708.894,1888.66,1711.905,1886.2Z" fill="#158383"/><path d="M1685.978,1788.386l-2,9.712s27.573,19.321,63.639,7.472c.541-10.307-.161-13.96-.161-13.96S1727.954,1806.154,1685.978,1788.386Z" fill="#158383"/><path d="M1712.671,1803.012a3.409,3.409,0,0,1-4.276,2.233h0a3.411,3.411,0,0,1-2.233-4.276h0a3.412,3.412,0,0,1,4.276-2.232h0a3.411,3.411,0,0,1,2.233,4.275Z" fill="#40b0b3"/><path d="M1747.505,1654.19c16.066-5.91,15.607-27.945,4.564-27.535,9.763-23.975-7.872-39.27-16.459-36.518s-8.2,6.929-8.2,6.929-4.779-30.857-24.267-35.42-17.839,15.778-17.839,15.778-12.515-20.646-27.093-13.717c-8.956,4.258,1.123,16.464,3.255,18.562-69.623-23.92-75.806,31.317-53.157,40.092-23.787,4.488-23.886,38.219.7,31.782-21.147,7.307-17.243,27.315,1.219,25.972-6.687,4.187-2.517,25.839,21.816,18.723C1653.736,1692.495,1747.505,1654.19,1747.505,1654.19Z" fill="#512720"/><path d="M1746.275,1653.309c12.346,33.6-5.653,65.6-38.007,77.486s-66.792-.844-79.137-34.447,4.31-69.256,36.665-81.145S1733.934,1619.71,1746.275,1653.309Z" fill="#fbc09c"/><path d="M1744.033,1654.419s-1.721-7.113,6.077-11.329c8.228-4.435,16.167,5.515,14.229,14.113-1.941,8.583-11.5,12.526-16.589,8.428Z" fill="#fbc09c"/><path d="M1752.97,1645.369c-5.992,1.3-6.484,12.976,3.185,14.985-6.044-5.633-4.1-9.214,1.275-7.54-.974-2.249-2.955-3.107-6.218-1.479C1750.243,1648.23,1752.97,1645.369,1752.97,1645.369Z" fill="#cf704e"/><path d="M1631.206,1695.9s-3.294-6.535-11.966-4.694c-9.143,1.947-8.749,14.67-1.712,19.966s16.872,2.1,18.1-4.317Z" fill="#fbc09c"/><path d="M1618.531,1694.793c5.411-2.89,13.347,5.692,7.276,13.481.962-8.206-2.844-9.674-5.849-4.923-.713-2.34.234-4.276,3.775-5.153C1622.46,1695.21,1618.531,1694.793,1618.531,1694.793Z" fill="#cf704e"/><path d="M1686.257,1660.13c.721,3.726-6.912,11.134-1.962,14.164,3.063,1.877,7.609-.556,5.649-5.887C1688.809,1665.319,1686.257,1660.13,1686.257,1660.13Z" fill="#e6503b"/><path d="M1653.27,1663.634c-3.831-5.157-14.439-.526-14.315,10.7C1641.841,1667.325,1653.27,1663.634,1653.27,1663.634Z" fill="#db1f0a"/><path d="M1706.685,1644c-.422-6.411,10.662-9.755,17.837-1.122C1717.782,1639.4,1706.685,1644,1706.685,1644Z" fill="#db1f0a"/><path d="M1723.594,1683.406c1.271,3.455,7.531,4.333,13.982,1.959s10.654-7.094,9.383-10.547-7.529-4.335-13.981-1.962S1722.325,1679.951,1723.594,1683.406Z" fill="#e6503b"/><path d="M1643.14,1712.986c1.267,3.454,7.529,4.333,13.98,1.96s10.654-7.1,9.383-10.548-7.53-4.334-13.982-1.963S1641.867,1709.532,1643.14,1712.986Z" fill="#e6503b"/><path d="M1712.758,1654.22c-7.258,2.993-6.938,12.771-7.1,12.379a11.284,11.284,0,1,1,20.863-8.6C1726.68,1658.387,1720.525,1651.016,1712.758,1654.22Z" fill="#693522"/><path d="M1655.77,1675.17c-7.257,2.992-6.94,12.772-7.1,12.38a11.283,11.283,0,1,1,20.86-8.6C1669.7,1679.338,1663.538,1671.967,1655.77,1675.17Z" fill="#693522"/><path d="M1675.258,1688.37c2.888-6.148,6.75.919,16.388-2.126,9.838-3.107,8.869-11.447,15.429-6.783,5.351,3.8,10.428,33.229-5.8,37.976C1684.921,1722.2,1672.509,1694.223,1675.258,1688.37Z" fill="#491d1c"/><path d="M1710.636,1708.028c-1.615,4.431-4.553,8-9.359,9.409-4.507,1.313-8.71.136-12.384-2.374a23.915,23.915,0,0,1,10.374-6.09A22.893,22.893,0,0,1,1710.636,1708.028Z" fill="#e6503b"/><path d="M1676.452,1686.591c2.8-2.69,6.814,2.3,15.194-.347,8.481-2.677,8.935-9.236,13.1-8.013-.832,7.03-3.884,13.449-10.744,15.456C1687.2,1695.67,1681.08,1691.986,1676.452,1686.591Z" fill="#fff"/><path d="M1727.963,1628.331c-3.776,4.31-11.612,7.809-34.243-.562,13.166,9-3.818,25.773-47.412,20.227-3.951,11.924-11.711,19.37-19.759,17.031-13.8-4.012,1.61-45.511,44.439-56.828C1704.909,1599.236,1735.956,1619.206,1727.963,1628.331Z" fill="#512720"/><path d="M1614.445,1678.853a32.834,32.834,0,0,0,63.475-15l10.825-3.934a32.813,32.813,0,1,0-3.432-6.823c.284.777.6,1.532.937,2.276l-9.334,3.4c-.221-.786-.463-1.571-.745-2.348a32.838,32.838,0,0,0-61.726,22.435Zm4.817-1.751a27.713,27.713,0,1,1,35.512,16.579A27.743,27.743,0,0,1,1619.262,1677.1Zm70.868-25.76a27.714,27.714,0,1,1,35.513,16.579A27.744,27.744,0,0,1,1690.13,1651.342Z" fill="#fff"/><path d="M1804.594,1669.591q-2.422,3.29-19.329,1.394t-23.427-5.909q-3.18-1.947-.358-24.613t5.569-46.663q-6.178,1.525-12.435,2.674t-7.736.648q-4.037-.523-9.267-14.494t-4.682-21.751q.264-3.526,12.159-10.445t33.029-15.948q3.827-1.7,12.285-1.692a94.121,94.121,0,0,1,17,1.589,57.087,57.087,0,0,1,14.961,4.753q6.42,3.177,6.261,7.816-.624,13.076-3.483,32.99t-6.6,39.052q-3.745,19.14-7.612,33.686T1804.594,1669.591Z" fill="#ffbf00"/><path d="M1778.874,1667.847s-3.586-9.3-7.248-8.106.561,8.178,2.381,11.784C1777.644,1669.712,1778.874,1667.847,1778.874,1667.847Z" fill="#fbc09c"/></g></svg>