<svg xmlns="http://www.w3.org/2000/svg" width="255.481" height="359.386" viewBox="0 0 255.481 359.386"><g transform="translate(-110.228 -1568.154)"><path d="M211.984,1907.15c23.558,0,52.492,2.517,52.492,13.322,0,9.546-29.959,5.665-51.34,5.665-19.333,0-53,5.559-53-5.455C160.132,1911.765,188.939,1907.15,211.984,1907.15Z" fill="#89a2b7" opacity="0.6"/><path d="M187.33,1879.49s-.333,13.315-.737,20.551a15.807,15.807,0,0,0,7.8.324l2.457-22.005Z" fill="#fbc09c"/><path d="M195.853,1903.67c.939,2.084,1.229,5.821-3.619,9.966s-9.647,7.649-16.938,5.119c-5.993-2.08-3.473-9.132-3.473-9.132Z" fill="#0ea4b8"/><path d="M195.059,1894.97c1.17,1.879,2.418,9.187-1.243,12.4-3.644,3.212-11.354,9.663-18.52,7.017-6.526-2.411-2.763-8.125.872-10.448s10.57-8.793,10.57-8.793S187.722,1899.175,195.059,1894.97Z" fill="#201f1d"/><path d="M182.722,1897.441c2.724-.82,6.522.491,7.849,2.393a1.982,1.982,0,0,1-1.406,3.326c-1.139-.091-4.445-1.656-8.174-2.118S180.541,1898.082,182.722,1897.441Z" fill="#ffb600"/><path d="M177.033,1901.806c2.725-.819,6.522.492,7.849,2.394a1.982,1.982,0,0,1-1.406,3.326c-1.139-.092-4.445-1.656-8.174-2.118S174.853,1902.447,177.033,1901.806Z" fill="#ffb600"/><path d="M233.515,1879.49s.333,13.315.736,20.551a15.8,15.8,0,0,1-7.8.324L224,1878.36Z" fill="#fbc09c"/><path d="M224.992,1903.67c-.939,2.084-.923,6.122,3.925,10.267s10.38,6.99,17.69,4.517c6.15-2.08,2.415-8.831,2.415-8.831Z" fill="#0ea4b8"/><path d="M225.786,1894.97c-1.171,1.879-2.418,9.187,1.243,12.4,3.643,3.212,10.169,9.05,18.976,6.64,6.906-1.888,2.307-7.748-1.33-10.071s-10.568-8.793-10.568-8.793S233.123,1899.175,225.786,1894.97Z" fill="#201f1d"/><path d="M238.52,1897.441c-2.725-.82-6.522.491-7.849,2.393a1.981,1.981,0,0,0,1.407,3.326c1.139-.091,4.444-1.656,8.173-2.118S240.7,1898.082,238.52,1897.441Z" fill="#ffb600"/><path d="M244.208,1902.2c-2.724-.819-6.521.492-7.848,2.394a1.98,1.98,0,0,0,1.407,3.325c1.138-.09,4.444-1.655,8.173-2.117S246.389,1902.845,244.208,1902.2Z" fill="#ffb600"/><path d="M224.917,1737.751l-11.057-.947v-8.164h-6.64v8.18l-10.855.931c-.791,14.914,13.317,15.694,14.251,15.728v0a.13.13,0,0,0,.025,0,.12.12,0,0,0,.023,0v0C211.6,1753.445,225.705,1752.665,224.917,1737.751Z" fill="#fbc09c"/><path d="M210.636,1735.677a3.64,3.64,0,0,1,2.85,1.235v-3.419h-5.7v3.419A3.639,3.639,0,0,1,210.636,1735.677Z" fill="#efa377"/><path d="M227.344,1737.877c-.082,12.665-8.391,17.354-16.736,16.174v-.015c-.019,0-.038.006-.055.007a.515.515,0,0,1-.056-.007v.015c-8.345,1.18-16.655-3.509-16.736-16.174-3.606.005-17.934,5.955-20.75,17.043-2.19,8.626,1.408,16.9,10.506,19.466-.078,9.81-3.312,22.905-2.811,27.256,0,0,11.592,2.452,29.791,2.651v0h.111v0c18.2-.2,29.791-2.651,29.791-2.651.5-4.351-1.418-25.024-1.5-34.834,1.187.24,2.284,4.232,4.686,3.776,5-.946,10.9-12.119,13.729-11.44.737-3.445-.8-.865-9.415-10.215C239.416,1739.715,230.949,1737.882,227.344,1737.877Z" fill="#e25697"/><path d="M231.143,1738.263a48.063,48.063,0,0,1-6.885-1.7c-1.338,7.653-4.634,14.137-13.869,14.319-9.236-.182-12.534-6.666-13.87-14.319a48.1,48.1,0,0,1-6.887,1.7s1.458,19.336,20.586,19.288v0l.171,0,.17,0v0C229.688,1757.6,231.143,1738.263,231.143,1738.263Z" fill="#fff"/><path d="M210.588,1799.4c-.065-.016-16.028-.041-30.011-3.013.107,23.257-2.089,57.328-1.2,85.908,3.3,3.975,6.981,2.313,20.21,3.02,4.293-17.5,9.271-41.885,11.005-52.1,1.733,10.216,6.712,34.6,11.005,52.1,13.229-.707,16.914.955,20.209-3.02.888-28.58-1.311-62.651-1.2-85.908C226.615,1799.361,210.653,1799.386,210.588,1799.4Z" fill="#48438f"/><path d="M210.588,1808.5c.065-.016,15.788-.041,29.953-2.929.025-3.2.046-8.491.058-11.392-17.973,5.487-46.039,2.972-60.022,0,.013,2.9.032,8.187.058,11.392C194.8,1808.455,210.523,1808.48,210.588,1808.5Z" fill="#2f2c7a"/><path d="M190.079,1810.719s-3,7.326-8.3,10.848c.87,1.76,2.627,4.692,2.627,4.692s10.118-6.928,11.514-14.364A14.154,14.154,0,0,1,190.079,1810.719Z" fill="#2f2c7a"/><path d="M231.465,1810.719s3,7.326,8.3,10.848c-.868,1.76-2.629,4.692-2.629,4.692s-10.116-6.928-11.513-14.364A14.132,14.132,0,0,0,231.465,1810.719Z" fill="#2f2c7a"/><path d="M202,1877.438s-12.968,2.174-22.959-2.251c-.361,4.5-.45,11.074-.175,11.934,0,0,13.668,4.161,21.025,1.089C200.736,1885.72,201.275,1881.218,202,1877.438Z" fill="#2f2c7a"/><path d="M219.2,1877.438s12.967,2.174,22.958-2.251c.359,4.5.45,11.074.173,11.934,0,0-13.667,4.161-21.026,1.089C220.464,1885.72,219.924,1881.218,219.2,1877.438Z" fill="#2f2c7a"/><path d="M213.9,1804.233a3.378,3.378,0,0,1-3.769,2.938h0a3.378,3.378,0,0,1-2.939-3.767h0a3.377,3.377,0,0,1,3.768-2.939h0a3.379,3.379,0,0,1,2.94,3.768Z" fill="#48438f"/><path d="M283.362,1624.093c-7.06-12.328-29.755-20.072-29.755-20.072s23.8,1.992,16.1-11.348c-10.063-17.454-50.011-8.842-50.011-8.842s16.242-12.34.575-15.346c-12.413-2.38-32.5,8.662-35.046,14.339-6.288-5.486-24.813-5.883-33.057-2.38-14.684,6.24-.666,14.431-.666,14.431s-32.569,1.508-37.054,21.152c-3.426,15.012,16.4,12.781,16.4,12.781s-17.084,7.406-20.207,21.264c-1.958,8.694,3.044,17.766,13.445,16.2-9.691,5.035.665,24.2,17.359,21.439,0,0,39.164-7.541,61.263-12.673,22.632-1.595,62.283-5.911,62.283-5.911,16.768-2.273,21.027-23.634,10.282-25.6C285.68,1641.968,287.793,1631.827,283.362,1624.093Z" fill="#512720"/><path d="M141.477,1685.488c5.252,34.864,35.951,53.974,69.525,48.919s57.282-32.361,52.03-67.228-36.525-57.771-70.1-52.714S136.228,1650.627,141.477,1685.488Z" fill="#fbc09c"/><path d="M143.943,1685.386s-1.885-6.96-10.614-6.9c-9.207.062-11.352,12.417-5.606,18.925s15.862,5.372,18.319-.579Z" fill="#fbc09c"/><path d="M131.936,1681.8c5.791-1.716,11.746,8.136,4.347,14.449,2.554-7.729-.826-9.9-4.672-5.909-.221-2.4,1.078-4.08,4.671-4.223C135.646,1682.982,131.936,1681.8,131.936,1681.8Z" fill="#cf704e"/><path d="M261.03,1667.775s-.25-7.2,8.109-9.721c8.818-2.651,14.5,8.525,10.938,16.431s-13.58,9.807-17.681,4.845Z" fill="#fbc09c"/><path d="M271.448,1660.817c-6.039.065-8.828,11.236.1,15.087-4.715-6.632-2.124-9.7,2.723-7.021-.494-2.361-2.229-3.582-5.705-2.662C268.254,1663.036,271.448,1660.817,271.448,1660.817Z" fill="#cf704e"/><path d="M198.466,1674.055c1.142,3.56,11.241,6.342,8.4,11.3-1.757,3.072-6.837,3.123-7.669-2.408C198.719,1679.745,198.466,1674.055,198.466,1674.055Z" fill="#e6503b"/><path d="M183.033,1700.19c.539,3.584-4.451,7.307-11.147,8.315s-12.56-1.083-13.1-4.668,4.45-7.309,11.147-8.315S182.494,1696.6,183.033,1700.19Z" fill="#e6503b"/><path d="M251.893,1689.831c.54,3.586-4.45,7.309-11.146,8.316s-12.56-1.083-13.1-4.668,4.452-7.308,11.147-8.315S251.354,1686.247,251.893,1689.831Z" fill="#e6503b"/><path d="M222.593,1693.05c-5.32-3.332-6.163,3.263-16.749,4.781-10.808,1.548-13.294-4.852-17.734,1.046-3.623,4.812,3.533,28.034,21.205,25.207C227.115,1721.221,227.658,1696.217,222.593,1693.05Z" fill="#491d1c"/><path d="M196.385,1720.9a16.372,16.372,0,0,0,12.93,3.189,17.05,17.05,0,0,0,11.023-6.489,31.412,31.412,0,0,0-12.551-.4A30.706,30.706,0,0,0,196.385,1720.9Z" fill="#e6503b"/><path d="M220.708,1692.223c-3.82-.865-5.66,4.291-14.864,5.608-9.317,1.335-12.448-3.231-15.978-.741,1.018,6.431,9.57,10.029,17.039,8.835C214.309,1704.734,221.72,1698.595,220.708,1692.223Z" fill="#fff"/><path d="M182.767,1673.475c3.477,6.175,1.575,13.848-4.256,17.138s-13.385.946-16.865-5.234-1.572-13.853,4.252-17.144S179.287,1667.3,182.767,1673.475Z" fill="#fff"/><path d="M178.718,1675.755a7.488,7.488,0,1,1-10.4-3.231A7.711,7.711,0,0,1,178.718,1675.755Z" fill="#292322"/><path d="M171.673,1675.023a2.952,2.952,0,1,1-3.334-2.723A3.035,3.035,0,0,1,171.673,1675.023Z" fill="#fff"/><path d="M177.875,1681.905a1.357,1.357,0,1,1-1.526-1.245A1.394,1.394,0,0,1,177.875,1681.905Z" fill="#fff"/><path d="M158.539,1675.947s7.94-12.559,22.284-6.567C165.856,1657.321,158.539,1675.947,158.539,1675.947Z" fill="#693522"/><path d="M220.855,1667.688c-1.508,6.925,2.569,13.7,9.108,15.129s13.071-3.035,14.58-9.966-2.572-13.7-9.107-15.133S222.366,1660.76,220.855,1667.688Z" fill="#fff"/><path d="M225.4,1668.676a7.488,7.488,0,1,0,8.993-6.147A7.709,7.709,0,0,0,225.4,1668.676Z" fill="#292322"/><path d="M233.146,1666.862a2.951,2.951,0,1,0,2.385-3.582A3.038,3.038,0,0,0,233.146,1666.862Z" fill="#fff"/><path d="M228.01,1674.306a1.357,1.357,0,1,0,1.093-1.639A1.4,1.4,0,0,0,228.01,1674.306Z" fill="#fff"/><path d="M244.738,1662.924s-11.284-9.669-23.229.279C232.265,1647.273,244.738,1662.924,244.738,1662.924Z" fill="#693522"/><path d="M226.691,1650.359c.865-6.267,12.22-7.293,17.429,2.46C238.309,1648.132,226.691,1650.359,226.691,1650.359Z" fill="#512720"/><path d="M171.259,1658.7c-2.669-5.736-13.826-3.375-15.934,7.479C159.5,1659.985,171.259,1658.7,171.259,1658.7Z" fill="#512720"/><path d="M154.831,1632.269c-10.4,14.952-5.345,19.687.389,17.422,9.128-3.6,12.559-17.882,12.559-17.882s-3.356,17.242,11.316,10.943a22.878,22.878,0,0,0,14.413-20.392s8.485,21.782,24.469,16.774c9.023-2.826-2.119-19.021-2.119-19.021s14.374,19.791,22.356,12.631c12.453-11.171-28.872-28.761-48.965-23.876S154.831,1632.269,154.831,1632.269Z" fill="#512720"/><path d="M252.389,1760.552s10.173,12.534,25.015,14.968a65.626,65.626,0,0,1-3.163,8.029,49.682,49.682,0,0,1-27.836-18.42A10.629,10.629,0,0,0,252.389,1760.552Z" fill="#fbc09c"/><path d="M242.952,1772.739s12.252-6.254,16.477-13.875a53.442,53.442,0,0,0-3.494-4.144s-7.962,8.4-16.825,13.286C241.29,1770.846,242.952,1772.739,242.952,1772.739Z" fill="#fff"/><path d="M247.947,1784.2l1.81-2.724.47.689c3.952-2.027,11.722-2.051,20.1.3s15,6.4,17.326,10.181l.737-.246.125,3.509h0a3.462,3.462,0,0,1-.1.47c-1.272,4.546-11.432,5.665-22.692,2.515s-19.371-9.384-18.1-13.929A3.552,3.552,0,0,1,247.947,1784.2Z" fill="#00416a"/><path d="M288.3,1793.023c-1.157,4.139-10.787,5.054-21.5,2.056s-18.481-8.781-17.324-12.92,10.785-5.042,21.509-2.042S289.458,1788.9,288.3,1793.023Z" fill="#146d9f"/><path d="M264.034,1790.72c9.4,2.631,17.851,1.823,18.863-1.8.327-1.164-.158-2.484-1.272-3.813,3.739,2.343,5.84,4.973,5.244,7.092-1.014,3.625-9.462,4.431-18.867,1.8-6.384-1.787-11.562-4.7-13.92-7.521A38.728,38.728,0,0,0,264.034,1790.72Z" fill="#2c83b7"/><path d="M269.038,1787.125c-1.946-.544-3.344-1.587-2.8-3.526l5.609-16.93a3.648,3.648,0,0,1,7.025,1.968l-5.606,16.928C272.721,1787.507,270.974,1787.667,269.038,1787.125Z" fill="#00416a"/><path d="M274.956,1767.978a71.255,71.255,0,0,1-33.887-21.021,2.187,2.187,0,1,1,3.25-2.928,67.111,67.111,0,1,0,96.156-93.5,2.2,2.2,0,0,1,3.028-3.181,71.493,71.493,0,0,1-68.547,120.632Z" fill="#146d9f"/><path d="M236.738,1753.757a3.652,3.652,0,0,1-1.548-6.131L343.555,1642.21a3.646,3.646,0,1,1,5.084,5.226L240.27,1752.856A3.657,3.657,0,0,1,236.738,1753.757Z" fill="#00416a"/><circle cx="58.253" cy="58.253" r="58.253" transform="matrix(0.14, -0.99, 0.99, 0.14, 227.558, 1749.129)" fill="#0ea4b8"/><path d="M261.4,1650.905a58.257,58.257,0,0,0,89.535,57.72,58.257,58.257,0,0,0-89.535-57.72Z" fill="#74c1c2"/><path d="M342.638,1696.091c-5.6,3.468-15.592-2.523-22.316-13.381s-7.639-22.472-2.038-25.941,15.592,2.522,22.317,13.38S348.239,1692.622,342.638,1696.091Z" fill="#b0dad6"/><path d="M337.356,1669.673c2.953,2.727,6.762,13.286,2.706,12.1C335.021,1680.307,329.428,1662.348,337.356,1669.673Z" fill="#fff"/><path d="M341.127,1684.182c1.12,1.125,1.238,4.922-.153,4.45C339.036,1687.972,339.47,1682.517,341.127,1684.182Z" fill="#fff"/><path d="M328.222,1741.719c-9.761,8.447-21.088,12-33.044,12.516a.383.383,0,0,1,.027-.167c.471-1.2.412-2.535,1.323-3.543,1.1-1.216,1.868-1.021,2.124-2.79.433-3.007,3.61-1.913,5.58-3.124a7.618,7.618,0,0,0,3.266-4.917,20.924,20.924,0,0,1,.93-4.05,2.656,2.656,0,0,1,1.051-1.1c.57-.376,2.63-.743,2.262-1.874-.361-1.115-1.351-1.908-1.767-3.011a10.171,10.171,0,0,1-.2-1.985,3.435,3.435,0,0,0-2.614-2.5,9.236,9.236,0,0,1-3.242-1.5,6.9,6.9,0,0,1-1.9-6.815,11.223,11.223,0,0,1,3.957-6.589,3.735,3.735,0,0,1,2.629-.669c1.084.154.011-1.265.046-1.871a.455.455,0,0,1,.372-.418,16.3,16.3,0,0,1,6,.036c1.461.3,2.716,1.015,4.124.022a2.542,2.542,0,0,1,1.67-.431,5.578,5.578,0,0,1,3.758,2.4,10.518,10.518,0,0,0,2.581,3.025c.94.562,2,.67,2.966,1.157a2.606,2.606,0,0,1,1.611,3.053c-.335,1.126-1.978,1.074-1.66,2.612a7.866,7.866,0,0,0,1.421,3.176c.438.547,1.061,1.292,1.863,1.253a5.839,5.839,0,0,1,1.079-.125,2.111,2.111,0,0,1,1.583,1.031,3.668,3.668,0,0,1,.439,2.121,5.451,5.451,0,0,0,1.555,3.976A55.086,55.086,0,0,1,328.222,1741.719ZM276,1723.942a2.8,2.8,0,0,0,3.368-.082c1.139-.95,1.9-2.208,3.188-3.007,1.247-.775,2.795-.693,4.185-.988a2.943,2.943,0,0,0,2.518-3.126.41.41,0,0,0-.065-.187,2.563,2.563,0,0,1-.124-2.255c.142-.279.256-.519.376-.807a2.166,2.166,0,0,0,.041-1.428c-.535-1.622-2.155-2.516-2.838-4.085a9.671,9.671,0,0,1-.725-5.435c.107-1.882-1.674-3.285-1.572-5.188.067-1.232.845-2.6-.094-3.718-.847-1.008-2.188-1.481-1.789-3.154a5.426,5.426,0,0,0,.194-2.326c-.557-3.309-4.282-2.868-6.712-3.211a2.085,2.085,0,0,1-1.861-2.641c.239-1.158,1.242-1.86,2.063-2.595a2.51,2.51,0,0,0,.636-3.353c-.328-.513,1.335-.61,1.528-.647a1.563,1.563,0,0,0,.929-.487c.678-.905-.139-1.832-.877-2.383-1.256-.942-3.071-.8-4.2-1.956-1.6-1.635,1.243-3.133,2.409-3.439a9.9,9.9,0,0,1,3.454-.241c2.4.226,4.612,2.309,3.854,4.831-.341,1.133-1.34,2.82-.1,3.837,1.126.922,2.125.081,2.991-.769,1.792-1.753,4.577-1.54,6.813-1,3.5.852,6.529,2.9,10.26,2.622,2.136-.158,4.895-1.995,6.98-.885,1.831.976,2.863,3.154,4.365,4.526,2.438,2.226,4.51-2.118,4.358-4.1a4.17,4.17,0,0,0-2.037-3.434c-1.521-.92-4.063.444-4.269-2.069-.08-.959-.373-2.218-1.6-2.244-.822-.019-1.6.231-2.418.259-1.17.037-3.139-1.44-1.082-2.613a2.729,2.729,0,0,0,.805-.706c.665-.776-.253-1.9-.705-2.483-.422-.541-1.067-1.331-.038-1.983a3.722,3.722,0,0,1,1.938-.317,6.132,6.132,0,0,1,4.193,1.431c1.415,1.352,1.692,3.5,3.175,4.849,1.116,1.015,2.782,1,4.19,1.139,2.906.284,3.425,2.632,3.369,5.153-.031,1.329-.274,2.793,1.2,3.375,1.031.406,2.347-.48,3.08-1.1a1.929,1.929,0,0,0,.225-2.894c-1.142-1.438-.2-3.384-.785-5.019a6.922,6.922,0,0,0-3.368-3.69c-1.06-.592-5.654-1.169-4.664-3.044.449-.854,1.712-2.014.354-2.882-1.55-.992-2.71.178-4.329.191q.03-.7.063-1.4a9.585,9.585,0,0,1,1.174-.007,4.826,4.826,0,0,0,1.066-.119,1.7,1.7,0,0,0,1.286-1.1c.311-.914-1.465-1.965-2.046-2.276-1.8-.958-3.882-1.192-4.481-3.434a3.52,3.52,0,0,0-.8-1.555q-.487-.191-.977-.368a1.569,1.569,0,0,0-.172.026,2.11,2.11,0,0,0-1.723,2.2,4.58,4.58,0,0,0,.8,2.094c.021.035.044.069.067.1q-1.071,1.609-1.858.3a5.884,5.884,0,0,1-.924-1.5,16.821,16.821,0,0,1-.98-3.16,14.043,14.043,0,0,0-4.9-2.886,45.173,45.173,0,0,0-26.73,2.83,8.42,8.42,0,0,0-4.512,4.981c-.877,2.323,1.447,4.92-.022,7.249-.644,1.021-1.885.957-2.77,1.586a2.84,2.84,0,0,0-1.169,1.595c-.567,1.717.765,3.437,1.631,4.77a36.922,36.922,0,0,1,2.745,5.83,7.3,7.3,0,0,1,.757,3.263,17.516,17.516,0,0,1-.71,3.184,6.157,6.157,0,0,0,.339,3.992c.536,1.3,1.109,2.691-.456,3.587a5.628,5.628,0,0,1-3.574.225,6.45,6.45,0,0,0-4.3.4c-1.51.85-2.073,2.969-2.441,4.512a14.245,14.245,0,0,0-.2,5.092c.242,1.947,2.362,3.3,1.326,5.193-.518.947-1.737,1.449-2.606,2.021a5.581,5.581,0,0,0-1.694,1.906c-.5.847-.842,1.773-1.382,2.6-.737,1.134-2.584,2.113-3.589,2.974-1.419,1.216-1.455,3.345-2.493,4.829a28.334,28.334,0,0,0-2.855,6.161c-2.047,5.668,1.875,8.411,1.616,7.94-.774-1.414.846-2.821,1.814-3.64a12.291,12.291,0,0,0,2.327-2.465c.554-1.007-.094-2.2,1.349-2.657,1.022-.325,2.313.258,3.275.563,1.211.383,2.419.751,3.66,1.013a10.1,10.1,0,0,0,4.855,0,10.225,10.225,0,0,0,2.381-1.315c1.01-.73,1.927-2.062,3.283-2.078C273.665,1721.232,274.909,1723.18,276,1723.942Zm59.7-25.327a.434.434,0,0,0-.108-.324,1.958,1.958,0,0,0-1.07-.682.508.508,0,0,0-.411.093,1.843,1.843,0,0,0-1.657,1.347.478.478,0,0,0-.033.142.434.434,0,0,0,0,.148,1.9,1.9,0,0,0,2.058,1.766,1.564,1.564,0,0,0,.309-.058c-.078.081-.153.164-.231.245a1.337,1.337,0,0,0-.146,1.92,1.525,1.525,0,0,0,1.606.45.406.406,0,0,0,.322.05,4.751,4.751,0,0,0,3.1-2.44c.519-.848,1.663-2.79,1.2-3.832-.239-.534-.942-1.185-1.56-.71a26.052,26.052,0,0,0-3.249,3.2A2.232,2.232,0,0,0,335.7,1698.615Zm3.441,20.211a4.6,4.6,0,0,0-.967,3.046c.032.484.355,1.208.939,1.222.468.011,1.673-.674,2.274-.779a6.538,6.538,0,0,0-.75,3.056.533.533,0,0,0,.257.425c4-7.588,7.045-16.471,6.77-24.34-.7-2.454-3.183-2.025-4.689-1.087a1.178,1.178,0,0,0-.536,1.111c.191.81.865,1.138.228,1.954-.714.918-.2,1.6.579,2.265.132.113.264.227.4.34q.831.662-1.064.729a15.7,15.7,0,0,1-1.345-1.24,4.951,4.951,0,0,0-2.348-.847c-2.3-.411-4.686-.509-7.008-.756a4.582,4.582,0,0,1-3.565-2.288,5.365,5.365,0,0,0-1.992-1.826c-2.91-1.457-4.975,3.639-3.56,5.7a.394.394,0,0,0,.051.075l.007.01.006.008.011.011a.445.445,0,0,0,.183.131,2.477,2.477,0,0,0,1.731.351,15.365,15.365,0,0,1,4.115-.01,23.829,23.829,0,0,1,2.348.443c1.1.271,1.526,1.17,1.959,2.1.586,1.256,2.335,1.771,2.456,3.2.155,1.823.733,4.573-1.5,5.267a1.244,1.244,0,0,0-.962,1.241c0,1.592,1.851.966,2.924.553-.039.414-.08.83-.12,1.246a.462.462,0,0,0,.839.287,12.493,12.493,0,0,0,2.383-5C339.872,1716.314,340.488,1717.352,339.136,1718.826Z" fill="#00804d"/><path d="M287.037,1708.684a58.672,58.672,0,0,1-19.026-20.47,5.478,5.478,0,0,0,3.479-.239c1.565-.9.992-2.289.456-3.587a6.157,6.157,0,0,1-.339-3.992,17.516,17.516,0,0,0,.71-3.184,7.3,7.3,0,0,0-.757-3.263,36.922,36.922,0,0,0-2.745-5.83c-.866-1.333-2.2-3.053-1.631-4.77a2.84,2.84,0,0,1,1.169-1.595c.885-.629,2.126-.565,2.77-1.586,1.469-2.329-.855-4.926.022-7.249a8.42,8.42,0,0,1,4.512-4.981,45.173,45.173,0,0,1,26.73-2.83,14.043,14.043,0,0,1,4.9,2.886,16.821,16.821,0,0,0,.98,3.16,5.884,5.884,0,0,0,.924,1.5q.789,1.311,1.858-.3c-.023-.034-.046-.068-.067-.1a4.58,4.58,0,0,1-.8-2.094,2.11,2.11,0,0,1,1.723-2.2,1.569,1.569,0,0,1,.172-.026q.49.179.977.368a3.52,3.52,0,0,1,.8,1.555c.6,2.242,2.684,2.476,4.481,3.434.581.311,2.357,1.362,2.046,2.276a1.7,1.7,0,0,1-1.286,1.1,4.826,4.826,0,0,1-1.066.119,9.585,9.585,0,0,0-1.174.007q-.033.7-.063,1.4c1.619-.013,2.779-1.183,4.329-.191,1.358.868.1,2.028-.354,2.882-.99,1.875,3.6,2.452,4.664,3.044a6.922,6.922,0,0,1,3.368,3.69c.582,1.635-.357,3.581.785,5.019a1.929,1.929,0,0,1-.225,2.894c-.733.623-2.049,1.509-3.08,1.1-1.474-.582-1.231-2.046-1.2-3.375.056-2.521-.463-4.869-3.369-5.153-1.408-.138-3.074-.124-4.19-1.139-1.483-1.345-1.76-3.5-3.175-4.849a6.132,6.132,0,0,0-4.193-1.431,3.722,3.722,0,0,0-1.938.317c-1.029.652-.384,1.442.038,1.983.452.583,1.37,1.707.705,2.483a2.729,2.729,0,0,1-.805.706c-2.057,1.173-.088,2.65,1.082,2.613.821-.028,1.6-.278,2.418-.259,1.223.026,1.516,1.285,1.6,2.244.206,2.513,2.748,1.149,4.269,2.069a4.17,4.17,0,0,1,2.037,3.434c.152,1.978-1.92,6.322-4.358,4.1-1.5-1.372-2.534-3.55-4.365-4.526-2.085-1.11-4.844.727-6.98.885-3.731.276-6.76-1.77-10.26-2.622-2.236-.542-5.021-.755-6.813,1-.866.85-1.865,1.691-2.991.769-1.245-1.017-.246-2.7.1-3.837.758-2.522-1.453-4.605-3.854-4.831a9.9,9.9,0,0,0-3.454.241c-1.166.306-4.007,1.8-2.409,3.439,1.127,1.154,2.942,1.014,4.2,1.956.738.551,1.555,1.478.877,2.383a1.563,1.563,0,0,1-.929.487c-.193.037-1.856.134-1.528.647a2.51,2.51,0,0,1-.636,3.353c-.821.735-1.824,1.437-2.063,2.595a2.085,2.085,0,0,0,1.861,2.641c2.43.343,6.155-.1,6.712,3.211a5.426,5.426,0,0,1-.194,2.326c-.4,1.673.942,2.146,1.789,3.154.939,1.122.161,2.486.094,3.718-.1,1.9,1.679,3.306,1.572,5.188a9.671,9.671,0,0,0,.725,5.435A4.53,4.53,0,0,0,287.037,1708.684Zm60.622-7.228c-.7-2.454-3.183-2.025-4.689-1.087a1.178,1.178,0,0,0-.536,1.111c.191.81.865,1.138.228,1.954-.714.918-.2,1.6.579,2.265.132.113.264.227.4.34q.831.662-1.064.729a15.7,15.7,0,0,1-1.345-1.24,4.951,4.951,0,0,0-2.348-.847c-2.3-.411-4.686-.509-7.008-.756a4.582,4.582,0,0,1-3.565-2.288,5.365,5.365,0,0,0-1.992-1.826c-2.91-1.457-4.975,3.639-3.56,5.7a.394.394,0,0,0,.051.075l.007.01.006.008.011.011a.445.445,0,0,0,.183.131,2.477,2.477,0,0,0,1.731.351,15.365,15.365,0,0,1,4.115-.01,23.829,23.829,0,0,1,2.348.443c1.1.271,1.526,1.17,1.959,2.1.586,1.256,2.335,1.771,2.456,3.2.1,1.2.388,2.805-.069,3.958a57.752,57.752,0,0,0,10.99-4.536A36.665,36.665,0,0,0,347.659,1701.456Zm-11.964-2.841a.434.434,0,0,0-.108-.324,1.958,1.958,0,0,0-1.07-.682.508.508,0,0,0-.411.093,1.843,1.843,0,0,0-1.657,1.347.478.478,0,0,0-.033.142.434.434,0,0,0,0,.148,1.9,1.9,0,0,0,2.058,1.766,1.564,1.564,0,0,0,.309-.058c-.078.081-.153.164-.231.245a1.337,1.337,0,0,0-.146,1.92,1.525,1.525,0,0,0,1.606.45.406.406,0,0,0,.322.05,4.751,4.751,0,0,0,3.1-2.44c.519-.848,1.663-2.79,1.2-3.832-.239-.534-.942-1.185-1.56-.71a26.052,26.052,0,0,0-3.249,3.2A2.232,2.232,0,0,0,335.7,1698.615Zm-4.047,18.18a1.152,1.152,0,0,0,.088-.219,2.606,2.606,0,0,0-1.611-3.053c-.965-.487-2.026-.595-2.966-1.157a10.518,10.518,0,0,1-2.581-3.025,5.578,5.578,0,0,0-3.758-2.4,2.542,2.542,0,0,0-1.67.431c-1.408.993-2.663.279-4.124-.022a16.3,16.3,0,0,0-6-.036.455.455,0,0,0-.372.418c-.035.606,1.038,2.025-.046,1.871a3.735,3.735,0,0,0-2.629.669,10.539,10.539,0,0,0-3.655,5.5A58.528,58.528,0,0,0,331.648,1716.8Z" fill="#008c52"/><path d="M318.284,1656.769a6.4,6.4,0,0,1,1.875-.777,1.715,1.715,0,0,1-1.062.67,5.825,5.825,0,0,1-.827.115Zm20.781,39.961c-.142.108-.282.221-.419.337a7.907,7.907,0,0,0,1.655-.1A.9.9,0,0,0,339.065,1696.73Zm-19.509-20.459a4.17,4.17,0,0,0-2.037-3.434,3.781,3.781,0,0,0-1.816-.39,39.331,39.331,0,0,0,2.856,7.149A6.058,6.058,0,0,0,319.556,1676.271Zm10.03-3.64c-1.142-1.438-.2-3.384-.785-5.019a6.922,6.922,0,0,0-3.368-3.69c-1.06-.592-5.654-1.169-4.664-3.044.449-.854,1.712-2.014.354-2.882-1.55-.992-2.71.178-4.329.191l.007-.142a9.323,9.323,0,0,0-1.975,4.6c1.023,1.337,1.4,3.135,2.7,4.313,1.116,1.015,2.782,1,4.19,1.139,2.906.284,3.425,2.632,3.369,5.153-.031,1.329-.274,2.793,1.2,3.375,1.031.406,2.347-.48,3.08-1.1A1.929,1.929,0,0,0,329.586,1672.631Z" fill="#75b470"/><path d="M191.522,1766.606s39.273,3.839,62.175-19.632c3.057.174,6.149-2.358,8.331-6.478,2.45-2.439,3.7-4.515,2.569-5.265-1.168-.773-3.67,2.151-4.394,2.79.058-.147,2.729-4.062,3.258-4.968,1.223-2.1-.624-3.533-2.01-1.922-1.15,1.361-3.6,4.648-3.732,4.815.067-.2,2.235-4.642,2.648-5.447,1.218-2.4-1.272-4.088-2.726-1.374-.984,1.848-2.6,5.154-2.812,5.4-.045-.157.547-2.886.781-4.529.383-2.7-1.872-3.393-2.829-.432-.755,2.342-3.344,8.222-3.344,8.222s-1.076-1.131-1.473-1.668c-2.947,3.146.149,6.236.149,6.236S215.736,1761,192.7,1758.338A22.951,22.951,0,0,1,191.522,1766.606Z" fill="#fbc09c"/><path d="M198.5,1754.3s.351,14.846-4.718,22.769a57.182,57.182,0,0,1-5.73-1.193s3.893-11.872,3.982-22.8C195.852,1753.7,198.5,1754.3,198.5,1754.3Z" fill="#fff"/><path d="M269.007,1771.672c2.105-2.93,9.074-2.576,7.6-.046-.64,1.1-4.668,1.694-4.668,1.694l-3.063,3.008S266.718,1774.858,269.007,1771.672Z" fill="#fbc09c"/><path d="M273.944,1786.614c-1.447-.4-4.623-2.1-4.166-3.479s3.616-1.007,3.616-1.007-3.572-1.805-2.608-3.249c.732-1.1,4.3.229,4.3.229s-3.069-2.691-1.739-3.8c.823-.687,3.111.732,3.111.732s-1.464-3.021-.137-4.073,4.439,2.2,4.714,4.393c.219,1.747-2.014,1.191-2.014,1.191a2.622,2.622,0,0,1,.779,3.249c-.537,1.206-2.334.366-2.334.366s1.693,1.373,1.006,2.518-2.792.136-2.792.136S277.468,1787.575,273.944,1786.614Z" fill="#fbc09c"/></g></svg>