<svg xmlns="http://www.w3.org/2000/svg" width="55.043" height="69.535" viewBox="0 0 55.043 69.535"><path d="M2333.571,2379.136h-1.58V2366.7a11.841,11.841,0,0,0-11.812-11.811H2298.8a11.842,11.842,0,0,0-11.812,11.811v12.437h-1.579a3.447,3.447,0,0,0-3.439,3.439v38.41a3.447,3.447,0,0,0,3.439,3.438h48.166a3.446,3.446,0,0,0,3.438-3.438v-38.41A3.446,3.446,0,0,0,2333.571,2379.136Zm-22.4,22.966v7.414c0,.561-.146.77-.826.77h-3.495c-.5,0-.756-.148-.756-.747v-7.512a5.569,5.569,0,1,1,5.077.075Zm14.131-22.966h-31.627V2366.7a5.145,5.145,0,0,1,5.122-5.122h21.383a5.146,5.146,0,0,1,5.122,5.122Z" transform="translate(-2281.966 -2354.888)" fill="#fff" fill-rule="evenodd"/></svg>