<svg xmlns="http://www.w3.org/2000/svg" xmlns:xlink="http://www.w3.org/1999/xlink" width="1916.54" height="1078.05" viewBox="0 0 1916.54 1078.05"><defs><clipPath id="a"><rect width="1916.54" height="1078.05" fill="none"/></clipPath></defs><g clip-path="url(#a)"><rect width="1916.54" height="1078.05" fill="#cee9f1"/><path d="M118.39,476.02C-.17,358.47,168.88,144.88,333.75,245.41,302.38,76.65,593.97,47.99,662.27,177.01c81.96-209.46,584.21-198.84,646.45,0,179.86-210.21,293.62-41.27,286.13,68.4,119.93-135.01,300.72,140.7,165.83,241.24,209.83,9.14,184.41,245.86,4.55,255,35.05,218.26-259.46,331.37-371.87,194.28-48.57,119.91-321.67,166.45-392.33,13.66-99.44,129.02-342.3,85-365.06-7.59-194.85,191.93-535.41-93.65-505.44-221.6C-56.82,674.7-8.49,468.14,118.39,476.02Z" fill="#fff"/><path d="M1796.75,72.45c70.77,45.88,87.45,146.36,37.32,224.44l-12.8-8.3c45.25-70.55,30.06-160.75-33.66-202.06s-152.26-18.37-198.21,51.72l-12.8-8.3C1627.44,52.33,1725.98,26.56,1796.75,72.45Z" fill="#e74310"/><path d="M1602.2,146.55l-12.8-8.3c45.95-70.09,134.49-93.03,198.21-51.72s78.9,131.51,33.66,202.06l-12.8-8.3h0c40.04-62.51,26.67-142.95-29.99-179.68S1642.94,84.5,1602.2,146.55Z" fill="#f28e00"/><path d="M1778.49,100.61c56.66,36.73,70.02,117.18,29.99,179.68l-12.8-8.3c35.15-54.98,23.35-125.09-26.33-157.3s-118.51-14.38-154.36,40.15l-12.8-8.3C1642.94,84.5,1721.83,63.88,1778.49,100.61Z" fill="#ffe700"/><path d="M1769.36,114.7c49.68,32.21,61.48,102.32,26.33,157.3l-12.8-8.3c29.94-46.94,19.88-107.33-22.66-134.92s-101.79-12.12-132.42,34.37l-12.8-8.3C1650.85,100.32,1719.67,82.49,1769.36,114.7Z" fill="#8abd24"/><path d="M1760.22,128.78c42.55,27.59,52.6,87.98,22.66,134.92l-12.8-8.3c25.06-39.4,16.5-89.53-18.99-112.54s-84.74-10.38-110.49,28.58l-12.8-8.3C1658.43,116.66,1717.67,101.2,1760.22,128.78Z" fill="#79cdf2"/><path d="M1751.09,142.87c35.49,23.01,44.05,73.13,18.99,112.54l-12.79-8.29c20.17-31.87,13.1-71.73-15.33-90.16s-67.7-8.63-88.57,22.79l-12.8-8.3C1666.35,132.49,1715.6,119.86,1751.09,142.87Z" fill="#0068b3"/><path d="M1797.87,227.02c23.94-8.8,44.18,15.82,39.41,31.64a19.619,19.619,0,0,1,12.94,6.9,184.4,184.4,0,0,1-16.16,31.34l-12.8-8.3-12.8-8.3h0l-12.79-8.29-12.8-8.3-12.8-8.3-12.79-8.29a74.117,74.117,0,0,0,10.82-29.05C1776.68,212.14,1792.09,211.28,1797.87,227.02Z" fill="#3a4f4a" opacity="0.1"/><path d="M1576.61,129.96a184.982,184.982,0,0,1,26.83-32.31,22.329,22.329,0,0,1,4.41,6.49c23.05-10.69,45.17,12.09,41.73,28.18,14.14.21,23.24,16.06,21.44,28.76a74.467,74.467,0,0,0-17.63,18.67l-12.8-8.3-12.8-8.3-12.8-8.3-12.79-8.29h0l-12.8-8.3Z" fill="#3a4f4a" opacity="0.1"/><path d="M1772.45,59.87c-1.19,4.23-2.72,9.78-4.47,16.26-31.26-13.21-66.36-13.19-98.73-1.61l-8.01-13.81C1697.44,46.68,1737.06,45.73,1772.45,59.87Z" fill="#ec6833"/><path d="M1767.98,76.12c-1.34,4.98-2.81,10.5-4.34,16.39-27.11-12.26-57.71-13.08-86.24-3.94l-8.14-14.06C1701.62,62.93,1736.72,62.92,1767.98,76.12Z" fill="#f9b61a"/><path d="M1763.63,92.51c-1.36,5.26-2.78,10.82-4.2,16.54-23.05-11.43-49.19-13.17-73.89-6.41l-8.15-14.07C1705.92,79.43,1736.52,80.25,1763.63,92.51Z" fill="#fff187"/><path d="M1759.44,109.05c-1.37,5.5-2.74,11.14-4.06,16.82-18.9-10.53-40.58-13.12-61.42-8.73l-8.41-14.51C1710.24,95.88,1736.39,97.62,1759.44,109.05Z" fill="#bdd149"/><path d="M1751.5,143.14c-.13-.09-.27-.19-.41-.28a72.469,72.469,0,0,0-48.55-10.9l-8.59-14.82c20.84-4.4,42.53-1.81,61.42,8.73C1754.03,131.64,1752.72,137.44,1751.5,143.14Z" fill="#c6e7fb"/><path d="M1741.96,156.95a57.7,57.7,0,0,0-30.3-9.25l-9.12-15.74a72.482,72.482,0,0,1,48.55,10.9c.14.09.27.18.41.28-1.33,6.22-2.57,12.34-3.65,18.19A57.281,57.281,0,0,0,1741.96,156.95Z" fill="#1b8fcf"/><path d="M1576.11,111.44c-.75-10.33,23.05-22.14,32.02-2.79,20.83-9.67,40.81,10.92,37.71,25.46,17.49.26,26.45,27.01,13.29,36.67,14.83,13.57-2.44,47.11-30.56,25.31-19.43,13.19-42.63-2.42-48.94-22.56-19.84.89-30.88-22.91-21.85-30.72C1541.45,128.83,1557.44,103.91,1576.11,111.44Z" fill="#fff"/><path d="M1765.63,231.86c.1-10.35,24.8-20.16,32.14-.14,21.56-7.92,39.78,14.24,35.49,28.47,17.41,1.71,24.13,29.1,10.22,37.65,13.66,14.74-6.31,46.75-32.55,22.7-20.45,11.55-42.29-5.91-46.92-26.51-19.85-.74-28.89-25.37-19.25-32.41C1729.66,246.33,1747.65,222.81,1765.63,231.86Z" fill="#fff"/><path d="M569.94,67.21,565.3,81.5H550.27l12.16,8.84-4.65,14.29,12.16-8.83,12.16,8.83-4.64-14.29,12.16-8.84H574.59Z" fill="#fff"/><path d="M1527.06,63.43l-4.65,14.29h-15.03l12.16,8.84-4.64,14.29,12.16-8.83,12.16,8.83-4.65-14.29,12.16-8.84H1531.7Z" fill="#fff"/><path d="M379.77,76.19l-4.65,14.3H360.09l12.16,8.83-4.64,14.3,12.16-8.84,12.16,8.84-4.65-14.3,12.16-8.83H384.41Z" fill="#fff"/><path d="M1813.19,430.45l-4.64,14.3h-15.03l12.16,8.83-4.65,14.3,12.16-8.84,12.16,8.84-4.64-14.3,12.16-8.83h-15.03Z" fill="#fff"/><path d="M1835.65,866.21l-4.64,14.29h-15.03l12.16,8.84-4.65,14.29,12.16-8.83,12.16,8.83-4.64-14.29,12.16-8.84H1840.3Z" fill="#fff"/><path d="M77.68,447.45l-4.64,14.3H58.01l12.16,8.83-4.65,14.3,12.16-8.84,12.16,8.84-4.64-14.3,12.16-8.83H82.33Z" fill="#fff"/><path d="M89.66,231.82l-4.64,14.3H69.99l12.16,8.83-4.65,14.3,12.16-8.84,12.16,8.84-4.64-14.3,12.16-8.83H94.31Z" fill="#fff"/><path d="M1368.75,53.1l-4.64,14.3h-15.03l12.16,8.83-4.65,14.3,12.16-8.84,12.16,8.84-4.64-14.3,12.16-8.83H1373.4Z" fill="#fff"/><path d="M113.65,885.68,109,899.97H93.97l12.16,8.84-4.64,14.29,12.16-8.83,12.16,8.83-4.65-14.29,12.16-8.84H118.29Z" fill="#fff"/><path d="M773.97,41.12l-4.65,14.29H754.29l12.16,8.84-4.64,14.29,12.16-8.83,12.16,8.83-4.65-14.29,12.16-8.84H778.61Z" fill="#fff"/><path d="M1205.1,37.97l-4.64,14.3h-15.03l12.16,8.83-4.64,14.3,12.15-8.84,12.16,8.84-4.64-14.3,12.16-8.83h-15.03Z" fill="#fff"/><g transform="translate(1 9)"><ellipse cx="70.62" cy="15.92" rx="70.62" ry="15.92" transform="translate(1669.21 1008.59)" fill="#88c2ce"/><path d="M1617.21,1009.38c-37.11-3.84-84.45,7.68-39.67,20.47s134.36,10.24,139.48-6.4S1617.21,1009.38,1617.21,1009.38Z" fill="#88c2ce"/><path d="M1614.19,987.32c-.69-.45,17.16-8.46,27.97-10.7,10.93.86,31.64,5.78,30.89,6.69-7.55,3.6-21.8,10.81-23.69,10.98S1615.16,987.97,1614.19,987.32Z" fill="#ffd300"/><path d="M1614.19,987.32s-.91,34.33.92,36.16,32.72,9.61,34.32,9.5c.23-13.96.11-37.07-.06-38.67C1642.45,991.79,1614.19,987.32,1614.19,987.32Z" fill="#ffdb00"/><path d="M1673.05,983.32c.63.46,1.66,34.56,1.09,35.47s-23.75,14.31-24.72,14.19-.34-37.87-.06-38.67S1673.05,983.32,1673.05,983.32Z" fill="#f7a600"/><path d="M1649.37,994.3c.64-2,.75,37.99.06,38.67S1648.16,998.08,1649.37,994.3Z" fill="#fdf1a6"/><path d="M1614.19,987.32s20.14,1.49,35.18,6.98C1641.76,993.5,1614.19,987.32,1614.19,987.32Z" fill="#fdf1a6"/><path d="M1673.05,983.32c-.86,1.14-21.8,10.53-23.69,10.98C1652.29,991.55,1673.05,983.32,1673.05,983.32Z" fill="#fdf1a6"/><path d="M1638.9,1021.42l-16.76-3.94-.48-5.47a18.655,18.655,0,0,0,4.39-1.71,16.322,16.322,0,0,0,3.93-2.86,4.672,4.672,0,0,0,1.6-3.17,3.414,3.414,0,0,0-.53-1.81,2.14,2.14,0,0,0-1.32-1.06,1.654,1.654,0,0,0-1.71.61,3.666,3.666,0,0,0-.87,2.08l-5.38-2.27a7.72,7.72,0,0,1,1.21-3.96,5.785,5.785,0,0,1,2.92-2.28,7.213,7.213,0,0,1,4.14-.11,9.187,9.187,0,0,1,3.96,2,9.829,9.829,0,0,1,2.62,3.57,11.087,11.087,0,0,1,.91,4.51q-.015,4.755-4.92,8.86l5.68,1.25Z" fill="#0075bf"/><path d="M1614.19,947.5c-.69-.46,17.16-8.47,27.97-10.7,10.93.86,31.64,5.78,30.89,6.69-7.55,3.6-21.8,10.81-23.69,10.98C1647.48,954.66,1615.16,948.16,1614.19,947.5Z" fill="#9ac31c"/><path d="M1614.19,947.5s-.57,36.27,1.26,38.1,32.38,7.66,33.98,7.55c.23-13.96.11-37.07-.06-38.68C1642.45,951.97,1614.19,947.5,1614.19,947.5Z" fill="#3da735"/><path d="M1673.05,943.5c.63.46,1.66,37.76,1.09,38.67s-23.75,11.11-24.72,10.98-.34-37.87-.06-38.68C1649.65,953.68,1673.05,943.5,1673.05,943.5Z" fill="#008a3f"/><path d="M1649.37,954.48c.64-2,.75,37.99.06,38.68S1648.16,958.26,1649.37,954.48Z" fill="#b4cc04"/><path d="M1614.19,947.5s20.14,1.49,35.18,6.98C1641.76,953.68,1614.19,947.5,1614.19,947.5Z" fill="#d0de86"/><path d="M1673.05,943.5c-.86,1.14-21.8,10.52-23.69,10.98C1652.29,951.74,1673.05,943.5,1673.05,943.5Z" fill="#d0de86"/><path d="M1638.18,968.04a12.636,12.636,0,0,1,1.7,3.16,10.173,10.173,0,0,1,.62,3.41,6.285,6.285,0,0,1-1.19,3.88,5.84,5.84,0,0,1-3.29,2.13,9.807,9.807,0,0,1-4.72-.05,10.293,10.293,0,0,1-4.29-2.02,11.672,11.672,0,0,1-2.99-3.93l3.07-3.93a9,9,0,0,0,1.83,2.51,5,5,0,0,0,2.25,1.24,2.37,2.37,0,0,0,2.06-.32,2.188,2.188,0,0,0,.8-1.85,3.478,3.478,0,0,0-.73-2.13,3.054,3.054,0,0,0-1.79-1.22,4.327,4.327,0,0,0-1.4-.11,4.612,4.612,0,0,0-1.4.43l-1.49-4.43,4.31-2.73-6.91-1.51.02-5.38,15.09,3.47.1,5.22-4.01,1.93A8.826,8.826,0,0,1,1638.18,968.04Z" fill="#e14688"/><path d="M1613.08,906.71c-.7-.46,17.32-8.54,28.23-10.8,11.03.87,31.92,5.83,31.17,6.75-7.62,3.64-21.99,10.91-23.9,11.08C1646.68,913.93,1614.07,907.37,1613.08,906.71Z" fill="#ee763b"/><path d="M1613.08,906.71s-.93,34.64.92,36.48,33.03,9.7,34.64,9.58c.23-14.09.11-37.41-.06-39.03C1641.6,911.22,1613.08,906.71,1613.08,906.71Z" fill="#e74310"/><path d="M1672.48,902.67c.64.46,1.68,34.87,1.1,35.79s-23.97,14.44-24.94,14.32-.35-38.22-.06-39.03S1672.48,902.67,1672.48,902.67Z" fill="#d92619"/><path d="M1648.59,913.75c.64-2.01.75,38.34.06,39.03S1647.37,917.56,1648.59,913.75Z" fill="#f7bed1"/><path d="M1613.08,906.71s20.32,1.5,35.5,7.04C1640.91,912.95,1613.08,906.71,1613.08,906.71Z" fill="#f9ccd9"/><path d="M1672.48,902.67c-.86,1.15-21.99,10.62-23.9,11.08C1651.53,910.98,1672.48,902.67,1672.48,902.67Z" fill="#f9ccd9"/><path d="M1630.85,917.55l4.25,1.36-.02,22.79-6.55-1.38.01-16.85-4.22-.89v-6.4Z" fill="#ffdb00"/><path d="M1715.65,1023.33l1.23-3.56.72.63c3.82-3.41,12.48-5.69,22.51-5.51s18.59,2.77,22.28,6.32l.75-.49,1.16,3.88h0a5.064,5.064,0,0,1,.03.55c-.1,5.44-11.1,9.64-24.58,9.4s-24.33-4.84-24.24-10.28A4.83,4.83,0,0,1,1715.65,1023.33Z" fill="#11517d"/><path d="M1763.23,1021.43c-.09,4.95-10.56,8.77-23.38,8.54s-23.17-4.42-23.08-9.38c.09-4.93,10.56-8.76,23.4-8.53C1752.99,1012.3,1763.32,1016.5,1763.23,1021.43Z" fill="#2f7fae"/><path d="M1735.49,1025.92c11.26.2,20.44-3.15,20.52-7.48.03-1.39-.9-2.73-2.53-3.89,4.85,1.53,7.96,3.85,7.91,6.39-.08,4.34-9.27,7.69-20.52,7.49-7.64-.14-14.26-1.89-17.71-4.34A45.013,45.013,0,0,0,1735.49,1025.92Z" fill="#4794c2"/><path d="M1738.56,1021.75c-2.02-.03-3.65-.69-3.61-2.71l.4-6.53a3.656,3.656,0,0,1,7.31.14l-.4,6.53C1742.23,1021.19,1740.57,1021.79,1738.56,1021.75Z" fill="#11517d"/><path d="M1738.8,1011.04a71.458,71.458,0,0,1-38.2-11.83,2.191,2.191,0,0,1,2.41-3.66,67.308,67.308,0,1,0,69.68-115.06,2.2,2.2,0,0,1,2.13-3.86,71.7,71.7,0,0,1-36.02,134.41Z" fill="#2f7fae"/><path d="M1698.11,1006.9a3.661,3.661,0,0,1-3.05-5.56l78.51-129.71a3.656,3.656,0,1,1,6.26,3.78l-78.51,129.71A3.658,3.658,0,0,1,1698.11,1006.9Z" fill="#11517d"/><path d="M1801.97,940.48a61.9,61.9,0,1,1-60.78-63A61.893,61.893,0,0,1,1801.97,940.48Z" fill="#dff2fd"/><path d="M1735.82,904.41c.78,9.25,11.71,16.75,19.15,15.51s11.01,6.83,12.86,9.48c1.85,2.62-12.23,8.54-9.48,13.57s-16.41,16.52-29.79,23.16-9.53,16.41-14.26,15.86c-4.72-.57-9.07-22.44-7.33-25.97s3.41-6.33-1.91-8.8,2.27-12.75.26-14.44-6.27,1.06-4.52-3.64,3.2-6.81-3.39-8.83-3.82-11.68,4.84-18.87,14.06-7.76,19.79-7.22C1725.59,894.54,1735.04,895.15,1735.82,904.41Zm6.95-19.51c-4.24,1.2-8.36,5.51-6.8,10.74s9.68,14.87,20.35,14.35,6.51,4.72,6.25,8.41c-.27,3.67,3.17,8.35,10.47,10.13s-6.45,9.36-5.26,12.7,14.35,9.27,16.64,13.33-7.83,14-7.42,16.89c.43,2.88,2.31,11.28,2.65,10.96a57.913,57.913,0,0,0-36.88-97.51Zm-17.15,104.6c-4.47,3.01,18.26,6.5,22.37,2.3s-2.4-11.65-3.99-15.47,4.86-7.02.1-5.48-9.83,6.7-10.08,12.41C1733.78,988.7,1730.08,986.51,1725.62,989.5Z" fill="#0095b7"/></g><g transform="translate(950 9)"><ellipse cx="70.62" cy="8.59" rx="70.62" ry="8.59" transform="translate(80 1018.47)" fill="#88c2ce"/><ellipse cx="70.62" cy="8.59" rx="70.62" ry="8.59" transform="translate(202.79 1019.97)" fill="#88c2ce"/><path d="M223.59,1001.64l43.65-28.12s55.57,5.55,62.88,11.64c-7.91,5.94-34.86,26.32-34.86,26.32Z" fill="#53bce8"/><path d="M299.02,1005.93c-12.51-1.49-39.32-4.84-65.23-9.03l21.08-13.58c17.04,2.04,38.02,4.64,52.3,6.72-3.64,3.69-3.57,8.36-2.76,11.82C302.46,1003.33,300.62,1004.72,299.02,1005.93Z" fill="#287fb1"/><path d="M295.26,1011.48s29.72-24.73,34.86-26.32c6.03,6.49,3.5,19.7-.77,25.63s-31.01,23.55-35.3,24.75C298.74,1024.87,299.78,1015.6,295.26,1011.48Z" fill="#0695d0"/><path d="M297.89,1016.6c11.69-7.54,27.37-18.29,35.43-24.75a25.927,25.927,0,0,1-.55,11.17c-7.11,6.01-23.61,17.4-36.11,25.5C298.02,1023.93,298.5,1019.83,297.89,1016.6Z" fill="#2da0d7"/><path d="M230.72,1016.06c-5.14,2.53-11.28,8.46-5.97,9.63s69.25,9.1,69.25,9.1l4.16-6.22Z" fill="#49a2d6"/><path d="M227.3,1002.76s6.15,9.74.22,17.15c16.9,3.05,68.88,11.32,68.88,11.32s6.39-10.52-.87-19.07C283.78,1009.84,227.3,1002.76,227.3,1002.76Z" fill="#fdf3d5"/><path d="M290.07,1014.99c-9.15-1.82-45.46-6.51-61.05-8.5a20.378,20.378,0,0,0-1.72-3.73s56.48,7.07,68.23,9.4c7.27,8.56.87,19.07.87,19.07s-1.45-.23-3.93-.63C293.77,1026.8,294.75,1020.5,290.07,1014.99Z" fill="#e6d9b1"/><path d="M294.01,1036.57a2.021,2.021,0,0,0,1.27-.44c5.16-4.16,6.29-11.72,5.69-16.94-.53-4.6-2.27-7.98-4.77-9.26a2.039,2.039,0,0,0-.54-.19c-3.12-.6-63.7-8.56-69.88-9.32a1.9,1.9,0,0,0-2.17,1.52,1.805,1.805,0,0,0,1.65,1.99c5.82.72,63.64,8.31,69.26,9.22,1.01.72,2.2,2.93,2.6,6.4.51,4.46-.49,10.19-3.8,13.37-19.49-2.15-67.67-10.67-68.16-10.76a1.922,1.922,0,0,0-2.26,1.41,1.792,1.792,0,0,0,1.53,2.08c.5.09,50.35,8.9,69.35,10.9A1.783,1.783,0,0,0,294.01,1036.57Z" fill="#287fb1"/><path d="M289.87,1017.37s-31.84-6.28-47.33-7.06C256.63,1013.31,289.87,1017.37,289.87,1017.37Z" fill="#c8ba8d"/><path d="M279.8,1020.15s-31.84-6.28-47.33-7.06C246.56,1016.1,279.8,1020.15,279.8,1020.15Z" fill="#c8ba8d"/><path d="M285.83,1026.44s-31.84-6.27-47.33-7.06C252.59,1022.39,285.83,1026.44,285.83,1026.44Z" fill="#c8ba8d"/><path d="M326.23,1005.13c2.72-2.82,2.23-5.33-1.78-3.1s-13.96,10.98-17.01,13.06-.95,4.59,2.42,2.66S326.23,1005.13,326.23,1005.13Z" fill="#85d0f5"/><path d="M317.68,1004.48c7.47-5.69,17.9-14,20.07-16.19s.93-4.87-4.82-4.47c-4.96.34-23.29,17.2-23.29,17.2Z" fill="#e52d17"/><path d="M335.07,973.31c-1.39,2.06-4.1,6.38-.15,14.14-6.51,5.78-19.83,14.93-19.83,14.93s-4.02-11.24.84-17.75C323.13,979.51,335.07,973.31,335.07,973.31Z" fill="#fdf3d5"/><path d="M320.45,987.57c3.65-2.59,8.51-5.46,12.42-7.66a11.305,11.305,0,0,1,2.2-6.6s-11.94,6.2-19.14,11.32c-4.86,6.51-.84,17.75-.84,17.75s1.29-.89,3.27-2.28C317.79,996.29,317.74,991.2,320.45,987.57Z" fill="#e6d9b1"/><path d="M338.79,972.74c-5.69,4.61-20.13,13.62-20.13,13.62l-87.85-10.93,26.17-13.78s59.84,5.34,79.76,7.31C340.65,969.34,339.6,972.08,338.79,972.74Z" fill="#e52d17"/><path d="M289.17,981.56s-47.16-5.56-54.39-7.36l14.98-8.75,6.99-3.68c2.84.25,6.41.58,10.49.94a16.124,16.124,0,0,0-.44,2.47,20.017,20.017,0,0,0,.98,8.64s41.74-7.33,43.29-7.29c10.34.95,10.71,1.67,16.63,2.25C320.76,970.99,301.24,978.88,289.17,981.56Z" fill="#9e1f16"/><path d="M230.82,975.42c-2.22,2.78-6.07,10.96.63,17.08,40.44,6.85,86.23,11.98,86.23,11.98s-6.22-10.83.99-18.13C288.52,981.98,230.82,975.42,230.82,975.42Z" fill="#b82614"/><path d="M315.36,992.86c-18.41-2.21-57.44-7.05-87.24-11.9a11.6,11.6,0,0,0,.37,7.46c28.49,4.76,67.15,9.64,87.55,12.1A17.365,17.365,0,0,1,315.36,992.86Z" fill="#ce2513"/><path d="M245.87,986.14c-6.76-1.16-6.11,1.79.01,2.96s44.58,6.22,49.24,6.95,3.85-2.08-1.62-3.25S245.87,986.14,245.87,986.14Z" fill="#e94b2e"/><path d="M317.93,997.79s9.88-7.88,15.21-10.65C328.81,990.73,317.93,997.79,317.93,997.79Z" fill="#c8ba8d"/><path d="M317.35,990.81s9.88-7.88,15.21-10.65C328.24,983.75,317.35,990.81,317.35,990.81Z" fill="#c8ba8d"/><path d="M316.23,995.46s8.43-6.72,12.97-9.08C325.51,989.44,316.23,995.46,316.23,995.46Z" fill="#c8ba8d"/><path d="M331.93,939.99l-53.57-10.4s-49.17,14.18-57.07,17.27c13.93,1.59,63.47,8.91,63.47,8.91Z" fill="#fbc100"/><path d="M331.93,939.99c6.46,2.22,7.43,18.6.26,23.52s-49.28,17.59-49.28,17.59,11.11-11.55.96-25.69C305.09,948.24,319.99,943.51,331.93,939.99Z" fill="#f5a011"/><path d="M287.83,964.36c12.87-3.65,38.88-11.22,49.17-15.63a21.025,21.025,0,0,1-.51,7.97c-7.88,3.97-34.66,11.86-49.19,16A17.346,17.346,0,0,0,287.83,964.36Z" fill="#f8af0a"/><path d="M323.07,956.82c6.29-1.5,5.88,1.33.2,2.79s-18.34,5.59-22.69,6.56-3.78-1.73,1.3-3.16S323.07,956.82,323.07,956.82Z" fill="#ffde72"/><path d="M231.78,963.03s-5.13,2.83-7.5,3.81-6.44,3.75-2.55,4.78c5.07,1.34,61.05,7.8,61.05,7.8l4.4-4.47Z" fill="#f5a011"/><path d="M226.1,947.41c1.87,2.69,6.37,12.36.25,20.57,21.57,3.32,58.8,8.35,58.8,8.35s9.69-9.41-.4-20.57C271.05,953.8,226.1,947.41,226.1,947.41Z" fill="#fdf3d5"/><path d="M278.4,958.54c-10-1.44-36.65-5.23-50.31-7.18a19.119,19.119,0,0,0-1.99-3.95s44.95,6.39,58.65,8.36c10.09,11.16.4,20.57.4,20.57l-3.96-.54C283.21,972.1,284.86,965.68,278.4,958.54Z" fill="#e6d9b1"/><path d="M282.9,981.1a1.928,1.928,0,0,0,.96-.32c6.97-4.68,7.86-13.12,6.5-18.92-1.06-4.53-3.35-7.56-6.13-8.09-5.16-1-58.66-7.69-60.94-7.97a1.794,1.794,0,0,0-2.05,1.43,1.706,1.706,0,0,0,1.56,1.89c.56.07,55.65,6.96,60.68,7.93.88.17,2.49,1.99,3.31,5.52,1.09,4.64.51,11.27-4.51,15.09-21.27-3-59.49-8.49-59.88-8.55a1.8,1.8,0,0,0-2.08,1.4,1.7,1.7,0,0,0,1.52,1.92c.4.06,39.56,5.69,60.66,8.66A2.712,2.712,0,0,0,282.9,981.1Z" fill="#d97515"/><path d="M278.89,959.82s-30.24-5.27-44.9-5.69C247.38,956.68,278.89,959.82,278.89,959.82Z" fill="#c8ba8d"/><path d="M285.97,967.89s-13.07-3.69-44.06-5.28C255.3,965.16,285.97,967.89,285.97,967.89Z" fill="#c8ba8d"/><path d="M275.24,971.24s-30.24-5.27-44.9-5.69C243.73,968.1,275.24,971.24,275.24,971.24Z" fill="#c8ba8d"/><path d="M259.68,979.93a6.59,6.59,0,0,0,.35,1.26,74.224,74.224,0,0,1,5.55-7.07s1.26,5.24,2.41,8.63a3.766,3.766,0,0,0,.75,1.14c1.18-7.21,3.69-14.87,4.72-16.3a3.315,3.315,0,0,1-.3-1.37C267.99,966.5,259.68,979.93,259.68,979.93Z" fill="#3a7564"/><path d="M263.94,965.69a34.217,34.217,0,0,0-4.26,14.23,81.525,81.525,0,0,1,5.81-7.04s1.17,6.87,2.51,9.85c1.04-7.47,4.14-15.1,5.17-16.53A20.054,20.054,0,0,0,263.94,965.69Z" fill="#549986"/><path d="M269.75,974.82l-8.08-4.17c-.27.73-.52,1.53-.77,2.39l2.42,2.3c.62-.72,1.33-1.52,2.16-2.45,0,0,.48,2.81,1.17,5.62l1.76,1.68C268.79,978.33,269.25,976.51,269.75,974.82Z" fill="#7fb7a7"/><path d="M262.43,968.73c-.21.48-.43,1.02-.64,1.6l9.17.81c.51-1.42,1.02-2.62,1.43-3.51Z" fill="#7fb7a7"/><path d="M261.9,977.04c-.47-.31-1.18-.77-1.7-1.09-.09.49-.18.99-.25,1.5l1.04.74C261.29,977.8,261.59,977.43,261.9,977.04Z" fill="#7fb7a7"/><path d="M187.07,905.38c-20.64-27.31-65.97-13.01-82.12,18.41-11.5,22.37-5.62,70.26,10.11,95.68,7.13,11.51,17.3,18.73,28.9,11.31,13.19-8.44,6.7-28.96,14.82-31.4,6.64-1.99,9.13,6.6,17.07,20.53s26.72,10.32,32.35-10.97C213.83,987.63,207.71,932.69,187.07,905.38Zm-25.04,69.67c-8.5,26.25-15.4-.7-16.67-6.52C140.7,947.17,170.52,948.81,162.03,975.05Z" fill="#e74310"/><path d="M144.08,898.36c9.01-.74,24.38,10.36,17.01,34.02-10.05,32.28-57.54,39.94-59.57,18.48C99.3,927.43,121.64,900.2,144.08,898.36Z" fill="#ee763b"/><path d="M120.99,923.66a65.918,65.918,0,0,1-3.1-8.43c5.42-5.8,12.9-8.89,21.22-9.67-2.27,2.01-3.85,6.84-4.96,11.06A24.986,24.986,0,0,0,120.99,923.66Zm2.33,9.35c-1.2-1.5-2.64-3.33-4.12-5.28a41.179,41.179,0,0,0-6.64,13.11,26.8,26.8,0,0,1,2.89-.45A30.3,30.3,0,0,1,123.32,933.01Zm-1.66-7.87a61.028,61.028,0,0,0,3.72,6.79,12.842,12.842,0,0,1,6.2-1.28c.01,0,.01,0,.02-.01.19-.28.27-.42.27-.42a91.708,91.708,0,0,1,1.62-10.86A23.877,23.877,0,0,0,121.66,925.14Zm-7.7-5.01c-5.06,7.35-7.31,15.74-9.03,23.39a21.186,21.186,0,0,1,6.4-2.39,50.106,50.106,0,0,1,7.07-14.48C116.79,924.47,115.21,922.19,113.96,920.13Z" fill="#fffeff"/><path d="M183.57,915.7c-1.98,1.21-1.78,5.12.44,8.73s5.62,5.55,7.6,4.33,1.77-5.12-.44-8.73C188.94,916.42,185.54,914.49,183.57,915.7Z" fill="#faf8f0"/><path d="M191.99,930.79c-.86.39-.99,1.98-.29,3.54.71,1.58,1.97,2.54,2.83,2.16s.99-1.97.3-3.55C194.11,931.37,192.85,930.4,191.99,930.79Z" fill="#faf8f0"/></g><path d="M54.67,154.53l13.92,11.89-17.86,5.64Z" fill="#736ca8"/><path d="M1087.45,1028.32l13.91,11.9-17.86,5.63Z" fill="#736ca8"/><path d="M882.19,1026.52l13.92,11.89-17.86,5.64Z" fill="#9cd0e8"/><path d="M1358.93,988.8l13.92,11.89-17.86,5.64Z" fill="#9cd0e8"/><path d="M1714.66,197.8l8.59,11.43-10.75,8.89-9.51-11.68Z" fill="#e84710"/><path d="M1275.22,1025.92l8.59,11.43-10.75,8.89-9.51-11.68Z" fill="#e84710"/><rect width="6.46" height="40.4" transform="matrix(0.707, -0.707, 0.707, 0.707, 1849.008, 528.382)" fill="#eb5b9c"/><rect width="40.4" height="6.46" transform="translate(1856.653 341.727) rotate(-51.859)" fill="#ffd100"/><rect width="40.4" height="6.46" transform="translate(463.415 25.504) rotate(-4.491)" fill="#ffd100"/><rect width="40.4" height="6.46" transform="translate(1132.672 40.656) rotate(-4.497)" fill="#ffd100"/><rect width="6.46" height="40.4" transform="translate(593.549 36.506) rotate(-44.988)" fill="#eb5b9c"/><rect width="6.46" height="40.4" transform="translate(960.417 41.61) rotate(-88.705)" fill="#eb5b9c"/><rect width="40.4" height="6.46" transform="matrix(0.587, -0.81, 0.81, 0.587, 1812.464, 871.729)" fill="#e84710"/><path d="M54.38,1006.78l8.59,11.43-10.75,8.89-9.51-11.68Z" fill="#8cd3f6"/><path d="M1338.11,30.28l8.59,11.43-10.75,8.9-9.5-11.69Z" fill="#8cd3f6"/><path d="M293.77,1015.38l8.6,11.43-10.75,8.89-9.5-11.68Z" fill="#736ca8"/><path d="M59.65,680.46l8.6,11.44-10.76,8.89-9.5-11.68Z" fill="#7e66aa"/><path d="M93.77,44.85l8.59,11.43L91.61,65.17,82.1,53.49Z" fill="#7e66aa"/><path d="M1865.94,705.15a8.08,8.08,0,1,0,8.08-8.08A8.077,8.077,0,0,0,1865.94,705.15Z" fill="#f7c3dc"/><path d="M602.69,118.16a8.08,8.08,0,1,0,8.08-8.08A8.083,8.083,0,0,0,602.69,118.16Z" fill="#f7c3dc"/><path d="M318.37,31.96a8.08,8.08,0,1,0,8.08-8.08A8.083,8.083,0,0,0,318.37,31.96Z" fill="#f7c3dc"/><path d="M32.16,811.47a8.08,8.08,0,1,0,8.08-8.08A8.083,8.083,0,0,0,32.16,811.47Z" fill="#f7c3dc"/><path d="M733.87,1021.11a8.08,8.08,0,1,0,8.08-8.08A8.083,8.083,0,0,0,733.87,1021.11Z" fill="#ffd100"/><path d="M45.8,909.34a8.08,8.08,0,1,0,8.08-8.08A8.083,8.083,0,0,0,45.8,909.34Z" fill="#ffd100"/><path d="M1845.57,1018.12a8.08,8.08,0,1,0,8.08-8.08A8.083,8.083,0,0,0,1845.57,1018.12Z" fill="#f7c3dc"/><path d="M1860.54,946.24a8.08,8.08,0,1,0,8.08-8.09A8.083,8.083,0,0,0,1860.54,946.24Z" fill="#f7c3dc"/><path d="M1809.63,50.18a8.08,8.08,0,1,0,8.08-8.08A8.083,8.083,0,0,0,1809.63,50.18Z" fill="#ffd100"/><path d="M45.64,419.14a8.08,8.08,0,1,0,8.08-8.08A8.083,8.083,0,0,0,45.64,419.14Z" fill="#ffd100"/><path d="M1860.54,124.15a8.08,8.08,0,1,0,8.08-8.08A8.083,8.083,0,0,0,1860.54,124.15Z" fill="#f7c3dc"/><path d="M1574.53,61.25a8.08,8.08,0,1,0,8.08-8.08A8.083,8.083,0,0,0,1574.53,61.25Z" fill="#f7c3dc"/><path d="M1574.53,215.49a8.08,8.08,0,1,0,8.08-8.08A8.083,8.083,0,0,0,1574.53,215.49Z" fill="#7e66aa"/><path d="M1734.48,978.98a8.08,8.08,0,1,0,8.08-8.08A8.092,8.092,0,0,0,1734.48,978.98Z" fill="#7e66aa"/><path d="M975.55,998.65a8.08,8.08,0,1,0,8.08-8.08A8.092,8.092,0,0,0,975.55,998.65Z" fill="#7e66aa"/><path d="M35.75,549.42a8.08,8.08,0,1,0,8.08-8.08A8.083,8.083,0,0,0,35.75,549.42Z" fill="#e84929"/><path d="M831.79,52.86a8.085,8.085,0,1,0,8.09-8.08A8.085,8.085,0,0,0,831.79,52.86Z" fill="#5a498a"/><rect width="6.46" height="40.4" transform="translate(636.546 1001.747) rotate(-50.401)" fill="#00ad8c"/><rect width="40.4" height="6.46" transform="translate(373.975 150.447) rotate(-52.275)" fill="#00ad8c"/><rect width="40.4" height="6.46" transform="translate(36.755 308.848) rotate(-52.28)" fill="#00ad8c"/><path d="M1447.42,41.26l8.6,11.44-10.76,8.88-9.5-11.68Z" fill="#e84710"/><g transform="translate(1477.739 -106)"><g transform="translate(103.501 402.594)"><path d="M126.512,442.278a17.572,17.572,0,0,1-2.948,5.584,1.5,1.5,0,1,1-2.314-1.9c2.853-3.505,4.21-9.985,3.218-15.438-.539-2.9-1.974-6.836-5.8-9.028a1.5,1.5,0,0,1,1.487-2.609c3.809,2.2,6.323,6.036,7.254,11.1A25.489,25.489,0,0,1,126.512,442.278Z" transform="translate(-117.913 -418.695)" fill="#f4a9c1"/><path d="M124.289,450.976c1.313.9,3.018,5.071,1.452,5.94-2.435,1.339-6.367-3.8-6.045-5.288a3.994,3.994,0,0,1,2.314-2.548A3.826,3.826,0,0,0,124.289,450.976Z" transform="translate(-118.143 -422.653)" fill="#00adb2"/></g><g transform="translate(77.903 414.458)"><g transform="translate(1.505)"><path d="M97.02,457.04a17.735,17.735,0,0,1-4.479,4.436,1.5,1.5,0,0,1-1.653-2.5c3.783-2.479,7.019-8.254,7.689-13.751.365-2.94.165-7.114-2.818-10.367a1.5,1.5,0,1,1,2.209-2.035c2.975,3.244,4.218,7.654,3.592,12.759A25.462,25.462,0,0,1,97.02,457.04Z" transform="translate(-90.211 -432.336)" fill="#f4a9c1"/></g><path d="M93.2,464.616c.983,1.261,1.357,5.749-.4,6.106-2.714.557-4.923-5.54-4.175-6.862a4.006,4.006,0,0,1,2.966-1.739A3.88,3.88,0,0,0,93.2,464.616Z" transform="translate(-88.481 -436.216)" fill="#00adb2"/></g><g transform="translate(95.52 295.086)"><g transform="translate(0 7.38)"><path d="M116.376,326.3a17.7,17.7,0,0,1-5.906,2.209,1.5,1.5,0,0,1-.47-2.966c4.462-.713,9.785-4.653,12.655-9.385,1.531-2.531,3.079-6.419,1.679-10.6a1.52,1.52,0,0,1,.957-1.9,1.5,1.5,0,0,1,1.9.957c1.383,4.175.7,8.706-1.966,13.107A25.387,25.387,0,0,1,116.376,326.3Z" transform="translate(-108.735 -303.572)" fill="#f4a9c1"/></g><g transform="translate(11.086)"><path d="M126.255,304.735c-1.809-.183-5.227-1.522-4.723-2.931.365-1.009,2.253-.27,2.253-.27s-3.322-3.8-1.7-4.818c1.183-.757,2.774,2.279,2.774,2.279s-1.174-3.444.244-3.87c1.531-.452,2.131,3.262,2.131,3.262s.1-2.87,1.374-2.227c1.513.757,1.331,6.306-.017,7.845A4.976,4.976,0,0,1,126.255,304.735Z" transform="translate(-121.482 -295.086)" fill="#efe0b7"/></g></g><g transform="translate(7.275 343.178)"><g transform="translate(4.913 7.433)"><path d="M36.056,368.792a17.765,17.765,0,0,0,5.74-2.618,1.5,1.5,0,0,0-1.757-2.427c-3.67,2.653-10.219,3.635-15.586,2.314-2.87-.7-6.714-2.366-8.689-6.306a1.5,1.5,0,1,0-2.679,1.339c1.974,3.931,5.653,6.654,10.663,7.88A25.489,25.489,0,0,0,36.056,368.792Z" transform="translate(-12.924 -358.927)" fill="#f4a9c1"/></g><path d="M15.046,359.025c1.157-1.409,2.635-4.775,1.27-5.41-.974-.461-1.783,1.409-1.783,1.409s-.331-5.044-2.209-4.618c-1.374.313-.348,3.583-.348,3.583s-1.618-3.27-2.914-2.566c-1.4.757.8,3.818.8,3.818s-2.087-1.966-2.54-.609c-.531,1.609,3.522,5.41,5.558,5.54A5.031,5.031,0,0,0,15.046,359.025Z" transform="translate(-7.275 -350.381)" fill="#efe0b7"/></g><g transform="translate(27.42 297.002)"><path d="M42.986,351.049a60.459,60.459,0,0,1-7.662-2.792c-.844-7.158,1.409-14.159,5.749-20.387.07,2.748,2.479,6.688,4.757,9.932A22.718,22.718,0,0,0,42.986,351.049Zm7.854,3.87c-1.739-.052-3.853-.122-6.08-.244a37.29,37.29,0,0,0,5.2,12.289c.409-.757.887-1.522,1.383-2.261A27.322,27.322,0,0,1,50.84,354.919Zm-6.427-3.479a55.749,55.749,0,0,0,6.88,1.409,11.776,11.776,0,0,1,2.757-5.053v-.017c-.078-.3-.13-.435-.13-.435a83.227,83.227,0,0,1-6.584-7.5A21.65,21.65,0,0,0,44.413,351.44Zm-8,2.409c2.131,7.81,6.619,14.3,10.924,19.987a19.374,19.374,0,0,1,2.1-5.836,45.525,45.525,0,0,1-5.879-13.4C41.09,354.423,38.577,354.188,36.411,353.849Z" transform="translate(-31.051 -301.272)" fill="#fffeff"/><path d="M101.437,345.682c8.358-12.6,4.636-46.218-22.544-48.288S30.814,324.2,30.44,342.282c-.261,12.385,22.457,80.608,55.516,83.556,31.032,2.766,58.386-27.371,55.994-50.776C139.862,354.589,119.675,337.124,101.437,345.682Zm-34.016-9.741c-1.531-7.323,12.089-7.393,7.462,1.9S67.839,337.933,67.421,335.941Zm24.857,48.166c-10.672-14.368,5.358-10.854,8.741-9.941C113.465,377.524,102.941,398.476,92.278,384.108Z" transform="translate(-30.437 -297.289)" fill="#00adb2"/><g transform="translate(48.115 4.971)"><path d="M86.021,304.427c-1,1.853.948,4.836,4.34,6.645,3.392,1.826,6.949,1.792,7.932-.07,1-1.87-.948-4.844-4.331-6.654C90.578,302.522,87.021,302.566,86.021,304.427Z" transform="translate(-85.758 -303.005)" fill="#e2f3fe"/><path d="M101.565,313.757c-.487.7.13,2.009,1.392,2.922,1.279.913,2.7,1.087,3.209.391s-.113-2-1.392-2.914S102.07,313.061,101.565,313.757Z" transform="translate(-87.796 -304.35)" fill="#e2f3fe"/></g><g transform="translate(81.147 50.273)"><path d="M124,356.508c-1,1.861.939,4.844,4.34,6.645,3.392,1.818,6.949,1.792,7.941-.078s-.948-4.836-4.331-6.654C128.549,354.612,124.992,354.655,124,356.508Z" transform="translate(-123.738 -355.091)" fill="#e2f3fe"/><path d="M139.544,365.846c-.5.7.122,2,1.392,2.914s2.7,1.087,3.209.4c.5-.7-.122-2-1.392-2.914S140.049,365.142,139.544,365.846Z" transform="translate(-125.774 -356.436)" fill="#e2f3fe"/></g><path d="M54.252,368.435c-4,4.61-12.672,4.575-18.352-11.167C27.1,332.8,48.608,305.9,59.723,315.3,71.865,325.565,64.228,356.946,54.252,368.435Z" transform="translate(-30.88 -299.385)" fill="#52becb"/><path d="M42.962,346.292a47.456,47.456,0,0,1-5.792-3.166c.209-5.827,2.853-11.15,7.088-15.586-.278,2.2,1.165,5.645,2.592,8.515A18.344,18.344,0,0,0,42.962,346.292Zm5.8,4.053c-1.383-.252-3.061-.565-4.827-.939a30.316,30.316,0,0,0,2.644,10.463,20.2,20.2,0,0,1,1.392-1.644A21.923,21.923,0,0,1,48.764,350.345Zm-4.714-3.557a44.5,44.5,0,0,0,5.332,1.966,9.452,9.452,0,0,1,2.818-3.705c0-.009.009-.009.009-.017l-.052-.365a66.236,66.236,0,0,1-4.34-6.8A17.625,17.625,0,0,0,44.05,346.787Zm-6.688.939c.748,6.506,3.549,12.229,6.288,17.308a15.336,15.336,0,0,1,2.383-4.41,37.09,37.09,0,0,1-3.07-11.428C41.023,348.762,39.057,348.257,37.361,347.727Z" transform="translate(-31.314 -301.229)" fill="#fffeff"/><path d="M71.26,422.908c17.377,9.611,61-3.592,73.241-38.808-1.974,24.483-15.777,39.782-32.694,45.975C89.177,438.355,71.26,422.908,71.26,422.908Z" transform="translate(-35.755 -308.597)" fill="#03989c"/></g><g transform="translate(45.713 313.701)"><g transform="translate(18.447 21.397)"><path d="M89.475,341.09A64.8,64.8,0,0,1,72.68,354.275c.487,1.078,8.08,10.654,16.725,3.966C98.1,351.5,89.475,341.09,89.475,341.09Z" transform="translate(-72.68 -341.09)" fill="#60263a"/><path d="M87.98,356.672c1.931-3.427,5.027-3.949,6.567-2.931a9.317,9.317,0,0,1-3.783,6.1,9.861,9.861,0,0,1-7.584,2.261C82.657,360.846,84.866,357.367,87.98,356.672Z" transform="translate(-74.038 -342.677)" fill="#e54d43"/><path d="M90.761,355.912c.357-.739,1.618-1.574,2.122-1.348.6.27-.357,1.366-1.1,1.74S90.526,356.4,90.761,355.912Z" transform="translate(-75.028 -342.84)" fill="#ed6d63"/></g><path d="M85.384,338.636c.3.435,2.261-.426,4.357-1.913,2.113-1.487,3.566-3.044,3.27-3.479s-2.261.435-4.366,1.913S85.08,338.2,85.384,338.636Z" transform="translate(-55.882 -318.657)" fill="#0090bb"/><g transform="translate(23.592 5.352)"><path d="M79.747,332.616a6.328,6.328,0,1,0,1.531-8.819A6.326,6.326,0,0,0,79.747,332.616Z" transform="translate(-78.596 -322.642)" fill="#fff"/><path d="M82,331.75a3.6,3.6,0,1,0,.861-5.018A3.6,3.6,0,0,0,82,331.75Z" transform="translate(-78.953 -323.089)" fill="#1b1b1a"/><path d="M84.88,327.909a1.442,1.442,0,1,0,.348-2.009A1.439,1.439,0,0,0,84.88,327.909Z" transform="translate(-79.38 -323.032)" fill="#fff"/><path d="M84.28,333.49a.721.721,0,0,0,1.183-.826.721.721,0,0,0-1.183.826Z" transform="translate(-79.319 -323.908)" fill="#fff"/></g><path d="M64.164,353.847c.3.426,2.261-.435,4.366-1.913s3.575-3.044,3.27-3.47-2.261.435-4.366,1.913S63.869,353.413,64.164,353.847Z" transform="translate(-53.119 -320.64)" fill="#0090bb"/><g transform="translate(5.141 18.574)"><path d="M58.537,347.817a6.328,6.328,0,1,0,1.522-8.81A6.31,6.31,0,0,0,58.537,347.817Z" transform="translate(-57.381 -337.845)" fill="#fff"/><path d="M60.791,346.959a3.608,3.608,0,1,0,.87-5.018A3.608,3.608,0,0,0,60.791,346.959Z" transform="translate(-57.739 -338.291)" fill="#1b1b1a"/><path d="M63.661,343.121a1.439,1.439,0,1,0,.348-2A1.439,1.439,0,0,0,63.661,343.121Z" transform="translate(-58.165 -338.237)" fill="#fff"/><path d="M63.061,348.71a.72.72,0,0,0,1.174-.835.722.722,0,0,0-1-.174A.732.732,0,0,0,63.061,348.71Z" transform="translate(-58.104 -339.112)" fill="#fff"/></g><path d="M86.336,317.786a.009.009,0,0,1-.009.009.624.624,0,0,1-.8.357,6.35,6.35,0,0,0-7.375,2.174.623.623,0,0,1-.87.13.606.606,0,0,1-.13-.861,7.608,7.608,0,0,1,8.828-2.609A.639.639,0,0,1,86.336,317.786Z" transform="translate(-54.799 -316.489)" fill="#60263a"/><path d="M52.061,343.063c.009,0,.017-.009.017,0a.616.616,0,0,0,.635-.609,6.352,6.352,0,0,1,4.784-6.027.623.623,0,0,0,.452-.757.634.634,0,0,0-.757-.452,7.6,7.6,0,0,0-5.723,7.2A.633.633,0,0,0,52.061,343.063Z" transform="translate(-51.47 -318.926)" fill="#60263a"/><g transform="translate(6.021 33.534)"><path d="M58.973,362.138c1.444,2.3,4.618,2.653,7.776,1.07,3.044-1.531,4.792-5.462,3.018-7.349-1.679-1.8-2.888-.148-7.019.531C58.756,357.05,57.538,359.833,58.973,362.138Z" transform="translate(-58.393 -355.045)" fill="#f4a9c1"/><g transform="translate(3.628 3.03)"><path d="M65.847,358.826a.712.712,0,0,1-.174.992.7.7,0,0,1-.983-.174.718.718,0,0,1,.165-.992A.726.726,0,0,1,65.847,358.826Z" transform="translate(-62.824 -358.528)" fill="#f8c1bd"/><path d="M63.848,361.556a.711.711,0,1,1-.983-.165A.712.712,0,0,1,63.848,361.556Z" transform="translate(-62.564 -358.884)" fill="#f8c1bd"/><path d="M66.458,361.705a.707.707,0,0,1-.165.983.708.708,0,0,1-.818-1.157A.71.71,0,0,1,66.458,361.705Z" transform="translate(-62.905 -358.903)" fill="#f8c1bd"/></g></g><g transform="translate(35.959 11.823)"><path d="M103.117,331.629c1.531,2.235.6,5.3-2.1,7.567-2.618,2.192-6.914,2.227-7.941-.148-.983-2.261,1.009-2.714,3.27-6.227C98.542,329.411,101.578,329.393,103.117,331.629Z" transform="translate(-92.814 -330.083)" fill="#f4a9c1"/><g transform="translate(4.157 4.001)"><g transform="translate(0 0.666)"><path d="M97.695,336.52a.706.706,0,1,0,.235-.965A.708.708,0,0,0,97.695,336.52Z" transform="translate(-97.593 -335.449)" fill="#f8c1bd"/></g><g transform="translate(2.871)"><path d="M100.995,335.759a.719.719,0,0,0,.974.235.706.706,0,1,0-.974-.235Z" transform="translate(-100.894 -334.683)" fill="#f8c1bd"/></g><g transform="translate(2.086 2.14)"><path d="M100.095,338.219a.705.705,0,0,0,.974.235.715.715,0,0,0,.235-.974.709.709,0,0,0-1.209.739Z" transform="translate(-99.991 -337.143)" fill="#f8c1bd"/></g></g></g></g></g><path d="M1725.11,466.02l14.84,7.45,91.29-54.36-11.37-19.1Z" fill="#fab600"/><path d="M1727.36,464.68l14.84,7.45-2.25,1.34-14.84-7.45Z" fill="#e39900"/><path d="M1705.1,414.95l-.52,16.59,100.93-55.65-9.11-15.3Z" fill="#fab200"/><path d="M1704.58,431.54l.52-16.59,2.35-1.4-.53,16.59Z" fill="#c57e15"/><path d="M1704.58,431.54l20.53,34.48,97.8-58.23-20.24-34.67Z" fill="#ffce00"/><path d="M1704.58,431.54l20.53,34.48,97.8-58.23-20.24-34.67Z" fill="#ffda00"/><path d="M1709.76,434.59l-.36-.41.2-.12Z" fill="#9d845a"/><rect width="2.62" height="40.14" transform="translate(1704.564 431.619) rotate(-30.771)" fill="#fab800"/><path d="M1725.11,466.02l55.9-32.83,41.9-25.4s-22.89,12.26-42.73,24.27C1770.51,437.91,1725.11,466.02,1725.11,466.02Z" fill="#fff0aa"/><path d="M1704.72,431.78s45.41-26.37,55.88-32.6c10.55-6.28,41.92-25.63,41.92-25.63s-22.8,12.41-42.64,24.42C1750.21,403.82,1704.72,431.78,1704.72,431.78Z" fill="#fff0aa"/><path d="M1831.24,419.11c-2.55,1.52-12.23-.14-12.37-8.92-8.84-2-21.93-23.54-20.37-34.58-8.52-5.4-3.71-14.19-1.81-15.2,17.34,2.3,37.32,7.37,46.28,8.6,1.97.27,4.43,2.2,3.6,4.34C1842.44,384.01,1834.44,414.31,1831.24,419.11Z" fill="#ffde98"/><path d="M1797.13,360.47c-2.06,2.58-4.53,9.69,2.76,14.31-1.56,11.05,11.53,32.59,20.37,34.58.12,7.81,7.69,9.81,11.27,9.27-.1.18-.2.34-.29.48-2.55,1.52-12.23-.14-12.37-8.92-8.84-2-21.93-23.54-20.37-34.58-8.52-5.4-3.71-14.19-1.81-15.2Z" fill="#e28537"/><path d="M1827.69,366.1c6.28,1.31,11.67,2.43,15.27,2.92,1.97.27,4.43,2.2,3.6,4.34-1.44,3.72-3.35,9.83-5.37,16.42a55.614,55.614,0,0,1-7.27-9.53A47.822,47.822,0,0,1,1827.69,366.1Z" fill="#5f5d64"/><path d="M1844.44,372.51c2.13.35-3.65,13.11-5.52,12.46S1844.02,372.44,1844.44,372.51Z" fill="#b9bfcf"/><path d="M1838.97,391.79c1.85-.04-5.52,22.78-9.99,22.05C1827.32,413.58,1834.74,391.87,1838.97,391.79Z" fill="#fff3d7"/><path d="M1833.98,385.19c1.99-.71-10.66,23.71-12.58,23.13C1820.26,407.98,1832.26,385.81,1833.98,385.19Z" fill="#f9b655"/><path d="M1825.83,371.36c2.04-.61-24.3-2.01-25.34-.91C1799.79,371.19,1819.59,373.23,1825.83,371.36Z" fill="#f9b655"/><path d="M1830.2,379.52c1.99-.71-16.74,12.54-18.67,11.95C1810.4,391.13,1828.48,380.13,1830.2,379.52Z" fill="#e28537"/><g transform="translate(825 -1)"><path d="M579.56,1007.35c-50.87-5.85-115.77,11.7-54.38,31.2s184.18,15.6,191.2-9.75S579.56,1007.35,579.56,1007.35Z" fill="#88c2ce"/><path d="M617.26,981.72c5.14-2.55,32.14-13.43,39.92-16.31,9.74,1.27,39.97,7.51,44.69,8.64-10.75,5.44-31.03,16.28-33.74,16.58S618.69,982.62,617.26,981.72Z" fill="#f4a7c2"/><path d="M617.26,981.72c.51.32,6.72,1.57,14.64,3.04,5.78-2.91,19.63-11.96,28.49-17.22-.91-.22-2.9-.66-5.57-1.23C644.97,970.08,621.96,979.39,617.26,981.72Z" fill="#e65e8d"/><path d="M617.26,981.72s1.56,49.64,1.93,52.02c5.07,1.65,47.97,12.77,50.27,12.56-.12-20.1-1.04-53.37-1.34-55.67C658.08,987.23,617.26,981.72,617.26,981.72Z" fill="#e65e8d"/><path d="M701.87,974.04c.72,12.38,1.56,50.46,1.34,51.03-.56,1.45-32.36,21.37-33.75,21.22s-1.72-54.51-1.34-55.67C668.52,989.46,701.87,974.04,701.87,974.04Z" fill="#da3371"/><path d="M668.13,990.62c.86-2.9,2.3,54.66,1.34,55.67C668.49,1047.31,666.52,996.1,668.13,990.62Z" fill="#f4a7c2"/><path d="M617.26,981.72s29.03,1.49,50.87,8.91C657.15,989.72,617.26,981.72,617.26,981.72Z" fill="#f9ccd9"/><path d="M701.87,974.04c-1.19,1.68-31.04,15.86-33.74,16.58C672.24,986.58,701.87,974.04,701.87,974.04Z" fill="#f9ccd9"/><path d="M650.61,1014.12a9.952,9.952,0,0,1,4.01,2.68,14.9,14.9,0,0,1,2.89,4.64,15.469,15.469,0,0,1,1.13,5.61q.09,6.015-4.98,7.19T638,1031.81l-7.62-2.61L630,990.86a11.744,11.744,0,0,1,5.52.29,64.751,64.751,0,0,1,7.09,1.98,21.947,21.947,0,0,1,10.68,8.32,10.179,10.179,0,0,1,1.86,5.41,8.275,8.275,0,0,1-1.5,5.27,4.088,4.088,0,0,1-4.09,1.7A9.1,9.1,0,0,1,650.61,1014.12Zm-5.84-11.44a6.351,6.351,0,0,0-2.8-1.85,4.476,4.476,0,0,0-2.34-.22l.08,6.01a5.745,5.745,0,0,0,1.47.71,4.738,4.738,0,0,0,3.29.08,2.006,2.006,0,0,0,1.42-2.04A4.18,4.18,0,0,0,644.77,1002.68Zm1.43,22a2.747,2.747,0,0,0,1.68-2.78,4.713,4.713,0,0,0-1.34-3.09,7.593,7.593,0,0,0-3.23-2.1,6.176,6.176,0,0,0-3.45-.29l.11,7.08a7.466,7.466,0,0,0,2.07,1.13A5.437,5.437,0,0,0,646.2,1024.68Z" fill="#fdecf5"/><path d="M601.02,979.87c1-.63-24.43-12.74-39.93-16.29-16.04,2.27-44.69,8.63-44.69,8.63,10.75,5.43,31.03,16.27,33.74,16.58S599.6,980.79,601.02,979.87Z" fill="#70c9e9"/><path d="M583.96,983.37c9.05-1.66,16.51-3.14,17.07-3.5.59-.37-7.82-4.64-17.99-8.84-11.61,2.58-21.79,5.2-21.79,5.2C566.31,978.8,575.45,981.35,583.96,983.37Z" fill="#01a5cc"/><path d="M601.02,979.87s-1.56,51.06-2.48,52.02c-3.51,1.25-47.42,12.79-49.72,12.57.12-20.11,1.04-53.38,1.33-55.68C560.2,985.38,601.02,979.87,601.02,979.87Z" fill="#01a5cc"/><path d="M516.41,972.21c-.97,9.35-2.38,46.22-2.72,51.03.8,1.33,33.73,21.37,35.12,21.22s1.72-54.51,1.33-55.68S516.41,972.21,516.41,972.21Z" fill="#006b92"/><path d="M550.15,988.78c-.85-2.9-2.3,54.66-1.33,55.68S551.76,994.26,550.15,988.78Z" fill="#c3e5f4"/><path d="M601.02,979.87s-29.03,1.5-50.87,8.92C561.13,987.88,601.02,979.87,601.02,979.87Z" fill="#c3e5f4"/><path d="M516.41,972.21c1.19,1.67,31.04,15.85,33.74,16.58C546.04,984.74,516.41,972.21,516.41,972.21Z" fill="#c3e5f4"/><path d="M565.85,1034.14l-10.14-.87,12.61-40.6,10.19-1.85,16.11,33.48-10.26,6.2-3.12-8.09-12.94,2.26Zm11.49-21.89-3.51-9.09-2.61,10.19Z" fill="#eaf6fe"/><path d="M566.17,923.63c.89-.27,37.77-16.19,39.93-16.3,2.27-.29,41.57,7.16,44.69,8.64-10.76,5.43-31.03,16.26-33.74,16.57S567.6,924.55,566.17,923.63Z" fill="#ffd300"/><path d="M566.17,923.63s1.7,50.91,2.48,52.02c2.69,2.58,47.42,12.78,49.72,12.56-.12-20.11-1.03-53.38-1.33-55.67C607,929.14,566.17,923.63,566.17,923.63Z" fill="#f9b600"/><path d="M650.79,915.97c.92.64,3.51,49.69,2.71,51.03s-33.73,21.37-35.12,21.22-1.72-54.51-1.33-55.67S650.79,915.97,650.79,915.97Z" fill="#e97e03"/><path d="M617.05,932.54c.85-2.9,2.3,54.66,1.33,55.67C617.41,989.24,615.44,938.02,617.05,932.54Z" fill="#fed24d"/><path d="M566.17,923.63s29.03,1.49,50.88,8.91C606.07,931.64,566.17,923.63,566.17,923.63Z" fill="#fff26b"/><path d="M650.79,915.97c-1.2,1.67-31.04,15.85-33.74,16.57C621.16,928.5,650.79,915.97,650.79,915.97Z" fill="#fff26b"/><path d="M583.24,971.02a31.409,31.409,0,0,1-7.39-9.55,25.65,25.65,0,0,1-2.9-11.01,16.207,16.207,0,0,1,2.52-9.57,13.559,13.559,0,0,1,7.31-5.46,17.864,17.864,0,0,1,10.21-.05,26.346,26.346,0,0,1,7.83,3.58,26.066,26.066,0,0,1,6.59,6.34,24.663,24.663,0,0,1,4.05,8.56l-9.32.36a13.7,13.7,0,0,0-9.07-8.19c-2.73-.72-4.99-.49-6.76.68-1.79,1.18-2.64,3.34-2.57,6.48a13.471,13.471,0,0,0,1.41,5.83,13.322,13.322,0,0,0,3.53,4.43,12.425,12.425,0,0,0,4.72,2.45,8.661,8.661,0,0,0,4.18.14,7.152,7.152,0,0,0,3.16-1.54,4.963,4.963,0,0,0,1.59-2.27l8.85,5.32a10.229,10.229,0,0,1-3.19,6.02,13.145,13.145,0,0,1-6.58,3.23,17.805,17.805,0,0,1-8.21-.33A24.067,24.067,0,0,1,583.24,971.02Z" fill="#fffce5"/></g><text transform="translate(1366.395 736.985)" fill="#fff" font-size="48.52" font-family="SegoeUI, Segoe UI"><tspan x="0" y="0">تاهويديف</tspan></text><g transform="translate(154 -14)"><g transform="translate(455.991 37.575)"><path d="M629.446,122.324c8.945-8.281,21.014-21.516,17.04-29.627-2.607-5.326-10.645-7.156-25.3-5.772-3.222.308-6.282.729-8.823,1.125,3.6-11.6,7.439-29.02-.008-34.063a9.312,9.312,0,0,0-6.257-1.376c-7.739.729-19.185,9.026-25.814,14.344-2.7-11.786-8.151-28.72-17.1-29.36a7.883,7.883,0,0,0-1.311.016c-8.5.809-15.923,16.271-20.108,27.126-6.986-7.382-18.82-18.343-26.81-17.59a8.324,8.324,0,0,0-2.833.785c-8.135,3.983-6.84,22.018-4.954,34.063-6.937-2.016-18.1-4.76-25.563-4.056-4.145.4-7.083,1.829-8.718,4.282-5.011,7.488,5.084,22.293,12.757,31.74-11.908,2.752-29.052,8.281-29.643,17.315-.591,9.01,15.591,16.724,27.021,21.03-8.961,8.281-21.03,21.516-17.072,29.619,2.607,5.334,10.661,7.172,25.353,5.78,3.206-.3,6.257-.72,8.791-1.117-3.6,11.6-7.447,29.02,0,34.055a9.351,9.351,0,0,0,6.257,1.392h0c7.747-.737,19.2-9.034,25.823-14.36,2.72,11.778,8.168,28.712,17.1,29.352a7.882,7.882,0,0,0,1.311-.008h0c8.5-.809,15.922-16.271,20.108-27.118,6.986,7.382,18.8,18.335,26.786,17.574a8.221,8.221,0,0,0,2.825-.777c8.143-3.983,6.848-22.018,4.97-34.063,6.937,2.016,18.1,4.76,25.555,4.055,4.153-.4,7.083-1.838,8.718-4.282,5.011-7.488-5.076-22.285-12.749-31.724,11.908-2.76,29.052-8.281,29.651-17.315C657.066,134.353,640.876,126.63,629.446,122.324Z" transform="translate(-455.991 -37.575)" fill="#ffd500"/><path d="M628.05,117.209a71.45,71.45,0,1,1-91.31-43.291A71.46,71.46,0,0,1,628.05,117.209Z" transform="translate(-462.333 -43.704)" fill="#f5c100" fill-rule="evenodd"/><path d="M627.509,118.341a68.37,68.37,0,1,1-87.368-41.421A68.38,68.38,0,0,1,627.509,118.341Z" transform="translate(-463.371 -44.31)" fill="#ffda00" fill-rule="evenodd"/><path d="M523.921,93.853c16.878-14.692,27.158,2.469,17.809,9.827s-36.095,15.234-39,49.136C495.589,131.891,509.189,106.676,523.921,93.853Z" transform="translate(-464.522 -47.199)" fill="#fff37f" fill-rule="evenodd"/><g transform="translate(55.214 48.76)"><path d="M616.283,160.166c-.51,4.282,5.245,8.4,11.891,7.714s10.782-5.375,11.082-10.515c.283-4.679-5.035-9.26-12.021-5.44C620.694,155.5,616.817,155.73,616.283,160.166Z" transform="translate(-541.737 -107.85)" fill="#eb5d56"/><path d="M527.042,177.674c2.42,5.367,9.155,7.083,16.408,4.606,7-2.388,11.916-10.329,8.67-14.919-3.092-4.371-6.168-1.19-15.267-.931C528.054,166.681,524.622,172.315,527.042,177.674Z" transform="translate(-524.598 -110.626)" fill="#eb5d56"/><g transform="translate(32.493 48.357)"><path d="M599.4,157.55s4.938,27.725-12.676,31.659c-20.237,4.517-22.382-24.73-22.382-24.73A64.214,64.214,0,0,0,599.4,157.55Z" transform="translate(-564.34 -157.55)" fill="#5d351f"/></g><path d="M572.62,188.578a17.321,17.321,0,0,1,10.7-5.5c6.767-.963,11.033,1.538,13.729,5.3a14.476,14.476,0,0,1-8.75,5.65C580.925,195.677,575.963,192.852,572.62,188.578Z" transform="translate(-533.425 -114.018)" fill="#eb5c54"/><path d="M579.059,146.7c1.578-3.983,3.724-4.841,5.245-4.857a3.184,3.184,0,0,1,.4.016,5.769,5.769,0,0,1,4.663,4.711,5.96,5.96,0,0,1-3.408,6.6.622.622,0,0,1-.291.073.784.784,0,0,1-.186-.024.67.67,0,0,1-.4-.324.661.661,0,0,1,.267-.89c3.084-1.643,2.938-4.161,2.728-5.165a4.39,4.39,0,0,0-3.5-3.659c-1.684-.154-3.214,1.287-4.3,4.015a.672.672,0,0,1-.858.38.682.682,0,0,1-.364-.356A.808.808,0,0,1,579.059,146.7Z" transform="translate(-534.643 -106.2)" fill="#6c452c"/><path d="M603.929,147.962c.17,1.125,4.784,1.36,10.3.51s9.851-2.437,9.681-3.562-4.792-1.352-10.3-.51S603.751,146.837,603.929,147.962Z" transform="translate(-539.389 -106.591)" fill="#f5c100"/><g transform="translate(59.67 12.013)"><path d="M598.073,128.411a13.692,13.692,0,1,0,11.47-15.6A13.689,13.689,0,0,0,598.073,128.411Z" transform="translate(-597.914 -112.651)" fill="#fff"/><path d="M604.169,129.148a7.8,7.8,0,1,0,6.533-8.88A7.8,7.8,0,0,0,604.169,129.148Z" transform="translate(-599.088 -114.085)" fill="#1b1b1a"/><path d="M614.562,124.275a3.116,3.116,0,1,0,2.615-3.554A3.118,3.118,0,0,0,614.562,124.275Z" transform="translate(-601.079 -114.182)" fill="#fff"/><path d="M607.646,135.319a1.56,1.56,0,1,0,3.084-.47,1.547,1.547,0,0,0-1.765-1.3A1.571,1.571,0,0,0,607.646,135.319Z" transform="translate(-599.765 -116.629)" fill="#fff"/></g><path d="M540.369,160.342c.17,1.125,4.784,1.36,10.3.51s9.851-2.437,9.681-3.562-4.792-1.352-10.3-.51S540.2,159.209,540.369,160.342Z" transform="translate(-527.28 -108.949)" fill="#f5c100"/><g transform="translate(8.219 22.034)"><path d="M534.513,140.783a13.691,13.691,0,1,0,11.47-15.591A13.7,13.7,0,0,0,534.513,140.783Z" transform="translate(-534.354 -125.031)" fill="#fff"/><path d="M540.619,141.518a7.8,7.8,0,1,0,6.532-8.88A7.8,7.8,0,0,0,540.619,141.518Z" transform="translate(-535.531 -126.463)" fill="#1b1b1a"/><path d="M551.012,136.645a3.116,3.116,0,1,0,2.615-3.554A3.118,3.118,0,0,0,551.012,136.645Z" transform="translate(-537.521 -126.56)" fill="#fff"/><path d="M544.1,147.7a1.556,1.556,0,1,0,1.311-1.773A1.561,1.561,0,0,0,544.1,147.7Z" transform="translate(-536.207 -129.009)" fill="#fff"/></g><path d="M626.328,104.99l-.024.024a1.335,1.335,0,0,1-1.894-.081,13.762,13.762,0,0,0-16.4-2.914,1.343,1.343,0,0,1-1.23-2.388,16.435,16.435,0,0,1,19.606,3.481A1.352,1.352,0,0,1,626.328,104.99Z" transform="translate(-539.794 -97.812)" fill="#6c452c"/><path d="M524.9,122.145a.03.03,0,0,1,.024.008,1.35,1.35,0,0,0,1.813-.567,13.74,13.74,0,0,1,15.089-7.043,1.342,1.342,0,1,0,.575-2.623,16.43,16.43,0,0,0-18.043,8.419A1.348,1.348,0,0,0,524.9,122.145Z" transform="translate(-524.2 -100.428)" fill="#6c452c"/></g></g></g></g></svg>