<svg xmlns="http://www.w3.org/2000/svg" width="311.125" height="396.909" viewBox="0 0 311.125 396.909"><g transform="translate(-443.294 -1506.617)"><path d="M584.772,1881.223a33.658,33.658,0,0,1-9-7.828c-3.424.82-4.487,3.865-4.215,6.916a26,26,0,0,0,10.02,9.126Z" fill="#fbc09c"/><path d="M577.321,1875.055c1.109-1.021.731-2.829-1.442-4.187s-1.965-3.956-4.207-5.288c-2.244-1.314-5.672-.226-9.314,8s-2.112,19.005,1.153,23.927,7.53,2.657,9.847-.638,1.038-12.637,1.038-12.637-3.534-3.653-1-7.281A3.989,3.989,0,0,1,577.321,1875.055Z" fill="#b52824"/><path d="M572.32,1866.07c.489.2-3.9-3.948-6.146-3.368s-6.854,5.692-9.169,15.593c-1.772,7.548.312,19.993,7.674,20.664-.833-1.093-3.453-4.261-3.622-12.314C560.832,1875.823,565.854,1863.46,572.32,1866.07Z" fill="#fff"/><path d="M533.336,1847.156a33.64,33.64,0,0,1-.312-11.926c-2.917-1.974-5.878-.7-7.945,1.566a25.879,25.879,0,0,0,.035,13.548Z" fill="#fbc09c"/><path d="M532.855,1837.5c1.495.128,2.577-1.371,2.111-3.894s1.589-4.123,1.054-6.669-3.655-4.345-12.181-1.471-15.447,11.271-16.871,17.006,3.12,7.353,7.114,6.824c4.005-.511,10.025-7.763,10.025-7.763s.3-5.063,4.7-5.65A4.012,4.012,0,0,1,532.855,1837.5Z" fill="#b52824"/><path d="M536.1,1827.745c.183.493,1.2-5.17-.749-6.434s-9.852-1.015-18.716,3.96c-6.764,3.794-14.427,13.153-9.959,19.033.242-1.352.815-5.414,6.645-10.974C521.153,1825.85,533.665,1821.208,536.1,1827.745Z" fill="#fff"/><path d="M617.549,1846.3c2.514,13.711,3.795,52.578-4.732,56.571s-36.094-11.535-36.094-11.535-.666-10.378,6.492-13.394a98.971,98.971,0,0,0,10.362,6.584s.709-11.358-5.147-19.593a29.9,29.9,0,0,1-11.539-3.158s-19.621,16.005-36.939,14.893-19.464-26.838-19.464-26.838a15.906,15.906,0,0,1,14.647-9,56.022,56.022,0,0,0,4.383,9.794s9.114-3.9,14.62-15.038C585.329,1851.119,617.549,1846.3,617.549,1846.3Z" fill="#006b93"/><path d="M615,1843.452s.544,11.113,1.988,21.326c-9.3-9.275-46.2-21.4-69.119-17.122,9.343-9.74,10.535-16.787,10.535-16.787Z" fill="#005473"/><path d="M581.022,1763.117s6.514-.695,10.784-1.7a39.865,39.865,0,0,0,.051-9.085l7.888-.364s.236,7.037-.021,9.841c5.619,1.786,13.2,3.647,13.2,3.647s2.93,18.075-16.938,16.187C590.754,1781.152,579.661,1771.206,581.022,1763.117Z" fill="#fbc09c"/><path d="M598.779,1754.511l-6.271.248a27.5,27.5,0,0,1,.092,6.45c2.467-1.971,5.566-1.6,6.471.59A53.859,53.859,0,0,0,598.779,1754.511Z" fill="#f0ae84"/><path d="M583.4,1762.589c-3.2.961-4.343.585-11.726,1.376a137.084,137.084,0,0,1-1.33,17.591c-2.9,16.6-9.627,39.109-19.987,49.664,8.72,16.108,58.847,22.453,71.981,16.4-1.441-6.2-.468-38.533.59-59.519.385-7.635-.118-19.074-.211-20.192a76.9,76.9,0,0,1-12-3.095C611.454,1782.026,582.315,1784.377,583.4,1762.589Z" fill="#ffbd00"/><path d="M620.11,1767.246c1.211,2.243,3.175,8.649,2.864,17.241,1.771-2.418,2.083-13.01.626-16.423A30.154,30.154,0,0,0,620.11,1767.246Z" fill="#fff"/><path d="M574.31,1763.582c-.9.644-2.19,8.584-3.783,15.664-.78-2.057-1.521-11.652.462-15.428A24.585,24.585,0,0,1,574.31,1763.582Z" fill="#fff"/><path d="M609.069,1764.1c-1.119,9.323-5.277,13.825-13.11,13.3s-11.913-8.582-11.769-14.781a15.8,15.8,0,0,0-2.772.323s-2.2,15.7,14.35,17.6,16.181-15.382,16.181-15.382Z" fill="#fff"/><path d="M621.971,1844.555c-5.77,3.326-53.363,1.32-69.283-16.165-2.33,2.83-3.385,3.961-3.385,3.961s17.5,22.43,73.274,16.682C622.4,1846.893,621.971,1844.555,621.971,1844.555Z" fill="#fff"/><path d="M658.962,1655.672c10.676.39,28.233,4.839,27.991,12.085s-42.307,15.945-42.307,15.945Z" fill="#008694"/><path d="M529.727,1714.233c7.232,10.514-4.32,27.774,2.333,28.164,6.456.379,10.472-7.544,10.472-7.544s3.127,17.809,16.533,17.538,28.091-7.444,28.091-7.444l42.339-3.993s22.667,6.437,24.46-21.983c5.719,6.564,11.684,5.731,13.356,1.655,2.389-5.822-9.348-7.338-9.022-25.629C628.84,1681.252,529.727,1714.233,529.727,1714.233Z" fill="#432e30"/><path d="M534.36,1706.533c4.7,33.6,34.045,52.3,66.4,47.775s55.444-30.558,50.745-64.161-34.559-55.956-66.913-51.43S529.662,1672.937,534.36,1706.533Z" fill="#fbc09c"/><path d="M621.295,1670.975c-6.463-1.687-7.661,5.4-3.4,5.334,4.573-.083,8.431,1.51,8.992,1.057C628.134,1676.37,624.93,1671.921,621.295,1670.975Z" fill="#372627"/><path d="M556.725,1680.193c5.665-3.54,8.925,2.867,4.837,4.077-4.389,1.286-7.6,3.959-8.265,3.695C551.812,1687.385,553.537,1682.182,556.725,1680.193Z" fill="#372627"/><path d="M588.261,1708.512a.591.591,0,0,1-.228-.018.565.565,0,0,1-.386-.7c.832-2.884,2.878-4.87,5.342-5.186s4.946,1.093,6.475,3.673a.565.565,0,1,1-.971.577c-1.3-2.187-3.35-3.386-5.36-3.129s-3.7,1.934-4.4,4.377A.567.567,0,0,1,588.261,1708.512Z" fill="#c85f3b"/><path d="M612.389,1717.649s-13.759,5.518-33.776,5.392c-.167,1.9,3.033,21.213,20.339,18.574C616.384,1738.943,612.389,1717.649,612.389,1717.649Z" fill="#2b1613"/><path d="M608.139,1718.972a110.289,110.289,0,0,1-13.257,2.789.217.217,0,0,0-.04.007,117.735,117.735,0,0,1-12.292,1.171c.249,2.018,1.252,6.338,13.729,4.349C608.642,1725.312,608.3,1720.725,608.139,1718.972Z" fill="#fff"/><path d="M597.514,1735.02c5.373-3.3,10.113-1.615,11.479,1a14.923,14.923,0,0,1-10.041,5.594c-5.386.818-9.405-.486-12.38-2.725C586.8,1736.731,592.6,1733.569,597.514,1735.02Z" fill="#e35956"/><path d="M597.55,1735.485c3.629-2.23,6.836-1.091,7.76.676a10.1,10.1,0,0,1-6.788,3.781,10.674,10.674,0,0,1-8.37-1.841C590.31,1736.642,594.23,1734.5,597.55,1735.485Z" fill="#ed7b78"/><path d="M544.537,1722.277c1.419,5.583,7.613,8.386,15.029,7.237,7.154-1.11,13.239-7.918,10.89-12.9-2.233-4.736-5.741-2.191-14.546-3.494C547.394,1711.864,543.121,1716.7,544.537,1722.277Z" fill="#f5a591"/><path d="M548.939,1718.344a1.274,1.274,0,1,0,.961-1.226A1.121,1.121,0,0,0,548.939,1718.344Z" fill="#fbd0c3"/><path d="M645.55,1707.759c.169,5.76-5.017,10.152-12.463,11.084-7.182.892-14.9-3.982-14.011-9.413.846-5.168,4.918-3.683,13.028-7.354C639.949,1698.529,645.386,1702.01,645.55,1707.759Z" fill="#f5a591"/><path d="M640.241,1705.184a1.273,1.273,0,1,1-1.259-.913A1.118,1.118,0,0,1,640.241,1705.184Z" fill="#fbd0c3"/><path d="M614.6,1609.851c-39.155-11.872-60.37,9.588-60.37,9.588s-14.8-2.4-28.178,17.283c-15.522,22.85-10.8,62,2.029,74.328,14.236-6.74,10.336-37.495,10.336-37.495,5.449,2.2,21.274,2.048,26.124-.523-8.84-6.291-7.961-16.526-7.961-16.526s11.47,17.855,23.853,14.8c-6.851-6.606-5.455-21.578-5.455-21.578s16.317,23.978,6.676,37.431c16.824-5.252,18.6-36.407,18.6-36.407s7.658,6.242,1.664,17.47c10.238.505,14.084-22.255,14.084-22.255s7.67,12.458-1.762,20.777c11.451.464,16.664-1.3,23.19-6.181,1.247,14.91,9.635,25.751,13.677,30.869C671.259,1665.094,652.082,1621.217,614.6,1609.851Z" fill="#432e30"/><path d="M518.714,1673.268s-.031,15.188,6.067,28.092a16.875,16.875,0,0,0,9.7.977s3.756-15.816,1.905-27.767C532.78,1691.364,525.417,1690.481,518.714,1673.268Z" fill="#372627"/><path d="M655.67,1655.551s5.905,12.292,2.82,26.227a16.875,16.875,0,0,1-9.238,3.1s-7.168-14.589-8.013-26.656C648.475,1673.8,652.952,1673.821,655.67,1655.551Z" fill="#372627"/><path d="M602.623,1642.671c11.159-2.307-14.91-21.589-14.91-21.589s32.6,21.505,44.2,14.973-38.715-19.58-38.715-19.58,24.87,5.71,28.883,5.114c5.994-.889-6.816-10.982-31.27-11.4s-27.092,10.36-24.6,14.478C574.047,1637.592,596.905,1643.854,602.623,1642.671Zm-54.352,10.04c-7.943,4.444-2.292-20.831-2.292-20.831s-8.429,30.031-18.845,32.154,13.126-32.067,13.126-32.067-12.024,16.453-14.758,18.193c-4.082,2.6-1.631-10.194,12.91-23.238s21.769-7.918,22.418-4.127C562.862,1634.7,552.341,1650.433,548.271,1652.711Z" fill="#513c3e"/><path d="M538.5,1703.743s-1.905-7.879-10.332-8.118c-8.889-.244-10.98,12.325-5.354,19.83s15.556,7.809,17.857,1.212Z" fill="#fbc09c"/><path d="M526.863,1699.306c5.57-1.728,11.441,9.542,4.376,16.378,2.371-8.593-.919-11.144-4.584-6.8-.246-2.707.992-4.547,4.457-4.583C530.46,1700.759,526.863,1699.306,526.863,1699.306Z" fill="#d38553"/><path d="M648.552,1688.351s-.33-8.1,7.71-10.64c8.482-2.674,13.939,8.841,10.59,17.6s-12.817,11.778-16.838,6.064Z" fill="#fbc09c"/><path d="M658.526,1680.893c-5.831-.134-8.384,12.317.285,16.949-4.637-7.612-2.172-10.969,2.54-7.793-.5-2.669-2.2-4.1-5.538-3.185C655.468,1683.276,658.526,1680.893,658.526,1680.893Z" fill="#d38553"/><path d="M565.254,1694.792c-7.332,1.024-9.343,10.03-9.4,9.633a10.641,10.641,0,1,1,21.077-2.944C576.989,1701.878,573.1,1693.695,565.254,1694.792Z" fill="#382e28"/><path d="M616.773,1687.6c-7.334,1.024-9.344,10.03-9.4,9.632a10.641,10.641,0,1,1,21.077-2.943C628.507,1694.683,624.621,1686.5,616.773,1687.6Z" fill="#382e28"/><path d="M568.595,1604c2.789-6.976,11.853-11.691,16.791-3.286A169.607,169.607,0,0,1,568.595,1604Z" fill="#008694"/><path d="M630.278,1605.535c-12.166-5.366-34.089-6.677-54.7-3.8-20.3,2.836-40.1,11.769-49.43,21.7-14.574,15.518-11.782,41.061-10.609,52.263,37.045-7.618,105.208-20.9,144.037-20.117C655.144,1638.008,649.749,1614.12,630.278,1605.535Zm-27.926,47.694c-6.621,3.163-19.4,6.265-35.423,5.957-10.826-.207-7.615-12.871-1.8-13.137,16.782-.774,26.169-3.6,33.5-5.308C604.331,1639.412,608.977,1650.066,602.352,1653.229Z" fill="#18a5af"/><path d="M555.549,1610.353c-10.038,2.644-29.96,11.458-32.624,28.025,5.627-7.025,25.207-14.7,38.366-18.678S580,1603.909,555.549,1610.353Z" fill="#55b9ca"/><path d="M451.13,1763.141a7.835,7.835,0,0,1-6.7-11.9l145.932-240.852a7.835,7.835,0,0,1,6.659-3.776h.042a7.839,7.839,0,0,1,6.658,3.7l149.521,240.854a7.836,7.836,0,0,1-6.657,11.969Zm13.91-15.672,267.455,0-135.352-218.03Z" fill="#0052a0"/><path d="M623.82,1769.576c7.871,2.566,12.5,6.836,29.4,5.808,22.39-1.361,19.962-13.38,19.962-13.38s-6.727-3.248-5.85-6.59c.478-1.823,5.937,1.96,5.937,1.96s-5.567-7.5-3.656-9.082c2.281-1.885,5.184,3.07,7.735,6.953-2.35-5.244-3.01-10.66-.569-11.175,3.585-.757,5.232,10.291,5.232,10.291s-1.077-9.833,3.223-8.6c3.647,1.047.785,15.685.785,15.685s8.7-.794,9.121,1.087c.606,2.672-10.087,3.787-10.087,3.787s-1.423,16.281-23.4,19.778-37.438-3.005-37.438-3.005S625.071,1774.384,623.82,1769.576Z" fill="#fbc09c"/><path d="M570.092,1766.495c-8.214,1.739-13.539,5.722-30.478,5.669-22.43-.069-20.7-12.208-20.7-12.208s6.529-3.629,5.461-6.915c-.582-1.793-5.814,2.3-5.814,2.3s5.126-7.812,3.128-9.277c-2.388-1.751-5,3.363-7.323,7.387,2.044-5.372,2.39-10.817-.075-11.19-3.623-.548-4.632,10.575-4.632,10.575s.509-9.878-3.712-8.4c-3.582,1.255.119,15.7.119,15.7s-8.725-.292-9.042,1.61c-.451,2.7,10.287,3.2,10.287,3.2s2.359,16.173,24.5,18.4,37.893-3.857,37.893-3.857S569.12,1771.368,570.092,1766.495Z" fill="#fbc09c"/></g></svg>