<svg xmlns="http://www.w3.org/2000/svg" xmlns:xlink="http://www.w3.org/1999/xlink" width="1920" height="1080" viewBox="0 0 1920 1080"><defs><clipPath id="a"><rect width="1920" height="1080" fill="none"/></clipPath><linearGradient id="b" x1="0.5" x2="0.5" y2="0.702" gradientUnits="objectBoundingBox"><stop offset="0" stop-color="#008fcd"/><stop offset="1" stop-color="#c6e7f6"/></linearGradient><linearGradient id="c" x1="0.5" x2="0.5" y2="0.626" gradientUnits="objectBoundingBox"><stop offset="0" stop-color="#1ab0db"/><stop offset="0.114" stop-color="#26b3dc"/><stop offset="0.319" stop-color="#46bee2"/><stop offset="0.594" stop-color="#7acfea"/><stop offset="0.925" stop-color="#c1e7f6"/><stop offset="1" stop-color="#d3edf9"/></linearGradient><linearGradient id="d" x1="-101.819" y1="1.054" x2="-100.848" y2="1.054" gradientUnits="objectBoundingBox"><stop offset="0" stop-color="#077cbc"/><stop offset="1" stop-color="#76b8de"/></linearGradient><linearGradient id="e" x1="-133.227" y1="1.089" x2="-132.197" y2="1.089" gradientUnits="objectBoundingBox"><stop offset="0" stop-color="#07649f"/><stop offset="1" stop-color="#4597cc"/></linearGradient><linearGradient id="f" x1="-152.739" y1="1.547" x2="-151.735" y2="1.547" gradientUnits="objectBoundingBox"><stop offset="0" stop-color="#a23b35"/><stop offset="1" stop-color="#5e1c1a"/></linearGradient><linearGradient id="g" x1="-294.784" y1="1.59" x2="-293.752" y2="1.59" gradientUnits="objectBoundingBox"><stop offset="0" stop-color="#b94a3e"/><stop offset="1" stop-color="#912d29"/></linearGradient><linearGradient id="h" x1="-102.404" y1="1.18" x2="-100.88" y2="1.119" gradientUnits="objectBoundingBox"><stop offset="0" stop-color="#1b81bc"/><stop offset="0.088" stop-color="#308ec4"/><stop offset="0.304" stop-color="#5facd8"/><stop offset="0.509" stop-color="#84c3e7"/><stop offset="0.7" stop-color="#9fd4f2"/><stop offset="0.869" stop-color="#afdef8"/><stop offset="1" stop-color="#b5e2fb"/></linearGradient><linearGradient id="i" x1="-133.244" y1="1.151" x2="-132.214" y2="1.151" gradientUnits="objectBoundingBox"><stop offset="0" stop-color="#2a7eb7"/><stop offset="1" stop-color="#4597cc"/></linearGradient><linearGradient id="j" x1="-78.438" y1="0.92" x2="-77.402" y2="0.92" xlink:href="#d"/><linearGradient id="k" x1="-92.468" y1="0.949" x2="-91.395" y2="0.949" xlink:href="#e"/><linearGradient id="l" x1="-141.649" y1="1.438" x2="-140.648" y2="1.438" xlink:href="#f"/><linearGradient id="m" x1="-258.892" y1="1.472" x2="-257.749" y2="1.472" xlink:href="#g"/><linearGradient id="n" x1="-78.639" y1="1.065" x2="-77.416" y2="1.006" xlink:href="#h"/><linearGradient id="o" x1="-183.248" y1="1.062" x2="-182.116" y2="1.062" xlink:href="#i"/><linearGradient id="p" x1="-89.126" y1="1.054" x2="-88.063" y2="1.054" xlink:href="#d"/><linearGradient id="r" x1="-97.151" y1="1.097" x2="-96.071" y2="1.097" xlink:href="#e"/><linearGradient id="s" x1="-148.458" y1="1.494" x2="-147.394" y2="1.494" xlink:href="#f"/><linearGradient id="t" x1="-181.747" y1="1.551" x2="-180.624" y2="1.551" xlink:href="#g"/><linearGradient id="u" x1="-89.125" y1="1.206" x2="-88.159" y2="1.093" xlink:href="#h"/><linearGradient id="v" x1="-97.174" y1="1.248" x2="-96.095" y2="1.248" xlink:href="#i"/><linearGradient id="w" x1="13.581" y1="-1.326" x2="14.797" y2="-1.326" xlink:href="#d"/><linearGradient id="y" x1="17.443" y1="-1.425" x2="18.896" y2="-1.425" xlink:href="#e"/><linearGradient id="z" x1="21.332" y1="-2.789" x2="22.399" y2="-2.789" xlink:href="#f"/><linearGradient id="aa" x1="40.289" y1="-2.936" x2="42.052" y2="-2.936" xlink:href="#g"/><linearGradient id="ab" x1="0" y1="0.5" x2="1" y2="0.5" xlink:href="#h"/><linearGradient id="ac" x1="17.706" y1="-1.914" x2="19.178" y2="-1.914" xlink:href="#i"/><linearGradient id="ad" x1="3.935" y1="0.917" x2="4.892" y2="0.917" xlink:href="#d"/><linearGradient id="ae" x1="4.478" y1="0.942" x2="5.365" y2="0.942" xlink:href="#e"/><linearGradient id="af" x1="5.506" y1="1.317" x2="6.503" y2="1.317" xlink:href="#f"/><linearGradient id="ag" x1="9.329" y1="1.349" x2="10.215" y2="1.349" xlink:href="#g"/><linearGradient id="ai" x1="4.478" y1="1" x2="5.366" y2="1" xlink:href="#i"/><linearGradient id="aj" x1="10.9" y1="-0.339" x2="11.798" y2="-0.339" xlink:href="#d"/><linearGradient id="ak" x1="15.774" y1="-0.383" x2="16.828" y2="-0.383" xlink:href="#e"/><linearGradient id="al" x1="18.138" y1="-1.076" x2="19.149" y2="-1.076" xlink:href="#f"/><linearGradient id="am" x1="36.358" y1="-1.142" x2="37.436" y2="-1.142" xlink:href="#g"/><linearGradient id="ao" x1="15.777" y1="-0.477" x2="16.832" y2="-0.477" xlink:href="#i"/><linearGradient id="ap" x1="6.069" y1="0.586" x2="7.054" y2="0.586" xlink:href="#d"/><linearGradient id="aq" x1="6.844" y1="0.591" x2="7.821" y2="0.591" xlink:href="#e"/><linearGradient id="ar" x1="11.482" y1="0.694" x2="12.482" y2="0.694" xlink:href="#f"/><linearGradient id="as" x1="17.591" y1="0.705" x2="18.544" y2="0.705" xlink:href="#g"/><linearGradient id="au" x1="12.571" y1="0.612" x2="13.53" y2="0.612" xlink:href="#i"/><linearGradient id="av" x1="0.5" y1="0.558" x2="0.5" y2="1.534" gradientUnits="objectBoundingBox"><stop offset="0" stop-color="#7ccbf4"/><stop offset="1" stop-color="#0a84c9"/></linearGradient><linearGradient id="aw" x1="-1.958" y1="0.5" x2="-0.958" y2="0.5" xlink:href="#e"/><linearGradient id="ax" x1="-1.458" y1="0.558" x2="-1.458" y2="1.534" gradientUnits="objectBoundingBox"><stop offset="0" stop-color="#c6e8fc"/><stop offset="1" stop-color="#7dc2ee"/></linearGradient><linearGradient id="ay" x1="-1.004" y1="0.5" x2="-2.11" y2="0.5" gradientUnits="objectBoundingBox"><stop offset="0" stop-color="#99d7f8"/><stop offset="1" stop-color="#53afe6"/></linearGradient></defs><g clip-path="url(#a)"><rect width="2717.076" height="1320.57" transform="translate(-265.931 -248.162)" fill="url(#b)"/><path d="M1973.572,1072.407c-423.648,203.125-2065.917,0-2065.917,0s-332.058-627.969,0-1028.149c304.368-366.812,2056.985-351.922,2388.3,0C2637.859,407.419,2271.454,929.582,1973.572,1072.407Z" fill="url(#c)"/><path d="M2204.441,710.434c211.182-144.492,133.63-381.311-92.622-348.262,100.035-163.017-52.045-339.011-222.292-177.836C1941.4-45.368,1595.936-122.943,1504.211,6.5c-21.4-159.738-382.79-206.1-440.884-51.869-51.869-148.2-383.909-147.377-429.77,48.164-97.839-115.673-359.436-.333-381.715,116.919C190.692,70.141-22.21,113.943,70.413,295.483c-71.466-77.147-300.1,81.51-103.738,288.985-170.426-74.1-303.808,192.655,51.865,233.409C-377.885,940.141-3.689,1158.729-3.689,1158.729s1525.176,72.957,1958.325-102.618C2257.323,1078.143,2509.625,800.386,2204.441,710.434Z" fill="#cbeafc"/><path d="M62.881,649.852c-164.22-123.166-46.2-344.213,129.7-322.694,18.906-123.247,230.657-247.865,387-152.512C538.529,73.34,734.637-1.457,833.623,88.008c25.934-151.9,222.775-113.016,248.228-11.114C1112.1-26.1,1372.943-66.626,1415.293,113.943c90.348-106.816,345.412,27.472,365.983,135.746,98.817-40.692,155.284,30.519,137.289,101.759,117.166-101.968,315.515,73.707,204.369,244.135,83.345-6.178,188.95,270.458-95.469,375.489,229.084,47.076-119.417,124.673-119.417,124.673S629.706,1246.764,229.721,1084.632C-49.791,1104.977-218.935,732.918,62.881,649.852Z" fill="#fff"/><path d="M2108.642,229.43c-10.1.918-20.369,1.807-30.722,2.68,53.305-22.274,101.7-43.423,144.26-62.8,46.128-21,85.625-39.824,117.63-55.629,3.028-1.49,5.961-2.943,8.855-4.377a490.273,490.273,0,0,1,41.461,72.434q-20.3,9.054-43.547,19.121l-5.724.83q-19.774,2.871-40.935,5.947c-14.16,1.9-28.821,3.722-43.885,5.677l-22.915,2.944c-7.748.989-15.668,1.788-23.649,2.71q-23.969,2.676-49.151,5.492Q2135.064,226.885,2108.642,229.43ZM52,757.819c69.834,11.057,145.828,22.17,226.694,32.388,80.885,10.155,166.527,19.77,255.6,27.7s181.422,14.753,275.584,19.327c94.139,4.633,190.006,7.441,285.89,7.969,95.879.435,191.773-1.343,285.865-5.43s186.386-10.476,275.1-18.952,173.814-19.015,253.681-31.035c79.884-12.01,154.493-25.458,222.579-39.246q25.469-5.315,49.831-10.4,24.151-5.442,47.165-10.631c7.644-1.754,15.257-3.382,22.665-5.176L2274.513,719c14.369-3.522,28.364-6.87,41.827-10.242,9.774-2.569,19.23-5.048,28.536-7.49q1.584-2.905,3.145-5.82c-11.277,2.711-22.841,5.5-34.812,8.372-13.6,3.11-27.711,6.183-42.187,9.42l-22.03,4.9c-7.454,1.649-15.115,3.128-22.817,4.732q-23.15,4.722-47.45,9.7-24.484,4.594-50.079,9.4c-68.39,12.437-143.163,24.4-223.008,34.808-79.829,10.432-164.718,19.314-252.972,26.032-88.262,6.74-179.893,11.349-273.126,13.614-93.221,2.292-188.031,2.268-282.678.056-94.644-2.3-189.106-6.86-281.721-13.18-92.635-6.262-183.351-14.695-270.705-24.185C457.07,769.638,373.2,758.586,294.1,747.087c-79.09-11.545-153.274-23.881-221.342-36.033-68.015-12.276-129.9-24.414-184.333-35.848-43.48-9.135-82.232-17.732-115.649-25.475q4.623,30.39,10.551,59.624,36.582,7.412,79.175,15.5C-81.406,735.472-17.788,746.641,52,757.819ZM606.589,619.456c-87.3,10.061-172.441,17.45-253.542,22.421-81.115,5-158.175,7.558-229.382,8.474q-26.723.192-52.3.393-25.576-.187-49.944-.378c-8.122-.089-16.148-.065-24.053-.249l-23.384-.55c-15.373-.383-30.328-.675-44.8-1.1q-21.686-.861-41.973-1.664c-13.511-.543-26.554-.987-39.034-1.773l-35.935-2.017c-11.461-.639-22.4-1.21-32.726-2.038-2.767-.2-5.431-.393-8.116-.591q.231,1.589.468,3.172l6.963.688c10.291,1.09,21.2,1.932,32.638,2.863l35.878,2.924c12.464,1.107,25.5,1.874,39.012,2.759s27.525,1.79,41.994,2.731c14.492.786,29.47,1.464,44.885,2.231q11.565.568,23.46,1.146c7.933.378,15.984.564,24.131.863q24.483.789,50.185,1.633,25.732.456,52.624.926c71.706.881,149.513.254,231.686-2.725,82.167-2.957,168.672-8.257,257.664-16.217,88.98-7.941,180.421-18.538,272.494-31.677q13.842-1.976,27.708-4.04-65-5.276-129.033-11.929C724.362,604.793,664.989,612.734,606.589,619.456ZM2182.24,918.479q-57,20.292-123.812,42.5c-10.148,3.336-20.511,6.708-30.963,10.1q-65.672,7.782-136.925,14.179c-80.774,7.142-166.416,12.533-255.2,15.645-88.79,3.133-180.708,3.985-273.982,2.451s-187.865-5.408-282.067-11.478c-94.2-6.165-187.966-14.559-279.694-24.647-91.763-10.016-181.387-22.127-267.532-35.148-86.17-13.011-168.679-27.472-246.372-42.162-77.675-14.744-150.381-30.073-217-44.98C2.129,829.906-58.33,815.267-111.417,801.648c-32.734-8.414-62.689-16.391-89.612-23.772,5.512,21.644,11.362,42.512,17.379,62.458,13.2,3.192,26.854,6.458,41.069,9.8C-87.754,863-25.469,876.746,42.973,890.744c68.494,13.884,143.131,28.07,222.734,41.55,79.62,13.44,164.054,26.514,252.088,38.061,88.018,11.571,179.449,22.122,272.913,30.522,93.436,8.469,188.8,15.172,284.414,19.606,95.637,4.354,191.5,6.481,285.83,6.238,94.321-.225,187.095-2.847,276.507-7.683s175.474-11.89,256.448-20.632q38.355-4.121,75.077-8.722-54.936,17.2-114.54,34.6c-73.366,21.28-151.557,42.744-233.682,63.1-82.11,20.363-167.856,40.145-256.216,58.044q-43.55,8.85-87.84,17.179c106.3-.472,208.6-3.784,302.418-10.893q36.243-7.569,71.742-15.354c85.025-18.639,166.158-38.505,242.436-58.331q72.445-18.886,138.534-37.852C2082.672,1008.441,2134.02,967.031,2182.24,918.479Zm161.068-710.972c13.081-2.258,25.743-4.355,37.729-6.722l16.147-3.065c-.622-1.484-1.26-2.967-1.9-4.449l-16.412,2.668c-10.326,1.755-21.15,3.309-32.294,4.919-7.659,3.316-15.477,6.682-23.6,10.144Q2333.321,209.226,2343.308,207.507Zm-265.388,24.6c-61.865,5.213-128.093,9.58-197.75,12.488-81.324,3.416-167.265,4.859-256.05,3.886-88.792-.955-180.414-4.318-273.08-10.113s-186.357-14-279.385-24.357q-56.511-6.348-112.562-13.757c67.744-10.6,135.586-22.5,202.874-35.559,91.631-17.88,182.153-37.942,270.183-59.449,88.071-21.448,173.363-44.706,254.957-68.472,81.621-23.753,159.158-48.493,231.875-72.893,52.4-17.627,102.108-35.236,148.911-52.413-39.13-14.388-81.493-27.667-126.613-39.81q-17.656,2.447-35.642,4.81c-79.829,10.429-164.718,19.31-252.972,26.034S1472.773-86.152,1379.54-83.882c-93.221,2.289-188.031,2.265-282.678.055-94.644-2.305-189.106-6.861-281.721-13.183-92.635-6.263-183.351-14.692-270.705-24.184-78.892-8.556-154.9-18.4-227.15-28.7-39.247,9.178-76.7,19.205-112.059,30.083q36.024,4.95,73.465,9.708c80.885,10.155,166.527,19.771,255.6,27.7,89.068,7.948,181.422,14.756,275.584,19.326,94.139,4.637,190.006,7.444,285.89,7.971,95.879.437,191.773-1.346,285.865-5.428s186.386-10.475,275.1-18.954c88.71-8.464,173.814-19.016,253.681-31.036,13.064-1.964,25.933-3.979,38.716-6.015q-37.584,14.563-77.439,29.324c-69.579,25.665-143.936,51.814-222.4,77.1-78.435,25.3-160.584,50.228-245.634,73.445-85.008,23.28-172.623,45.222-261.536,65.06-88.956,19.753-179.142,37.456-268.968,52.666-7.732,1.31-15.457,2.576-23.182,3.85q-26.96-4.03-53.7-8.238c-90.1-14.177-177.823-30.331-261.973-47.238S369.785,94.379,294.266,76.206C218.771,57.979,148.3,39.4,83.838,21.524,43.036,10.125,4.676-1-30.982-11.694-55.33,5.855-75.951,24.5-92.345,44.258c-.344.414-.673.835-1.018,1.251C-51.525,56.909-6.012,68.82,42.79,81c67.11,16.621,140.323,33.78,218.567,50.438,78.276,16.606,161.379,33.052,248.244,48.108,58.87,10.214,119.388,20.005,181.093,29.04q-42.313,5.61-84.1,10.448c-87.3,10.062-172.441,17.449-253.542,22.422-81.115,4.993-158.175,7.556-229.382,8.47q-26.723.2-52.3.393-25.576-.186-49.944-.375c-8.122-.09-16.148-.065-24.053-.248s-15.7-.372-23.384-.552c-15.373-.383-30.328-.675-44.8-1.1q-21.686-.862-41.973-1.666c-13.511-.542-26.554-.984-39.034-1.773q-18.741-1.053-35.935-2.015c-4.843-.269-9.568-.53-14.215-.8-.414,1.23-.846,2.458-1.251,3.691,4.8.4,9.685.794,14.693,1.2q17.144,1.4,35.878,2.923c12.464,1.107,25.5,1.876,39.012,2.762s27.525,1.789,41.994,2.731c14.492.788,29.47,1.462,44.885,2.232q11.565.567,23.46,1.146c7.933.379,15.984.56,24.131.858q24.483.795,50.185,1.637l52.624.927c71.706.88,149.513.252,231.686-2.725s168.672-8.261,257.664-16.219c60.307-5.383,121.757-12.013,183.754-19.8,87.064,11.227,175.854,20.966,265.1,28.69,95.19,8.142,190.831,14.083,285.166,17.586,94.33,3.519,187.347,4.589,277.229,3.3,89.882-1.274,176.619-4.919,258.438-10.426,53.263-3.572,104.387-7.945,153.057-12.823,9.717-3.95,19.346-7.883,28.768-11.771C2069.031,235.83,2073.46,233.974,2077.92,232.11ZM902.865,576.348q-66.008-4.066-131.113-9.564c-92.353-7.83-182.766-17.874-269.49-29.848S332.493,511.082,254.7,495.946,104.392,464.458,38.307,448q-24.708-6.307-48.355-12.35-23.4-6.38-45.7-12.475c-7.41-2.054-14.805-3.983-21.96-6.071s-14.207-4.157-21.159-6.191c-13.9-4.088-27.457-7.987-40.5-11.894q-19.4-6.059-37.534-11.726c-12.087-3.78-23.793-7.357-34.766-11.114-6.92-2.3-13.6-4.527-20.157-6.713-.2,1.432-.417,2.864-.609,4.3,5.649,2.047,11.4,4.13,17.321,6.271,10.786,4.009,22.313,7.846,34.2,11.9s24.235,8.252,36.971,12.589c12.857,4.2,26.226,8.415,39.938,12.823q10.3,3.3,20.891,6.683c7.066,2.254,14.374,4.355,21.692,6.581q22.045,6.607,45.194,13.546,23.4,6.589,47.878,13.475c65.49,18.014,137.542,36.1,215.084,53.067,77.518,16.976,160.512,32.841,247.432,46.853s177.757,26.2,270.779,36.181c6.385.685,12.8,1.334,19.205,2q44.378-6.722,89-14.253Q888,578.964,902.865,576.348Zm1373.353-60.936c-55.864,8.11-119.26,16.482-188.786,24.626-69.558,8.025-145.235,15.857-225.645,22.611-80.422,6.7-165.531,12.693-253.872,16.9-88.319,4.214-179.83,7.176-272.911,7.868-90.71.738-182.913-.316-275.006-3.471Q986.643,596.8,913.187,607.661q67.453,5.466,135.528,9.475c95.575,5.514,191.515,8.751,286.038,10.056,94.541,1.375,187.646.413,277.666-1.9s176.921-6.475,259.169-11.5c82.243-5.08,159.77-11.356,231.17-17.978,71.372-6.739,136.6-13.862,194.241-20.911,39.748-4.858,75.909-9.615,108.029-14.094a656.845,656.845,0,0,0,17.542-68.448c-.845.142-1.665.282-2.516.43C2380.489,499.564,2332.091,507.293,2276.218,515.412ZM1060,583.944q51.108-8.958,101.969-18.824c91.631-17.885,182.153-37.944,270.183-59.451,88.071-21.448,173.363-44.705,254.957-68.471,81.621-23.755,159.158-48.494,231.875-72.9,72.691-24.451,140.278-48.878,201.981-72.148,61.619-23.377,117.326-45.63,166.088-65.989Q2305.7,218.379,2322.98,211l-20.349,3.5c-14.077,2.265-28.676,4.464-43.66,6.806q-11.26,1.74-22.836,3.534c-7.712,1.188-15.6,2.19-23.562,3.322q-23.918,3.294-49.05,6.759l-51.642,6.309c-24.6,2.872-50.038,5.629-76.15,8.245-50.865,20.677-105.648,42.141-164.045,63.727-69.579,25.666-143.936,51.815-222.4,77.1-78.435,25.3-160.584,50.226-245.634,73.445-85.008,23.28-172.623,45.22-261.536,65.062-79.153,17.573-159.276,33.515-239.254,47.532q74.652,4.6,149.97,7.362C1055.222,583.794,1057.61,583.862,1060,583.944Z" fill="#f8f9fa" opacity="0.3"/><path d="M-33.7-75.309s-157.714-16.315-177.851,11.18S346.6-20.717,331.955-54C390.536-49.657,575.7-65.57,562.888-84.383s-225.44-13.028-236.425-5.792c16.477-40.512-47.6-53.53-73.228-37.617,20.138-63.666-153.776-78.134-139.129-13.022-32.953-11.577-120.35,30.778-96.553,46.7C-22.719-125.951-33.7-75.309-33.7-75.309Z" fill="#f8f9fa" opacity="0.2"/><path d="M892.548-127.363s-202.593,1.219-219.383,24.146,254.646,22.911,276.02,12.052C952.238-70.653,1210.217-80.3,1198-108.056c48.854,3.619,302.987,7.291,292.3-8.4s-224.547-27.8-233.7-21.77c13.737-33.781-39.692-44.636-61.064-31.366,16.8-53.089-191.4-65.154-179.184-10.86-27.482-9.652-100.911,24.129-81.064,37.4C901.706-169.589,892.548-127.363,892.548-127.363Z" fill="#f8f9fa" opacity="0.2"/><path d="M1991.726-10.005s-87.417-10.062-101.415,9.054,92.5,30.184,110.323,21.131c2.545,17.1,35.638,38.229,77.643,8.047,29.279,26.159,140.022,1.008,129.84-22.132,40.733,3.018,204.172,2.322,195.256-10.759S2211.934-24.091,2204.3-19.06c11.458-28.169-33.095-37.22-50.919-26.155,14-44.27-106.924-54.33-96.738-9.055-22.913-8.05-45.828,20.119-29.279,31.188C1999.361-45.215,1991.726-10.005,1991.726-10.005Z" fill="#f8f9fa" opacity="0.2"/><path d="M1254.319,13.233s-609.87-15.637-826.069,0S480.236,28.87,663.989,26.319,1389.845,35.853,1254.319,13.233Z" fill="#f8f9fa" opacity="0.2"/><path d="M1083.061,359.531c-22.815.164-1147.156-2.324-1206.833,10.918-58.084,12.887,77.443,19.688,251.692,22.239s1268.143,5.1,1381.082,0S1280.687,358.114,1083.061,359.531Z" fill="#f8f9fa" opacity="0.2"/><path d="M2315.175,356.293c-267.964-17.082-872.074,0-1074.948,22.954s232.746,9.081,432.807,19.842S2552.168,371.4,2315.175,356.293Z" fill="#f8f9fa" opacity="0.2"/><path d="M1229.042,470.848c-21.227-2.459-585.9-28.055-653.668,0s58.317,15.3,179.206,20.4S1405.145,491.251,1229.042,470.848Z" fill="#f8f9fa" opacity="0.2"/><path d="M2451.144,72.693l-13.737-9.465-5.982,3.3c-4.07,2.227-10.281,5.583-18.514,9.935-16.47,8.708-41.055,21.431-73.1,37.214-32.005,15.805-71.5,34.63-117.63,55.629s-99.022,44.061-157.681,68.4c-58.753,24.237-123.255,49.787-192.813,75.5-69.579,25.666-143.936,51.815-222.4,77.1-78.435,25.3-160.584,50.226-245.634,73.445-85.008,23.28-172.623,45.22-261.536,65.062-88.956,19.751-179.142,37.454-268.968,52.663s-179.268,27.93-266.562,37.977-172.441,17.45-253.542,22.421c-81.115,5-158.175,7.558-229.382,8.474q-26.723.192-52.3.393-25.576-.187-49.944-.378c-8.122-.089-16.148-.065-24.053-.249l-23.384-.55c-15.373-.383-30.328-.675-44.8-1.1q-21.686-.861-41.973-1.664c-13.511-.543-26.554-.987-39.034-1.773l-35.935-2.017c-11.461-.639-22.4-1.21-32.726-2.038q-24.929-1.809-45.444-3.307v2.171q20.222,1.991,44.759,4.405c10.291,1.09,21.2,1.932,32.638,2.863l35.878,2.924c12.464,1.107,25.5,1.874,39.012,2.759s27.525,1.79,41.994,2.731c14.492.786,29.47,1.464,44.885,2.231q11.565.568,23.46,1.146c7.933.378,15.984.564,24.131.863q24.483.789,50.185,1.633,25.732.456,52.624.926c71.706.881,149.513.254,231.686-2.725,82.167-2.957,168.672-8.257,257.664-16.217,88.98-7.941,180.421-18.538,272.494-31.677,92.088-13.127,184.806-28.792,276.488-46.581,91.631-17.885,182.153-37.944,270.183-59.451,88.071-21.448,173.363-44.705,254.957-68.471,81.621-23.755,159.158-48.494,231.875-72.9,72.691-24.451,140.278-48.878,201.981-72.148,61.619-23.377,117.326-45.63,166.088-65.989s90.705-38.715,124.886-54.234c14.289-6.469,27.662-12.431,39.207-17.829Z" fill="#fff" opacity="0.3"/><path d="M2222.18-231.109c-46.12,21-99.022,44.06-157.681,68.4-58.753,24.236-123.255,49.788-192.813,75.5-69.579,25.665-143.936,51.814-222.4,77.1-78.435,25.3-160.584,50.228-245.634,73.445-85.008,23.28-172.623,45.222-261.536,65.06-88.956,19.753-179.142,37.456-268.968,52.666s-179.268,27.928-266.562,37.977-172.441,17.449-253.542,22.422c-81.115,4.993-158.175,7.556-229.382,8.47q-26.723.2-52.3.393-25.576-.186-49.944-.375c-8.122-.09-16.148-.065-24.053-.248s-15.7-.372-23.384-.552c-15.373-.383-30.328-.675-44.8-1.1q-21.686-.862-41.973-1.666c-13.511-.542-26.554-.984-39.034-1.773q-18.741-1.053-35.935-2.015c-11.461-.638-22.4-1.211-32.726-2.036q-24.929-1.813-45.444-3.309v2.169q20.222,1.99,44.759,4.4c10.291,1.092,21.2,1.937,32.638,2.865s23.4,1.91,35.878,2.923c12.464,1.107,25.5,1.876,39.012,2.762s27.525,1.789,41.994,2.731c14.492.788,29.47,1.462,44.885,2.232q11.565.567,23.46,1.146c7.933.379,15.984.56,24.131.858q24.483.795,50.185,1.637l52.624.927c71.706.88,149.513.252,231.686-2.725s168.672-8.261,257.664-16.219,180.421-18.535,272.494-31.678c92.088-13.127,184.806-28.79,276.488-46.582,91.631-17.88,182.153-37.942,270.183-59.449,88.071-21.448,173.363-44.706,254.957-68.472,81.621-23.753,159.158-48.493,231.875-72.893,72.691-24.451,140.278-48.88,201.981-72.15,61.619-23.376,117.326-45.63,166.088-65.988s90.705-38.715,124.886-54.235c14.289-6.469,27.662-14.275,39.207-19.673H2259.219Q2241.486-239.906,2222.18-231.109Z" fill="#fff" opacity="0.3"/><path d="M2451.144,183.962c-1.727.311,1.768.622,0,.941-9.948,1.877-26.242,3.56-37.379,5.361q-16.672,2.713-34.892,5.675c-12.095,2.056-24.833,3.829-38.018,5.749s-26.838,3.9-40.935,5.947c-14.16,1.9-28.821,3.722-43.885,5.677l-22.915,2.944c-7.748.989-15.668,1.788-23.649,2.71q-23.969,2.676-49.151,5.492-25.256,2.427-51.678,4.972c-70.467,6.4-147.155,11.774-228.472,15.168-81.324,3.416-167.265,4.859-256.05,3.886-88.792-.955-180.414-4.318-273.08-10.113s-186.357-14-279.385-24.357c-93.008-10.448-185.311-23.1-275.389-37.342-90.1-14.177-177.823-30.331-261.973-47.238S369.785,94.379,294.266,76.206C218.771,57.979,148.3,39.4,83.838,21.524,19.455,3.539-38.9-13.783-90.031-29.759s-95.142-30.491-130.945-42.8q-25.24-8.645-44.955-15.7v83.8c35.829,11.056,78.5,23.7,127.21,37.413C-85.166,48.034-24.247,64.27,42.79,81c67.11,16.621,140.323,33.78,218.567,50.438,78.276,16.606,161.379,33.052,248.244,48.108,86.85,15.068,177.214,29.258,269.826,41.377,92.58,12.182,187.249,22.686,282.414,30.921,95.19,8.142,190.831,14.083,285.166,17.586,94.33,3.519,187.347,4.589,277.229,3.3,89.882-1.274,176.619-4.919,258.438-10.426,81.833-5.488,158.738-12.845,229.207-21.068l51.642-6.309q25.119-3.462,49.05-6.759c7.962-1.132,15.85-2.134,23.562-3.322s15.329-2.374,22.836-3.534c14.984-2.342,29.583-4.541,43.66-6.806q21.015-3.62,40.677-7c13.081-2.258,25.743-4.355,37.729-6.722q18.043-3.423,34.595-6.566c11.024-2.086,25.663-4.036,35.512-6.168,1.238-.259-1.216-.509,0-.761Z" fill="#fff" opacity="0.3"/><path d="M2451.144,669.154c-9,2.557-19.054,5.018-29.1,7.618q-15.922,4.133-33.283,8.638c-11.515,3.082-23.733,5.941-36.349,8.985s-25.7,6.183-39.207,9.429c-13.6,3.11-27.711,6.183-42.187,9.42l-22.03,4.9c-7.454,1.649-15.115,3.128-22.817,4.732q-23.15,4.722-47.45,9.7-24.484,4.594-50.079,9.4c-68.39,12.437-143.163,24.4-223.008,34.808-79.829,10.432-164.718,19.314-252.972,26.032-88.262,6.74-179.893,11.349-273.126,13.614-93.221,2.292-188.031,2.268-282.678.056-94.644-2.3-189.106-6.86-281.721-13.18-92.635-6.262-183.351-14.695-270.705-24.185C457.07,769.638,373.2,758.586,294.1,747.087c-79.09-11.545-153.274-23.881-221.342-36.033-68.015-12.276-129.9-24.414-184.333-35.848s-101.472-22.03-139.881-31.163q-7.461-1.761-14.478-3.451v58.56c36.615,7.777,79.7,16.478,128.436,25.7C-81.406,735.472-17.788,746.641,52,757.819c69.834,11.057,145.828,22.17,226.694,32.388,80.885,10.155,166.527,19.77,255.6,27.7s181.422,14.753,275.584,19.327c94.139,4.633,190.006,7.441,285.89,7.969,95.879.435,191.773-1.343,285.865-5.43s186.386-10.476,275.1-18.952,173.814-19.015,253.681-31.035c79.884-12.01,154.493-25.458,222.579-39.246q25.469-5.315,49.831-10.4,24.151-5.442,47.165-10.631c7.644-1.754,15.257-3.382,22.665-5.176L2274.513,719c14.369-3.522,28.364-6.87,41.827-10.242q20.08-5.276,38.853-10.2c12.488-3.285,24.582-6.375,35.982-9.687q17.161-4.84,32.9-9.279c9.306-2.622,18.66-5.107,27.069-7.662Z" fill="#fff" opacity="0.3"/><path d="M2451.144-231.153c-9,2.556-19.054,5.02-29.1,7.62q-15.922,4.128-33.283,8.636c-11.515,3.084-23.733,5.941-36.349,8.986s-25.7,6.18-39.207,9.43c-13.6,3.106-27.711,6.181-42.187,9.417l-22.03,4.9c-7.454,1.653-15.115,3.129-22.817,4.734q-23.15,4.727-47.45,9.692-24.484,4.6-50.079,9.4c-68.39,12.438-143.163,24.4-223.008,34.811-79.829,10.429-164.718,19.31-252.972,26.034S1472.773-86.152,1379.54-83.882c-93.221,2.289-188.031,2.265-282.678.055-94.644-2.305-189.106-6.861-281.721-13.183-92.635-6.263-183.351-14.692-270.705-24.184C457.07-130.669,373.2-141.723,294.1-153.218c-79.09-11.546-153.274-23.879-221.342-36.037C4.746-201.53-57.142-213.667-111.572-225.1c-39.01-8.2-74.2-15.956-105.169-23.061h-49.19v47.006c36.615,7.778,79.7,16.482,128.436,25.706C-81.406-164.836-17.788-153.665,52-142.49c69.834,11.061,145.828,22.17,226.694,32.391,80.885,10.155,166.527,19.771,255.6,27.7,89.068,7.948,181.422,14.756,275.584,19.326,94.139,4.637,190.006,7.444,285.89,7.971,95.879.437,191.773-1.346,285.865-5.428s186.386-10.475,275.1-18.954c88.71-8.464,173.814-19.016,253.681-31.036,79.884-12.008,154.493-25.456,222.579-39.247q25.469-5.309,49.831-10.393,24.151-5.442,47.165-10.631c7.644-1.755,15.257-3.383,22.665-5.179q11.075-2.7,21.864-5.331c14.369-3.523,28.364-6.871,41.827-10.245q20.08-5.27,38.853-10.194c12.488-3.291,24.582-6.379,35.982-9.69q17.161-4.839,32.9-9.28c9.306-2.619,18.66-5.107,27.069-7.661Z" fill="#fff" opacity="0.3"/><path d="M2451.144,898.984c-1.066.244,1.086.487,0,.736-9.709,2.327-23.745,4.493-34.646,6.809q-16.3,3.464-34.125,7.254c-11.812,2.61-24.315,4.971-37.229,7.487s-26.3,5.116-40.122,7.811c-13.9,2.544-28.31,5.041-43.1,7.68q-11.108,1.968-22.527,3.985c-7.6,1.346-15.4,2.506-23.258,3.8q-23.6,3.766-48.386,7.735-24.922,3.579-50.977,7.338c-69.559,9.625-145.454,18.506-226.235,25.635s-166.416,12.533-255.2,15.645c-88.79,3.133-180.708,3.985-273.982,2.451s-187.865-5.408-282.067-11.478c-94.2-6.165-187.966-14.559-279.694-24.647-91.763-10.016-181.387-22.127-267.532-35.148-86.17-13.011-168.679-27.472-246.372-42.162-77.675-14.744-150.381-30.073-217-44.98C2.129,829.906-58.33,815.267-111.417,801.648c-53.09-13.643-98.894-26.146-136.246-36.822q-9.509-2.7-18.268-5.244v60.193c35.264,9.121,76.61,19.372,123.35,30.357C-87.754,863-25.469,876.746,42.973,890.744c68.494,13.884,143.131,28.07,222.734,41.55,79.62,13.44,164.054,26.514,252.088,38.061,88.018,11.571,179.449,22.122,272.913,30.522,93.436,8.469,188.8,15.172,284.414,19.606,95.637,4.354,191.5,6.481,285.83,6.238,94.321-.225,187.095-2.847,276.507-7.683s175.474-11.89,256.448-20.632c80.987-8.7,156.879-19.073,226.289-30.067q25.968-4.252,50.834-8.339,24.681-4.44,48.2-8.677c7.826-1.44,15.595-2.754,23.165-4.245s15.037-2.975,22.4-4.429c14.7-2.928,29.028-5.7,42.828-8.517l39.859-8.588c12.816-2.774,25.217-5.359,36.926-8.194q17.653-4.131,33.828-7.921c10.79-2.521,23.307-4.885,32.914-7.4.6-.154-.6-.3,0-.453Z" fill="#fff" opacity="0.3"/><path d="M2451.144,487.469c-9.538,1.689-20.187,3.464-31.09,5.322-39.565,6.773-87.963,14.5-143.836,22.621s-119.26,16.482-188.786,24.626c-69.558,8.025-145.235,15.857-225.645,22.611-80.422,6.7-165.531,12.693-253.872,16.9-88.319,4.214-179.83,7.176-272.911,7.868-93.062.758-187.691-.352-282.169-3.7-94.458-3.452-188.738-9.087-281.083-16.926s-182.766-17.874-269.49-29.848S332.493,511.082,254.7,495.946,104.392,464.458,38.307,448q-24.708-6.307-48.355-12.35-23.4-6.38-45.7-12.475c-7.41-2.054-14.805-3.983-21.96-6.071s-14.207-4.157-21.159-6.191c-13.9-4.088-27.457-7.987-40.5-11.894q-19.4-6.059-37.534-11.726c-12.087-3.78-23.793-7.357-34.766-11.114q-16.572-5.517-31.768-10.581c-7.8-2.6-15.34-5.081-22.495-7.578v3.556c6.281,2.351,12.832,4.706,19.6,7.156q14.925,5.4,31.216,11.3c10.786,4.009,22.313,7.846,34.2,11.9s24.235,8.252,36.971,12.589c12.857,4.2,26.226,8.415,39.938,12.823q10.3,3.3,20.891,6.683c7.066,2.254,14.374,4.355,21.692,6.581q22.045,6.607,45.194,13.546,23.4,6.589,47.878,13.475c65.49,18.014,137.542,36.1,215.084,53.067,77.518,16.976,160.512,32.841,247.432,46.853s177.757,26.2,270.779,36.181,188.21,17.8,283.766,23.4c95.575,5.514,191.515,8.751,286.038,10.056,94.541,1.375,187.646.413,277.666-1.9s176.921-6.475,259.169-11.5c82.243-5.08,159.77-11.356,231.17-17.978,71.372-6.739,136.6-13.862,194.241-20.911s112.969-13.877,154.145-19.96c1.621-.239-1.587-.473,0-.707Z" fill="#fff" opacity="0.3"/><path d="M2178.8,497.682q-.662-7.107-1.517-14.189c-2.2-17.932-6.677-45.409-20.74-58.568-6.916-6.464-18.229-6.474-26.416-1.953a25.628,25.628,0,0,0-10.468,10.637c-13.417,24.474-9.435,61.352-8.61,87.8,3.2,102.773,23.35,137.043,40.2,137.735,32.5,1.343,29.788-55.663,30.034-76.683C2181.6,554.281,2181.374,525.817,2178.8,497.682Z" fill="url(#d)"/><path d="M2125.536,616.705c3.462,22.957,17.872,42.894,31.906,40.7,11.439-1.782,14.09-12.526,15.706-17.218,8.992-26.124,7.316-59.378,6.433-84.144-3.4-95.751-15.645-121.009-19.828-124.454,14.977,30.071,9.8,111.58-3.934,167C2149.767,623.042,2136.061,647.333,2125.536,616.705Z" fill="url(#e)"/><path d="M2136.809,780.82l47.826-5.738c-3.442-6.352-17.3-14.047-18.456-17.486-3.056-34.255-5.364-66.735-8.428-100.993-.246-2.839-6.424-2.994-6.17-.125,2.947,33.1,3.283,70.283,6.235,103.378C2151.409,770.463,2136.809,780.82,2136.809,780.82Z" fill="url(#f)"/><path d="M2138.442,779.342s25.827-17.409,24.678-20.854c-3.053-34.255-8.29-97.143-10.42-100.616,2.95,33.116,3.473,68.19,6.426,101.287C2152.719,769.758,2138.442,779.342,2138.442,779.342Z" fill="url(#g)"/><path d="M2119.658,605.1c11.108-12.294,38.054-22.476,61.646-25.882-.01,1.078-.015,2.159-.027,3.237-.121,10.319.461,29.308-2.752,45.812-21.768-1.529-39.451,13.836-44.085,18.284C2128.926,637.959,2123.761,624.562,2119.658,605.1Zm-8.153-72.054q.543,11.8,1.387,22.32c11.5.068,42.244,1.788,68.474,16.9q.079-13.206-.137-26.454C2165.574,538.7,2137.511,528.623,2111.5,533.051Zm.243-74.707c12.09-3.488,37.382-8.706,61.062-.488a106.6,106.6,0,0,0-5.152-15.871c-13.089-3.1-34.967-6.716-51.165-1.477A86.549,86.549,0,0,0,2111.748,458.344Zm-.825,59.807c11.516-9.178,38.463-27.552,67.353-25.344-.318-3.105-.622-6.217-1-9.314-.69-5.608-1.6-12.155-2.96-18.9-23.407,3.623-51.311,13.041-64.45,23.172C2109.949,498.4,2110.569,508.823,2110.923,518.151Z" fill="url(#h)"/><path d="M2176.441,628.224c-18.555-.4-33.831,11.043-40.1,16.588a67.742,67.742,0,0,1-10.807-28.107c10.525,30.628,24.231,6.337,30.283-18.113,1.148-4.633,2.231-9.46,3.252-14.415a157.021,157.021,0,0,1,21.193-4.785C2180.476,595.353,2179.871,612.54,2176.441,628.224Zm-10.431-88.5c-.892,8.11-1.978,16.193-3.237,24.107a112.762,112.762,0,0,1,17.334,7.76c-.149-5.43-.347-10.654-.526-15.544-.135-3.847-.294-7.54-.456-11.163C2175.309,543.2,2170.883,541.422,2166.01,539.721Zm-.96-98.335c-.552-.121-1.131-.241-1.705-.359a113.477,113.477,0,0,1,3.182,14.991c.967.246,1.934.5,2.9.784A127.145,127.145,0,0,0,2165.05,441.386Zm10.143,51.317c-1.251-10.935-2.629-20.036-4.052-27.576-1.138.195-2.284.41-3.442.632.789,8.351,1.143,17.474,1.11,27.064C2170.919,492.679,2173.049,492.645,2175.193,492.7Z" fill="url(#i)"/><path d="M2287.7,441.49q-.123-9.675-.518-19.334c-1.03-24.464-4.123-62.079-21.707-81.367-8.643-9.485-23.932-10.715-35.481-5.49a34.831,34.831,0,0,0-15.3,13.238c-20.761,31.623-19.357,81.879-21.094,117.7-6.752,139.207,16.772,187.684,39.468,190.437,43.771,5.309,46.246-72,48.841-100.38C2285.394,518.267,2288.151,479.781,2287.7,441.49Z" fill="url(#j)"/><path d="M2202.907,596.561c2.21,31.4,19.526,59.883,38.73,58.435,15.645-1.174,20.38-15.4,23.077-21.577,14.963-34.317,16.28-79.437,17.756-112.988,5.724-129.741-8.09-165.188-13.368-170.292,16.989,42.241,1.209,151.817-23.323,225.217C2234.967,607.732,2213.827,639.081,2202.907,596.561Z" fill="url(#k)"/><path d="M2205.616,791.065l52.571-2.092c-3.191-7.222-17.624-16.791-18.569-20.641-.355-37.567.671-81.36.316-118.92-.029-3.111-6.745-3.816-6.715-.68.339,36.3-3.25,85.031-2.905,121.34C2222.417,781.054,2205.616,791.065,2205.616,791.065Z" fill="url(#l)"/><path d="M2207.526,789.6s29.634-16.711,28.679-20.561c-.355-37.567.13-114.728-1.889-118.674.34,36.3-2.858,82.759-2.518,119.062C2223.907,780.41,2207.526,789.6,2207.526,789.6Z" fill="url(#m)"/><path d="M2201.908,378.976a104.982,104.982,0,0,1,11.4-28.1c24.151-5.235,48.027,1.346,62.746,7.144a125.743,125.743,0,0,1,7.509,26.9C2252.429,369.764,2215.585,375.867,2201.908,378.976Zm84.255,26.686c-.412-4.907-.955-10-1.705-15.139C2281.008,394.1,2283.011,400.167,2286.163,405.662ZM2193.1,542.755a426.185,426.185,0,0,0,4.4,46.423c8.73-5.5,39.442-20.144,79.226,13.44,3.222-17.693,4.2-35.538,5.183-46.32q.453-4.957.881-9.929C2258.083,538.65,2210.332,526.649,2193.1,542.755Zm.5-76.514c-.919,19-1.259,36.26-1.131,52,14.957-21.719,45.329-53.2,95.063-51.488.184-8.425.266-16.849.164-25.26q-.123-9.675-.518-19.334c-.1-2.332-.227-4.814-.369-7.359-18.012-5.782-61.6-16.849-90.691-.138C2194.525,432.77,2194.351,450.837,2193.6,466.241Z" fill="url(#n)"/><path d="M2270.856,467.462a503.127,503.127,0,0,0,5.169-55.787c2.253.591,4.368,1.178,6.293,1.744.989,14.507,1.58,32.049,1.51,53.278A106.5,106.5,0,0,0,2270.856,467.462Zm3.832,133.5c3.826-18.2,5.551-37.314,6.571-55.063-7.014-2.159-15.648-4.571-24.874-6.612-3.271,12.625-6.834,24.776-10.606,36.067-.924,2.771-1.933,5.534-3,8.247C2252.405,586.3,2263.154,591.626,2274.688,600.964Zm-1.835-244.154c-.553-.2-1.127-.4-1.7-.607a127.592,127.592,0,0,1,4.3,25.327c1.223.449,2.444.919,3.662,1.429C2277.163,370.266,2274.891,361.963,2272.853,356.81Z" fill="url(#o)"/><path d="M2381.14,504.718q.786-7.563,1.349-15.132c1.411-19.181,2.4-48.808-9.577-65.449-5.881-8.175-17.7-10.52-27.178-7.495a27.4,27.4,0,0,0-13.136,8.949c-19.059,22.79-22.513,62.128-27.109,89.919-17.867,107.995-3.9,147.943,13.557,152.148,33.669,8.1,42.6-51.987,47.189-73.9C2372.4,564.4,2378.028,534.631,2381.14,504.718Z" fill="url(#p)"/><path d="M2381.14,504.718q.786-7.563,1.349-15.132c1.411-19.181,2.4-48.808-9.577-65.449-5.881-8.175-17.7-10.52-27.178-7.495a27.4,27.4,0,0,0-13.136,8.949c-19.059,22.79-22.513,62.128-27.109,89.919-17.867,107.995-3.9,147.943,13.557,152.148,33.669,8.1,42.6-51.987,47.189-73.9C2372.4,564.4,2378.028,534.631,2381.14,504.718Z" fill="url(#p)"/><path d="M2300.955,618.03c-1.124,24.691,9.813,48.482,24.925,49.088,12.314.5,17.3-10.165,19.963-14.741,14.774-25.422,19.886-60.505,24.078-86.544,16.21-100.706,8.636-129.614,4.979-134.069,9.432,34.492-12.8,118.551-38.58,173.6C2324.956,629.642,2305.63,652.184,2300.955,618.03Z" fill="url(#r)"/><path d="M2276.98,797.727l51.131,3.877c-2.282-7.346-15.173-18.241-15.657-22.074,3.871-36.407,9.786-78.683,13.662-115.092.318-3.016-6.1-4.449-6.426-1.412-3.751,35.187-12.695,81.961-16.444,117.143C2294.367,789.919,2276.98,797.727,2276.98,797.727Z" fill="url(#s)"/><path d="M2278.992,796.519s30.567-12.848,30.08-16.68c3.874-36.415,13.006-111.06,11.5-115.109-3.753,35.181-12.066,79.8-15.814,114.983C2295.879,789.456,2278.992,796.519,2278.992,796.519Z" fill="url(#t)"/><path d="M2358.777,626.793a115.494,115.494,0,0,1-9.017,23.063c-25.381-12.828-43.052-12.131-49.309-11.26a138.607,138.607,0,0,1-2.3-15.65C2312.661,618,2343.8,623.6,2358.777,626.793Zm-47.464-147.2c11.51.118,41.006,2.253,70.365,19.1.28-3.032.586-6.064.811-9.1.456-6.209.861-13.513.8-21.113-10.2-14.076-28.087-32.234-55.352-36.429C2319.335,445.395,2314.571,462.56,2311.313,479.59Zm58.246,97.915c4.547-22.73,8.542-45.672,11.116-68.708-38.064,5.625-64.5,22.455-79.831,38.954a452.777,452.777,0,0,0-3.643,52.072C2308.4,590.517,2337.012,570.568,2369.559,577.505Z" fill="url(#u)"/><path d="M2377.454,509.342c-1.556,15.7-3.97,34.359-7.533,56.491-.583,3.645-1.2,7.48-1.843,11.429a66.933,66.933,0,0,0-19.579-.746,525.339,525.339,0,0,0,20.274-65.5C2371.59,510.394,2374.492,509.837,2377.454,509.342Zm-75.819,112.694c-.246.051-.5.092-.746.148a76.261,76.261,0,0,0,1.88,16.166c7.458-.6,23.258,0,44.977,10.536a140.556,140.556,0,0,0,9.33-22.447,289,289,0,0,0-29.956-4.728C2317.143,636.309,2305.859,643.2,2301.635,622.036ZM2379.871,464c-.96-1.2-1.956-2.4-3.017-3.621a261.163,261.163,0,0,1-4.41,33.5c2.031.965,4.07,2.007,6.113,3.107C2379.613,483.57,2379.963,472.735,2379.871,464Z" fill="url(#v)"/><path d="M203.19,672.226q.684-8.544,1.621-17.042c2.381-21.536,7.379-54.554,24.068-70.528,8.2-7.844,21.766-8.008,31.651-2.711a30.862,30.862,0,0,1,12.7,12.616c16.422,29.163,12.162,73.451,11.535,105.18-2.429,123.3-26.115,164.682-46.319,165.746-38.961,2.045-36.489-66.349-37.073-91.562C200.6,740.136,200.481,706,203.19,672.226Z" fill="url(#w)"/><path d="M203.19,672.226q.684-8.544,1.621-17.042c2.381-21.536,7.379-54.554,24.068-70.528,8.2-7.844,21.766-8.008,31.651-2.711a30.862,30.862,0,0,1,12.7,12.616c16.422,29.163,12.162,73.451,11.535,105.18-2.429,123.3-26.115,164.682-46.319,165.746-38.961,2.045-36.489-66.349-37.073-91.562C200.6,740.136,200.481,706,203.19,672.226Z" fill="url(#w)"/><path d="M268.7,814.238c-3.843,27.578-20.847,51.685-37.715,49.244-13.74-1.975-17.069-14.82-19.073-20.433-11.139-31.2-9.584-71.111-8.874-100.82,2.767-114.887,17.1-145.348,22.066-149.53-17.541,36.262-10.211,133.952,7.02,200.227C239.725,822.162,256.5,851.108,268.7,814.238Z" fill="url(#y)"/><path d="M258.291,1018.221,200.852,1012c4.038-7.668,20.562-17.083,21.888-21.236,3.2-41.123,5.346-89.164,8.544-130.294.266-3.406,7.671-3.674,7.406-.239-3.088,39.743-2.8,93.4-5.891,133.135C240.634,1005.991,258.291,1018.221,258.291,1018.221Z" fill="url(#z)"/><path d="M256.313,1016.465S225.09,995.949,226.422,991.8c3.2-41.128,8.44-125.691,10.941-129.867-3.083,39.738-3.054,90.874-6.136,130.617C239.049,1005.166,256.313,1016.465,256.313,1016.465Z" fill="url(#aa)"/><path d="M270.8,820.258a156.437,156.437,0,0,1-5.773,16.862c-6.751-2.249-26.184-6.658-56.939,2.33a130.139,130.139,0,0,1-5.239-27.4C220.092,811.594,255.739,811.792,270.8,820.258Zm6.267-217.592c-31.064-.965-54.622,15.476-68.8,28.965-1.626,8.409-2.678,16.586-3.452,23.553-.379,3.41-.661,6.833-.972,10.249,35.985-12.618,69.094-8.913,81.869-6.675C285.6,639.222,283.855,619.228,277.068,602.666Zm-.461,192.175a510.046,510.046,0,0,0,6.669-58.432c-13.6-21.432-39.41-45.508-80.412-59.569-1.884,26.042-2.18,52.282-1.819,78.4C238.521,754.244,266.107,782.223,276.607,794.841Z" fill="url(#ab)"/><path d="M215.591,681.749a592.922,592.922,0,0,0,8.983,76.722,75.265,75.265,0,0,0-21.835-3.2c.091-4.509.2-8.882.3-13.041.607-25.25,1.773-46.415,3.28-64.125C209.5,679.262,212.6,680.478,215.591,681.749Zm23.374,131.179A326.784,326.784,0,0,0,204.8,812a159.221,159.221,0,0,0,5.724,26.782c26.227-7.2,43.848-4.614,51.989-2.417a85.774,85.774,0,0,0,5.4-17.519c-.256-.111-.531-.212-.8-.319C258.089,841.109,247.007,831.152,238.965,812.928ZM207.64,664.2q3.738-1.2,7.411-2.188A293.731,293.731,0,0,1,217.062,624c-1.433,1.128-2.783,2.26-4.091,3.391C211.075,637.042,209.232,649.115,207.64,664.2Z" fill="url(#ac)"/><path d="M110.323,636.977c-.139-6.73-.212-13.451-.168-20.171.176-25.545,2.007-64.863,19.625-85.628,8.66-10.2,24.556-12.051,36.783-7.029A36.3,36.3,0,0,1,183,537.39c22.807,32.19,23.205,84.641,26.329,121.914,12.181,144.868-10.556,196.269-34.106,199.974-45.429,7.159-50.87-73.347-54.621-102.831C115.57,716.923,111.269,676.91,110.323,636.977Z" fill="url(#ad)"/><path d="M204.447,795.5c-1.134,32.808-18.142,63.144-38.214,62.343-16.355-.651-21.816-15.308-24.858-21.632-16.853-35.233-19.9-82.215-22.681-117.14-10.754-135.032,2.335-172.49,7.656-178.012-16.159,44.662,4.347,158.3,32.62,233.916C171.438,808.333,194.627,840.226,204.447,795.5Z" fill="url(#ae)"/><path d="M215.243,1027.831l-68.1-.294c3.8-9.483,22.026-22.532,23.08-27.562-1.266-48.6-3.288-94.6-4.552-143.206-.115-4.028,8.544-5.244,8.653-1.182,1.232,46.982,6.79,99.249,8.006,146.212C193.049,1015.649,215.243,1027.831,215.243,1027.831Z" fill="url(#af)"/><path d="M212.706,1026.015s-39.092-20.248-38.04-25.278c-1.271-48.612-4.118-137.783-1.7-143.008,1.235,46.992,6.187,96.333,7.413,143.3C191.093,1014.885,212.706,1026.015,212.706,1026.015Z" fill="url(#ag)"/><path d="M196.781,838.873c-7.227-5.5-34.56-24.206-64.883-18.523-7.2-22.66-9.456-49.425-11.3-63.9-.188-1.508-.377-3.025-.565-4.538,33.691.953,73.183,10.882,90.778,26.349C208.214,806.249,203.137,825.9,196.781,838.873Zm-82.058-133.9q1.821,18.634,4.1,37.181c34.388-25.477,77.286-32.885,93.424-34.841q-.507-14.914-1.665-31.576C173.327,673.733,135.555,692.437,114.723,704.971ZM188.55,546.563c-23.6-4.727-53.738,3.9-71.622,10.382a151.481,151.481,0,0,0-4.655,23.123c31.927-15.38,68.3-12.157,85.839-9.219A122.343,122.343,0,0,0,188.55,546.563Zm16.982,65.3c-20.1-12.1-60.818-20.8-94.3-22.091-.81,9.695-1.023,19.037-1.08,27.031-.027,4.409.055,8.824.111,13.238,40.22-7.787,81.044,13.643,98.711,24.667C207.963,641.555,207.138,626.821,205.532,611.866Z" fill="url(#ab)"/><path d="M121.521,751.975a221.937,221.937,0,0,1,30.543,3.285c2.238,6.793,4.547,13.4,6.906,19.717,12.468,33.356,35.657,65.249,45.477,20.525-.533,15.255-4.518,29.928-10.624,41.227-9.7-6.769-33.008-20.366-59-16.789C127.455,798.469,123.812,774.427,121.521,751.975Zm-4-48.654c.352,5.116.736,10.327,1.168,15.752.545,6.893,1.112,14.268,1.79,21.919a159.142,159.142,0,0,1,23.082-13.713c-3.054-10.913-5.889-22.091-8.45-33.336C128.54,697.122,122.611,700.344,117.526,703.321Zm-.673-125.279c1.315-.554,2.622-1.071,3.951-1.57a159.37,159.37,0,0,1,2.034-21.577c-.786.265-1.587.526-2.34.787A179.81,179.81,0,0,0,116.853,578.042Zm6.711,50.494c-1.6-13.469-2.583-26.338-2.834-38.194-1.658-.123-3.31-.239-4.936-.335-.776,10.825-1.235,23.827-1.208,39.393C117.584,628.973,120.575,628.669,123.564,628.536Z" fill="url(#ai)"/><path d="M299.375,723.8q1.032-7.105,2.244-14.173c3.111-17.894,9-45.263,23.779-57.765,7.268-6.144,18.636-5.584,26.625-.627a25.8,25.8,0,0,1,9.982,11.207c12.23,25.251,6.378,62.087,4.207,88.6-8.4,103.046-30.36,136.442-47.313,136.286-32.7-.29-27.1-57.4-26.287-78.522C293.7,780.491,295.371,751.921,299.375,723.8Z" fill="url(#aj)"/><path d="M346.857,846.006c-4.634,22.882-20.113,42.177-34.094,39.263-11.4-2.366-13.513-13.289-14.91-18.082-7.7-26.688-4.344-60-2.212-84.824,8.26-95.975,21.821-120.72,26.2-123.971-16.56,29.438-15.472,111.553-4.477,167.9C322.2,851.146,334.738,876.235,346.857,846.006Z" fill="url(#ak)"/><path d="M327.26,1010.241l-47.742-8.175c3.773-6.2,18.087-13.228,19.414-16.634,4.795-34.238,8.76-66.745,13.561-100.985.386-2.84,6.609-2.678,6.2.183-4.632,33.1-6.846,70.411-11.485,103.5C313.115,999.1,327.26,1010.241,327.26,1010.241Z" fill="url(#al)"/><path d="M325.687,1008.666s-25.053-18.778-23.726-22.177c4.8-34.246,13.231-97.136,15.537-100.508-4.629,33.1-6.928,68.3-11.562,101.386C311.832,998.335,325.687,1008.666,325.687,1008.666Z" fill="url(#am)"/><path d="M336.407,875.536c-4.424-4.7-21.41-21.022-43.344-20.583-2.4-16.738-.852-35.775-.451-46.148.041-1.08.091-2.166.135-3.249,23.518,4.61,50.062,16.193,60.6,29.1C348.241,853.988,342.384,867.18,336.407,875.536Zm-41.9-103.528q-.9,13.282-1.471,26.56c27.1-13.848,58.061-14.029,69.608-13.513q1.386-10.523,2.526-22.341C339.275,756.951,310.587,765.652,294.507,772.008Zm70.32-102.482c-16-6.076-38.151-3.546-51.456-1.095a107.844,107.844,0,0,0-5.97,15.677c24.2-7.056,49.329-.543,61.293,3.572A86.972,86.972,0,0,0,364.827,669.526Zm4.27,47.793c-12.683-10.838-40.228-21.707-63.561-26.525-1.7,6.709-2.943,13.236-3.917,18.833-.536,3.092-.994,6.2-1.472,9.3,29.127-.758,55.254,19.051,66.354,28.849C367.331,738.43,368.479,728,369.1,717.319Z" fill="url(#ab)"/><path d="M293.779,805.776a157.531,157.531,0,0,1,21.044,5.876c.774,5.027,1.616,9.928,2.538,14.639,4.843,24.855,17.377,49.944,29.5,19.715a68.111,68.111,0,0,1-12.269,27.677c-6.021-5.881-20.778-18.149-39.429-18.677C292.51,839.083,292.761,821.793,293.779,805.776Zm2.89-34.6c-.355,3.633-.692,7.333-1.028,11.185-.419,4.9-.883,10.141-1.3,15.588a113.065,113.065,0,0,1,17.792-6.921c-.869-8.011-1.549-16.183-2.031-24.37C305.116,768.117,300.584,769.685,296.669,771.178Zm14.183-87.958c.982-.234,1.964-.441,2.958-.639a113.338,113.338,0,0,1,3.944-14.9c-.579.1-1.173.183-1.73.279A127.774,127.774,0,0,0,310.852,683.22Zm-1.2,36.205c.456-9.634,1.264-18.777,2.48-27.123-1.148-.28-2.287-.555-3.421-.81-1.813,7.5-3.654,16.571-5.456,27.489C305.406,719.034,307.543,719.171,309.651,719.425Z" fill="url(#ao)"/><path d="M19.507,687.3q-.365-9.165-.465-18.33c-.232-23.217.834-58.985,16.538-78.118,7.709-9.408,22.127-11.325,33.317-6.95A33.017,33.017,0,0,1,84.04,595.685c21.218,28.917,22.371,76.567,25.787,110.405,13.271,131.471-6.605,178.54-27.955,182.264-41.188,7.193-47.351-65.886-51.213-92.632C25.483,759.886,20.972,723.583,19.507,687.3Z" fill="url(#ap)"/><path d="M107.453,829.941c-.54,29.846-15.527,57.668-33.78,57.241C58.8,886.846,53.608,873.616,50.752,867.9c-15.862-31.754-19.333-74.411-22.389-106.1-11.839-122.562-.507-156.808,4.235-161.9C18.6,640.725,38.962,743.7,65.819,811.98,77.655,842.1,99.218,870.74,107.453,829.941Z" fill="url(#aq)"/><path d="M114.506,1014.238l-49.881.623c2.665-7,15.855-16.772,16.564-20.463-1.524-35.589-4.66-77-6.18-112.586-.125-2.947,6.195-3.951,6.33-.972,1.466,34.388,7.27,80.352,8.741,114.74C98.1,1005.593,114.506,1014.238,114.506,1014.238Z" fill="url(#ar)"/><path d="M112.625,1012.953S83.739,998.586,84.448,994.9c-1.52-35.584-5.787-108.62-4.069-112.458,1.471,34.388,6.792,78.217,8.264,112.6C96.661,1005.055,112.625,1012.953,112.625,1012.953Z" fill="url(#as)"/><path d="M20.629,633.534a119.122,119.122,0,0,1,5.78-25.837c13.648-6.216,35.931-13.628,59.05-9.865a99.337,99.337,0,0,1,12.186,26.042C84.542,621.6,49.363,617.648,20.629,633.534Zm-.576,5.351c-.451,4.906-.714,9.752-.857,14.42C21.9,647.947,23.5,642.1,20.053,638.885Zm9.284,147.482c.439,3.122.873,6.243,1.322,9.355,1.471,10.165,3.273,27.011,7.2,43.605,36.012-33.764,65.812-21.42,74.353-16.642a402.26,402.26,0,0,0,1.87-44.172C96.972,764.113,52.352,777.833,29.337,786.367ZM104.9,657.374c-28.377-14.386-69.1-1.751-85.864,4.612-.009,2.417-.009,4.774.01,6.988q.094,9.165.465,18.33c.324,7.972.816,15.945,1.4,23.91,47.007-4.077,77.32,24.227,92.556,44.053-.654-14.909-1.831-31.23-3.64-49.177C108.36,691.54,107.3,674.445,104.9,657.374Z" fill="url(#ab)"/><path d="M24.419,710.982c-1.117-20.1-1.424-36.737-1.2-50.52,1.8-.633,3.771-1.294,5.874-1.964a475.638,475.638,0,0,0,7.649,52.564A101.94,101.94,0,0,0,24.419,710.982ZM69.056,819.643c-1.134-2.515-2.224-5.08-3.237-7.663-4.135-10.5-8.11-21.83-11.834-33.621-8.626,2.388-16.688,5.094-23.22,7.487,1.843,16.758,4.422,34.77,8.942,51.814C50.166,828.248,60.078,822.673,69.056,819.643ZM24.749,631.458c1.124-.541,2.258-1.043,3.392-1.535a120.871,120.871,0,0,1,2.819-24.191c-.533.219-1.068.441-1.584.66C27.707,611.369,25.965,619.344,24.749,631.458Z" fill="url(#au)"/><path d="M-246.675,1107.388H2470.4V886.076c-781.286,226.657-2249.246,159.348-2717.075,11.457Z" fill="url(#av)"/><path d="M-246.675,1107.388H2470.4V886.076c-781.286,226.657-2249.246,182.888-2717.075,34.995Z" fill="url(#aw)"/><path d="M712.624,1107.388H617.341c.833-41.943,29.8-69.724,53.654-85.543q44.793,2.3,90.447,4.149C740.509,1047.407,723.06,1082.907,712.624,1107.388Zm687.774-79.409c-125.168,4.419-251.153,5.847-375.185,4.629-34.706,13.11-71.328,35.744-96.717,74.78h455.946C1383.132,1085.114,1385.558,1055.917,1400.4,1027.979Zm914.924,79.409H2470.4V981.2c-22.274-30.14-50.9-59.509-87.441-71.444-48.458,12.005-99.049,23.039-151.449,33.134C2257.087,960.318,2308.958,1007.635,2315.322,1107.388ZM2061.566,971.546c5.328,22.749,7.8,78.369-69.36,135.842h204.405c1.46-44.334-6.452-110.512-59.072-147.71Q2100.036,965.894,2061.566,971.546Zm-393.46,42.117c2.487,15.725,4.265,52.274-20.776,93.725h212.175c-6.12-31.2-26.155-84.807-91.774-101.758Q1718.3,1010.016,1668.106,1013.663ZM-203.188,910.26a266.53,266.53,0,0,0-43.487,14.376v112.2c37.648-36.036,97.067-79.4,176.426-96.053C-119.409,931.154-163.959,920.951-203.188,910.26Zm101.078,197.128H303c44.929-32.813,112.5-76.457,178.672-97.532-85.217-6.459-166.8-14.152-243.535-22.913C131,992.653-9.368,1018.854-102.11,1107.388Z" fill="url(#ax)"/><path d="M1668.716,1018.321q54.723-4.491,108.606-9.818c57.989,19.471,76.377,69.263,82.183,98.885H1647.33C1670.178,1069.57,1670.692,1035.886,1668.716,1018.321Zm323.49,89.067h204.405c1.443-44-6.353-109.482-57.89-146.832q-37.919,6.51-76.83,12.481C2066.962,996.645,2067.755,1051.117,1992.206,1107.388Zm323.116,0H2470.4V981.2c-22.247-30.1-50.827-59.422-87.289-71.391q-72.456,18.1-150.935,33.549C2257.977,961.14,2309.011,1008.479,2315.322,1107.388Zm-1386.826,0h455.946c-1.19-20.282.742-46.3,12.3-71.886-132.583,6-266.054,8.735-397.114,8.532C973.284,1057.767,947.68,1077.889,928.5,1107.388ZM-241.675,922.62c-1.668.675-3.333,1.3-5,2.016v112.2c29.86-28.58,73.465-61.723,129.8-82.54C-163.737,944.4-205.572,933.808-241.675,922.62ZM652.115,1036.5c-18.024,16.429-34.153,39.745-34.774,70.884h95.283c8.386-19.676,21.312-46.456,36.929-67.334Q700.34,1038.552,652.115,1036.5Zm-754.225,70.884H303c36.048-26.332,86.69-59.608,139.477-82.629-105.4-7.42-204.82-16.842-295.792-28.03C59.388,1011.123-34.146,1042.508-102.11,1107.388Z" fill="url(#ay)"/></g></svg>