<svg xmlns="http://www.w3.org/2000/svg" width="457.917" height="646" viewBox="0 0 457.917 646"><g transform="translate(-4557.667 1175.23)"><g transform="translate(4557.667 -1175.23)"><g transform="translate(165.077 218.09)"><path d="M4717.239-915.253c-4.432,27.88,26.189,74.376,51.41,98.992,8.524-81.611,14.166-136.305,14.166-136.305s-16.854-10.192-31.773-5.728S4720.753-937.368,4717.239-915.253Z" transform="translate(-4716.808 965.187)" fill="#3c3b8a"/><path d="M4720.615-957.783l8.518,14.54a58.383,58.383,0,0,0-6.3,10.44c11.387,1.814,36.644-16.079,24.771-24.075a27.115,27.115,0,0,0-9.576,5.331l-9.437-13.432Z" transform="translate(-4716.666 964.98)" fill="#fbc09c"/><path d="M4724.759-937.776s-2.031,3.84-3.625,7.5c14.5.2,25.439-2.656,32.683-11.178s-2.937-16.886-2.937-16.886a21.88,21.88,0,0,0-6.763,2.559c2.931.912,5.941,8.452.6,12.57A28.379,28.379,0,0,1,4724.759-937.776Z" transform="translate(-4716.647 965.228)" fill="#fbfbf5"/><path d="M4726.413-950.653l3.308,5.992s3.553-5.347,8.954-4.977a62.661,62.661,0,0,0-4.58-6.972Z" transform="translate(-4716.45 965.292)" fill="#eba375"/></g><g transform="translate(204.762 142.669)"><path d="M4755.068-811.218a18.611,18.611,0,0,0,18.374,18.831l136.022,1.676A18.615,18.615,0,0,0,4928.3-809.09l2.565-208.088a18.617,18.617,0,0,0-18.376-18.834l-136.024-1.677a18.63,18.63,0,0,0-18.839,18.376l-2.561,208.1Z" transform="translate(-4755.067 1037.69)" fill="#252424"/><path d="M4776.468-1037.689a18.63,18.63,0,0,0-18.839,18.376l-2.561,208.1a18.535,18.535,0,0,0,3.485,11.069l83.975-236.722Z" transform="translate(-4755.067 1037.69)" fill="#292928"/><path d="M4844.064-1026.382a1.106,1.106,0,0,1-1.074-1.1,1.089,1.089,0,0,1,1.107-1.071,1.078,1.078,0,0,1,1.069,1.091A1.092,1.092,0,0,1,4844.064-1026.382Z" transform="translate(-4751.788 1038.031)" fill="#b0adac"/><path d="M4910.078-816.209l-137.2-1.679,2.425-196.451,137.208,1.692-2.432,196.438Z" transform="translate(-4754.403 1038.561)" fill="#f1f1f1"/><path d="M4773.168-842.1l2.123-172.243,57.752.708Z" transform="translate(-4754.393 1038.561)" fill="#fff"/><path d="M4910.078-823.007l-137.2-1.679.1-7.345,137.2,1.7-.091,7.329Z" transform="translate(-4754.403 1045.359)" fill="#d4d4d3"/><path d="M4921.82-826.929a.4.4,0,0,0,.388.385l.319,0a.389.389,0,0,0,.4-.38l-.249-7.4.423-7.389a.379.379,0,0,0-.381-.388l-.325-.013a.382.382,0,0,0-.389.389Z" transform="translate(-4748.849 1044.983)" fill="#252424"/><path d="M4923.551-956.964a.6.6,0,0,0,.593.6l.5.012a.606.606,0,0,0,.61-.591l-.387-11.5.672-11.5a.609.609,0,0,0-.6-.6h-.505a.6.6,0,0,0-.6.586Z" transform="translate(-4748.785 1039.821)" fill="#252424"/><path d="M4846.488-1017.985l-3.075-.032-3.169-.039-64.971-.8-.065,5.071,63.4.778,3.169.037,70.634.882.057-5.079Z" transform="translate(-4754.316 1038.392)" fill="#201f1e"/><g transform="translate(22.214 20.587)"><path d="M4837.1-1014.537a2.3,2.3,0,0,0,.307,0,1.194,1.194,0,0,0,.593-.176.92.92,0,0,0,.379-.547l-.012,0a.813.813,0,0,1-.6.2.877.877,0,0,1-.911-.935,1.093,1.093,0,0,1,1.133-1.061,1.141,1.141,0,0,1,1.109,1.3,1.849,1.849,0,0,1-.539,1.367,1.8,1.8,0,0,1-1.14.392c-.12,0-.241,0-.325,0Zm.45-1.492a.4.4,0,0,0,.409.47.412.412,0,0,0,.391-.177.422.422,0,0,0,.038-.178c0-.307-.107-.62-.437-.631C4837.725-1016.537,4837.556-1016.335,4837.554-1016.029Z" transform="translate(-4774.231 1017.873)" fill="#e9e8e9"/><path d="M4839.39-1015.884a.394.394,0,0,1,.412-.414.394.394,0,0,1,.4.435.394.394,0,0,1-.409.407A.4.4,0,0,1,4839.39-1015.884Zm-.008,1.474a.389.389,0,0,1,.4-.415.393.393,0,0,1,.4.426.393.393,0,0,1-.415.414A.381.381,0,0,1,4839.382-1014.41Z" transform="translate(-4774.137 1017.901)" fill="#e9e8e9"/><path d="M4842.679-1015.467c0,.915-.391,1.536-1.139,1.529-.769-.016-1.1-.705-1.094-1.541.018-.858.383-1.529,1.148-1.516C4842.386-1016.992,4842.693-1016.282,4842.679-1015.467Zm-1.542-.01c-.005.688.16,1.018.426,1.014s.413-.332.422-1.008c.011-.656-.13-1-.406-1.005C4841.34-1016.484,4841.146-1016.163,4841.138-1015.477Z" transform="translate(-4774.098 1017.875)" fill="#e9e8e9"/><path d="M4842.914-1013.969l.006-.417.384-.341c.659-.569.977-.912.989-1.256.008-.245-.142-.437-.476-.436a1.093,1.093,0,0,0-.637.23l-.2-.486a1.585,1.585,0,0,1,.973-.3.925.925,0,0,1,1.033.94,1.788,1.788,0,0,1-.812,1.269l-.267.225,0,.01,1.117.006,0,.583Z" transform="translate(-4774.005 1017.876)" fill="#e9e8e9"/><path d="M4847.072-1014.707l-.217.782-.718-.008.973-3.06.9.014.925,3.083-.751-.009-.226-.789Zm.8-.51-.191-.659c-.048-.184-.1-.414-.143-.588l-.006,0c-.058.176-.1.411-.151.593l-.2.65Z" transform="translate(-4773.885 1017.875)" fill="#e9e8e9"/><path d="M4851.841-1015.025c-.01-.386-.013-.826,0-1.28l-.011.008c-.1.388-.241.822-.361,1.188l-.4,1.19-.537-.005-.316-1.19c-.09-.368-.184-.806-.255-1.216l-.011.005c-.018.416-.042.892-.067,1.279l-.076,1.166-.635-.012.224-3.067.93,0,.282,1.038a9.822,9.822,0,0,1,.249,1.1l.017,0c.087-.354.2-.756.3-1.1l.348-1.02.906.018.138,3.07-.69-.006Z" transform="translate(-4773.772 1017.876)" fill="#e9e8e9"/><path d="M4905.729-1013.191l0-.817.273.01.007-1.187h-.264v-.6l-3.882-.051-.032,2.594Z" transform="translate(-4771.808 1017.918)" fill="#e9e8e9"/><rect width="2.163" height="1.937" transform="matrix(0.016, -1, 1, 0.016, 130.246, 4.461)" fill="#252424"/><path d="M4779.351-1017.843l-.044,3.061.491.009.039-3.056Z" transform="translate(-4776.377 1017.843)" fill="#e9e8e9"/><path d="M4778.392-1016.958l-.023,2.127.486,0,.032-2.125Z" transform="translate(-4776.413 1017.876)" fill="#e9e8e9"/><path d="M4777.442-1016.437l-.022,1.579.5,0,.009-1.586Z" transform="translate(-4776.447 1017.896)" fill="#e9e8e9"/><path d="M4776.5-1015.772l-.012.873.487.009.011-.875Z" transform="translate(-4776.483 1017.92)" fill="#e9e8e9"/><path d="M4899.984-1014.48a1.161,1.161,0,0,1-1.179,1.148,1.157,1.157,0,0,1-1.143-1.176,1.148,1.148,0,0,1,1.168-1.148A1.169,1.169,0,0,1,4899.984-1014.48Z" transform="translate(-4771.964 1017.925)" fill="#e9e8e9"/></g><g transform="translate(82.256 226.664)"><path d="M4847.552-812.5a6.583,6.583,0,0,1-6.665,6.5,6.612,6.612,0,0,1-6.52-6.672,6.6,6.6,0,0,1,6.683-6.5A6.583,6.583,0,0,1,4847.552-812.5Z" transform="translate(-4834.367 819.174)" fill="#201f1e"/><path d="M4847.552-812.736a6.583,6.583,0,0,1-6.665,6.5,6.612,6.612,0,0,1-6.52-6.672C4841.743-812.81,4840.454-812.832,4847.552-812.736Z" transform="translate(-4834.367 819.408)" fill="#272726"/><path d="M4838.341-809.878a.513.513,0,0,1-.409-.492l.064-4.766a.473.473,0,0,1,.152-.348.478.478,0,0,1,.351-.14l4.763.059a.513.513,0,0,1,.485.506l-.057,4.754a.5.5,0,0,1-.156.352.545.545,0,0,1-.354.132l-4.752-.047A.434.434,0,0,1,4838.341-809.878Zm4.943-5.475-.026-.007-4.772-.058a.288.288,0,0,0-.2.086.28.28,0,0,0-.093.2l-.068,4.75a.314.314,0,0,0,.3.3l4.749.065a.277.277,0,0,0,.208-.087.252.252,0,0,0,.079-.194l.065-4.761A.286.286,0,0,0,4843.284-815.353Z" transform="translate(-4834.234 819.307)" fill="#d3dbe5"/></g></g><g transform="translate(212.46 178.535)"><path d="M4762.518-921.244s41.149-5.51,61.43-55.289c-2.355,0-8.524-2.193-7.146-6.331,1.129.314,3.51,1.129,4.388,1.379,3.448-4.2-3.258-19.242,1.944-19.054.976.036,4.2,6.332,4.512,9.841.64-2.3.564-12.224,3.26-12.411,3.69-.257,3.384,9.779,3.009,12.537,2-1.631,4.011-11.219,6.894-9.34,1.127.736.251,9.026-1.5,12.474.737-.367,5.642-6.957,7.521-5.078,1.219,1.218-3.2,6.469-5.076,9.15a60.345,60.345,0,0,0-5.579,10.782s-23.219,55.684-70.668,63.538C4761.979-917.445,4762.518-921.244,4762.518-921.244Z" transform="translate(-4762.488 1003.114)" fill="#fbc09c"/><path d="M4763.509-923.557s6.96-1.022,11.466-3.28c-4.91,4.714-5.941,10.864,4.514,9.833-10.655,3.685-15.98,4.3-15.98,4.3Z" transform="translate(-4762.45 1005.958)" fill="#eba375"/></g><path d="M4732.706-916.1c12.675-8.087,23.352-5.268,39.148-14.312,7.932,4.966,16.176,25.115,7.043,29.754-14.21,6.5-29.785,9.076-45.392,3.328C4725.12-899.128,4729.116-913.809,4732.706-916.1Z" transform="translate(-4551.294 1184.359)" fill="#3c3b8a"/><path d="M4612.113-937.569c-4.351,16.866,9.666,29.819,20.932,14.795,3.491,27.5,22.887,14.588,27.875-3.729,14.129,19.663,26.506,3.928,24.384-12.454,15.335,14.2,30.894,4.255,32.607-15.1,9.912,17.141,31.683-5.119,26.268-15.223,9.737,13.6,26.521,9.659,28.576-8.348,5.444,8.519,23.583-8.812,16.152-15.54,12.514,2.438,28.061-13.237,20.053-21.683,6.944.256,11.75-8.552,6.316-11.342,12.8-6.093,20.042-27.413,9.885-31.879,10.1-5.414,11.542-29.288-9.789-23.481,14.332-15.94.295-21.576-8.522-13.334,10.289-14.923-10.066-28-23.083-10.812-1.462-25.149-20.995-30.4-36.972-11.325-23.021-13.981-100.791,9.634-114.715,61.312C4606.112-1024.507,4612.113-937.569,4612.113-937.569Z" transform="translate(-4555.666 1176.972)" fill="#371b15"/><g transform="translate(84.714 92.796)"><path d="M4656.171-971.894c22.644,35.417,70.156,38.255,104.263,16.45s41.866-59.979,19.22-95.4-67.82-45.179-101.924-23.376S4633.529-1007.308,4656.171-971.894Z" transform="translate(-4639.16 1085.77)" fill="#fbc09c"/><g transform="translate(0 108.412)"><path d="M4660.2-977.444s-5.43-6.665-14.91-2.368c-9.994,4.539-6.333,19.034,3.082,23.331s19.884-1.849,19.671-9.522Z" transform="translate(-4639.335 981.255)" fill="#fbc09c"/><path d="M4645.166-975.676c5.473-4.678,16.741,3.16,11.75,13.625-.972-9.656-5.705-10.377-7.956-4.165-1.411-2.509-.807-4.969,3.034-6.866C4649.779-976.192,4645.166-975.676,4645.166-975.676Z" transform="translate(-4639.118 981.412)" fill="#cf704e"/></g><g transform="translate(37.878 19.528)"><path d="M4718.69-1025.932c2.909,3.185,14.84,1.253,14.244,7.82-.367,4.066-5.671,6.56-9.2,1.159C4721.689-1020.084,4718.69-1025.932,4718.69-1025.932Z" transform="translate(-4674.253 1068.474)" fill="#e9624c"/><g transform="translate(16.728 35.412)"><path d="M4716.365-988.174c2.288,3.5-1.158,9.8-7.7,14.078s-13.7,4.9-15.983,1.4,1.155-9.806,7.7-14.078S4714.078-991.675,4716.365-988.174Z" transform="translate(-4691.978 1034.385)" fill="#e9624c"/><path d="M4781.206-1030.54c2.29,3.5-1.158,9.8-7.7,14.078s-13.7,4.9-15.983,1.4,1.157-9.8,7.7-14.077S4778.918-1034.041,4781.206-1030.54Z" transform="translate(-4689.561 1032.806)" fill="#e9624c"/></g><path d="M4734.073-1066.816c-7.693,1.415-5.449,9.531-.961,7.344,4.81-2.354,9.693-2.577,10.063-3.333C4744-1064.479,4738.4-1067.615,4734.073-1066.816Z" transform="translate(-4673.869 1066.944)" fill="#371b15"/><path d="M4678.492-1027.709c5.325-5.729,10.964.522,6.71,3.135-4.571,2.791-7.379,6.79-8.218,6.7C4675.131-1018.081,4675.495-1024.49,4678.492-1027.709Z" transform="translate(-4675.851 1068.32)" fill="#371b15"/><g transform="translate(47.276 56.246)"><path d="M4755.927-1012.72c-6.848-.015-5.316,6.159-15.953,13.192-10.861,7.181-15.835,2.972-18.367,10.485-2.064,6.133,14.026,22.406,31.67,10.412C4771.048-990.727,4762.445-1012.707,4755.927-1012.72Z" transform="translate(-4721.428 1012.72)" fill="#491d1c"/><path d="M4737.825-975.224a22.436,22.436,0,0,0,14.841-4.216,23.538,23.538,0,0,0,9.275-11.581,46.54,46.54,0,0,0-13.417,6.428A45.681,45.681,0,0,0,4737.825-975.224Z" transform="translate(-4720.817 1013.529)" fill="#e35956"/><path d="M4753.58-1012.429c-4.356,1.313-4.408,6.778-13.656,12.891-9.362,6.191-14.347,3.922-17.167,7.989,3.441,5.026,13.8,3.528,21.26-1.541C4751.407-998.121,4756.987-1007.449,4753.58-1012.429Z" transform="translate(-4721.379 1012.731)" fill="#fff"/></g><g transform="translate(3.02 9.666)"><g transform="translate(0 42.934)"><g transform="translate(1.351 1.135)"><path d="M4701.046-1012.473c6.165,4.4,7.8,12.683,3.653,18.506s-12.517,6.98-18.686,2.582-7.8-12.685-3.657-18.507C4686.516-1015.715,4694.879-1016.869,4701.046-1012.473Z" transform="translate(-4680.065 1015.142)" fill="#fff"/><path d="M4696.311-1007.766a8.236,8.236,0,0,1,2.255,11.411,8.235,8.235,0,0,1-11.525,1.593,8.239,8.239,0,0,1-2.254-11.414A8.235,8.235,0,0,1,4696.311-1007.766Z" transform="translate(-4679.942 1015.355)" fill="#161615"/><path d="M4689.311-1002.69a2.4,2.4,0,0,1-.638,3.335,2.412,2.412,0,0,1-3.295-.829,2.42,2.42,0,0,1,.63-3.34A2.424,2.424,0,0,1,4689.311-1002.69Z" transform="translate(-4679.882 1015.562)" fill="#fff"/><path d="M4697.845-1001.7a1.49,1.49,0,0,1-.4,2.072,1.493,1.493,0,0,1-2.045-.519,1.5,1.5,0,0,1,.4-2.067A1.49,1.49,0,0,1,4697.845-1001.7Z" transform="translate(-4679.502 1015.616)" fill="#fff"/></g><path d="M4678.783-999.056s1.986-15.748,18.576-16.453C4677.417-1020.39,4678.783-999.056,4678.783-999.056Z" transform="translate(-4678.763 1016.236)" fill="#371b15"/></g><g transform="translate(64.61)"><g transform="translate(1.037 1.091)"><path d="M4742.414-1040.017c1.682,7.382,8.7,12.084,15.667,10.5s11.268-8.86,9.585-16.246-8.7-12.088-15.667-10.509S4740.735-1047.4,4742.414-1040.017Z" transform="translate(-4742.05 1056.574)" fill="#fff"/><path d="M4745.408-1040.46a8.235,8.235,0,0,0,9.662,6.478,8.234,8.234,0,0,0,5.912-10.019,8.239,8.239,0,0,0-9.664-6.481A8.238,8.238,0,0,0,4745.408-1040.46Z" transform="translate(-4741.934 1056.794)" fill="#161615"/><path d="M4752.7-1044.9a2.4,2.4,0,0,0,3.324.7,2.41,2.41,0,0,0,.505-3.359,2.419,2.419,0,0,0-3.324-.706A2.424,2.424,0,0,0,4752.7-1044.9Z" transform="translate(-4741.67 1056.869)" fill="#fff"/><path d="M4750.309-1036.636a1.49,1.49,0,0,0,2.065.43,1.493,1.493,0,0,0,.31-2.086,1.5,1.5,0,0,0-2.062-.426A1.492,1.492,0,0,0,4750.309-1036.636Z" transform="translate(-4741.752 1057.23)" fill="#fff"/></g><path d="M4763.392-1055.411s-15.294-4.236-22.341,10.8C4744.235-1064.894,4763.392-1055.411,4763.392-1055.411Z" transform="translate(-4741.051 1057.626)" fill="#371b15"/></g></g></g></g><path d="M4624.526-1101.273c-20.346-7.343-35.4,1.754-20.6,18.382-17.7.876-17.143,9.91-8.334,14.715-19.623-.5-40.786,21.892-20.164,33.754-9.94,3.223-16.883,21.745-3.969,22.361-15.867,7.01-19.5,30.718-3.2,39.082-14.3,14.356-7.289,49,15.912,34.7.641,17.328,17.754,27.781,24.225,8.516,6.475,18.3,39.694,5.155,34.9-17.863,11.845,5.473,16.633-10.894,14.431-16.79,17.946,5.226,6.027-21.588-4.8-23.016,16.206-5.662,13.714-21.807,6.8-23.647,20.437,2.589,15.433-22.384,3.938-20.777,11.659-3.8,4.053-14.068-2.852-10.177,8.519-5.444,9.105-12.052-2.656-9.231,6.091-5.979,13.685-26.786,25.706-15.548,13.183,12.323,16.067-2.065,13.114-13.219,19.635,25.012,25.113,5.663,27.147-5.029,6.147,22.677,29.065,2.387,27.963-9.95,11.2,6.924,20.7-11.8,9.6-17.748,13.008-4.14,13.571-26.931-.754-24.038,6.021-8.541-.526-29.4-15.4-16.76,6.749-14.747-5.681-8.89-10.291-3.858-1.679-14.056-24.512-18.767-30.284-4.122-3.954-22.515-19.512-12.572-21.888-3.229-7.338-11.483-37.66-.973-27.605,21.295-15.208-1.758-14.95,10.074-9.814,15.661C4625.036-1133.944,4609.624-1118.877,4624.526-1101.273Z" transform="translate(-4557.667 1175.23)" fill="#512720"/><g transform="translate(113.611 331.615)"><path d="M4903.957-557.188c0,2.816-30.6,5.1-68.345,5.1s-68.343-2.284-68.343-5.1,30.6-5.1,68.343-5.1,68.345,2.284,68.345,5.1Zm0,0" transform="translate(-4663.46 866.472)" fill="#e6e6e6" fill-rule="evenodd"/><path d="M4838.048-815.243c-55.169-10.521-108.124-12.239-120.875,23.461s70.384,159.641,112.206,170.865,63.755-44.883,106.6-68.345,39.638-124,11.583-137.77-54.342,22.309-109.512,11.789Zm0,0" transform="translate(-4665.378 856.481)" fill="#c40033" fill-rule="evenodd"/><path d="M4741.62-775.359c-34.172,13.767-66.3,43.862-45.9,96.906s64.26,58.277,90.783,52.157,35.421-35.453,87.732-26.147c162.074,28.83,155.1-135.66,47.435-141.789-45.545-2.594-46.414-55.084-98.438-52.023s-47.435,57.126-81.607,70.9Zm0,0" transform="translate(-4666.367 855.878)" fill="#dc0039" fill-rule="evenodd"/><path d="M4725.423-669.222a21.045,21.045,0,0,1-21.045,21.045,21.044,21.044,0,0,1-21.044-21.045,21.044,21.044,0,0,1,21.044-21.045,21.045,21.045,0,0,1,21.045,21.045Zm0,0" transform="translate(-4666.591 861.699)" fill="#dc0039" fill-rule="evenodd"/><path d="M4683.873-650.5a8.34,8.34,0,0,1-8.341,8.341,8.339,8.339,0,0,1-8.34-8.341,8.34,8.34,0,0,1,8.34-8.34,8.341,8.341,0,0,1,8.341,8.34Zm0,0" transform="translate(-4667.192 862.872)" fill="#dc0039" fill-rule="evenodd"/><path d="M4970.329-840.315a14.547,14.547,0,0,1-14.547,14.547,14.546,14.546,0,0,1-14.547-14.547,14.547,14.547,0,0,1,14.547-14.547,14.547,14.547,0,0,1,14.547,14.547Zm0,0" transform="translate(-4656.973 855.562)" fill="#c40033" fill-rule="evenodd"/><path d="M4700.441-783.761s-20.711-21.693-21.548-36.822,13.169-9.547,12.58-1-3.2,16.715,8.968,37.819Zm0,0" transform="translate(-4666.758 856.487)" fill="#c40033" fill-rule="evenodd"/><path d="M4708.485-779.655s-8.224-16.7-5.9-25.813,9.574-3.2,7.634,1.753-5.008,9.3-1.734,24.06Zm0,0" transform="translate(-4665.888 857.226)" fill="#c40033" fill-rule="evenodd"/><path d="M4894.308-651.531s24.9,16.727,39.952,14.982,7.167-14.605-1.156-12.569-15.928,5.989-38.8-2.413Zm0,0" transform="translate(-4658.723 863.144)" fill="#dc0039" fill-rule="evenodd"/><path d="M4887.4-647.7s8.025,16.793,16.618,20.611,8.438-5.54,3.352-7.08-10.4-1.828-19.97-13.531Zm0,0" transform="translate(-4658.981 863.287)" fill="#dc0039" fill-rule="evenodd"/><path d="M4772.458-826.123a1.215,1.215,0,0,1-1.672.411,1.216,1.216,0,0,1-.411-1.671,59.359,59.359,0,0,1,24.184-21.755,57.6,57.6,0,0,1,31.556-6.117,1.221,1.221,0,0,1,1.09,1.338,1.217,1.217,0,0,1-1.337,1.09,55.175,55.175,0,0,0-30.216,5.869,56.9,56.9,0,0,0-23.194,20.835Zm0,0" transform="translate(-4663.352 855.536)" fill="#dc0039"/><path d="M4862.9-625.622a1.225,1.225,0,0,1,1.629.572,1.218,1.218,0,0,1-.566,1.629c-9.419,4.573-20.25,7.77-31.48,6.929-11.265-.846-22.888-5.75-33.824-17.387a1.225,1.225,0,0,1,.052-1.726,1.219,1.219,0,0,1,1.726.05c10.462,11.133,21.529,15.82,32.229,16.623,10.737.811,21.154-2.277,30.234-6.688Zm0,0" transform="translate(-4662.302 863.725)" fill="#c40033"/><path d="M4984.083-675.259a1.219,1.219,0,0,1-1.722.143,1.218,1.218,0,0,1-.145-1.718c6.673-7.859,11.8-20.707,13.969-33.983,2.026-12.351,1.486-25.024-2.75-34.312a1.22,1.22,0,0,1,.6-1.617,1.222,1.222,0,0,1,1.617.6c4.45,9.753,5.035,22.935,2.944,35.717-2.242,13.686-7.568,26.98-14.516,35.164Zm0,0" transform="translate(-4655.456 859.589)" fill="#dc0039"/></g></g><g transform="translate(4720.518 -736.988)"><path d="M4722.528-735.856l6.98,7.028a20.321,20.321,0,0,0-3.588,3.736,7.746,7.746,0,0,0-1.008,2.04,4.359,4.359,0,0,0-.073,1.548,3.2,3.2,0,0,0,.761,1.647,2.04,2.04,0,0,0,1.942.664l16.637-.075q4.375.025,4.227-6.414V-733.4h10.518l-.025,11.575q-1.449,13.05-14.72,13.049h-16.441a14.27,14.27,0,0,1-3.858-.589,11.09,11.09,0,0,1-3.736-1.843,15.656,15.656,0,0,1-2.765-2.654,11.861,11.861,0,0,1-1.868-3.612,21.208,21.208,0,0,1-.847-6.045l.393-2.556.787-2.163A31.379,31.379,0,0,1,4722.528-735.856Zm9.338-9.732a5.071,5.071,0,0,1,2.407.627,4.476,4.476,0,0,1,1.845,1.819,5.021,5.021,0,0,1,.663,2.47,5.1,5.1,0,0,1-.639,2.457,4.432,4.432,0,0,1-1.818,1.818,5.1,5.1,0,0,1-2.458.639,5.086,5.086,0,0,1-2.458-.639,4.432,4.432,0,0,1-1.819-1.818,5.1,5.1,0,0,1-.638-2.457,5.086,5.086,0,0,1,.651-2.47,4.377,4.377,0,0,1,1.843-1.819A5.147,5.147,0,0,1,4731.866-745.588Zm10.321,0a5.074,5.074,0,0,1,2.408.627,4.478,4.478,0,0,1,1.843,1.819,5,5,0,0,1,.663,2.47,5.089,5.089,0,0,1-.639,2.457,4.421,4.421,0,0,1-1.818,1.818,5.087,5.087,0,0,1-2.457.639,5.087,5.087,0,0,1-2.458-.639,4.424,4.424,0,0,1-1.818-1.818,5.089,5.089,0,0,1-.639-2.457,5.076,5.076,0,0,1,.651-2.47,4.383,4.383,0,0,1,1.842-1.819A5.151,5.151,0,0,1,4742.188-745.588Z" transform="translate(-4714.663 753.01)" fill="#fff"/><path d="M4760.985-752.743h10.322v26.787q-.246,7.128,4.424,7.03v10.419h-2.458q-12.29-1.719-12.289-17.227Z" transform="translate(-4712.935 752.743)" fill="#fff"/><path d="M4821.408-729.829q4.449,8.038.688,18.309l-1.229,2.653h-47.11v-10.395h5.283a16.827,16.827,0,0,1,3.809-8.233q6.047-6.389,14.292-4.191a14.208,14.208,0,0,1,10.6,10.556l.393,1.868h4.891q.883-3.786-2.261-8.552t-10.689-5.284l-7.5-.049V-743.1l8.258-.025a23.422,23.422,0,0,1,12,3.293Q4817.869-736.709,4821.408-729.829Zm-24.624,8.037a3.415,3.415,0,0,0-3.085-1.464,4.962,4.962,0,0,0-3.182,1.291,5.781,5.781,0,0,0-1.081,2.7h8.257A8.3,8.3,0,0,0,4796.784-721.792Z" transform="translate(-4712.459 753.102)" fill="#fff"/><path d="M4839.01-709.125a14.172,14.172,0,0,1-2.249-.208,8.706,8.706,0,0,1-1.965-.5q-.688-.294-1.61-.8a15.389,15.389,0,0,1-1.77-1.13,12.359,12.359,0,0,1-1.781-1.66,13.837,13.837,0,0,1-1.917-2.949,15.212,15.212,0,0,1-1.18-2.7,17.024,17.024,0,0,1-.345-2.361,11.539,11.539,0,0,1,0-2.6q.148-1.032.295-1.868a9.946,9.946,0,0,1,.737-2.163,14.326,14.326,0,0,1,1.868-2.949,18.378,18.378,0,0,1,3.539-3.293l2.655-1.178a12.07,12.07,0,0,1,1.573-.394l1.572-.295h1.967a9.426,9.426,0,0,1,1.769.2l1.67.295,2.753,1.18,1.18.688,2.064,1.868,1.672,2.163.688,1.277.884,2.95.393,3.538.05,2.457h4.424v10.444h-5.161a24.742,24.742,0,0,1-1.621,5.284,19.278,19.278,0,0,1-2.557,3.809,19.135,19.135,0,0,1-3.072,3.072,27.664,27.664,0,0,1-3.366,2.113q-1.991,1.081-5.6,2.679l-4.669-9.019a37.2,37.2,0,0,0,4.572-2.016A24.739,24.739,0,0,0,4839.28-705a10.881,10.881,0,0,0,1.954-1.819,7.677,7.677,0,0,0,1.229-2.31Zm.91-16.686a2.68,2.68,0,0,0-1.389.246,3.73,3.73,0,0,0-.982.688,3.154,3.154,0,0,0-.64.934,3.514,3.514,0,0,0-.295,1.2,2.732,2.732,0,0,0,.247,1.328,2.686,2.686,0,0,0,.639.958,3.728,3.728,0,0,0,.885.54,6.974,6.974,0,0,0,2.113.343h2.458v-3.342a4.831,4.831,0,0,0-.786-1.966,3.217,3.217,0,0,0-.921-.639A3.737,3.737,0,0,0,4839.92-725.811Z" transform="translate(-4710.507 753.361)" fill="#fff"/><path d="M4859.939-706.607a5.072,5.072,0,0,1,2.407.627,4.5,4.5,0,0,1,1.843,1.806,4.993,4.993,0,0,1,.664,2.482,5.036,5.036,0,0,1-.639,2.446,4.52,4.52,0,0,1-1.818,1.818,5.028,5.028,0,0,1-2.457.651,5.021,5.021,0,0,1-2.458-.651,4.523,4.523,0,0,1-1.818-1.818,5.026,5.026,0,0,1-.639-2.446,5.071,5.071,0,0,1,.65-2.482,4.4,4.4,0,0,1,1.845-1.806A5.141,5.141,0,0,1,4859.939-706.607Zm4.644-27.23h10.493l-.024,11.575q-1.452,13.05-14.721,13.049h-4.669v-10.419l4.669-.075q4.374.025,4.228-6.414Zm5.43,27.23a5.077,5.077,0,0,1,2.409.627,4.5,4.5,0,0,1,1.843,1.806,4.989,4.989,0,0,1,.665,2.482,5.041,5.041,0,0,1-.639,2.446,4.538,4.538,0,0,1-1.819,1.818,5.026,5.026,0,0,1-2.458.651,5.027,5.027,0,0,1-2.458-.651,4.532,4.532,0,0,1-1.818-1.818,5.026,5.026,0,0,1-.639-2.446,5.068,5.068,0,0,1,.652-2.482,4.4,4.4,0,0,1,1.843-1.806A5.142,5.142,0,0,1,4870.014-706.607Z" transform="translate(-4709.428 753.448)" fill="#fff"/><path d="M4889.338-742.532l5.162,5.137q8.109,8.847,9.46,12.595t2.52,4.485a8.312,8.312,0,0,0,3.5.982v10.444h-2.507q-2.31-.2-4.08-.442a16.992,16.992,0,0,1-5.062-2.015,10.159,10.159,0,0,1-2.6,1.7,13.5,13.5,0,0,1-3.686.761h-14.008v-10.444h11.5q3.491-.49,3.245-2.175a8.17,8.17,0,0,0-1.671-3.6q-1.425-1.917-8.9-9.339Z" transform="translate(-4708.571 753.124)" fill="#fff"/><path d="M4913.44-733.764l10.419-.025v7.471q.246,6.733,4.915,6.783v10.321h-2.458a11.6,11.6,0,0,1-8.01-2.752q-3.541,2.752-10.42,2.752l-.025-10.321q5.678-.05,5.579-6.881Zm-.05,27.155a5.083,5.083,0,0,1,2.41.627,4.5,4.5,0,0,1,1.842,1.806,4.993,4.993,0,0,1,.664,2.482,5.036,5.036,0,0,1-.639,2.446,4.526,4.526,0,0,1-1.819,1.818,5.018,5.018,0,0,1-2.458.651,5.022,5.022,0,0,1-2.457-.651,4.519,4.519,0,0,1-1.819-1.818,5.025,5.025,0,0,1-.639-2.446,5.062,5.062,0,0,1,.651-2.482,4.4,4.4,0,0,1,1.843-1.806A5.144,5.144,0,0,1,4913.391-706.609Zm10.076,0a5.075,5.075,0,0,1,2.409.627,4.5,4.5,0,0,1,1.843,1.806,4.987,4.987,0,0,1,.663,2.482,5.02,5.02,0,0,1-.639,2.446,4.514,4.514,0,0,1-1.818,1.818,5.021,5.021,0,0,1-2.457.651,5.021,5.021,0,0,1-2.457-.651,4.514,4.514,0,0,1-1.818-1.818,5.02,5.02,0,0,1-.639-2.446,5.062,5.062,0,0,1,.651-2.482,4.407,4.407,0,0,1,1.842-1.806A5.152,5.152,0,0,1,4923.467-706.609Z" transform="translate(-4707.458 753.45)" fill="#fff"/><path d="M4943.941-708.6h-17.67v-10.395h4.522q-2.287-5.136,1.056-11.01a14.277,14.277,0,0,1,7.054-5.812,14.222,14.222,0,0,1,9.142-.308,13.858,13.858,0,0,1,8.92,8.479,13.637,13.637,0,0,1-1.081,12.239A13.743,13.743,0,0,1,4943.941-708.6Zm-.172-41.728a5.087,5.087,0,0,1,2.408.625,4.509,4.509,0,0,1,1.842,1.807,4.985,4.985,0,0,1,.664,2.482,4.945,4.945,0,0,1-.651,2.446,4.618,4.618,0,0,1-1.818,1.818,4.943,4.943,0,0,1-2.445.651,4.942,4.942,0,0,1-2.446-.651,4.616,4.616,0,0,1-1.819-1.818,4.945,4.945,0,0,1-.651-2.446,4.98,4.98,0,0,1,.664-2.482,4.529,4.529,0,0,1,1.831-1.807A5.058,5.058,0,0,1,4943.769-750.326Zm-.147,31.357a3.811,3.811,0,0,0,3.317-1.867,3.776,3.776,0,0,0,.245-3.809,3.979,3.979,0,0,0-2.641-2.139,3.841,3.841,0,0,0-3.306.664,3.68,3.68,0,0,0-1.352,4.412A3.7,3.7,0,0,0,4943.622-718.969Z" transform="translate(-4706.772 752.833)" fill="#fff"/></g></g></svg>