<svg xmlns="http://www.w3.org/2000/svg" xmlns:xlink="http://www.w3.org/1999/xlink" width="1920" height="1080" viewBox="0 0 1920 1080"><defs><clipPath id="a"><rect width="1920" height="828.391" transform="translate(0)" fill="none"/></clipPath><clipPath id="b"><path d="M-121.333,96.544c67.779,75.1,263.527,252.38,532.125,134.859,214.929-94.038,283.389-81.54,439.166-2.489,76.424,38.782,260.142,57.3,421.708-67.428,90.08-69.539,226.442-30.224,363.13,72.545,147.948,111.236,320.6-28.811,320.6-28.811l43.883-341L-57.376-400.449Z" fill="none"/></clipPath><linearGradient id="c" x1="0.534" y1="0.841" x2="0.534" y2="0.275" gradientUnits="objectBoundingBox"><stop offset="0" stop-color="#fff7b5"/><stop offset="0.139" stop-color="#b2d7b6"/><stop offset="0.269" stop-color="#73bdb7"/><stop offset="0.387" stop-color="#41a8b7"/><stop offset="0.489" stop-color="#1d9ab8"/><stop offset="0.572" stop-color="#0791b8"/><stop offset="0.626" stop-color="#008eb9"/><stop offset="1" stop-color="#006296"/></linearGradient><clipPath id="d"><rect width="1920" height="261.609" transform="translate(0 818.391)" fill="none"/></clipPath><clipPath id="f"><rect width="1920" height="1080"/></clipPath></defs><g id="e" clip-path="url(#f)"><rect width="1920" height="1080" fill="#fff"/><g clip-path="url(#a)"><g clip-path="url(#b)"><rect width="1244.176" height="2073.613" transform="matrix(0.128, -0.992, 0.992, 0.128, -216.177, 834.551)" fill="url(#c)"/><path d="M230.7-72.664a6.839,6.839,0,0,1-7.659,5.909,6.843,6.843,0,0,1-5.917-7.656,6.845,6.845,0,0,1,7.663-5.914A6.842,6.842,0,0,1,230.7-72.664Z" fill="#fff"/><path d="M16.5,148.481a6.844,6.844,0,1,1-5.913-7.656A6.842,6.842,0,0,1,16.5,148.481Z" fill="#fff"/><path d="M1587.545-47.6a6.838,6.838,0,0,1-7.661,5.913,6.843,6.843,0,0,1-5.915-7.66,6.844,6.844,0,0,1,7.661-5.91A6.839,6.839,0,0,1,1587.545-47.6Z" fill="#fff"/><path d="M1049.627-222.294a6.84,6.84,0,0,1-7.661,5.909,6.841,6.841,0,0,1-5.915-7.656,6.841,6.841,0,0,1,7.661-5.912A6.841,6.841,0,0,1,1049.627-222.294Z" fill="#fff"/><path d="M1831.557,908.928a6.843,6.843,0,1,1-5.914-7.661A6.84,6.84,0,0,1,1831.557,908.928Z" fill="#fff"/><path d="M1736.137,937.689a6.844,6.844,0,1,1-5.914-7.661A6.838,6.838,0,0,1,1736.137,937.689Z" fill="#fff"/><path d="M823.59,13.216a6.84,6.84,0,1,1-5.908-7.658A6.84,6.84,0,0,1,823.59,13.216Z" fill="#fff"/><path d="M541.8,911.959a6.84,6.84,0,1,1-5.907-7.66A6.842,6.842,0,0,1,541.8,911.959Z" fill="#fff"/><path d="M1480.98,165.677a6.842,6.842,0,1,1-5.918-7.662A6.843,6.843,0,0,1,1480.98,165.677Z" fill="#fff"/><path d="M580.693-261.4a3.849,3.849,0,0,1-4.31,3.325,3.847,3.847,0,0,1-3.324-4.307,3.846,3.846,0,0,1,4.306-3.324A3.847,3.847,0,0,1,580.693-261.4Z" fill="#fff"/><path d="M858.6,190.6a3.848,3.848,0,1,1-3.33-4.307A3.85,3.85,0,0,1,858.6,190.6Z" fill="#fff"/><path d="M796.385,247.226a3.849,3.849,0,1,1-3.333-4.306A3.854,3.854,0,0,1,796.385,247.226Z" fill="#fff"/><path d="M1156.053,450.191a3.848,3.848,0,1,1-3.33-4.318A3.851,3.851,0,0,1,1156.053,450.191Z" fill="#fff"/><path d="M865.44,600.884a3.851,3.851,0,1,1-3.333-4.3A3.855,3.855,0,0,1,865.44,600.884Z" fill="#fff"/><path d="M1435.623,766.7a3.851,3.851,0,1,1-3.327-4.311A3.855,3.855,0,0,1,1435.623,766.7Z" fill="#fff"/><path d="M1417.635,115.759a3.849,3.849,0,1,1-3.321-4.307A3.842,3.842,0,0,1,1417.635,115.759Z" fill="#fff"/><path d="M610.555,21.349a3.849,3.849,0,1,1-3.327-4.309A3.85,3.85,0,0,1,610.555,21.349Z" fill="#fff"/><path d="M598.087,140.119a2.644,2.644,0,1,1-2.282-2.961A2.641,2.641,0,0,1,598.087,140.119Z" fill="#fff"/><path d="M392.984-30.889a2.646,2.646,0,0,1-2.963,2.287,2.645,2.645,0,0,1-2.284-2.963,2.643,2.643,0,0,1,2.959-2.284A2.644,2.644,0,0,1,392.984-30.889Z" fill="#fff"/><path d="M366,65.816a2.645,2.645,0,1,1-2.288-2.959A2.648,2.648,0,0,1,366,65.816Z" fill="#fff"/><path d="M463.407,62.2a2.645,2.645,0,1,1-2.287-2.961A2.643,2.643,0,0,1,463.407,62.2Z" fill="#fff"/><path d="M451.154,183.314a2.644,2.644,0,1,1-2.284-2.963A2.644,2.644,0,0,1,451.154,183.314Z" fill="#fff"/><path d="M550.455,152.466a2.645,2.645,0,1,1-2.288-2.959A2.643,2.643,0,0,1,550.455,152.466Z" fill="#fff"/><path d="M425.7,114.036a3.965,3.965,0,1,1-3.427-4.442A3.964,3.964,0,0,1,425.7,114.036Z" fill="#fff"/><path d="M490.966,133.129a3.966,3.966,0,1,1-3.428-4.44A3.966,3.966,0,0,1,490.966,133.129Z" fill="#fff"/><path d="M503.968,178.88a3.967,3.967,0,1,1-3.43-4.441A3.966,3.966,0,0,1,503.968,178.88Z" fill="#fff"/><circle cx="3.969" cy="3.969" r="3.969" transform="matrix(0.128, -0.992, 0.992, 0.128, 645.495, 184.632)" fill="#fff"/><path d="M259.711-15.091a3.967,3.967,0,0,1-4.441,3.431,3.966,3.966,0,0,1-3.424-4.443,3.963,3.963,0,0,1,4.436-3.425A3.964,3.964,0,0,1,259.711-15.091Z" fill="#fff"/><path d="M1802.247,942.192a3.964,3.964,0,1,1-3.426-4.435A3.966,3.966,0,0,1,1802.247,942.192Z" fill="#fff"/><path d="M1656.149,1019.59a3.965,3.965,0,1,1-3.427-4.435A3.968,3.968,0,0,1,1656.149,1019.59Z" fill="#fff"/><path d="M1845.072,841.075a3.965,3.965,0,1,1-3.427-4.435A3.966,3.966,0,0,1,1845.072,841.075Z" fill="#fff"/><path d="M337.984,49.752a3.966,3.966,0,1,1-3.43-4.44A3.968,3.968,0,0,1,337.984,49.752Z" fill="#fff"/><path d="M468.507,5.159a5.951,5.951,0,1,1-5.146-6.66A5.948,5.948,0,0,1,468.507,5.159Z" fill="#fff"/><path d="M549.109,212.624a3.965,3.965,0,1,1-3.43-4.439A3.966,3.966,0,0,1,549.109,212.624Z" fill="#fff"/><path d="M627.379,277.47a3.966,3.966,0,1,1-3.43-4.438A3.964,3.964,0,0,1,627.379,277.47Z" fill="#fff"/><path d="M777.283,280.3a3.967,3.967,0,1,1-3.432-4.439A3.968,3.968,0,0,1,777.283,280.3Z" fill="#fff"/><path d="M599.84,314.324a3.967,3.967,0,1,1-3.43-4.441A3.962,3.962,0,0,1,599.84,314.324Z" fill="#fff"/><path d="M678.109,379.167a3.965,3.965,0,1,1-3.428-4.435A3.965,3.965,0,0,1,678.109,379.167Z" fill="#fff"/><path d="M828.013,382a3.965,3.965,0,1,1-3.428-4.438A3.965,3.965,0,0,1,828.013,382Z" fill="#fff"/><path d="M1278.664,585a3.968,3.968,0,1,1-3.43-4.439A3.966,3.966,0,0,1,1278.664,585Z" fill="#fff"/><path d="M1105.682,722.259a3.965,3.965,0,1,1-3.425-4.449A3.965,3.965,0,0,1,1105.682,722.259Z" fill="#fff"/><path d="M909.25,380.9a3.967,3.967,0,1,1-3.43-4.439A3.962,3.962,0,0,1,909.25,380.9Z" fill="#fff"/><path d="M987.525,445.743a3.967,3.967,0,1,1-3.435-4.432A3.971,3.971,0,0,1,987.525,445.743Z" fill="#fff"/><path d="M1039.505,535.141a3.963,3.963,0,1,1-3.427-4.435A3.962,3.962,0,0,1,1039.505,535.141Z" fill="#fff"/><path d="M963.717,536.938a3.965,3.965,0,1,1-3.425-4.446A3.96,3.96,0,0,1,963.717,536.938Z" fill="#fff"/><path d="M1052.258,688.878a3.966,3.966,0,1,1-3.43-4.435A3.972,3.972,0,0,1,1052.258,688.878Z" fill="#fff"/><path d="M1819.031,894.6a3.968,3.968,0,1,1-3.433-4.439A3.971,3.971,0,0,1,1819.031,894.6Z" fill="#fff"/><path d="M974.471,787.737a3.966,3.966,0,1,1-3.429-4.443A3.964,3.964,0,0,1,974.471,787.737Z" fill="#fff"/><path d="M1312.446,969.756a3.966,3.966,0,1,1-3.429-4.442A3.961,3.961,0,0,1,1312.446,969.756Z" fill="#fff"/><path d="M259.43,784.06A3.967,3.967,0,1,1,256,779.628,3.965,3.965,0,0,1,259.43,784.06Z" fill="#fff"/><path d="M120.283,444.838a3.967,3.967,0,1,1-3.431-4.443A3.964,3.964,0,0,1,120.283,444.838Z" fill="#fff"/><path d="M1214.342,597a3.963,3.963,0,1,1-3.42-4.437A3.96,3.96,0,0,1,1214.342,597Z" fill="#fff"/><path d="M817.108,424.141a3.967,3.967,0,1,1-3.431-4.443A3.965,3.965,0,0,1,817.108,424.141Z" fill="#fff"/><path d="M629.99,602.273a3.966,3.966,0,1,1-3.427-4.443A3.969,3.969,0,0,1,629.99,602.273Z" fill="#fff"/><path d="M895.38,488.982a3.966,3.966,0,1,1-3.43-4.435A3.963,3.963,0,0,1,895.38,488.982Z" fill="#fff"/><path d="M85.5,617.27a3.965,3.965,0,1,1-3.428-4.442A3.967,3.967,0,0,1,85.5,617.27Z" fill="#fff"/><path d="M3.95,651.573a3.971,3.971,0,0,1-4.443,3.433,3.969,3.969,0,0,1-3.426-4.446A3.966,3.966,0,0,1,.52,647.134,3.968,3.968,0,0,1,3.95,651.573Z" fill="#fff"/><path d="M321.59-67.795a3.965,3.965,0,0,1-4.44,3.426,3.962,3.962,0,0,1-3.426-4.438,3.962,3.962,0,0,1,4.439-3.43A3.964,3.964,0,0,1,321.59-67.795Z" fill="#fff"/><path d="M399.86-2.955a3.963,3.963,0,0,1-4.44,3.43,3.964,3.964,0,0,1-3.425-4.442,3.963,3.963,0,0,1,4.437-3.425A3.962,3.962,0,0,1,399.86-2.955Z" fill="#fff"/><path d="M549.764-.126a3.967,3.967,0,0,1-4.441,3.43A3.966,3.966,0,0,1,541.9-1.138a3.962,3.962,0,0,1,4.438-3.426A3.961,3.961,0,0,1,549.764-.126Z" fill="#fff"/><path d="M1608.382,1020.052a3.964,3.964,0,1,1-3.425-4.442A3.963,3.963,0,0,1,1608.382,1020.052Z" fill="#fff"/><path d="M570.976-109.69a3.966,3.966,0,0,1-4.442,3.43,3.964,3.964,0,0,1-3.426-4.442,3.966,3.966,0,0,1,4.439-3.428A3.966,3.966,0,0,1,570.976-109.69Z" fill="#fff"/><path d="M649.248-44.846a3.967,3.967,0,0,1-4.444,3.429,3.965,3.965,0,0,1-3.426-4.442,3.965,3.965,0,0,1,4.438-3.426A3.968,3.968,0,0,1,649.248-44.846Z" fill="#fff"/><path d="M799.148-42.017a3.968,3.968,0,0,1-4.437,3.43,3.966,3.966,0,0,1-3.426-4.442,3.964,3.964,0,0,1,4.439-3.428A3.966,3.966,0,0,1,799.148-42.017Z" fill="#fff"/><path d="M1037.146,65.744a3.966,3.966,0,1,1-3.429-4.442A3.969,3.969,0,0,1,1037.146,65.744Z" fill="#fff"/><path d="M164.815-188.192a3.963,3.963,0,0,1-4.44,3.428,3.965,3.965,0,0,1-3.428-4.441,3.968,3.968,0,0,1,4.44-3.429A3.966,3.966,0,0,1,164.815-188.192Z" fill="#fff"/><path d="M366.4-113.974a3.965,3.965,0,0,1-4.44,3.43,3.963,3.963,0,0,1-3.424-4.442,3.963,3.963,0,0,1,4.436-3.425A3.965,3.965,0,0,1,366.4-113.974Z" fill="#fff"/><path d="M383.2-252.644a3.966,3.966,0,0,1-4.441,3.433,3.964,3.964,0,0,1-3.425-4.446,3.962,3.962,0,0,1,4.438-3.424A3.964,3.964,0,0,1,383.2-252.644Z" fill="#fff"/><path d="M515.953-128.833a3.965,3.965,0,0,1-4.438,3.428,3.965,3.965,0,0,1-3.428-4.44,3.967,3.967,0,0,1,4.441-3.432A3.967,3.967,0,0,1,515.953-128.833Z" fill="#fff"/><path d="M500.232-199.8a3.966,3.966,0,0,1-4.441,3.431,3.964,3.964,0,0,1-3.424-4.443,3.964,3.964,0,0,1,4.437-3.429A3.966,3.966,0,0,1,500.232-199.8Z" fill="#fff"/><path d="M1740.053,1026.7a3.965,3.965,0,1,1-3.426-4.439A3.966,3.966,0,0,1,1740.053,1026.7Z" fill="#fff"/><path d="M645.993-189.24a3.965,3.965,0,0,1-4.442,3.428,3.967,3.967,0,0,1-3.427-4.44,3.966,3.966,0,0,1,4.439-3.43A3.964,3.964,0,0,1,645.993-189.24Z" fill="#fff"/><path d="M690.393-144.692a3.965,3.965,0,0,1-4.441,3.426,3.966,3.966,0,0,1-3.426-4.439,3.967,3.967,0,0,1,4.439-3.431A3.967,3.967,0,0,1,690.393-144.692Z" fill="#fff"/><path d="M768.664-79.852a3.966,3.966,0,0,1-4.444,3.431,3.963,3.963,0,0,1-3.422-4.443,3.961,3.961,0,0,1,4.435-3.427A3.964,3.964,0,0,1,768.664-79.852Z" fill="#fff"/><path d="M918.565-77.022a3.965,3.965,0,0,1-4.437,3.429,3.966,3.966,0,0,1-3.428-4.441,3.966,3.966,0,0,1,4.441-3.431A3.965,3.965,0,0,1,918.565-77.022Z" fill="#fff"/><path d="M955.073,49.609a3.968,3.968,0,1,1-3.432-4.443A3.968,3.968,0,0,1,955.073,49.609Z" fill="#fff"/><path d="M924.583,11.772a3.964,3.964,0,1,1-3.426-4.437A3.966,3.966,0,0,1,924.583,11.772Z" fill="#fff"/><path d="M1074.487,14.6a3.967,3.967,0,1,1-3.43-4.44A3.963,3.963,0,0,1,1074.487,14.6Z" fill="#fff"/><path d="M1192.4,105.466a3.963,3.963,0,1,1-3.429-4.442A3.968,3.968,0,0,1,1192.4,105.466Z" fill="#fff"/><path d="M1141.879,109.131a3.968,3.968,0,1,1-3.433-4.439A3.968,3.968,0,0,1,1141.879,109.131Z" fill="#fff"/><path d="M1368.757,96.874a3.963,3.963,0,1,1-3.43-4.439A3.968,3.968,0,0,1,1368.757,96.874Z" fill="#fff"/><path d="M1378.206,260.394a3.964,3.964,0,1,1-3.425-4.44A3.965,3.965,0,0,1,1378.206,260.394Z" fill="#fff"/><path d="M1421.731-118.992a3.961,3.961,0,0,1-4.438,3.428,3.967,3.967,0,0,1-3.43-4.441,3.969,3.969,0,0,1,4.443-3.429A3.963,3.963,0,0,1,1421.731-118.992Z" fill="#fff"/><path d="M1724.692-114.8a3.962,3.962,0,0,1-4.438,3.428,3.967,3.967,0,0,1-3.43-4.441,3.968,3.968,0,0,1,4.442-3.429A3.963,3.963,0,0,1,1724.692-114.8Z" fill="#fff"/><path d="M1641.209,187.6a3.966,3.966,0,1,1-3.426-4.441A3.961,3.961,0,0,1,1641.209,187.6Z" fill="#fff"/><path d="M1303.944-167.537a3.965,3.965,0,0,1-4.442,3.43,3.965,3.965,0,0,1-3.426-4.442,3.965,3.965,0,0,1,4.439-3.428A3.964,3.964,0,0,1,1303.944-167.537Z" fill="#fff"/><path d="M1691.912,968.562a3.967,3.967,0,1,1-3.43-4.442A3.967,3.967,0,0,1,1691.912,968.562Z" fill="#fff"/><path d="M638.128,149.208a2.646,2.646,0,1,1-2.289-2.961A2.646,2.646,0,0,1,638.128,149.208Z" fill="#fff"/><path d="M466.833-81.15a2.642,2.642,0,0,1-2.959,2.282,2.643,2.643,0,0,1-2.286-2.957,2.645,2.645,0,0,1,2.961-2.288A2.643,2.643,0,0,1,466.833-81.15Z" fill="#fff"/><path d="M419.2-68.8a2.645,2.645,0,0,1-2.959,2.286,2.644,2.644,0,0,1-2.286-2.961,2.641,2.641,0,0,1,2.961-2.284A2.643,2.643,0,0,1,419.2-68.8Z" fill="#fff"/><path d="M506.872-72.063a2.643,2.643,0,0,1-2.962,2.284,2.644,2.644,0,0,1-2.286-2.96,2.642,2.642,0,0,1,2.961-2.285A2.643,2.643,0,0,1,506.872-72.063Z" fill="#fff"/><path d="M673.521-97.055a2.644,2.644,0,0,1-2.961,2.284,2.642,2.642,0,0,1-2.284-2.959,2.642,2.642,0,0,1,2.959-2.286A2.644,2.644,0,0,1,673.521-97.055Z" fill="#fff"/><path d="M625.887-84.708a2.644,2.644,0,0,1-2.959,2.287,2.645,2.645,0,0,1-2.286-2.962,2.647,2.647,0,0,1,2.962-2.288A2.646,2.646,0,0,1,625.887-84.708Z" fill="#fff"/><path d="M713.556-87.967a2.642,2.642,0,0,1-2.959,2.286,2.645,2.645,0,0,1-2.286-2.961,2.644,2.644,0,0,1,2.962-2.287A2.641,2.641,0,0,1,713.556-87.967Z" fill="#fff"/><path d="M1384.256,55.8a2.645,2.645,0,1,1-2.287-2.961A2.642,2.642,0,0,1,1384.256,55.8Z" fill="#fff"/><path d="M1336.628,68.146a2.647,2.647,0,1,1-2.292-2.96A2.649,2.649,0,0,1,1336.628,68.146Z" fill="#fff"/><path d="M1424.293,64.887a2.645,2.645,0,1,1-2.284-2.96A2.642,2.642,0,0,1,1424.293,64.887Z" fill="#fff"/><path d="M718.6-31.436a2.644,2.644,0,0,1-2.961,2.284,2.644,2.644,0,0,1-2.289-2.959,2.646,2.646,0,0,1,2.964-2.286A2.645,2.645,0,0,1,718.6-31.436Z" fill="#fff"/><path d="M670.964-19.091a2.642,2.642,0,0,1-2.959,2.286,2.644,2.644,0,0,1-2.289-2.961,2.647,2.647,0,0,1,2.965-2.285A2.644,2.644,0,0,1,670.964-19.091Z" fill="#fff"/><path d="M758.634-22.349a2.645,2.645,0,0,1-2.965,2.285,2.642,2.642,0,0,1-2.28-2.96,2.643,2.643,0,0,1,2.956-2.288A2.646,2.646,0,0,1,758.634-22.349Z" fill="#fff"/><path d="M619.77,79.72a2.645,2.645,0,1,1-2.284-2.961A2.64,2.64,0,0,1,619.77,79.72Z" fill="#fff"/><path d="M572.138,92.067a2.646,2.646,0,1,1-2.284-2.959A2.647,2.647,0,0,1,572.138,92.067Z" fill="#fff"/><path d="M659.809,88.809a2.645,2.645,0,1,1-2.288-2.961A2.646,2.646,0,0,1,659.809,88.809Z" fill="#fff"/><path d="M744.885,302.518a2.646,2.646,0,1,1-2.287-2.961A2.642,2.642,0,0,1,744.885,302.518Z" fill="#fff"/><path d="M697.252,314.862a2.646,2.646,0,1,1-2.285-2.958A2.643,2.643,0,0,1,697.252,314.862Z" fill="#fff"/><path d="M784.92,311.605a2.644,2.644,0,1,1-2.287-2.96A2.644,2.644,0,0,1,784.92,311.605Z" fill="#fff"/><path d="M757.884,189.278a2.648,2.648,0,1,1-2.29-2.96A2.644,2.644,0,0,1,757.884,189.278Z" fill="#fff"/><path d="M710.251,201.621a2.647,2.647,0,1,1-2.287-2.954A2.644,2.644,0,0,1,710.251,201.621Z" fill="#fff"/><path d="M797.918,198.366a2.644,2.644,0,1,1-2.29-2.96A2.642,2.642,0,0,1,797.918,198.366Z" fill="#fff"/><path d="M913.521,313.2a2.649,2.649,0,1,1-2.291-2.962A2.645,2.645,0,0,1,913.521,313.2Z" fill="#fff"/><path d="M865.886,325.543a2.646,2.646,0,1,1-2.288-2.956A2.645,2.645,0,0,1,865.886,325.543Z" fill="#fff"/><path d="M953.555,322.288a2.644,2.644,0,1,1-2.291-2.962A2.646,2.646,0,0,1,953.555,322.288Z" fill="#fff"/><path d="M959.524,701.891a2.649,2.649,0,1,1-2.288-2.96A2.65,2.65,0,0,1,959.524,701.891Z" fill="#fff"/><path d="M911.888,714.236a2.645,2.645,0,1,1-2.289-2.949A2.641,2.641,0,0,1,911.888,714.236Z" fill="#fff"/><path d="M999.557,710.979a2.643,2.643,0,1,1-2.291-2.956A2.648,2.648,0,0,1,999.557,710.979Z" fill="#fff"/><path d="M681.188,662.925a2.646,2.646,0,1,1-2.286-2.956A2.642,2.642,0,0,1,681.188,662.925Z" fill="#fff"/><path d="M633.554,675.273a2.645,2.645,0,1,1-2.285-2.955A2.644,2.644,0,0,1,633.554,675.273Z" fill="#fff"/><path d="M721.225,672.01a2.644,2.644,0,1,1-2.291-2.949A2.647,2.647,0,0,1,721.225,672.01Z" fill="#fff"/><path d="M1047.936,353.627a2.647,2.647,0,1,1-2.288-2.961A2.644,2.644,0,0,1,1047.936,353.627Z" fill="#fff"/><path d="M1000.3,365.974a2.647,2.647,0,1,1-2.289-2.956A2.643,2.643,0,0,1,1000.3,365.974Z" fill="#fff"/><path d="M1087.973,362.714a2.643,2.643,0,1,1-2.291-2.96A2.644,2.644,0,0,1,1087.973,362.714Z" fill="#fff"/><path d="M730.129,149.943a2.646,2.646,0,1,1-2.284-2.961A2.642,2.642,0,0,1,730.129,149.943Z" fill="#fff"/><path d="M956.845,258.186a2.647,2.647,0,1,1-2.285-2.959A2.64,2.64,0,0,1,956.845,258.186Z" fill="#fff"/><path d="M554.188,274.131a2.646,2.646,0,1,1-2.284-2.964A2.646,2.646,0,0,1,554.188,274.131Z" fill="#fff"/><path d="M796,353.723a2.644,2.644,0,1,1-2.288-2.96A2.646,2.646,0,0,1,796,353.723Z" fill="#fff"/><path d="M734.554,416.909a2.648,2.648,0,1,1-2.286-2.966A2.646,2.646,0,0,1,734.554,416.909Z" fill="#fff"/><path d="M922.61,412.025a2.645,2.645,0,1,1-2.287-2.966A2.647,2.647,0,0,1,922.61,412.025Z" fill="#fff"/><path d="M338.017-293.534a2.639,2.639,0,0,1-2.958,2.282,2.643,2.643,0,0,1-2.288-2.958,2.646,2.646,0,0,1,2.963-2.289A2.644,2.644,0,0,1,338.017-293.534Z" fill="#fff"/><path d="M955.694-108.738a2.643,2.643,0,0,1-2.959,2.283,2.644,2.644,0,0,1-2.29-2.958,2.647,2.647,0,0,1,2.965-2.287A2.645,2.645,0,0,1,955.694-108.738Z" fill="#fff"/><path d="M1394.323-26.817a2.643,2.643,0,0,1-2.963,2.284,2.639,2.639,0,0,1-2.277-2.959,2.642,2.642,0,0,1,2.953-2.29A2.647,2.647,0,0,1,1394.323-26.817Z" fill="#fff"/><path d="M1462.682,13.463a2.643,2.643,0,1,1-2.276-2.962A2.638,2.638,0,0,1,1462.682,13.463Z" fill="#fff"/><path d="M455.988-212.636a2.645,2.645,0,0,1-2.96,2.286,2.643,2.643,0,0,1-2.284-2.96,2.644,2.644,0,0,1,2.96-2.288A2.645,2.645,0,0,1,455.988-212.636Z" fill="#fff"/><path d="M842.88-238.8a2.64,2.64,0,0,1-2.96,2.282,2.643,2.643,0,0,1-2.285-2.957,2.647,2.647,0,0,1,2.96-2.29A2.645,2.645,0,0,1,842.88-238.8Z" fill="#fff"/><path d="M1128.938-210.949a2.64,2.64,0,0,1-2.959,2.282,2.642,2.642,0,0,1-2.281-2.956,2.644,2.644,0,0,1,2.957-2.29A2.641,2.641,0,0,1,1128.938-210.949Z" fill="#fff"/><path d="M1560.076,532.875a2.645,2.645,0,1,1-2.28-2.965A2.645,2.645,0,0,1,1560.076,532.875Z" fill="#fff"/><path d="M1380.62,569.6a2.643,2.643,0,1,1-2.283-2.966A2.645,2.645,0,0,1,1380.62,569.6Z" fill="#fff"/><path d="M1451.7,522.562a2.645,2.645,0,1,1-2.287-2.966A2.641,2.641,0,0,1,1451.7,522.562Z" fill="#fff"/><path d="M75.093,651.052a2.644,2.644,0,1,1-2.284-2.966A2.644,2.644,0,0,1,75.093,651.052Z" fill="#fff"/><path d="M86.252,564.334a2.644,2.644,0,1,1-2.284-2.962A2.639,2.639,0,0,1,86.252,564.334Z" fill="#fff"/><path d="M1327.411-83.524a2.645,2.645,0,0,1-2.969,2.281,2.641,2.641,0,0,1-2.285-2.957,2.645,2.645,0,0,1,2.96-2.288A2.648,2.648,0,0,1,1327.411-83.524Z" fill="#fff"/><path d="M1546.2-139.674a2.646,2.646,0,0,1-2.966,2.283,2.639,2.639,0,0,1-2.28-2.958,2.642,2.642,0,0,1,2.955-2.287A2.65,2.65,0,0,1,1546.2-139.674Z" fill="#fff"/><path d="M1633.192-132.929a2.646,2.646,0,0,1-2.966,2.283,2.639,2.639,0,0,1-2.281-2.958,2.643,2.643,0,0,1,2.956-2.286A2.649,2.649,0,0,1,1633.192-132.929Z" fill="#fff"/><path d="M1584.2,117.462a2.649,2.649,0,1,1-2.29-2.965A2.649,2.649,0,0,1,1584.2,117.462Z" fill="#fff"/><path d="M1098.667,98.6a2.645,2.645,0,1,1-2.283-2.964A2.642,2.642,0,0,1,1098.667,98.6Z" fill="#fff"/><path d="M545.571-35.589A2.644,2.644,0,0,1,542.61-33.3a2.644,2.644,0,0,1-2.286-2.96,2.643,2.643,0,0,1,2.962-2.286A2.643,2.643,0,0,1,545.571-35.589Z" fill="#fff"/><path d="M372.7-161.247a2.645,2.645,0,0,1-2.963,2.287,2.645,2.645,0,0,1-2.286-2.962,2.643,2.643,0,0,1,2.961-2.284A2.643,2.643,0,0,1,372.7-161.247Z" fill="#fff"/><path d="M230.62-251.652a2.646,2.646,0,0,1-2.963,2.286,2.644,2.644,0,0,1-2.284-2.961,2.643,2.643,0,0,1,2.959-2.289A2.647,2.647,0,0,1,230.62-251.652Z" fill="#fff"/><path d="M265.682-267.559a2.644,2.644,0,0,1-2.964,2.282,2.643,2.643,0,0,1-2.286-2.958,2.645,2.645,0,0,1,2.961-2.289A2.645,2.645,0,0,1,265.682-267.559Z" fill="#fff"/><path d="M202.068-160.306a2.641,2.641,0,0,1-2.96,2.286,2.644,2.644,0,0,1-2.287-2.961,2.646,2.646,0,0,1,2.963-2.288A2.644,2.644,0,0,1,202.068-160.306Z" fill="#fff"/><path d="M441.015-27.707a1.549,1.549,0,0,1-1.736,1.338,1.55,1.55,0,0,1-1.34-1.733,1.552,1.552,0,0,1,1.736-1.342A1.552,1.552,0,0,1,441.015-27.707Z" fill="#fff"/><path d="M471.923-104.788a1.554,1.554,0,0,1-1.739,1.341,1.551,1.551,0,0,1-1.338-1.737,1.549,1.549,0,0,1,1.734-1.34A1.552,1.552,0,0,1,471.923-104.788Z" fill="#fff"/><path d="M582.83-57.261a1.548,1.548,0,0,1-1.736,1.338,1.55,1.55,0,0,1-1.341-1.734A1.552,1.552,0,0,1,581.489-59,1.55,1.55,0,0,1,582.83-57.261Z" fill="#fff"/><path d="M581.954,2.456A1.55,1.55,0,1,1,580.616.719,1.548,1.548,0,0,1,581.954,2.456Z" fill="#fff"/><path d="M566.55,48.748a1.55,1.55,0,1,1-1.338-1.735A1.547,1.547,0,0,1,566.55,48.748Z" fill="#fff"/><path d="M477.744-23.562a1.545,1.545,0,0,1-1.734,1.34,1.547,1.547,0,0,1-1.337-1.735,1.548,1.548,0,0,1,1.733-1.341A1.546,1.546,0,0,1,477.744-23.562Z" fill="#fff"/><path d="M270.8,39.068a1.55,1.55,0,1,1-1.337-1.735A1.55,1.55,0,0,1,270.8,39.068Z" fill="#fff"/><path d="M301.7-38.012a1.55,1.55,0,0,1-1.737,1.338,1.548,1.548,0,0,1-1.339-1.734,1.549,1.549,0,0,1,1.735-1.341A1.551,1.551,0,0,1,301.7-38.012Z" fill="#fff"/><path d="M412.612,9.512a1.551,1.551,0,1,1-1.339-1.735A1.548,1.548,0,0,1,412.612,9.512Z" fill="#fff"/><path d="M307.53,43.214a1.55,1.55,0,1,1-1.34-1.736A1.552,1.552,0,0,1,307.53,43.214Z" fill="#fff"/><path d="M470.958-170.783a1.549,1.549,0,0,1-1.733,1.34,1.554,1.554,0,0,1-1.344-1.736,1.554,1.554,0,0,1,1.739-1.339A1.548,1.548,0,0,1,470.958-170.783Z" fill="#fff"/><path d="M501.868-247.864a1.551,1.551,0,0,1-1.739,1.339,1.548,1.548,0,0,1-1.338-1.735,1.549,1.549,0,0,1,1.734-1.34A1.552,1.552,0,0,1,501.868-247.864Z" fill="#fff"/><path d="M612.772-200.339a1.549,1.549,0,0,1-1.733,1.34,1.551,1.551,0,0,1-1.34-1.736,1.55,1.55,0,0,1,1.736-1.339A1.546,1.546,0,0,1,612.772-200.339Z" fill="#fff"/><path d="M507.689-166.634a1.546,1.546,0,0,1-1.732,1.338,1.553,1.553,0,0,1-1.343-1.734,1.551,1.551,0,0,1,1.739-1.342A1.545,1.545,0,0,1,507.689-166.634Z" fill="#fff"/><path d="M838.76-40.009a1.552,1.552,0,0,1-1.74,1.337,1.551,1.551,0,0,1-1.34-1.734,1.55,1.55,0,0,1,1.736-1.343A1.553,1.553,0,0,1,838.76-40.009Z" fill="#fff"/><path d="M869.665-117.093a1.55,1.55,0,0,1-1.735,1.339,1.552,1.552,0,0,1-1.342-1.735,1.552,1.552,0,0,1,1.738-1.342A1.551,1.551,0,0,1,869.665-117.093Z" fill="#fff"/><path d="M980.569-69.566a1.547,1.547,0,0,1-1.731,1.338,1.546,1.546,0,0,1-1.34-1.734,1.548,1.548,0,0,1,1.736-1.343A1.55,1.55,0,0,1,980.569-69.566Z" fill="#fff"/><path d="M875.488-35.866a1.549,1.549,0,0,1-1.733,1.338,1.546,1.546,0,0,1-1.34-1.734,1.55,1.55,0,0,1,1.736-1.343A1.553,1.553,0,0,1,875.488-35.866Z" fill="#fff"/><path d="M676.525,156.346a1.551,1.551,0,1,1-1.343-1.739A1.551,1.551,0,0,1,676.525,156.346Z" fill="#fff"/><path d="M707.435,79.265a1.553,1.553,0,1,1-1.343-1.736A1.554,1.554,0,0,1,707.435,79.265Z" fill="#fff"/><path d="M818.339,126.79A1.549,1.549,0,1,1,817,125.051,1.551,1.551,0,0,1,818.339,126.79Z" fill="#fff"/><path d="M713.259,160.492a1.551,1.551,0,1,1-1.339-1.736A1.55,1.55,0,0,1,713.259,160.492Z" fill="#fff"/><path d="M1163.757,724.889a1.55,1.55,0,1,1-1.342-1.743A1.55,1.55,0,0,1,1163.757,724.889Z" fill="#fff"/><path d="M1194.667,647.8a1.55,1.55,0,1,1-1.333-1.731A1.549,1.549,0,0,1,1194.667,647.8Z" fill="#fff"/><path d="M1305.576,695.324a1.55,1.55,0,1,1-1.34-1.731A1.553,1.553,0,0,1,1305.576,695.324Z" fill="#fff"/><path d="M1200.488,729.029a1.549,1.549,0,1,1-1.333-1.738A1.543,1.543,0,0,1,1200.488,729.029Z" fill="#fff"/><path d="M812.818,626.186a1.548,1.548,0,1,1-1.338-1.732A1.541,1.541,0,0,1,812.818,626.186Z" fill="#fff"/><path d="M843.732,549.1a1.552,1.552,0,1,1-1.344-1.728A1.548,1.548,0,0,1,843.732,549.1Z" fill="#fff"/><path d="M954.638,596.629A1.552,1.552,0,1,1,953.3,594.9,1.55,1.55,0,0,1,954.638,596.629Z" fill="#fff"/><path d="M849.557,630.334a1.552,1.552,0,1,1-1.338-1.739A1.554,1.554,0,0,1,849.557,630.334Z" fill="#fff"/><path d="M508.424,618.5a1.551,1.551,0,1,1-1.34-1.742A1.543,1.543,0,0,1,508.424,618.5Z" fill="#fff"/><path d="M539.334,541.419a1.552,1.552,0,1,1-1.34-1.739A1.544,1.544,0,0,1,539.334,541.419Z" fill="#fff"/><path d="M650.24,588.946a1.55,1.55,0,1,1-1.338-1.738A1.55,1.55,0,0,1,650.24,588.946Z" fill="#fff"/><path d="M545.157,622.644a1.55,1.55,0,1,1-1.338-1.731A1.554,1.554,0,0,1,545.157,622.644Z" fill="#fff"/><path d="M278.349,571.592a1.551,1.551,0,1,1-1.341-1.743A1.551,1.551,0,0,1,278.349,571.592Z" fill="#fff"/><path d="M309.259,494.507a1.552,1.552,0,1,1-1.342-1.74A1.548,1.548,0,0,1,309.259,494.507Z" fill="#fff"/><path d="M420.163,542.034a1.55,1.55,0,1,1-1.337-1.739A1.547,1.547,0,0,1,420.163,542.034Z" fill="#fff"/><path d="M315.083,575.732a1.551,1.551,0,1,1-1.34-1.732A1.55,1.55,0,0,1,315.083,575.732Z" fill="#fff"/><path d="M1112.938,55.627a1.554,1.554,0,1,1-1.346-1.74A1.554,1.554,0,0,1,1112.938,55.627Z" fill="#fff"/><path d="M1143.839-21.455a1.547,1.547,0,0,1-1.731,1.338,1.555,1.555,0,0,1-1.347-1.735,1.555,1.555,0,0,1,1.743-1.34A1.548,1.548,0,0,1,1143.839-21.455Z" fill="#fff"/><path d="M1254.746,26.072a1.549,1.549,0,1,1-1.336-1.739A1.548,1.548,0,0,1,1254.746,26.072Z" fill="#fff"/><path d="M1149.665,59.772a1.549,1.549,0,1,1-1.34-1.739A1.552,1.552,0,0,1,1149.665,59.772Z" fill="#fff"/><path d="M1434.47-69.857a1.551,1.551,0,0,1-1.742,1.339,1.55,1.55,0,0,1-1.34-1.735,1.552,1.552,0,0,1,1.736-1.34A1.553,1.553,0,0,1,1434.47-69.857Z" fill="#fff"/><path d="M1465.378-146.936a1.551,1.551,0,0,1-1.738,1.335,1.55,1.55,0,0,1-1.344-1.732,1.549,1.549,0,0,1,1.739-1.338A1.551,1.551,0,0,1,1465.378-146.936Z" fill="#fff"/><path d="M1576.281-99.411a1.55,1.55,0,0,1-1.732,1.338,1.549,1.549,0,0,1-1.343-1.734,1.548,1.548,0,0,1,1.739-1.343A1.549,1.549,0,0,1,1576.281-99.411Z" fill="#fff"/><path d="M1471.2-65.71a1.551,1.551,0,0,1-1.739,1.339,1.545,1.545,0,0,1-1.333-1.734,1.542,1.542,0,0,1,1.729-1.342A1.548,1.548,0,0,1,1471.2-65.71Z" fill="#fff"/><path d="M704.124,431.187a1.552,1.552,0,1,1-1.345-1.739A1.553,1.553,0,0,1,704.124,431.187Z" fill="#fff"/><path d="M735.029,354.1a1.552,1.552,0,1,1-1.338-1.735A1.546,1.546,0,0,1,735.029,354.1Z" fill="#fff"/><path d="M845.937,401.633a1.55,1.55,0,1,1-1.338-1.743A1.55,1.55,0,0,1,845.937,401.633Z" fill="#fff"/><path d="M740.856,435.327a1.55,1.55,0,1,1-1.342-1.732A1.555,1.555,0,0,1,740.856,435.327Z" fill="#fff"/><path d="M345.909-201.612a2.64,2.64,0,0,1-2.959,2.284,2.643,2.643,0,0,1-2.289-2.959,2.647,2.647,0,0,1,2.965-2.289A2.644,2.644,0,0,1,345.909-201.612Z" fill="#fff"/><path d="M170.808-337.674a2.64,2.64,0,0,1-2.957,2.284,2.643,2.643,0,0,1-2.285-2.959,2.644,2.644,0,0,1,2.96-2.288A2.643,2.643,0,0,1,170.808-337.674Z" fill="#fff"/><path d="M390.661,201.387a2.645,2.645,0,1,1-2.281-2.966A2.642,2.642,0,0,1,390.661,201.387Z" fill="#fff"/><path d="M317.477,180.756a2.643,2.643,0,1,1-2.284-2.963A2.644,2.644,0,0,1,317.477,180.756Z" fill="#fff"/><path d="M787.223-106.181a2.642,2.642,0,0,1-2.962,2.282,2.642,2.642,0,0,1-2.282-2.957,2.643,2.643,0,0,1,2.957-2.288A2.643,2.643,0,0,1,787.223-106.181Z" fill="#fff"/><path d="M872.381,11.315A2.644,2.644,0,1,1,870.1,8.354,2.643,2.643,0,0,1,872.381,11.315Z" fill="#fff"/><path d="M971.678-19.533a2.637,2.637,0,0,1-2.955,2.284,2.641,2.641,0,0,1-2.288-2.959,2.644,2.644,0,0,1,2.963-2.286A2.64,2.64,0,0,1,971.678-19.533Z" fill="#fff"/><path d="M975.418,102.131a2.647,2.647,0,1,1-2.29-2.965A2.644,2.644,0,0,1,975.418,102.131Z" fill="#fff"/><path d="M738.706,8.755a2.644,2.644,0,1,1-2.286-2.962A2.644,2.644,0,0,1,738.706,8.755Z" fill="#fff"/><path d="M458.341-287.646a2.644,2.644,0,0,1-2.962,2.285,2.639,2.639,0,0,1-2.283-2.96,2.641,2.641,0,0,1,2.959-2.286A2.647,2.647,0,0,1,458.341-287.646Z" fill="#fff"/><path d="M534.477-100.033a2.649,2.649,0,0,1-2.964,2.287,2.648,2.648,0,0,1-2.285-2.963,2.645,2.645,0,0,1,2.961-2.284A2.645,2.645,0,0,1,534.477-100.033Z" fill="#fff"/><path d="M633.775-130.878a2.643,2.643,0,0,1-2.962,2.282,2.643,2.643,0,0,1-2.283-2.957,2.644,2.644,0,0,1,2.958-2.288A2.645,2.645,0,0,1,633.775-130.878Z" fill="#fff"/><path d="M580.774-195.533a2.645,2.645,0,0,1-2.963,2.284,2.642,2.642,0,0,1-2.284-2.959,2.64,2.64,0,0,1,2.959-2.286A2.643,2.643,0,0,1,580.774-195.533Z" fill="#fff"/><path d="M443.832-240.443a2.646,2.646,0,0,1-2.963,2.286,2.644,2.644,0,0,1-2.286-2.961,2.646,2.646,0,0,1,2.962-2.288A2.648,2.648,0,0,1,443.832-240.443Z" fill="#fff"/><path d="M424.578-193.112a2.642,2.642,0,0,1-2.961,2.282,2.64,2.64,0,0,1-2.282-2.957,2.641,2.641,0,0,1,2.957-2.288A2.643,2.643,0,0,1,424.578-193.112Z" fill="#fff"/><path d="M682.294-271.189a2.645,2.645,0,0,1-2.965,2.285,2.641,2.641,0,0,1-2.282-2.961,2.644,2.644,0,0,1,2.958-2.288A2.647,2.647,0,0,1,682.294-271.189Z" fill="#fff"/><path d="M1375.961-165.131a2.646,2.646,0,0,1-2.959,2.286,2.643,2.643,0,0,1-2.284-2.961,2.64,2.64,0,0,1,2.959-2.284A2.644,2.644,0,0,1,1375.961-165.131Z" fill="#fff"/><path d="M637.507-9.216a2.639,2.639,0,0,1-2.959,2.282,2.639,2.639,0,0,1-2.286-2.957,2.643,2.643,0,0,1,2.961-2.288A2.642,2.642,0,0,1,637.507-9.216Z" fill="#fff"/><path d="M400.8-102.591a2.644,2.644,0,0,1-2.964,2.283,2.645,2.645,0,0,1-2.286-2.959,2.646,2.646,0,0,1,2.961-2.287A2.646,2.646,0,0,1,400.8-102.591Z" fill="#fff"/><path d="M129.231-90.682a2.645,2.645,0,0,1-2.965,2.285,2.643,2.643,0,0,1-2.284-2.96,2.644,2.644,0,0,1,2.959-2.286A2.646,2.646,0,0,1,129.231-90.682Z" fill="#fff"/><path d="M214.388,26.816a2.644,2.644,0,1,1-2.286-2.962A2.645,2.645,0,0,1,214.388,26.816Z" fill="#fff"/><path d="M313.687-4.031a2.643,2.643,0,0,1-2.961,2.286,2.644,2.644,0,0,1-2.284-2.961A2.642,2.642,0,0,1,311.4-6.993,2.641,2.641,0,0,1,313.687-4.031Z" fill="#fff"/><path d="M317.42,117.631a2.644,2.644,0,1,1-2.282-2.96A2.644,2.644,0,0,1,317.42,117.631Z" fill="#fff"/><path d="M80.711,24.256a2.644,2.644,0,1,1-2.286-2.963A2.645,2.645,0,0,1,80.711,24.256Z" fill="#fff"/><path d="M233.51,203.884a2.646,2.646,0,1,1-2.288-2.969A2.648,2.648,0,0,1,233.51,203.884Z" fill="#fff"/><path d="M211.573,189.9a2.645,2.645,0,1,1-2.287-2.965A2.644,2.644,0,0,1,211.573,189.9Z" fill="#fff"/><path d="M180.955,203.232a2.645,2.645,0,1,1-2.287-2.966A2.646,2.646,0,0,1,180.955,203.232Z" fill="#fff"/><path d="M-16.291,268.1a2.646,2.646,0,0,1-2.964,2.283,2.647,2.647,0,0,1-2.286-2.959,2.648,2.648,0,0,1,2.961-2.291A2.648,2.648,0,0,1-16.291,268.1Z" fill="#fff"/><path d="M-48.393,362.618a2.642,2.642,0,0,1-2.962,2.28,2.645,2.645,0,0,1-2.288-2.956,2.651,2.651,0,0,1,2.964-2.294A2.649,2.649,0,0,1-48.393,362.618Z" fill="#fff"/><path d="M-11.445,320.148a2.643,2.643,0,0,1-2.962,2.28,2.644,2.644,0,0,1-2.286-2.956,2.648,2.648,0,0,1,2.962-2.291A2.647,2.647,0,0,1-11.445,320.148Z" fill="#fff"/><path d="M-94.238,294.793a2.652,2.652,0,0,1-2.961,2.291,2.653,2.653,0,0,1-2.284-2.966,2.648,2.648,0,0,1,2.96-2.288A2.646,2.646,0,0,1-94.238,294.793Z" fill="#fff"/><path d="M-109.958,388.756a2.65,2.65,0,0,1-2.962,2.291,2.649,2.649,0,0,1-2.285-2.966,2.642,2.642,0,0,1,2.961-2.287A2.642,2.642,0,0,1-109.958,388.756Z" fill="#fff"/><path d="M-124.31,423.154a2.651,2.651,0,0,1-2.965,2.287,2.646,2.646,0,0,1-2.283-2.963,2.643,2.643,0,0,1,2.959-2.291A2.649,2.649,0,0,1-124.31,423.154Z" fill="#fff"/><path d="M-73.96,410.744a2.652,2.652,0,0,1-2.959,2.288,2.654,2.654,0,0,1-2.286-2.963,2.65,2.65,0,0,1,2.962-2.291A2.647,2.647,0,0,1-73.96,410.744Z" fill="#fff"/><path d="M-134.344,472.231a2.651,2.651,0,0,1-2.963,2.291,2.65,2.65,0,0,1-2.286-2.967,2.648,2.648,0,0,1,2.961-2.284A2.649,2.649,0,0,1-134.344,472.231Z" fill="#fff"/><path d="M158.57,181.461a2.645,2.645,0,1,1-2.286-2.967A2.646,2.646,0,0,1,158.57,181.461Z" fill="#fff"/><path d="M118.914,187.9a2.647,2.647,0,1,1-2.289-2.963A2.642,2.642,0,0,1,118.914,187.9Z" fill="#fff"/><path d="M100.164,207.527a2.644,2.644,0,1,1-2.287-2.966A2.648,2.648,0,0,1,100.164,207.527Z" fill="#fff"/><path d="M88.656,248.022a2.646,2.646,0,1,1-2.289-2.965A2.649,2.649,0,0,1,88.656,248.022Z" fill="#fff"/><path d="M51.62,254.8a2.646,2.646,0,1,1-2.288-2.966A2.645,2.645,0,0,1,51.62,254.8Z" fill="#fff"/><path d="M69.514,361.423a2.645,2.645,0,1,1-2.288-2.96A2.644,2.644,0,0,1,69.514,361.423Z" fill="#fff"/><path d="M-108.735,629.253a2.651,2.651,0,0,1-2.961,2.288,2.651,2.651,0,0,1-2.287-2.963,2.646,2.646,0,0,1,2.963-2.287A2.645,2.645,0,0,1-108.735,629.253Z" fill="#fff"/><path d="M1550.364,807.316a2.649,2.649,0,1,1-2.287-2.967A2.647,2.647,0,0,1,1550.364,807.316Z" fill="#fff"/><path d="M663.668,364.265a2.645,2.645,0,1,1-2.282-2.966A2.643,2.643,0,0,1,663.668,364.265Z" fill="#fff"/><path d="M748.826,481.766a2.645,2.645,0,1,1-2.282-2.973A2.64,2.64,0,0,1,748.826,481.766Z" fill="#fff"/><path d="M848.13,450.915a2.647,2.647,0,1,1-2.287-2.967A2.64,2.64,0,0,1,848.13,450.915Z" fill="#fff"/><path d="M839.673,667.283a2.647,2.647,0,1,1-2.289-2.959A2.652,2.652,0,0,1,839.673,667.283Z" fill="#fff"/><path d="M615.15,479.2a2.644,2.644,0,1,1-2.285-2.966A2.648,2.648,0,0,1,615.15,479.2Z" fill="#fff"/><path d="M403.445,427.718a2.646,2.646,0,1,1-2.289-2.959A2.651,2.651,0,0,1,403.445,427.718Z" fill="#fff"/><path d="M476.417,639.922a2.647,2.647,0,1,1-2.289-2.952A2.653,2.653,0,0,1,476.417,639.922Z" fill="#fff"/><path d="M587.9,514.371a2.645,2.645,0,1,1-2.287-2.962A2.647,2.647,0,0,1,587.9,514.371Z" fill="#fff"/><path d="M338.737,543.6a2.646,2.646,0,1,1-2.289-2.966A2.646,2.646,0,0,1,338.737,543.6Z" fill="#fff"/><path d="M579.446,730.743a2.646,2.646,0,1,1-2.285-2.963A2.649,2.649,0,0,1,579.446,730.743Z" fill="#fff"/><path d="M342.739,637.37a2.647,2.647,0,1,1-2.287-2.963A2.641,2.641,0,0,1,342.739,637.37Z" fill="#fff"/><path d="M248.2,428.75a2.643,2.643,0,1,1-2.281-2.966A2.642,2.642,0,0,1,248.2,428.75Z" fill="#fff"/><path d="M130.436,616.405a2.644,2.644,0,1,1-2.287-2.959A2.644,2.644,0,0,1,130.436,616.405Z" fill="#fff"/><path d="M229.734,585.568a2.646,2.646,0,1,1-2.282-2.973A2.639,2.639,0,0,1,229.734,585.568Z" fill="#fff"/><path d="M238.331,683.334a2.645,2.645,0,1,1-2.289-2.963A2.653,2.653,0,0,1,238.331,683.334Z" fill="#fff"/><path d="M-3.24,613.849A2.649,2.649,0,0,1-6.2,616.14a2.648,2.648,0,0,1-2.283-2.966,2.646,2.646,0,0,1,2.959-2.288A2.646,2.646,0,0,1-3.24,613.849Z" fill="#fff"/><path d="M1079.58,421.72a2.649,2.649,0,1,1-2.288-2.959A2.646,2.646,0,0,1,1079.58,421.72Z" fill="#fff"/><path d="M1192.843,546.98a2.64,2.64,0,1,1-2.284-2.966A2.648,2.648,0,0,1,1192.843,546.98Z" fill="#fff"/><path d="M1292.147,516.132a2.645,2.645,0,1,1-2.279-2.965A2.642,2.642,0,0,1,1292.147,516.132Z" fill="#fff"/><path d="M1283.7,732.505a2.649,2.649,0,1,1-2.287-2.966A2.654,2.654,0,0,1,1283.7,732.505Z" fill="#fff"/><path d="M1838.5,965.145a2.649,2.649,0,1,1-2.287-2.963A2.645,2.645,0,0,1,1838.5,965.145Z" fill="#fff"/><path d="M1181.069,951.319a2.649,2.649,0,1,1-2.288-2.96A2.652,2.652,0,0,1,1181.069,951.319Z" fill="#fff"/><path d="M958.347,920.561a2.647,2.647,0,1,1-2.29-2.967A2.65,2.65,0,0,1,958.347,920.561Z" fill="#fff"/><path d="M1125.012,553.5a2.647,2.647,0,1,1-2.283-2.97A2.647,2.647,0,0,1,1125.012,553.5Z" fill="#fff"/><path d="M1473.017,214.742a2.644,2.644,0,1,1-2.288-2.964A2.639,2.639,0,0,1,1473.017,214.742Z" fill="#fff"/><path d="M-74.69,177.147a2.646,2.646,0,0,1-2.959,2.285,2.646,2.646,0,0,1-2.284-2.959,2.646,2.646,0,0,1,2.959-2.29A2.646,2.646,0,0,1-74.69,177.147Z" fill="#fff"/><path d="M-127.011,698.457a2.646,2.646,0,0,1-2.96,2.288,2.645,2.645,0,0,1-2.283-2.963,2.641,2.641,0,0,1,2.959-2.284A2.642,2.642,0,0,1-127.011,698.457Z" fill="#fff"/><path d="M184.039,793.06a2.642,2.642,0,1,1-2.284-2.962A2.643,2.643,0,0,1,184.039,793.06Z" fill="#fff"/><path d="M675.706,931.323a2.643,2.643,0,1,1-2.284-2.963A2.642,2.642,0,0,1,675.706,931.323Z" fill="#fff"/><path d="M817.024,909.628a2.644,2.644,0,1,1-2.286-2.963A2.646,2.646,0,0,1,817.024,909.628Z" fill="#fff"/><path d="M1818.288,1035.1a2.645,2.645,0,1,1-2.288-2.959A2.652,2.652,0,0,1,1818.288,1035.1Z" fill="#fff"/><path d="M13.824-221.868a2.643,2.643,0,0,1-2.962,2.284,2.642,2.642,0,0,1-2.284-2.959,2.644,2.644,0,0,1,2.959-2.289A2.645,2.645,0,0,1,13.824-221.868Z" fill="#fff"/><path d="M1635.1-26.157a2.646,2.646,0,0,1-2.959,2.286,2.647,2.647,0,0,1-2.291-2.961,2.649,2.649,0,0,1,2.966-2.284A2.648,2.648,0,0,1,1635.1-26.157Z" fill="#fff"/><path d="M1121.672-80.916a2.651,2.651,0,0,1-2.966,2.284,2.645,2.645,0,0,1-2.287-2.96,2.643,2.643,0,0,1,2.962-2.285A2.649,2.649,0,0,1,1121.672-80.916Z" fill="#fff"/><path d="M1206.828,36.581a2.647,2.647,0,1,1-2.291-2.963A2.646,2.646,0,0,1,1206.828,36.581Z" fill="#fff"/><path d="M-56.713-73.926a2.641,2.641,0,0,1-2.962,2.28A2.641,2.641,0,0,1-61.958-74.6,2.644,2.644,0,0,1-59-76.891,2.644,2.644,0,0,1-56.713-73.926Z" fill="#fff"/><path d="M127,242.9a2.645,2.645,0,1,1-2.284-2.962A2.644,2.644,0,0,1,127,242.9Z" fill="#fff"/><path d="M257.454,159.555a2.644,2.644,0,1,1-2.286-2.962A2.64,2.64,0,0,1,257.454,159.555Z" fill="#fff"/><path d="M45.244,304.355a2.646,2.646,0,1,1-2.289-2.967A2.643,2.643,0,0,1,45.244,304.355Z" fill="#fff"/><path d="M-14.516-352.895a2.642,2.642,0,0,1-2.961,2.281,2.642,2.642,0,0,1-2.286-2.956,2.641,2.641,0,0,1,2.961-2.285A2.64,2.64,0,0,1-14.516-352.895Z" fill="#fff"/><path d="M1222.688-34.251a2.641,2.641,0,0,1-2.958,2.281,2.641,2.641,0,0,1-2.285-2.955,2.646,2.646,0,0,1,2.96-2.29A2.644,2.644,0,0,1,1222.688-34.251Z" fill="#fff"/><path d="M1442.827-166.923a2.637,2.637,0,0,1-2.958,2.278,2.642,2.642,0,0,1-2.285-2.953,2.646,2.646,0,0,1,2.96-2.29A2.641,2.641,0,0,1,1442.827-166.923Z" fill="#fff"/><path d="M1306.125,5.733a2.647,2.647,0,1,1-2.287-2.961A2.644,2.644,0,0,1,1306.125,5.733Z" fill="#fff"/><path d="M1269.277,76.727a2.647,2.647,0,1,1-2.288-2.962A2.644,2.644,0,0,1,1269.277,76.727Z" fill="#fff"/><path d="M1073.151,34.022a2.647,2.647,0,1,1-2.284-2.962A2.647,2.647,0,0,1,1073.151,34.022Z" fill="#fff"/><path d="M399.005,312.325a2.643,2.643,0,1,1-2.287-2.956A2.647,2.647,0,0,1,399.005,312.325Z" fill="#fff"/><path d="M352.16,99.585a2.646,2.646,0,1,1-2.287-2.965A2.642,2.642,0,0,1,352.16,99.585Z" fill="#fff"/><path d="M159.47-35.287a2.642,2.642,0,0,1-2.964,2.279,2.638,2.638,0,0,1-2.283-2.955,2.644,2.644,0,0,1,2.958-2.29A2.648,2.648,0,0,1,159.47-35.287Z" fill="#fff"/><path d="M887.361,535.233a2.643,2.643,0,1,1-2.28-2.962A2.647,2.647,0,0,1,887.361,535.233Z" fill="#fff"/><path d="M1343.881,626.783a2.645,2.645,0,1,1-2.28-2.966A2.648,2.648,0,0,1,1343.881,626.783Z" fill="#fff"/><path d="M1415.9,703.212a2.643,2.643,0,1,1-2.279-2.969A2.645,2.645,0,0,1,1415.9,703.212Z" fill="#fff"/><path d="M778.41,563.939a2.644,2.644,0,1,1-2.282-2.963A2.645,2.645,0,0,1,778.41,563.939Z" fill="#fff"/><path d="M848.189,726.653a2.646,2.646,0,1,1-2.283-2.97A2.647,2.647,0,0,1,848.189,726.653Z" fill="#fff"/><path d="M867.078,404.879a2.645,2.645,0,1,1-2.289-2.967A2.648,2.648,0,0,1,867.078,404.879Z" fill="#fff"/><path d="M656.167,298.562a2.642,2.642,0,1,1-2.282-2.963A2.647,2.647,0,0,1,656.167,298.562Z" fill="#fff"/><path d="M1358.122,730.872a2.641,2.641,0,1,1-2.28-2.962A2.646,2.646,0,0,1,1358.122,730.872Z" fill="#fff"/><path d="M1331.142,827.579a2.647,2.647,0,1,1-2.286-2.97A2.641,2.641,0,0,1,1331.142,827.579Z" fill="#fff"/><path d="M1401.435,520.711a2.647,2.647,0,1,1-2.289-2.974A2.645,2.645,0,0,1,1401.435,520.711Z" fill="#fff"/><path d="M1117.218,300.15a2.647,2.647,0,1,1-2.287-2.963A2.649,2.649,0,0,1,1117.218,300.15Z" fill="#fff"/><path d="M1471.892,111.287a2.643,2.643,0,1,1-2.283-2.961A2.644,2.644,0,0,1,1471.892,111.287Z" fill="#fff"/><path d="M1198.253,177.767a2.647,2.647,0,1,1-2.288-2.964A2.644,2.644,0,0,1,1198.253,177.767Z" fill="#fff"/><path d="M1451.606-19.067a2.646,2.646,0,0,1-2.959,2.282,2.652,2.652,0,0,1-2.295-2.958,2.653,2.653,0,0,1,2.971-2.291A2.646,2.646,0,0,1,1451.606-19.067Z" fill="#fff"/><path d="M1593.155,271.1a2.647,2.647,0,1,1-2.28-2.964A2.644,2.644,0,0,1,1593.155,271.1Z" fill="#fff"/><path d="M1378.285,304.058a2.649,2.649,0,1,1-2.29-2.968A2.65,2.65,0,0,1,1378.285,304.058Z" fill="#fff"/><path d="M1229.475,390.069a2.647,2.647,0,1,1-2.282-2.971A2.641,2.641,0,0,1,1229.475,390.069Z" fill="#fff"/><path d="M1245.862,271.27a2.649,2.649,0,1,1-2.29-2.969A2.647,2.647,0,0,1,1245.862,271.27Z" fill="#fff"/><path d="M842.652,89.515a2.648,2.648,0,1,1-2.286-2.972A2.642,2.642,0,0,1,842.652,89.515Z" fill="#fff"/><path d="M1002.137,220.227a2.647,2.647,0,1,1-2.284-2.965A2.644,2.644,0,0,1,1002.137,220.227Z" fill="#fff"/><path d="M269.662,301.179a2.646,2.646,0,1,1-2.284-2.966A2.649,2.649,0,0,1,269.662,301.179Z" fill="#fff"/><path d="M.122,447.039a2.642,2.642,0,0,1-2.96,2.277,2.643,2.643,0,0,1-2.29-2.953,2.656,2.656,0,0,1,2.965-2.294A2.655,2.655,0,0,1,.122,447.039Z" fill="#fff"/><path d="M483.939,434.223a2.645,2.645,0,1,1-2.282-2.969A2.644,2.644,0,0,1,483.939,434.223Z" fill="#fff"/><path d="M366.355,585.517a2.647,2.647,0,1,1-2.286-2.966A2.643,2.643,0,0,1,366.355,585.517Z" fill="#fff"/><path d="M1288.757,638.574a2.645,2.645,0,1,1-2.287-2.963A2.642,2.642,0,0,1,1288.757,638.574Z" fill="#fff"/><path d="M1586.015,384a2.647,2.647,0,1,1-2.283-2.967A2.642,2.642,0,0,1,1586.015,384Z" fill="#fff"/><path d="M1249.716-195.5a2.645,2.645,0,0,1-2.962,2.284,2.64,2.64,0,0,1-2.277-2.958,2.639,2.639,0,0,1,2.952-2.289A2.644,2.644,0,0,1,1249.716-195.5Z" fill="#fff"/><path d="M203.639,82.087a3.847,3.847,0,1,1-3.324-4.308A3.846,3.846,0,0,1,203.639,82.087Z" fill="#fff"/><path d="M368.728,218.046a3.848,3.848,0,1,1-3.326-4.311A3.852,3.852,0,0,1,368.728,218.046Z" fill="#fff"/><path d="M1237.042,526.911a3.852,3.852,0,1,1-3.327-4.31A3.855,3.855,0,0,1,1237.042,526.911Z" fill="#fff"/><path d="M1477.33,831.849a3.852,3.852,0,1,1-3.334-4.315A3.846,3.846,0,0,1,1477.33,831.849Z" fill="#fff"/><path d="M304.3,630.8a3.849,3.849,0,1,1-3.325-4.307A3.857,3.857,0,0,1,304.3,630.8Z" fill="#fff"/><path d="M555.976,360.1a6.84,6.84,0,1,1-5.911-7.661A6.839,6.839,0,0,1,555.976,360.1Z" fill="#fff"/><path d="M1104.356-25.3A3,3,0,0,1,1101-22.715a2.993,2.993,0,0,1-2.587-3.351,2.993,2.993,0,0,1,3.351-2.588A3,3,0,0,1,1104.356-25.3Z" fill="#fff"/><path d="M285.573,9.035a3,3,0,1,1-2.588-3.353A2.994,2.994,0,0,1,285.573,9.035Z" fill="#fff"/><path d="M873.325,236.839a2.995,2.995,0,1,1-2.59-3.351A3,3,0,0,1,873.325,236.839Z" fill="#fff"/><path d="M990.72-170.414a7.957,7.957,0,0,1-8.9,6.873,7.962,7.962,0,0,1-6.874-8.9,7.96,7.96,0,0,1,8.9-6.876A7.954,7.954,0,0,1,990.72-170.414Z" fill="#fff"/><path d="M996.052,646.035a2.993,2.993,0,1,1-2.586-3.351A3,3,0,0,1,996.052,646.035Z" fill="#fff"/><path d="M436.164,601.278a2.993,2.993,0,1,1-2.586-3.357A3,3,0,0,1,436.164,601.278Z" fill="#fff"/><path d="M1495.369,92.179a2.995,2.995,0,1,1-2.59-3.354A3,3,0,0,1,1495.369,92.179Z" fill="#fff"/><path d="M206.28,618.649a6.841,6.841,0,1,1-5.913-7.664A6.843,6.843,0,0,1,206.28,618.649Z" fill="#fff"/><path d="M472.542,576.116a6.841,6.841,0,1,1-5.913-7.658A6.842,6.842,0,0,1,472.542,576.116Z" fill="#fff"/><circle cx="6.844" cy="6.844" r="6.844" transform="matrix(0.128, -0.992, 0.992, 0.128, 743.787, -230.92)" fill="#fff"/><circle cx="6.844" cy="6.844" r="6.844" transform="translate(-105.19 319.876)" fill="#fff"/><path d="M1498.848,409.722a6.845,6.845,0,1,1-5.918-7.66A6.841,6.841,0,0,1,1498.848,409.722Z" fill="#fff"/><path d="M1019.677,418.207a6.842,6.842,0,1,1-5.914-7.661A6.841,6.841,0,0,1,1019.677,418.207Z" fill="#fff"/><path d="M1914.48-75.626a6.839,6.839,0,0,1-7.66,5.908,6.839,6.839,0,0,1-5.915-7.655,6.84,6.84,0,0,1,7.661-5.913A6.84,6.84,0,0,1,1914.48-75.626Z" fill="#fff"/><path d="M1881.725,543.577a3.848,3.848,0,1,1-3.33-4.318A3.853,3.853,0,0,1,1881.725,543.577Z" fill="#fff"/><path d="M1634.921,474.283a3.966,3.966,0,1,1-3.429-4.439A3.962,3.962,0,0,1,1634.921,474.283Z" fill="#fff"/><path d="M1713.2,539.129a3.967,3.967,0,1,1-3.434-4.432A3.969,3.969,0,0,1,1713.2,539.129Z" fill="#fff"/><path d="M1765.176,628.527a3.963,3.963,0,1,1-3.426-4.435A3.961,3.961,0,0,1,1765.176,628.527Z" fill="#fff"/><path d="M1689.389,630.323a3.965,3.965,0,1,1-3.426-4.445A3.959,3.959,0,0,1,1689.389,630.323Z" fill="#fff"/><path d="M1621.052,582.368a3.967,3.967,0,1,1-3.431-4.435A3.964,3.964,0,0,1,1621.052,582.368Z" fill="#fff"/><path d="M1762.818,159.13a3.966,3.966,0,1,1-3.43-4.443A3.968,3.968,0,0,1,1762.818,159.13Z" fill="#fff"/><path d="M1680.745,142.995a3.968,3.968,0,1,1-3.433-4.443A3.969,3.969,0,0,1,1680.745,142.995Z" fill="#fff"/><path d="M1800.158,107.988a3.966,3.966,0,1,1-3.429-4.441A3.963,3.963,0,0,1,1800.158,107.988Z" fill="#fff"/><path d="M1918.071,198.851a3.963,3.963,0,1,1-3.43-4.442A3.968,3.968,0,0,1,1918.071,198.851Z" fill="#fff"/><path d="M1867.551,202.517a3.968,3.968,0,1,1-3.434-4.439A3.968,3.968,0,0,1,1867.551,202.517Z" fill="#fff"/><path d="M1639.193,406.585a2.649,2.649,0,1,1-2.291-2.961A2.647,2.647,0,0,1,1639.193,406.585Z" fill="#fff"/><path d="M1679.227,415.673a2.644,2.644,0,1,1-2.291-2.961A2.647,2.647,0,0,1,1679.227,415.673Z" fill="#fff"/><path d="M1773.607,447.013a2.647,2.647,0,1,1-2.287-2.961A2.644,2.644,0,0,1,1773.607,447.013Z" fill="#fff"/><path d="M1725.975,459.359a2.647,2.647,0,1,1-2.288-2.955A2.643,2.643,0,0,1,1725.975,459.359Z" fill="#fff"/><path d="M1813.645,456.1a2.643,2.643,0,1,1-2.292-2.96A2.645,2.645,0,0,1,1813.645,456.1Z" fill="#fff"/><path d="M1682.516,351.571a2.647,2.647,0,1,1-2.284-2.958A2.64,2.64,0,0,1,1682.516,351.571Z" fill="#fff"/><path d="M1648.281,505.411a2.645,2.645,0,1,1-2.286-2.966A2.644,2.644,0,0,1,1648.281,505.411Z" fill="#fff"/><path d="M1854.61-117.564a2.64,2.64,0,0,1-2.959,2.283,2.643,2.643,0,0,1-2.281-2.957,2.644,2.644,0,0,1,2.956-2.29A2.642,2.642,0,0,1,1854.61-117.564Z" fill="#fff"/><path d="M1824.339,191.99a2.645,2.645,0,1,1-2.283-2.965A2.643,2.643,0,0,1,1824.339,191.99Z" fill="#fff"/><path d="M1706.241,23.819a1.548,1.548,0,1,1-1.335-1.738A1.547,1.547,0,0,1,1706.241,23.819Z" fill="#fff"/><path d="M1838.61,149.013a1.554,1.554,0,1,1-1.346-1.74A1.555,1.555,0,0,1,1838.61,149.013Z" fill="#fff"/><path d="M1869.511,71.93a1.552,1.552,0,1,1-1.336-1.737A1.548,1.548,0,0,1,1869.511,71.93Z" fill="#fff"/><path d="M1875.336,153.157a1.548,1.548,0,1,1-1.339-1.738A1.551,1.551,0,0,1,1875.336,153.157Z" fill="#fff"/><path d="M1697.35,73.852a2.643,2.643,0,1,1-2.281-2.96A2.638,2.638,0,0,1,1697.35,73.852Z" fill="#fff"/><path d="M1701.09,195.517a2.647,2.647,0,1,1-2.291-2.965A2.644,2.644,0,0,1,1701.09,195.517Z" fill="#fff"/><path d="M1805.252,515.106a2.649,2.649,0,1,1-2.288-2.959A2.648,2.648,0,0,1,1805.252,515.106Z" fill="#fff"/><path d="M1850.683,646.885a2.647,2.647,0,1,1-2.283-2.97A2.647,2.647,0,0,1,1850.683,646.885Z" fill="#fff"/><path d="M1847.344,12.47a2.649,2.649,0,1,1-2.291-2.962A2.65,2.65,0,0,1,1847.344,12.47Z" fill="#fff"/><path d="M1932.5,129.967a2.647,2.647,0,1,1-2.291-2.963A2.645,2.645,0,0,1,1932.5,129.967Z" fill="#fff"/><path d="M1948.36,59.135a2.643,2.643,0,1,1-2.283-2.965A2.641,2.641,0,0,1,1948.36,59.135Z" fill="#fff"/><path d="M1798.823,127.407a2.647,2.647,0,1,1-2.284-2.962A2.648,2.648,0,0,1,1798.823,127.407Z" fill="#fff"/><path d="M1613.033,628.618a2.643,2.643,0,1,1-2.281-2.962A2.647,2.647,0,0,1,1613.033,628.618Z" fill="#fff"/><path d="M1842.89,393.535a2.647,2.647,0,1,1-2.287-2.963A2.649,2.649,0,0,1,1842.89,393.535Z" fill="#fff"/><path d="M1923.924,271.153a2.647,2.647,0,1,1-2.287-2.965A2.644,2.644,0,0,1,1923.924,271.153Z" fill="#fff"/><path d="M1727.809,313.613a2.647,2.647,0,1,1-2.284-2.966A2.644,2.644,0,0,1,1727.809,313.613Z" fill="#fff"/><path d="M1830.028,68.084a2.995,2.995,0,1,1-2.591-3.352A3,3,0,0,1,1830.028,68.084Z" fill="#fff"/><path d="M1769.459,230.236a7.953,7.953,0,1,1-6.87-8.906A7.957,7.957,0,0,1,1769.459,230.236Z" fill="#fff"/><path d="M1745.349,511.593a6.842,6.842,0,1,1-5.914-7.662A6.843,6.843,0,0,1,1745.349,511.593Z" fill="#fff"/><path d="M1228.139,807.863a6.842,6.842,0,1,1-5.915-7.658A6.842,6.842,0,0,1,1228.139,807.863Z" fill="#fff"/><path d="M1476.887,1001.408a6.844,6.844,0,1,1-5.911-7.657A6.837,6.837,0,0,1,1476.887,1001.408Z" fill="#fff"/><path d="M1539.275,581.874a6.842,6.842,0,1,1-5.918-7.665A6.847,6.847,0,0,1,1539.275,581.874Z" fill="#fff"/><path d="M-121.425,814.022a6.839,6.839,0,0,1-7.659,5.9,6.837,6.837,0,0,1-5.914-7.65,6.847,6.847,0,0,1,7.661-5.922A6.848,6.848,0,0,1-121.425,814.022Z" fill="#fff"/><path d="M666.354,251.5a6.84,6.84,0,1,1-5.911-7.656A6.844,6.844,0,0,1,666.354,251.5Z" fill="#fff"/><path d="M781.15,645.98a11.193,11.193,0,1,1-9.676-12.528A11.188,11.188,0,0,1,781.15,645.98Z" fill="#fff"/><path d="M1860.031,57.5,1608.4,1057.7,768.434,635.531,1738.77-31.856Z" fill="#f8f9fa" opacity="0.2"/><path d="M255.759,29.62s86.95,11.86,92.567,25.167-110.979-1.709-119.409-8.754c-2.736,10.9-112.891-8.566-105.716-22.876C101.962,22.412-7.461,10.345-1.781,2.465S96.61-.128,100.127,3.634c-3.56-19,20.152-21.9,28.406-13.559-3.521-29.592,86.751-24.6,77.735,4.042,12.473-3.693,41.672,18.606,32.225,24.671C254.764,6.319,255.759,29.62,255.759,29.62Z" fill="#f8f9fa" opacity="0.2"/><path d="M1417.849,441.188s86.947,11.862,92.565,25.164-110.976-1.7-119.4-8.75c-2.74,10.909-112.9-8.568-105.716-22.878-21.239-.745-130.665-12.81-124.987-20.69s98.4-2.6,101.908,1.169c-3.555-19,20.152-21.9,28.409-13.561-3.521-29.589,86.749-24.594,77.73,4.041,12.479-3.69,41.675,18.609,32.23,24.676C1416.853,417.887,1417.849,441.188,1417.849,441.188Z" fill="#f8f9fa" opacity="0.2"/><path d="M875.406,195.383s38.254-.6,42.941,10.493-41.834,11.184-48.86,5.31c-2.285,9.1-17.97,18.671-33.919.054-14.391,12.5-60.218-7.2-54.239-19.125-17.708-.624-87.867-10.033-83.13-16.606s83.589.1,86.522,3.236c-2.963-15.845,16.8-18.27,23.69-11.308-2.936-24.676,49.707-23.424,42.186.459,10.4-3.08,18.286,13.393,10.412,18.456C874.574,175.952,875.406,195.383,875.406,195.383Z" fill="#f8f9fa" opacity="0.2"/><path d="M1049.267,657.385s38.245-.6,42.936,10.491-41.836,11.183-48.859,5.313c-2.283,9.094-17.968,18.669-33.917.054-14.394,12.5-60.218-7.2-54.238-19.131-17.707-.622-87.868-10.029-83.137-16.6s83.594.094,86.529,3.227c-2.968-15.836,16.795-18.259,23.685-11.3-2.94-24.673,49.706-23.423,42.185.462,10.408-3.083,18.29,13.388,10.417,18.451C1048.429,637.952,1049.267,657.385,1049.267,657.385Z" fill="#f8f9fa" opacity="0.2"/><path d="M108.469,284.53s38.247-.6,42.936,10.5-41.836,11.178-48.861,5.308c-2.28,9.1-17.965,18.673-33.914.055-14.392,12.5-60.22-7.2-54.24-19.128-17.707-.622-64.052-9.946-59.32-16.514s59.779,0,62.712,3.143c-2.97-15.839,16.8-18.268,23.686-11.307-2.939-24.671,49.711-23.422,42.186.463,10.408-3.083,18.291,13.392,10.413,18.454C107.633,265.1,108.469,284.53,108.469,284.53Z" fill="#fff" opacity="0.5"/><path d="M1515.083,330.862s49.192-.766,55.218,13.5-53.8,14.377-62.837,6.831c-2.938,11.7-23.1,24.006-43.617.062-18.513,16.084-77.448-9.252-69.751-24.593-22.776-.806-68.727-7.931-62.634-16.381s63.22-4.855,66.989-.815c-3.817-20.371,21.607-23.492,30.47-14.538-3.781-31.737,63.922-30.124,54.25.589,13.382-3.964,23.519,17.223,13.393,23.733C1514.009,305.878,1515.083,330.862,1515.083,330.862Z" fill="#fff" opacity="0.5"/><path d="M677.866-67.874s390.769,36.3,526.9,67.806-34.93,9.491-151.851-7.839S588.858-59.1,677.866-67.874Z" fill="#f8f9fa" opacity="0.2"/><path d="M747.894,250.859c14.532,2.02,731.967,92.123,768.53,108.673,35.587,16.1-51.628,10.962-163.061-1.094S543.914,258.829,472.454,245.076,621.994,233.4,747.894,250.859Z" fill="#f8f9fa" opacity="0.2"/><path d="M-37.643,146.881c172.86,6.965,556.252,71.583,683.055,108.425S495.925,244.192,367.1,237.242-190.516,140.719-37.643,146.881Z" fill="#f8f9fa" opacity="0.2"/><path d="M642.175,336.826c13.82-.433,376.889,23.4,416.933,53.654s-38.926,8.669-116.618,3.234S527.542,340.315,642.175,336.826Z" fill="#f8f9fa" opacity="0.2"/><path d="M27.319-312.19c13.818-.434,458.84,37.853,498.884,68.1s-120.88-5.78-198.567-11.217S-87.316-308.7,27.319-312.19Z" fill="#f8f9fa" opacity="0.2"/><path d="M-94.105-114.035l1.949-15.15s13.12,9.631,15.863,11.934c2.823,2.349,7.143,5.909,12.878,10.534,11.473,9.272,28.632,22.857,51.09,39.861C10.1-49.832,37.843-29.425,70.363-6.459S140.282,41.948,181.9,69.071c41.709,27.047,87.614,55.8,137.324,85.2,49.735,29.355,103.022,59.6,159.521,89.485,56.469,29.9,115.795,59.825,177.509,88.532,61.668,28.763,125.469,56.593,190.483,82.707,65.063,26.041,131.285,50.388,197.517,72.524s132.455,42.024,197.356,59.365,128.484,32.139,189.278,44.4c60.79,12.293,118.808,22.053,172.567,29.792q20.2,2.768,39.525,5.429,19.383,2.348,37.835,4.537c6.142.715,12.212,1.514,18.22,2.122s11.914,1.2,17.747,1.8c11.681,1.158,23.019,2.354,34.01,3.394q16.514,1.347,31.949,2.62c10.289.835,20.2,1.713,29.736,2.239q14.3.89,27.414,1.727c8.746.546,17.079,1.114,24.988,1.39,12.7.55,23.244.917,33.7,1.383l-.246,1.91c-10.346-.143-20.768-.177-33.3-.35-7.91-.042-16.271-.361-25.019-.662s-17.929-.608-27.472-.917c-9.563-.241-19.505-.839-29.83-1.376s-21.03-1.1-32.08-1.687c-11.046-.715-22.456-1.575-34.21-2.392-5.869-.435-11.837-.85-17.871-1.284s-12.165-1.062-18.36-1.593q-18.609-1.686-38.153-3.44-19.515-2.112-39.9-4.317c-54.345-6.209-113.143-14.33-174.963-24.943s-126.681-23.7-193.1-39.36-134.4-33.876-202.555-54.4C963.325,492.385,894.96,469.582,827.618,445c-67.3-24.654-133.51-51.116-197.668-78.611-64.2-27.446-126.094-56.205-185.128-85.063-59.06-28.844-114.907-58.162-167.166-86.713-52.219-28.587-100.583-56.659-144.629-83.139C89.062,84.906,49.435,59.909,14.847,37.25s-64.235-42.9-88.336-59.875c-10.074-7.086-21.7-13.912-29.834-19.784Z" fill="#fff" opacity="0.3"/><path d="M115.7-358.759c32.518,22.966,69.919,48.406,111.537,75.531,41.709,27.05,87.614,55.8,137.324,85.2,49.734,29.357,103.023,59.6,159.521,89.486,56.469,29.9,115.8,59.828,177.508,88.536,61.669,28.758,125.47,56.587,190.483,82.7,65.064,26.036,131.285,50.393,197.518,72.522s132.456,42.019,197.357,59.362,128.484,32.137,189.277,44.406c60.79,12.291,118.808,22.053,172.567,29.792q20.2,2.77,39.524,5.432,19.386,2.332,37.836,4.533c6.143.711,12.212,1.517,18.22,2.123s11.914,1.2,17.747,1.792c11.681,1.163,23.019,2.356,34.011,3.392q16.512,1.357,31.948,2.626c10.289.839,20.195,1.714,29.736,2.24q14.3.891,27.414,1.729c8.745.551,17.079,1.11,24.987,1.391,12.7.556,23.244.922,33.7,1.379l-.246,1.907c-10.345-.15-20.767-.178-33.3-.349-7.911-.042-16.271-.362-25.021-.656s-17.929-.6-27.471-.92c-9.562-.248-19.506-.832-29.831-1.369s-21.029-1.109-32.08-1.686c-11.046-.719-22.455-1.585-34.208-2.409q-8.806-.621-17.872-1.275c-6.041-.434-12.165-1.066-18.359-1.594q-18.61-1.682-38.153-3.448-19.516-2.1-39.9-4.3c-54.345-6.207-113.142-14.337-174.961-24.956-61.832-10.6-126.682-23.692-193.1-39.352s-134.4-33.878-202.555-54.4c-68.188-20.512-136.553-43.319-203.894-67.9-67.3-24.65-133.509-51.12-197.668-78.6-64.2-27.448-126.094-56.213-185.129-85.065-59.06-28.843-114.907-58.162-167.165-86.712-52.22-28.588-100.584-56.658-144.628-83.146C134.4-267.39,94.772-292.387,60.184-315.052s-64.235-42.89-88.336-59.873c-10.075-7.082-21.093-18.65-29.224-24.524h0L90.008-380.483C98.328-374.485,106.623-365.169,115.7-358.759Z" fill="#fff" opacity="0.3"/><path d="M-106.7-16.142c1.275.447-1.4.378-.107.831,7.316,2.619,21.643,5.967,29.868,8.637L-51.2,1.714C-42.278,4.7-32.844,7.5-23.084,10.474s19.86,6.044,30.3,9.216c10.5,3.053,21.384,6.08,32.554,9.269q8.385,2.379,17,4.825c5.746,1.62,11.654,3.093,17.588,4.683q17.825,4.7,36.564,9.618,18.82,4.59,38.521,9.4c52.588,12.492,110,24.689,171.128,35.594s125.989,20.556,193.267,28.341c67.283,7.805,136.978,13.767,207.74,17.692,70.746,3.92,142.562,5.826,214.112,5.768,71.541-.141,142.807-2.285,212.555-6.047,69.777-3.7,137.968-9.371,203.54-16.057,65.582-6.666,128.424-14.824,187.607-23.463,59.186-8.685,114.6-18.169,165.385-27.621,50.748-9.555,96.858-19.114,137.346-28.192s75.429-17.568,103.906-24.909c13.378-3.43,24.275-6.731,34.74-9.58l-9.489,73.734c-28.356,6.238-61.013,13.345-99.421,20.669-42.232,8.054-90.15,16.41-142.754,24.6-52.659,8.09-109.985,16.062-171.069,23.1-61.1,6.988-125.82,13.37-193.244,18.157-67.405,4.8-137.378,8.487-208.807,10.14-71.426,1.706-144.233,1.724-217.16-.292-72.929-2.1-145.952-6.189-217.716-12.287s-142.255-14.2-210.105-24.094c-67.85-9.872-133.06-21.524-194.333-34.329-61.288-12.8-118.635-26.759-171.013-40.853q-19.6-5.407-38.358-10.578Q88.7,51.486,70.965,46.261c-5.893-1.772-11.745-3.42-17.446-5.216s-11.33-3.581-16.873-5.335C25.574,32.194,14.775,28.835,4.384,25.47Q-11.108,20.241-25.6,15.354C-35.239,12.1-44.578,9.017-53.383,5.768Q-66.64,1-78.813-3.377c-8.093-2.906-21.143-6.327-28.353-9.164-.9-.35.973-.33.086-.671Z" fill="#fff" opacity="0.3"/><path d="M-161.638,410.744c6.529,3.123,16.04,6.551,23.341,9.828q11.581,5.169,24.2,10.835c8.372,3.833,17.286,7.53,26.488,11.436s18.739,7.951,28.587,12.121c9.943,4.056,20.267,8.125,30.853,12.39q7.935,3.182,16.108,6.448c5.461,2.18,11.082,4.232,16.727,6.388q16.975,6.4,34.8,13.155,18,6.426,36.821,13.14c50.333,17.6,105.539,35.406,164.768,52.337,59.208,16.951,122.419,33.037,188.434,47.529,66,14.522,134.806,27.5,205.076,38.574s142,20.3,213.843,27.577c71.86,7.184,143.839,12.37,214.62,15.814,70.786,3.516,140.37,4.926,207.529,5.08,67.165.17,131.876-1.385,193.011-3.806,61.139-2.458,118.662-6.086,171.524-10.152,52.851-4.18,101.038-8.833,143.513-13.595s79.257-9.5,109.347-13.792c3.892-.55,6.623-1.233,10.3-1.761l-6.629,51.518c-28.584,3.272-61.114,6.872-99.031,10.247-43.621,3.872-93.02,7.509-147.078,10.542-54.085,2.94-112.837,5.315-175.17,6.441-62.338,1.054-128.216,1.179-196.5-.524-68.277-1.685-138.916-4.689-210.668-9.821-71.746-5.091-144.589-11.955-217.185-20.815-72.578-8.969-144.922-19.856-215.641-32.608S490.524,637.9,424.37,621.8c-66.154-16.069-129.34-33.643-188.4-52-59.078-18.342-113.992-37.437-163.943-56.2q-18.666-7.134-36.517-14-17.663-7.14-34.48-13.948c-5.583-2.285-11.159-4.458-16.562-6.748q-8.067-3.47-15.933-6.837c-10.477-4.488-20.677-8.8-30.492-13.075q-14.587-6.6-28.226-12.754c-9.08-4.118-17.88-8-26.129-12.035q-12.432-5.916-23.835-11.357c-6.75-3.21-15.732-6.592-21.807-9.66Z" fill="#fff" opacity="0.3"/><path d="M-59.7-381.367c6.528,3.128,16.04,6.555,23.343,9.819q11.58,5.183,24.2,10.837c8.372,3.832,17.286,7.535,26.486,11.448l28.589,12.11c9.943,4.058,20.266,8.134,30.853,12.4q7.934,3.177,16.107,6.447c5.462,2.181,11.083,4.226,16.728,6.385q16.973,6.42,34.8,13.153,18,6.424,36.822,13.144c50.332,17.6,105.538,35.406,164.768,52.337,59.208,16.947,122.42,33.028,188.433,47.536s134.805,27.5,205.076,38.565c70.267,11.092,142,20.3,213.845,27.566,71.859,7.193,143.839,12.376,214.618,15.832,70.787,3.507,140.37,4.924,207.529,5.079s131.877-1.393,193.011-3.8c61.139-2.459,118.663-6.091,171.525-10.16,52.851-4.178,101.038-8.831,143.513-13.593,30.435-3.416,58.344-9.926,82.57-13.168l36.167,4.654-5.723,44.475c-28.584,3.274-61.114,6.874-99.03,10.243C1850.9-76.179,1801.5-72.548,1747.443-69.5c-54.083,2.929-112.836,5.306-175.167,6.422-62.34,1.065-128.217,1.186-196.5-.513-68.278-1.679-138.918-4.68-210.668-9.82-71.747-5.091-144.591-11.952-217.185-20.82-19.892-2.456-92.014-10.318-215.641-32.609C661.556-139.6,592.459-154.207,526.3-170.3s-129.339-33.655-188.4-52.009c-59.078-18.344-113.992-37.436-163.944-56.2Q155.3-285.658,137.446-292.5q-17.661-7.148-34.48-13.948c-5.583-2.288-11.159-4.461-16.56-6.764q-8.07-3.45-15.935-6.819c-10.476-4.5-20.677-8.806-30.491-13.086Q25.391-339.7,11.753-345.862c-9.081-4.117-17.878-8.009-26.13-12.031q-12.429-5.932-23.834-11.365c-6.749-3.213-15.731-6.6-21.806-9.663Z" fill="#fff" opacity="0.3"/><path d="M-199.331,703.645c.785.318-.872.324-.084.649,7.087,3,19.651,6.548,27.629,9.649q11.944,4.626,24.994,9.7c8.651,3.451,17.836,6.747,27.325,10.2Q-105.258,739.06-90,744.638c10.229,3.585,20.845,7.184,31.736,10.945q8.178,2.818,16.589,5.7c5.6,1.921,11.37,3.7,17.169,5.61q17.429,5.6,35.725,11.519,18.454,5.556,37.734,11.41C100.482,805.068,156.9,820.269,217.2,834.4c60.3,14.148,124.476,27.24,191.295,38.616,66.813,11.4,136.255,21.092,206.993,28.831,70.721,7.736,142.741,13.532,214.683,17.363,71.956,3.746,143.848,5.493,214.382,5.537,70.557.12,139.727-1.8,206.376-4.878,66.658-3.05,130.718-7.753,191.157-13.106,60.432-5.408,117.171-11.813,169.254-18.45,52.064-6.743,99.457-13.728,141.159-20.548,41.7-6.835,77.778-13.375,107.24-19.131,4.994-.974,8.745-2.051,13.365-2.969l-6.815,52.956c-27.707,4.6-59.092,9.722-95.7,14.836-42.943,5.994-91.617,12.018-144.981,17.669-53.38,5.551-111.449,10.763-173.208,14.869-61.752,4.081-127.109,7.353-195.012,8.948-67.9,1.62-138.26,1.989-209.92.283-71.65-1.639-144.541-5.03-217.384-10.436-72.846-5.478-145.607-12.936-216.939-22.339-71.327-9.384-141.217-20.719-208.315-33.679s-131.4-27.544-191.667-43.119C152.879,830.109,96.643,813.6,45.376,797.173Q26.21,790.893,7.864,784.88q-18.163-6.3-35.479-12.326c-5.761-2.024-11.489-3.939-17.043-5.993s-11.043-4.072-16.451-6.068c-10.785-4.013-21.308-7.849-31.429-11.668q-15.1-5.909-29.185-11.434c-9.384-3.693-18.466-7.177-27-10.8q-12.891-5.358-24.7-10.262c-7.873-3.275-19.269-6.855-26.253-10-.437-.2.484-.2.052-.4Z" fill="#fff" opacity="0.3"/><path d="M1857.321,968.313c-.838.108.764.534-.083.648-7.616,1.109-20.518,1.379-29.021,2.359q-12.731,1.452-26.64,3.058c-9.241,1.148-18.961,2.011-29.018,2.953q-15.063,1.443-31.232,2.978c-10.8.879-21.986,1.673-33.475,2.553q-8.621.657-17.493,1.318c-5.905.439-11.935.7-18.03,1.079q-18.276,1.008-37.476,2.1-19.262.7-39.391,1.486c-53.714,1.7-112.139,2.121-174.056.523-61.917-1.579-127.321-5.163-194.841-11.075-67.524-5.888-137.155-14.093-207.546-24.516-70.376-10.421-141.52-23.048-212.087-37.557-70.559-14.594-140.551-31.106-208.8-48.921-68.288-17.748-134.718-37.122-198.417-56.97C336,790.5,275.22,769.731,218.106,749.251c-57.093-20.532-110.362-41.094-159.068-60.7C10.377,668.844-33.7,650.088-72.32,632.931s-71.857-32.63-98.9-45.658c-4.585-2.207-8.09-4.217-12.327-6.275l-6.815,52.956c25.639,11.467,54.855,24.385,88.974,38.6,40.026,16.672,85.589,34.823,135.784,53.8,50.235,18.886,105.093,38.629,163.8,58.238,58.707,19.583,121.106,39.3,186.393,58.03,65.274,18.757,133.252,36.93,203.008,53.423C657.326,912.6,728.7,927.774,800.54,940.988c71.858,13.144,144.136,24.35,215.528,33.314,71.376,8.98,141.86,15.71,210.051,20.16s134.09,6.621,196.34,6.814c62.26.225,120.839-1.506,174.6-4.419q20.128-1.224,39.4-2.4,19.168-1.5,37.443-2.942c6.086-.5,12.116-.9,18.007-1.482s11.714-1.143,17.452-1.705c11.449-1.152,22.6-2.2,33.359-3.331q16.1-1.893,31.127-3.673c10.015-1.2,19.682-2.267,28.858-3.608q13.827-1.92,26.492-3.674c8.446-1.175,20.23-1.772,27.781-3.048.475-.079-.416-.32.051-.4Z" fill="#fff" opacity="0.3"/><path d="M-141.067,250.9c7.029,2.41,17.073,5.294,25.113,7.978,29.16,9.824,64.9,21.338,106.25,33.913S78.652,318.9,130.331,332.84C182.044,346.668,238.4,360.926,298.474,374.7c60.079,13.728,123.791,27.286,190.142,39.58,66.339,12.312,135.235,23.825,205.575,33.493C764.5,457.5,836.216,465.735,908.07,471.978c71.842,6.163,143.809,10.382,214.558,12.479s140.291,2.064,207.253-.022,131.363-6.216,191.93-11.974c60.558-5.726,117.274-13.067,169.127-21.109q19.41-3.144,37.991-6.16,18.425-3.336,35.975-6.531c5.848-1.08,11.653-2.062,17.306-3.2s11.219-2.271,16.711-3.391c10.97-2.245,21.672-4.356,31.979-6.515q15.359-3.445,29.734-6.666c9.565-2.158,18.826-4.163,27.548-6.395q13.165-3.24,25.239-6.215c6.2-1.534,11.118-3.115,16.821-4.616l-.4,3.128c-5.025,1.46-9.188,3.029-14.591,4.523q-11.9,3.3-24.892,6.9c-8.616,2.476-17.769,4.732-27.224,7.146s-19.271,4.9-29.4,7.47c-10.205,2.454-20.789,4.855-31.657,7.4q-8.181,1.9-16.565,3.85c-5.6,1.293-11.368,2.423-17.161,3.671q-17.42,3.674-35.721,7.52-18.458,3.52-37.75,7.2c-51.577,9.475-108.128,18.367-168.712,25.747-60.564,7.389-125.151,13.267-192.5,17.133s-137.439,5.743-208.945,5.473-144.4-2.658-217.325-7.036c-72.925-4.451-145.867-10.942-217.53-18.99-71.675-8-142-17.911-209.838-28.715C412.177,443.3,346.915,431.172,285.267,418.74c-61.641-12.477-119.586-25.545-172.848-38.32-53.235-12.883-101.773-25.5-144.582-37.311s-86.085-23.5-116.544-32.846c-1.195-.37,1.258-.263.08-.627Z" fill="#fff" opacity="0.3"/><path d="M1667.712,18.742c-7.529,58.5,35.734,112.288,96.626,120.124s116.366-33.244,123.9-91.745S1852.5-65.164,1791.6-73,1675.241-39.764,1667.712,18.742Z" fill="#f8f9fa" opacity="0.2"/><path d="M1122.514,74.407c-4.027,31.3-33.7,53.267-66.278,49.074s-55.717-32.959-51.689-64.255,33.7-53.274,66.275-49.082S1126.541,43.111,1122.514,74.407Z" fill="#f8f9fa" opacity="0.2"/><path d="M380.934,232.632c-6.924,53.8-57.939,91.584-113.947,84.377s-95.8-56.677-88.873-110.478,57.946-91.589,113.949-84.382S387.859,178.822,380.934,232.632Z" fill="#f8f9fa" opacity="0.2"/><path d="M277.649,145.125c-3.157,24.533-26.421,41.761-51.96,38.475s-43.683-25.843-40.526-50.377,26.425-41.762,51.96-38.476S280.806,120.589,277.649,145.125Z" fill="#f8f9fa" opacity="0.2"/><path d="M1627.1,34.9c-2.955,22.96-24.718,39.086-48.624,36.01s-40.885-24.188-37.931-47.148,24.73-39.089,48.633-36.013S1630.056,11.941,1627.1,34.9Z" fill="#f8f9fa" opacity="0.2"/><path d="M1148.012,53.25c-1.8,13.986-15.064,23.811-29.628,21.937s-24.908-14.738-23.109-28.724,15.068-23.811,29.628-21.937S1149.812,39.26,1148.012,53.25Z" fill="#f8f9fa" opacity="0.2"/><path d="M1699.15,25.664c-5.262,40.887,24.959,78.463,67.517,83.94s81.3-23.224,86.565-64.112-24.963-78.452-67.514-83.928S1704.41-15.212,1699.15,25.664Z" fill="#fff"/><path d="M-11.419,546.741a9.5,9.5,0,0,0,9.437-7.277c.733-3.468,5.056-18.6,5.056-18.6s.018,15.73.193,19.271c.273,5.25,2.985,8.256,7.287,9.43,3.418.922,18.591,5.072,18.592,5.064s-15.731.187-19.269.2c-5.657.021-8.36,3.285-9.422,7.28C-.464,565.531-4.626,580.7-4.626,580.7s-.293-15.732-.2-19.271A9.227,9.227,0,0,0-12.1,552c-3.445-.839-18.594-5.065-18.594-5.065S-14.958,546.7-11.419,546.741Z" fill="#fff"/><path d="M1292.813,84.134a6.976,6.976,0,0,0,6.925-5.343c.535-2.537,3.7-13.628,3.7-13.628s.011,11.535.142,14.123c.2,3.858,2.184,6.063,5.34,6.921,2.505.677,13.632,3.717,13.632,3.717s-11.535.136-14.129.141a6.629,6.629,0,0,0-6.914,5.344c-.672,2.505-3.716,13.627-3.716,13.627s-.216-11.533-.149-14.124a6.775,6.775,0,0,0-5.332-6.926c-2.522-.61-13.64-3.712-13.64-3.708S1290.22,84.106,1292.813,84.134Z" fill="#fff"/><path d="M496.66,80.962a6.978,6.978,0,0,0,6.923-5.343c.534-2.535,3.7-13.628,3.7-13.628s.014,11.537.146,14.123c.2,3.861,2.185,6.063,5.339,6.921,2.506.679,13.63,3.719,13.63,3.719s-11.533.136-14.126.139a6.635,6.635,0,0,0-6.915,5.344c-.671,2.5-3.719,13.626-3.719,13.626s-.211-11.527-.146-14.123a6.769,6.769,0,0,0-5.332-6.924c-2.523-.612-13.636-3.712-13.636-3.708S494.065,80.934,496.66,80.962Z" fill="#fff"/><path d="M-35.892-193.857a10.2,10.2,0,0,0,10.126-7.813c.782-3.71,5.417-19.933,5.417-19.933s.02,16.874.214,20.657c.288,5.641,3.195,8.866,7.809,10.122,3.662.994,19.936,5.436,19.936,5.436s-16.867.2-20.662.206c-6.067.029-8.964,3.53-10.112,7.817-.985,3.662-5.442,19.928-5.442,19.928s-.309-16.865-.212-20.656a9.9,9.9,0,0,0-7.8-10.127c-3.688-.9-19.943-5.431-19.943-5.426S-39.686-193.9-35.892-193.857Z" fill="#fff"/><path d="M1445.047-129.268a10.566,10.566,0,0,0,10.477-8.089c.811-3.845,5.612-20.633,5.612-20.633s.021,17.463.219,21.383c.293,5.838,3.307,9.17,8.081,10.472,3.794,1.017,20.639,5.629,20.639,5.629s-17.457.2-21.391.214c-6.276.019-9.282,3.644-10.468,8.076-1.007,3.8-5.627,20.64-5.627,20.64s-.321-17.46-.218-21.392a10.259,10.259,0,0,0-8.072-10.481c-3.822-.921-20.648-5.616-20.649-5.605S1441.114-129.322,1445.047-129.268Z" fill="#fff"/><path d="M279.659-291.306a10.545,10.545,0,0,0,10.469-8.089c.818-3.841,5.616-20.631,5.616-20.631s.021,17.46.222,21.383c.293,5.839,3.308,9.169,8.081,10.475,3.8,1.014,20.639,5.627,20.639,5.627s-17.463.2-21.391.215c-6.283.016-9.285,3.642-10.468,8.077-1.014,3.795-5.631,20.639-5.631,20.639s-.324-17.458-.214-21.391a10.27,10.27,0,0,0-8.073-10.482c-3.821-.92-20.647-5.617-20.648-5.606S275.726-291.359,279.659-291.306Z" fill="#fff"/><path d="M729.525,555.227a5.843,5.843,0,0,0,5.793-4.476c.45-2.128,3.108-11.42,3.108-11.42s.008,9.663.122,11.836c.158,3.225,1.825,5.075,4.472,5.793,2.093.569,11.418,3.115,11.418,3.115s-9.659.112-11.834.116a5.544,5.544,0,0,0-5.793,4.473c-.563,2.1-3.115,11.419-3.115,11.419s-.177-9.66-.123-11.836a5.664,5.664,0,0,0-4.463-5.8c-2.119-.51-11.426-3.112-11.427-3.106S727.345,555.2,729.525,555.227Z" fill="#fff"/></g></g><g transform="translate(0 15.609)"><g clip-path="url(#d)"><path d="M-152.084,1068.444C-85.328,992.43,108,812.519,378.166,926.393c216.183,91.119,284.467,77.7,439.16-3.457,75.892-39.814,259.342-60.814,422.583,61.712,91.013,68.313,226.83,27.155,362.114-77.455,146.428-113.228,320.959,24.467,320.959,24.467l48.495,340.377L-81.4,1564.526Z" fill="#cde8f1"/></g></g></g></svg>